<svg width="95" height="90" viewBox="0 0 95 90" fill="none" xmlns="http://www.w3.org/2000/svg">
<g id="Layer_1" clip-path="url(#clip0_2199_2130)">
<path id="Vector" d="M1.51862 89.9977C1.44753 89.9977 1.37643 89.9977 1.30534 89.9891C0.53181 89.9262 -0.00283255 89.397 1.12906e-05 88.702C0.00285514 87.984 0.548873 87.452 1.29396 87.4377C2.02483 87.4234 2.82964 87.4177 3.82214 87.4177C4.32834 87.4177 4.83739 87.4177 5.3436 87.4205C5.85264 87.4205 6.35885 87.4234 6.8679 87.4234H8.71355V64.7296C8.71355 62.8933 9.01784 62.5929 10.8806 62.5929H16.0365C17.4385 62.5929 18.8433 62.5929 20.2453 62.5929C21.8749 62.5929 22.2076 62.9333 22.2076 64.6037C22.2104 69.758 22.2076 74.9123 22.2076 80.0666V87.369H29.9087V53.9548C29.9087 51.9668 30.0936 51.7838 32.0956 51.7838H41.3552C43.1042 51.7838 43.3886 52.067 43.3886 53.7974V87.3376H51.0669V42.6794C51.0669 40.8602 51.3371 40.5856 53.1344 40.5856C54.781 40.5856 56.4276 40.5856 58.077 40.5856C59.5871 40.5856 61.0972 40.5856 62.6073 40.5885C64.2567 40.5885 64.5468 40.8888 64.5468 42.5878C64.5468 53.5343 64.5468 64.4807 64.5468 75.4272V87.3605H72.2479V31.8902C72.2479 29.7364 72.447 29.5391 74.6111 29.5391H79.9376C81.2145 29.5391 82.4886 29.5391 83.7626 29.5391C85.3893 29.5391 85.7391 29.8966 85.7391 31.5384V87.4205H90.0845C90.9632 87.4205 91.8278 87.4205 92.6951 87.4234C93.4772 87.4234 94.4157 87.6436 94.4469 88.6733C94.4583 89.0194 94.3588 89.3055 94.1512 89.52C93.8583 89.8261 93.335 89.9948 92.6838 89.9948C73.8774 89.9948 6.68873 89.9948 6.68873 89.9948H1.51862V89.9977ZM11.3413 87.3862H19.6567V73.4993C19.6595 71.2425 19.6624 68.9085 19.6368 66.6117C19.6339 66.2942 19.3552 65.2359 18.7722 65.2216C17.2735 65.1815 15.7748 65.1758 14.5065 65.1758H11.3413V87.3891V87.3862ZM74.8898 87.3862H83.1341V32.1763H74.8898V87.3862ZM32.545 87.3833H40.7694V54.4296H32.545V87.3833ZM53.6918 87.3576H61.8963V43.2143H53.6918V87.3576Z" fill="#5D5D60"/>
<path id="Vector_2" d="M23.3783 36.7952C18.5352 36.7952 13.9509 34.8816 10.4701 31.4063C6.98919 27.9339 5.07528 23.3631 5.07813 18.5377C5.0895 7.96885 12.9158 0 23.2873 0H23.4209C33.9687 0.071508 41.4623 7.69712 41.6443 18.5406C41.7239 23.2516 39.901 27.7537 36.514 31.2175C33.0473 34.7615 28.2611 36.7952 23.3754 36.7952H23.3783ZM23.364 2.47418C19.1722 2.47418 15.2107 4.14461 12.2105 7.16796C9.25005 10.1541 7.62337 14.0699 7.6319 18.1945C7.65181 27.276 14.4145 34.1265 23.364 34.1265C32.362 34.115 39.1303 27.2531 39.1303 18.1688C39.1303 14.0213 37.478 10.0912 34.4778 7.10218C31.4775 4.116 27.5331 2.47132 23.3697 2.47132H23.364V2.47418Z" fill="#5D5D60"/>
<path id="Vector_3" d="M10.4652 54.1362C9.84524 54.1362 9.39022 53.7958 9.21675 53.2009C9.01199 52.5001 9.41582 51.8594 10.2235 51.6077C10.7467 51.4446 11.2871 51.293 11.8103 51.1472C12.3023 51.0099 12.7971 50.8697 13.2863 50.721C34.7715 44.1165 52.8299 32.6666 66.9667 16.6889C68.8351 14.5779 70.5585 12.2868 72.2278 10.0701C72.9672 9.08613 73.7322 8.07071 74.4972 7.08676C74.6394 6.9037 74.7531 6.7092 74.8868 6.48609C74.9551 6.37454 75.0262 6.24869 75.1143 6.11139L75.6518 5.2533L74.665 5.4621C74.3123 5.53647 73.9739 5.61084 73.6441 5.68234C72.9473 5.83394 72.2904 5.97696 71.6363 6.10281C71.4429 6.14 71.2581 6.15716 71.0874 6.15716C70.5812 6.15716 69.9442 5.99412 69.7793 5.22183C69.5489 4.14349 70.3765 3.72874 71.113 3.56857C73.3625 3.07945 75.6148 2.60178 77.87 2.12696C78.1203 2.07548 78.3449 2.04688 78.5383 2.04688C79.1554 2.04688 79.6133 2.27284 79.8578 3.37406C80.3498 5.59939 80.8333 7.89337 81.3367 10.3847C81.5215 11.3029 81.1774 11.9693 80.438 12.1266C80.3299 12.1495 80.2276 12.161 80.128 12.161C79.3061 12.161 78.9933 11.3915 78.8796 10.9339C78.7089 10.2417 78.5582 9.53234 78.3961 8.78579C78.3193 8.43397 78.2425 8.07357 78.1601 7.69315L77.9695 6.83219L77.4121 7.51581C77.3155 7.63594 77.2301 7.73605 77.1534 7.82758C77.0026 8.00492 76.8832 8.14794 76.7723 8.30812C65.0073 25.2956 48.9367 38.5103 29.0099 47.586C23.5355 50.0774 17.8052 52.154 11.4918 53.9331C11.2928 53.9903 11.0937 54.0447 10.8946 54.0904C10.7496 54.1247 10.6045 54.1419 10.468 54.1419L10.4652 54.1362Z" fill="#5D5D60"/>
<path id="Vector_4" d="M23.4152 31.0055C23.3839 31.0055 23.3555 31.0055 23.3242 31.0055C22.5848 30.9626 22.1696 30.5536 22.1582 29.8585C22.1383 28.743 21.453 28.4055 20.9012 28.1338C18.8423 27.1184 17.7389 25.4508 17.6166 23.1711C17.5711 22.2987 17.9948 21.7381 18.7541 21.6723C18.7968 21.6694 18.8395 21.6666 18.8793 21.6666C19.5703 21.6666 20.0509 22.1614 20.1306 22.9566C20.304 24.6327 21.1344 25.671 22.599 26.0486C22.8607 26.1172 23.128 26.1487 23.3925 26.1487C24.9281 26.1487 26.2448 25.016 26.5292 23.4543C26.6828 22.6019 26.4837 21.7438 25.9718 21.0344C25.4201 20.2765 24.5556 19.7673 23.5972 19.6415L23.2474 19.5957C22.4824 19.4985 21.6918 19.4012 21.0434 19.1037C18.7456 18.0569 17.591 16.2549 17.6166 13.7435C17.6394 11.3437 18.7655 9.60746 21.0577 8.44045C21.4985 8.21449 21.9876 7.73109 22.0672 7.24198C22.3203 5.70312 23.1109 5.70312 23.3697 5.70312C24.4106 5.71743 24.621 6.67563 24.658 7.24484C24.6637 7.33351 24.6665 7.42218 24.6722 7.54231L24.6949 8.06575L24.9651 8.163C27.1833 8.96675 28.5057 10.3883 29.0119 12.5107C29.0887 12.831 29.1313 13.1571 29.1427 13.4803C29.1711 14.3785 28.7645 14.9391 28.0251 15.0221C27.971 15.0278 27.9199 15.0306 27.8687 15.0306C27.1975 15.0306 26.7226 14.5158 26.6003 13.6548C26.3017 11.5839 25.1272 10.8717 24.1944 10.64C23.9328 10.5743 23.6655 10.5428 23.3981 10.5428C21.817 10.5428 20.4747 11.6383 20.2045 13.1514C20.031 14.1239 20.2614 15.1021 20.8387 15.8372C21.3989 16.5523 22.2236 16.9785 23.1621 17.0329C24.7603 17.1272 25.9661 17.5477 26.9558 18.3543C28.5114 19.6272 29.302 21.575 29.0716 23.5687C28.8413 25.5652 27.6241 27.2814 25.8154 28.1595C25.6277 28.251 25.4372 28.334 25.2438 28.4198L24.7262 28.6486L24.7063 28.9032C24.6978 29.0147 24.6921 29.1263 24.6864 29.235C24.675 29.4495 24.6637 29.6526 24.6324 29.8385C24.4987 30.5793 24.0551 31.0055 23.4152 31.0055Z" fill="#5D5D60"/>
</g>
<defs>
<clipPath id="clip0_2199_2130">
<rect width="94.4555" height="90" fill="white"/>
</clipPath>
</defs>
</svg>
