<svg width="41" height="40" viewBox="0 0 41 40" fill="none" xmlns="http://www.w3.org/2000/svg">
<g id="prime:building">
<path id="Vector" d="M17.8009 9.69141H16.0769C15.6008 9.69141 15.2148 10.0774 15.2148 10.5534V12.2775C15.2148 12.7536 15.6008 13.1395 16.0769 13.1395H17.8009C18.277 13.1395 18.663 12.7536 18.663 12.2775V10.5534C18.663 10.0774 18.277 9.69141 17.8009 9.69141Z" fill="#262626"/>
<path id="Vector_2" d="M24.6974 9.69141H22.9734C22.4973 9.69141 22.1113 10.0774 22.1113 10.5534V12.2775C22.1113 12.7536 22.4973 13.1395 22.9734 13.1395H24.6974C25.1735 13.1395 25.5595 12.7536 25.5595 12.2775V10.5534C25.5595 10.0774 25.1735 9.69141 24.6974 9.69141Z" fill="#262626"/>
<path id="Vector_3" d="M17.8009 15.7266H16.0769C15.6008 15.7266 15.2148 16.1125 15.2148 16.5886V18.3127C15.2148 18.7887 15.6008 19.1747 16.0769 19.1747H17.8009C18.277 19.1747 18.663 18.7887 18.663 18.3127V16.5886C18.663 16.1125 18.277 15.7266 17.8009 15.7266Z" fill="#262626"/>
<path id="Vector_4" d="M24.6974 15.7266H22.9734C22.4973 15.7266 22.1113 16.1125 22.1113 16.5886V18.3127C22.1113 18.7887 22.4973 19.1747 22.9734 19.1747H24.6974C25.1735 19.1747 25.5595 18.7887 25.5595 18.3127V16.5886C25.5595 16.1125 25.1735 15.7266 24.6974 15.7266Z" fill="#262626"/>
<path id="Vector_5" d="M17.8009 21.7598H16.0769C15.6008 21.7598 15.2148 22.1457 15.2148 22.6218V24.3459C15.2148 24.822 15.6008 25.2079 16.0769 25.2079H17.8009C18.277 25.2079 18.663 24.822 18.663 24.3459V22.6218C18.663 22.1457 18.277 21.7598 17.8009 21.7598Z" fill="#262626"/>
<path id="Vector_6" d="M24.6974 21.7598H22.9734C22.4973 21.7598 22.1113 22.1457 22.1113 22.6218V24.3459C22.1113 24.822 22.4973 25.2079 22.9734 25.2079H24.6974C25.1735 25.2079 25.5595 24.822 25.5595 24.3459V22.6218C25.5595 22.1457 25.1735 21.7598 24.6974 21.7598Z" fill="#262626"/>
<path id="Vector_7" d="M32.7387 34.3169H31.7506V4.17944C31.7455 3.78793 31.5877 3.4139 31.3108 3.13704C31.034 2.86018 30.6599 2.70238 30.2684 2.69727H10.5062C10.1147 2.70238 9.74063 2.86018 9.46377 3.13704C9.18691 3.4139 9.02911 3.78793 9.024 4.17944V34.3169H8.03588C7.64279 34.3169 7.26579 34.4731 6.98783 34.751C6.70987 35.029 6.55371 35.406 6.55371 35.7991C6.55371 36.1922 6.70987 36.5692 6.98783 36.8471C7.26579 37.1251 7.64279 37.2812 8.03588 37.2812H32.7387C33.1318 37.2812 33.5088 37.1251 33.7868 36.8471C34.0647 36.5692 34.2209 36.1922 34.2209 35.7991C34.2209 35.406 34.0647 35.029 33.7868 34.751C33.5088 34.4731 33.1318 34.3169 32.7387 34.3169ZM28.7863 34.3169H18.4111V29.8704C18.4111 29.6083 18.307 29.357 18.1217 29.1717C17.9364 28.9864 17.685 28.8823 17.423 28.8823H15.4467C15.1847 28.8823 14.9333 28.9864 14.748 29.1717C14.5627 29.357 14.4586 29.6083 14.4586 29.8704V34.3169H11.9883V5.66161H28.7863V34.3169Z" fill="#262626"/>
</g>
</svg>
