<svg width="24" height="25" viewBox="0 0 24 25" fill="none" xmlns="http://www.w3.org/2000/svg">
<g id="ic:round-bed">
<path id="Vector" d="M21 11.1706V8.39062C21 6.74062 19.65 5.39062 18 5.39062H14C13.23 5.39062 12.53 5.69063 12 6.17063C11.47 5.69063 10.77 5.39062 10 5.39062H6C4.35 5.39062 3 6.74062 3 8.39062V11.1706C2.39 11.7206 2 12.5106 2 13.3906V18.3906C2 18.9406 2.45 19.3906 3 19.3906C3.55 19.3906 4 18.9406 4 18.3906V17.3906H20V18.3906C20 18.9406 20.45 19.3906 21 19.3906C21.55 19.3906 22 18.9406 22 18.3906V13.3906C22 12.5106 21.61 11.7206 21 11.1706ZM14 7.39062H18C18.55 7.39062 19 7.84062 19 8.39062V10.3906H13V8.39062C13 7.84062 13.45 7.39062 14 7.39062ZM5 8.39062C5 7.84062 5.45 7.39062 6 7.39062H10C10.55 7.39062 11 7.84062 11 8.39062V10.3906H5V8.39062ZM4 15.3906V13.3906C4 12.8406 4.45 12.3906 5 12.3906H19C19.55 12.3906 20 12.8406 20 13.3906V15.3906H4Z" fill="#001147"/>
</g>
</svg>
