<svg width="24" height="25" viewBox="0 0 24 25" fill="none" xmlns="http://www.w3.org/2000/svg">
<g id="bi:buildings">
<g id="Group">
<path id="Vector" d="M21.3824 2.15144C21.476 2.20931 21.5532 2.29013 21.6068 2.38622C21.6604 2.48232 21.6886 2.59051 21.6886 2.70054V22.0806C21.6886 22.2519 21.6206 22.4162 21.4994 22.5374C21.3783 22.6585 21.2139 22.7266 21.0426 22.7266H17.1666C16.9953 22.7266 16.831 22.6585 16.7098 22.5374C16.5887 22.4162 16.5206 22.2519 16.5206 22.0806V20.1426H15.2286V22.0806C15.2286 22.2519 15.1606 22.4162 15.0394 22.5374C14.9183 22.6585 14.7539 22.7266 14.5826 22.7266H2.95459C2.78326 22.7266 2.61895 22.6585 2.4978 22.5374C2.37665 22.4162 2.30859 22.2519 2.30859 22.0806V14.9746C2.3087 14.839 2.35142 14.707 2.43072 14.5971C2.51002 14.4872 2.62188 14.405 2.75046 14.3621L10.0606 11.9254V7.86854C10.0606 7.74867 10.094 7.63117 10.1569 7.52917C10.2199 7.42718 10.31 7.34472 10.4172 7.29102L20.7532 2.12301C20.8518 2.07366 20.9614 2.05037 21.0715 2.05535C21.1816 2.06032 21.2887 2.0934 21.3824 2.15144ZM10.0606 13.2872L3.6006 15.4397V21.4346H10.0606V13.2872ZM11.3526 21.4346H13.9366V19.4966C13.9366 19.3252 14.0047 19.1609 14.1258 19.0398C14.247 18.9186 14.4113 18.8506 14.5826 18.8506H17.1666C17.3379 18.8506 17.5023 18.9186 17.6234 19.0398C17.7446 19.1609 17.8126 19.3252 17.8126 19.4966V21.4346H20.3966V3.74577L11.3526 8.26777V21.4346Z" fill="#001147"/>
<path id="Vector_2" d="M4.89062 16.2667H6.18263V17.5587H4.89062V16.2667ZM7.47463 16.2667H8.76663V17.5587H7.47463V16.2667ZM4.89062 18.8507H6.18263V20.1427H4.89062V18.8507ZM7.47463 18.8507H8.76663V20.1427H7.47463V18.8507ZM12.6426 13.6827H13.9346V14.9747H12.6426V13.6827ZM15.2266 13.6827H16.5186V14.9747H15.2266V13.6827ZM12.6426 16.2667H13.9346V17.5587H12.6426V16.2667ZM15.2266 16.2667H16.5186V17.5587H15.2266V16.2667ZM17.8106 13.6827H19.1026V14.9747H17.8106V13.6827ZM17.8106 16.2667H19.1026V17.5587H17.8106V16.2667ZM12.6426 11.0987H13.9346V12.3907H12.6426V11.0987ZM15.2266 11.0987H16.5186V12.3907H15.2266V11.0987ZM17.8106 11.0987H19.1026V12.3907H17.8106V11.0987ZM12.6426 8.51467H13.9346V9.80667H12.6426V8.51467ZM15.2266 8.51467H16.5186V9.80667H15.2266V8.51467ZM17.8106 8.51467H19.1026V9.80667H17.8106V8.51467ZM17.8106 5.93066H19.1026V7.22267H17.8106V5.93066Z" fill="#001147"/>
</g>
</g>
</svg>
