<svg width="24" height="24" viewBox="0 0 24 24" fill="none" xmlns="http://www.w3.org/2000/svg">
<g id="bi:buildings">
<g id="Group">
<path id="Vector" d="M21.3824 1.76081C21.476 1.81869 21.5532 1.8995 21.6068 1.9956C21.6604 2.09169 21.6886 2.19988 21.6886 2.30991V21.6899C21.6886 21.8613 21.6206 22.0256 21.4994 22.1467C21.3783 22.2679 21.2139 22.3359 21.0426 22.3359H17.1666C16.9953 22.3359 16.831 22.2679 16.7098 22.1467C16.5887 22.0256 16.5206 21.8613 16.5206 21.6899V19.7519H15.2286V21.6899C15.2286 21.8613 15.1606 22.0256 15.0394 22.1467C14.9183 22.2679 14.7539 22.3359 14.5826 22.3359H2.95459C2.78326 22.3359 2.61895 22.2679 2.4978 22.1467C2.37665 22.0256 2.30859 21.8613 2.30859 21.6899V14.5839C2.3087 14.4484 2.35142 14.3163 2.43072 14.2064C2.51002 14.0965 2.62188 14.0143 2.75046 13.9715L10.0606 11.5348V7.47792C10.0606 7.35805 10.094 7.24054 10.1569 7.13855C10.2199 7.03655 10.31 6.95409 10.4172 6.90039L20.7532 1.73239C20.8518 1.68304 20.9614 1.65975 21.0715 1.66472C21.1816 1.6697 21.2887 1.70278 21.3824 1.76081ZM10.0606 12.8966L3.6006 15.049V21.0439H10.0606V12.8966ZM11.3526 21.0439H13.9366V19.1059C13.9366 18.9346 14.0047 18.7703 14.1258 18.6491C14.247 18.528 14.4113 18.4599 14.5826 18.4599H17.1666C17.3379 18.4599 17.5023 18.528 17.6234 18.6491C17.7446 18.7703 17.8126 18.9346 17.8126 19.1059V21.0439H20.3966V3.35514L11.3526 7.87715V21.0439Z" fill="#5D5D60"/>
<path id="Vector_2" d="M4.89062 15.8761H6.18263V17.1681H4.89062V15.8761ZM7.47463 15.8761H8.76663V17.1681H7.47463V15.8761ZM4.89062 18.4601H6.18263V19.7521H4.89062V18.4601ZM7.47463 18.4601H8.76663V19.7521H7.47463V18.4601ZM12.6426 13.292H13.9346V14.5841H12.6426V13.292ZM15.2266 13.292H16.5186V14.5841H15.2266V13.292ZM12.6426 15.8761H13.9346V17.1681H12.6426V15.8761ZM15.2266 15.8761H16.5186V17.1681H15.2266V15.8761ZM17.8106 13.292H19.1026V14.5841H17.8106V13.292ZM17.8106 15.8761H19.1026V17.1681H17.8106V15.8761ZM12.6426 10.708H13.9346V12H12.6426V10.708ZM15.2266 10.708H16.5186V12H15.2266V10.708ZM17.8106 10.708H19.1026V12H17.8106V10.708ZM12.6426 8.12404H13.9346V9.41604H12.6426V8.12404ZM15.2266 8.12404H16.5186V9.41604H15.2266V8.12404ZM17.8106 8.12404H19.1026V9.41604H17.8106V8.12404ZM17.8106 5.54004H19.1026V6.83204H17.8106V5.54004Z" fill="#5D5D60"/>
</g>
</g>
</svg>
