<svg width="41" height="40" viewBox="0 0 41 40" fill="none" xmlns="http://www.w3.org/2000/svg">
<g id="bx:home">
<path id="Vector" d="M5.38799 21.6657H7.05466V33.3324C7.05466 35.1707 8.54966 36.6657 10.388 36.6657H30.388C32.2263 36.6657 33.7213 35.1707 33.7213 33.3324V21.6657H35.388C35.7176 21.6656 36.0397 21.5678 36.3138 21.3847C36.5878 21.2016 36.8013 20.9413 36.9275 20.6368C37.0536 20.3323 37.0866 19.9972 37.0223 19.674C36.958 19.3507 36.7993 19.0538 36.5663 18.8207L21.5663 3.8207C21.4117 3.66579 21.228 3.54289 21.0258 3.45904C20.8236 3.37519 20.6069 3.33203 20.388 3.33203C20.1691 3.33203 19.9524 3.37519 19.7502 3.45904C19.548 3.54289 19.3643 3.66579 19.2097 3.8207L4.20966 18.8207C3.97664 19.0538 3.81796 19.3507 3.75369 19.674C3.68941 19.9972 3.72241 20.3323 3.84853 20.6368C3.97464 20.9413 4.18821 21.2016 4.46223 21.3847C4.73624 21.5678 5.05841 21.6656 5.38799 21.6657ZM17.0547 33.3324V24.999H23.7213V33.3324H17.0547ZM20.388 7.3557L30.388 17.3557V24.999L30.3897 33.3324H27.0547V24.999C27.0547 23.1607 25.5597 21.6657 23.7213 21.6657H17.0547C15.2163 21.6657 13.7213 23.1607 13.7213 24.999V33.3324H10.388V17.3557L20.388 7.3557Z" fill="#A3A3A3"/>
</g>
</svg>
