<svg width="24" height="25" viewBox="0 0 24 25" fill="none" xmlns="http://www.w3.org/2000/svg">
<path d="M21 2.3584H3C2.175 2.3584 1.5 3.0334 1.5 3.8584V21.8584C1.5 22.6834 2.175 23.3584 3 23.3584H14.25V21.8584C14.25 19.7584 15.9 18.1084 18 18.1084V16.6084C15.075 16.6084 12.75 18.9334 12.75 21.8584H10.5V18.8584H9V21.8584H3V3.8584H9V14.3584H10.5V10.6084H13.5V9.1084H10.5V3.8584H21V9.1084H18V10.6084H21V21.8584H18V23.3584H21C21.825 23.3584 22.5 22.6834 22.5 21.8584V3.8584C22.5 3.0334 21.825 2.3584 21 2.3584Z" fill="black"/>
</svg>
