<svg width="24" height="25" viewBox="0 0 24 25" fill="none" xmlns="http://www.w3.org/2000/svg">
<path d="M21.75 12.6953C21.75 7.31078 17.3845 2.94532 12 2.94531C6.61547 2.94531 2.25 7.31078 2.25 12.6953C2.25 18.0798 6.61547 22.4453 12 22.4453C17.3845 22.4453 21.75 18.0798 21.75 12.6953ZM17.0302 11.3505L12.5302 15.8505C12.3895 15.991 12.1988 16.07 12 16.07C11.8012 16.07 11.6105 15.991 11.4698 15.8505L6.96984 11.3505C6.83513 11.2087 6.76113 11.0199 6.76364 10.8243C6.76614 10.6287 6.84495 10.4419 6.98325 10.3036C7.12155 10.1653 7.3084 10.0865 7.50397 10.084C7.69955 10.0814 7.88836 10.1554 8.03015 10.2902L12 14.2595L15.9698 10.2902C16.1116 10.1554 16.3005 10.0815 16.496 10.084C16.6916 10.0865 16.8785 10.1653 17.0168 10.3036C17.1551 10.4419 17.2339 10.6287 17.2364 10.8243C17.2389 11.0199 17.1649 11.2087 17.0302 11.3505Z" fill="#242424" fill-opacity="0.2"/>
</svg>
