<svg width="25" height="24" viewBox="0 0 25 24" fill="none" xmlns="http://www.w3.org/2000/svg">
<path d="M14.2577 12L18.7108 7.54687C18.9222 7.3359 19.041 7.04962 19.0413 6.75099C19.0416 6.45237 18.9232 6.16587 18.7122 5.95453C18.5012 5.74319 18.215 5.62431 17.9163 5.62404C17.6177 5.62378 17.3312 5.74215 17.1199 5.95312L12.6667 10.4062L8.21362 5.95312C8.00228 5.74178 7.71563 5.62305 7.41675 5.62305C7.11786 5.62305 6.83122 5.74178 6.61987 5.95312C6.40853 6.16447 6.28979 6.45111 6.28979 6.75C6.28979 7.04888 6.40853 7.33553 6.61987 7.54687L11.073 12L6.61987 16.4531C6.40853 16.6645 6.28979 16.9511 6.28979 17.25C6.28979 17.5489 6.40853 17.8355 6.61987 18.0469C6.83122 18.2582 7.11786 18.3769 7.41675 18.3769C7.71563 18.3769 8.00228 18.2582 8.21362 18.0469L12.6667 13.5937L17.1199 18.0469C17.3312 18.2582 17.6179 18.3769 17.9167 18.3769C18.2156 18.3769 18.5023 18.2582 18.7136 18.0469C18.925 17.8355 19.0437 17.5489 19.0437 17.25C19.0437 16.9511 18.925 16.6645 18.7136 16.4531L14.2577 12Z" fill="#242424"/>
</svg>
