<svg width="25" height="25" viewBox="0 0 25 25" fill="none" xmlns="http://www.w3.org/2000/svg">
<g id="carbon:email">
<path id="Vector" d="M21.5 4.52344H3.5C3.10218 4.52344 2.72064 4.68147 2.43934 4.96278C2.15804 5.24408 2 5.62561 2 6.02344V18.0234C2 18.4213 2.15804 18.8028 2.43934 19.0841C2.72064 19.3654 3.10218 19.5234 3.5 19.5234H21.5C21.8978 19.5234 22.2794 19.3654 22.5607 19.0841C22.842 18.8028 23 18.4213 23 18.0234V6.02344C23 5.62561 22.842 5.24408 22.5607 4.96278C22.2794 4.68147 21.8978 4.52344 21.5 4.52344ZM19.85 6.02344L12.5 11.1084L5.15 6.02344H19.85ZM3.5 18.0234V6.70594L12.0725 12.6384C12.198 12.7255 12.3472 12.7722 12.5 12.7722C12.6528 12.7722 12.802 12.7255 12.9275 12.6384L21.5 6.70594V18.0234H3.5Z" fill="#005EE3"/>
</g>
</svg>
