<svg width="24" height="25" viewBox="0 0 24 25" fill="none" xmlns="http://www.w3.org/2000/svg">
<g id="lets-icons:filter-big">
<g id="Group">
<path id="Vector (Stroke)" fill-rule="evenodd" clip-rule="evenodd" d="M9.25 8.02344C9.25 7.60922 9.58579 7.27344 10 7.27344H20C20.4142 7.27344 20.75 7.60922 20.75 8.02344C20.75 8.43765 20.4142 8.77344 20 8.77344H10C9.58579 8.77344 9.25 8.43765 9.25 8.02344ZM3.25 16.0234C3.25 15.6092 3.58579 15.2734 4 15.2734H14C14.4142 15.2734 14.75 15.6092 14.75 16.0234C14.75 16.4376 14.4142 16.7734 14 16.7734H4C3.58579 16.7734 3.25 16.4376 3.25 16.0234Z" fill="#262626"/>
<path id="Vector (Stroke)_2" fill-rule="evenodd" clip-rule="evenodd" d="M9.25 8.02344C9.25 6.7808 8.24264 5.77344 7 5.77344C5.75736 5.77344 4.75 6.7808 4.75 8.02344C4.75 9.26608 5.75736 10.2734 7 10.2734C8.24264 10.2734 9.25 9.26608 9.25 8.02344ZM7 4.27344C9.07107 4.27344 10.75 5.95237 10.75 8.02344C10.75 10.0945 9.07107 11.7734 7 11.7734C4.92893 11.7734 3.25 10.0945 3.25 8.02344C3.25 5.95237 4.92893 4.27344 7 4.27344Z" fill="#262626"/>
<path id="Vector (Stroke)_3" fill-rule="evenodd" clip-rule="evenodd" d="M19.25 16.0234C19.25 14.7808 18.2426 13.7734 17 13.7734C15.7574 13.7734 14.75 14.7808 14.75 16.0234C14.75 17.2661 15.7574 18.2734 17 18.2734C18.2426 18.2734 19.25 17.2661 19.25 16.0234ZM17 12.2734C19.0711 12.2734 20.75 13.9524 20.75 16.0234C20.75 18.0945 19.0711 19.7734 17 19.7734C14.9289 19.7734 13.25 18.0945 13.25 16.0234C13.25 13.9524 14.9289 12.2734 17 12.2734Z" fill="#262626"/>
</g>
</g>
</svg>
