<svg width="64" height="65" viewBox="0 0 64 65" fill="none" xmlns="http://www.w3.org/2000/svg">
<g clip-path="url(#clip0_5643_5746)">
<path d="M63.9922 29.6094H-0.0078125V34.9294H63.9922V29.6094Z" fill="#005EE3"/>
<path d="M42.6622 21.6012C47.6222 21.6012 51.7822 18.1912 52.9722 13.6012H63.9922V8.28125H52.9722C51.7822 3.69125 47.6222 0.28125 42.6622 0.28125C37.7022 0.28125 33.5422 3.69125 32.3522 8.28125H-0.0078125V13.6012H32.3522C33.5422 18.1912 37.7022 21.6012 42.6622 21.6012ZM42.6622 5.60125C45.6022 5.60125 48.0022 8.00125 48.0022 10.9412C48.0022 13.8813 45.6022 16.2812 42.6622 16.2812C39.7222 16.2812 37.3222 13.8813 37.3222 10.9412C37.3222 8.00125 39.7222 5.60125 42.6622 5.60125Z" fill="#005EE3"/>
<path d="M21.3222 42.9531C16.3622 42.9531 12.2022 46.3631 11.0122 50.9531H-0.0078125V56.2731H11.0122C12.2022 60.8631 16.3622 64.2731 21.3222 64.2731C26.2822 64.2731 30.4422 60.8631 31.6322 56.2731H63.9922V50.9531H31.6322C30.4422 46.3631 26.2822 42.9531 21.3222 42.9531ZM21.3222 58.9531C18.3822 58.9531 15.9822 56.5531 15.9822 53.6131C15.9822 50.6731 18.3822 48.2731 21.3222 48.2731C24.2622 48.2731 26.6622 50.6731 26.6622 53.6131C26.6622 56.5531 24.2622 58.9531 21.3222 58.9531Z" fill="#005EE3"/>
</g>
<defs>
<clipPath id="clip0_5643_5746">
<rect width="64" height="63.99" fill="white" transform="translate(-0.0078125 0.28125)"/>
</clipPath>
</defs>
</svg>
