<svg width="64" height="65" viewBox="0 0 64 65" fill="none" xmlns="http://www.w3.org/2000/svg">
<path d="M53.3213 11.424C53.2179 9.90678 52.5422 8.48541 51.4308 7.44732C50.3195 6.40924 48.8554 5.83189 47.3346 5.83203H16.668L16.2573 5.84536C14.7401 5.94945 13.319 6.62581 12.2814 7.73766C11.2438 8.84952 10.6671 10.3139 10.668 11.8347V53.1627L10.6813 53.5734C10.7847 55.0906 11.4604 56.512 12.5718 57.5501C13.6831 58.5882 15.1472 59.1655 16.668 59.1654H36.8493L32.8493 55.1654H16.668L16.396 55.1467C15.9172 55.081 15.4783 54.8441 15.1607 54.4799C14.843 54.1156 14.668 53.6487 14.668 53.1654V11.8347L14.6866 11.5627C14.7524 11.0839 14.9893 10.6451 15.3535 10.3274C15.7177 10.0097 16.1847 9.83472 16.668 9.8347H47.3346L47.6066 9.85336C48.0854 9.91909 48.5243 10.156 48.8419 10.5202C49.1596 10.8845 49.3346 11.3514 49.3346 11.8347V42.68L52.4253 39.5894C52.708 39.3067 53.012 39.056 53.332 38.8427V11.832L53.3213 11.424ZM43.436 59.1627C43.3685 59.1664 43.3008 59.1664 43.2333 59.1627C42.7378 59.1378 42.2693 58.9297 41.9186 58.5787L35.252 51.9067C34.8771 51.5312 34.6668 51.0221 34.6673 50.4915C34.6678 49.9609 34.8791 49.4522 35.2546 49.0774C35.6302 48.7025 36.1393 48.4922 36.6699 48.4927C37.2005 48.4932 37.7091 48.7045 38.084 49.08L43.3346 54.336L55.2546 42.416C55.4392 42.2251 55.66 42.0728 55.904 41.9681C56.1481 41.8634 56.4106 41.8084 56.6761 41.8062C56.9417 41.804 57.205 41.8548 57.4508 41.9554C57.6965 42.0561 57.9197 42.2047 58.1074 42.3926C58.2951 42.5805 58.4435 42.8038 58.544 43.0497C58.6444 43.2955 58.6949 43.5589 58.6925 43.8245C58.69 44.09 58.6347 44.3524 58.5298 44.5964C58.4249 44.8403 58.2724 45.061 58.0813 45.2454L44.748 58.5787C44.398 58.9291 43.9305 59.1372 43.436 59.1627ZM36.908 44.4987C36.7463 44.4923 36.5844 44.4923 36.4226 44.4987H29.988C29.4575 44.4987 28.9488 44.288 28.5738 43.9129C28.1987 43.5378 27.988 43.0291 27.988 42.4987C27.988 41.9683 28.1987 41.4596 28.5738 41.0845C28.9488 40.7094 29.4575 40.4987 29.988 40.4987H43.332C43.8624 40.4987 44.3711 40.7094 44.7462 41.0845C45.1213 41.4596 45.332 41.9683 45.332 42.4987C45.332 43.0291 45.1213 43.5378 44.7462 43.9129C44.3711 44.288 43.8624 44.4987 43.332 44.4987H36.908ZM24.0013 21.1707C24.0013 21.8779 23.7204 22.5562 23.2203 23.0563C22.7202 23.5564 22.0419 23.8374 21.3346 23.8374C20.6274 23.8374 19.9491 23.5564 19.449 23.0563C18.9489 22.5562 18.668 21.8779 18.668 21.1707C18.668 20.4635 18.9489 19.7852 19.449 19.2851C19.9491 18.785 20.6274 18.504 21.3346 18.504C22.0419 18.504 22.7202 18.785 23.2203 19.2851C23.7204 19.7852 24.0013 20.4635 24.0013 21.1707ZM27.9906 21.1654C27.9906 20.6349 28.2013 20.1262 28.5764 19.7512C28.9515 19.3761 29.4602 19.1654 29.9906 19.1654H43.3346C43.8651 19.1654 44.3738 19.3761 44.7489 19.7512C45.1239 20.1262 45.3346 20.6349 45.3346 21.1654C45.3346 21.6958 45.1239 22.2045 44.7489 22.5796C44.3738 22.9547 43.8651 23.1654 43.3346 23.1654H29.9906C29.4602 23.1654 28.9515 22.9547 28.5764 22.5796C28.2013 22.2045 27.9906 21.6958 27.9906 21.1654ZM29.9906 29.832C29.4602 29.832 28.9515 30.0427 28.5764 30.4178C28.2013 30.7929 27.9906 31.3016 27.9906 31.832C27.9906 32.3625 28.2013 32.8712 28.5764 33.2462C28.9515 33.6213 29.4602 33.832 29.9906 33.832H43.3346C43.5973 33.832 43.8573 33.7803 44.1 33.6798C44.3427 33.5793 44.5631 33.432 44.7489 33.2462C44.9346 33.0605 45.0819 32.8401 45.1824 32.5974C45.2829 32.3547 45.3346 32.0947 45.3346 31.832C45.3346 31.5694 45.2829 31.3093 45.1824 31.0667C45.0819 30.824 44.9346 30.6035 44.7489 30.4178C44.5631 30.2321 44.3427 30.0848 44.1 29.9843C43.8573 29.8838 43.5973 29.832 43.3346 29.832H29.9906ZM21.3346 34.4987C22.0419 34.4987 22.7202 34.2177 23.2203 33.7176C23.7204 33.2176 24.0013 32.5393 24.0013 31.832C24.0013 31.1248 23.7204 30.4465 23.2203 29.9464C22.7202 29.4463 22.0419 29.1654 21.3346 29.1654C20.6274 29.1654 19.9491 29.4463 19.449 29.9464C18.9489 30.4465 18.668 31.1248 18.668 31.832C18.668 32.5393 18.9489 33.2176 19.449 33.7176C19.9491 34.2177 20.6274 34.4987 21.3346 34.4987ZM24.0013 42.4934C24.0013 43.2006 23.7204 43.8789 23.2203 44.379C22.7202 44.8791 22.0419 45.16 21.3346 45.16C20.6274 45.16 19.9491 44.8791 19.449 44.379C18.9489 43.8789 18.668 43.2006 18.668 42.4934C18.668 41.7861 18.9489 41.1078 19.449 40.6077C19.9491 40.1077 20.6274 39.8267 21.3346 39.8267C22.0419 39.8267 22.7202 40.1077 23.2203 40.6077C23.7204 41.1078 24.0013 41.7861 24.0013 42.4934Z" fill="white"/>
</svg>
