<svg width="12" height="13" viewBox="0 0 12 13" fill="none" xmlns="http://www.w3.org/2000/svg">
<path d="M0.856 7.73525C0.3852 7.73525 0 8.12045 0 8.59125V11.1593C0 11.63 0.3852 12.0153 0.856 12.0153H3.424C3.8948 12.0153 4.28 11.63 4.28 11.1593C4.28 10.6884 3.8948 10.3033 3.424 10.3033H1.712V8.59125C1.712 8.12045 1.3268 7.73525 0.856 7.73525ZM0.856 4.31125C1.3268 4.31125 1.712 3.92605 1.712 3.45525V1.74325H3.424C3.8948 1.74325 4.28 1.35805 4.28 0.88725C4.28 0.41645 3.8948 0.03125 3.424 0.03125H0.856C0.3852 0.03125 0 0.41645 0 0.88725V3.45525C0 3.92605 0.3852 4.31125 0.856 4.31125ZM10.272 10.3033H8.56C8.0892 10.3033 7.704 10.6884 7.704 11.1593C7.704 11.63 8.0892 12.0153 8.56 12.0153H11.128C11.5988 12.0153 11.984 11.63 11.984 11.1593V8.59125C11.984 8.12045 11.5988 7.73525 11.128 7.73525C10.6572 7.73525 10.272 8.12045 10.272 8.59125V10.3033ZM7.704 0.88725C7.704 1.35805 8.0892 1.74325 8.56 1.74325H10.272V3.45525C10.272 3.92605 10.6572 4.31125 11.128 4.31125C11.5988 4.31125 11.984 3.92605 11.984 3.45525V0.88725C11.984 0.41645 11.5988 0.03125 11.128 0.03125H8.56C8.0892 0.03125 7.704 0.41645 7.704 0.88725Z" fill="white"/>
</svg>
