<?xml version="1.0" encoding="utf-8"?>
<!-- Generator: Adobe Illustrator 24.1.2, SVG Export Plug-In . SVG Version: 6.00 Build 0)  -->
<svg version="1.1" id="Layer_1" xmlns="http://www.w3.org/2000/svg" xmlns:xlink="http://www.w3.org/1999/xlink" x="0px" y="0px"
	 viewBox="0 0 24 25" style="enable-background:new 0 0 24 25;" xml:space="preserve">
<style type="text/css">
	.st0{fill:#49AA25;}
</style>
<g id="ph:heart-bold">
	<path id="Vector" class="st0" d="M16.6,4c-1.8,0-3.4,0.7-4.5,2C11,4.7,9.4,4,7.6,4C6,4,4.5,4.6,3.4,5.8C2.3,7,1.7,8.5,1.7,10.2
		c0,6.8,9.5,12.2,9.9,12.4c0.2,0.1,0.3,0.1,0.5,0.1s0.4,0,0.5-0.1c0.4-0.2,9.9-5.6,9.9-12.4c0-1.6-0.6-3.2-1.7-4.4S18.1,4,16.6,4z
		 M16.1,17.3c-1.2,1.1-2.6,2.1-4,3c-1.4-0.9-2.7-1.9-4-3c-1.9-1.7-4.2-4.4-4.2-7.2c0-1,0.4-2,1.1-2.8c0.7-0.7,1.7-1.2,2.7-1.2
		c1.6,0,2.9,0.9,3.5,2.3c0.1,0.2,0.2,0.4,0.4,0.5c0.2,0.1,0.4,0.2,0.6,0.2c0.2,0,0.4-0.1,0.6-0.2c0.2-0.1,0.3-0.3,0.4-0.5
		c0.6-1.4,1.9-2.3,3.5-2.3c1,0,2,0.4,2.7,1.2c0.7,0.7,1.1,1.7,1.1,2.8C20.3,12.9,18,15.6,16.1,17.3z"/>
</g>
<path class="st0" d="M22.5,10c0,6.9-9.6,12.4-10,12.7c-0.1,0.1-0.2,0.1-0.4,0.1c-0.1,0-0.2,0-0.4-0.1c-0.4-0.2-10-5.8-10-12.7
	c0-1.6,0.6-3.2,1.7-4.3s2.5-1.8,4.1-1.8c1.9,0,3.6,0.9,4.6,2.3c1-1.5,2.7-2.3,4.6-2.3c1.5,0,3,0.6,4.1,1.8
	C21.9,6.8,22.5,8.4,22.5,10z"/>
</svg>
