<svg width="24" height="25" viewBox="0 0 24 25" fill="none" xmlns="http://www.w3.org/2000/svg">
<g id="ph:heart-bold">
<path id="Vector" d="M16.5582 3.99023C14.7604 3.99023 13.1648 4.73367 12.0838 6.01148C11.0028 4.73367 9.4072 3.99023 7.60937 3.99023C6.04352 3.99222 4.54234 4.64475 3.43512 5.8047C2.32789 6.96465 1.70502 8.53732 1.70312 10.1777C1.70313 16.9596 11.1719 22.3784 11.5746 22.6062C11.7311 22.6945 11.9061 22.7407 12.0838 22.7407C12.2615 22.7407 12.4365 22.6945 12.593 22.6062C12.9957 22.3784 22.4645 16.9596 22.4645 10.1777C22.4626 8.53732 21.8397 6.96465 20.7325 5.8047C19.6253 4.64475 18.1241 3.99222 16.5582 3.99023ZM16.0669 17.3365C14.8206 18.4445 13.4883 19.4417 12.0838 20.3177C10.6793 19.4417 9.347 18.4445 8.10066 17.3365C6.16145 15.5937 3.85085 12.9359 3.85085 10.1777C3.85085 9.13344 4.24684 8.13193 4.9517 7.3935C5.65656 6.65508 6.61255 6.24023 7.60937 6.24023C9.20227 6.24023 10.5356 7.12148 11.0896 8.54086C11.1702 8.74777 11.3078 8.92484 11.4849 9.04948C11.662 9.17412 11.8705 9.24069 12.0838 9.24069C12.2971 9.24069 12.5056 9.17412 12.6827 9.04948C12.8598 8.92484 12.9974 8.74777 13.078 8.54086C13.632 7.12148 14.9653 6.24023 16.5582 6.24023C17.5551 6.24023 18.511 6.65508 19.2159 7.3935C19.9208 8.13193 20.3168 9.13344 20.3168 10.1777C20.3168 12.9359 18.0062 15.5937 16.0669 17.3365Z" fill="#49AA25"/>
</g>
</svg>
