<svg width="41" height="40" viewBox="0 0 41 40" fill="none" xmlns="http://www.w3.org/2000/svg">
<g id="tdesign:sailing-hotel">
<path id="Vector" d="M12.0547 1.3418L14.0064 1.6818C20.6514 2.8368 24.9797 6.35013 27.5964 10.8151C29.2197 13.5835 30.1597 16.6801 30.633 19.7351C31.0997 22.7551 31.1164 25.7751 30.858 28.4818C30.6264 30.9201 30.1647 33.1801 29.568 34.9901H35.388V38.3235H7.05469V34.9901H12.0547V1.3418ZM15.388 34.9901H26.0147C26.513 33.8101 26.9947 32.0785 27.3147 29.9901H15.388V34.9901ZM15.388 26.6568H27.6497C27.7314 25.0468 27.6997 23.3568 27.5214 21.6568H15.388V26.6568ZM15.388 18.3235H26.9714C26.5822 16.5885 25.9781 14.9088 25.173 13.3235H15.388V18.3235ZM15.388 9.99013H22.9097C21.098 7.94013 18.6564 6.3118 15.388 5.40346V9.99013Z" fill="#262626"/>
</g>
</svg>
