<svg width="24" height="25" viewBox="0 0 24 25" fill="none" xmlns="http://www.w3.org/2000/svg">
<path d="M11.8 10.9586C9.53001 10.3686 8.80001 9.75859 8.80001 8.80859C8.80001 7.71859 9.81001 6.95859 11.5 6.95859C13.28 6.95859 13.94 7.80859 14 9.05859H16.21C16.14 7.33859 15.09 5.75859 13 5.24859V3.05859H10V5.21859C8.06001 5.63859 6.50001 6.89859 6.50001 8.82859C6.50001 11.1386 8.41001 12.2886 11.2 12.9586C13.7 13.5586 14.2 14.4386 14.2 15.3686C14.2 16.0586 13.71 17.1586 11.5 17.1586C9.44001 17.1586 8.63001 16.2386 8.52001 15.0586H6.32001C6.44001 17.2486 8.08001 18.4786 10 18.8886V21.0586H13V18.9086C14.95 18.5386 16.5 17.4086 16.5 15.3586C16.5 12.5186 14.07 11.5486 11.8 10.9586Z" fill="#262626"/>
</svg>
