<svg width="20" height="21" viewBox="0 0 20 21" fill="none" xmlns="http://www.w3.org/2000/svg">
<path d="M15 13.8998C14.3667 13.8998 13.8 14.1498 13.3667 14.5415L7.425 11.0832C7.46667 10.8915 7.5 10.6998 7.5 10.4998C7.5 10.2998 7.46667 10.1082 7.425 9.9165L13.3 6.4915C13.75 6.90817 14.3417 7.1665 15 7.1665C16.3833 7.1665 17.5 6.04984 17.5 4.6665C17.5 3.28317 16.3833 2.1665 15 2.1665C13.6167 2.1665 12.5 3.28317 12.5 4.6665C12.5 4.8665 12.5333 5.05817 12.575 5.24984L6.7 8.67484C6.25 8.25817 5.65833 7.99984 5 7.99984C3.61667 7.99984 2.5 9.1165 2.5 10.4998C2.5 11.8832 3.61667 12.9998 5 12.9998C5.65833 12.9998 6.25 12.7415 6.7 12.3248L12.6333 15.7915C12.5917 15.9665 12.5667 16.1498 12.5667 16.3332C12.5667 17.6748 13.6583 18.7665 15 18.7665C16.3417 18.7665 17.4333 17.6748 17.4333 16.3332C17.4333 14.9915 16.3417 13.8998 15 13.8998Z" fill="#262626"/>
</svg>
