<svg width="17" height="17" viewBox="0 0 17 17" fill="none" xmlns="http://www.w3.org/2000/svg">
<path d="M14.2214 7.88458V6.03125C14.2214 4.93125 13.3214 4.03125 12.2214 4.03125H9.55469C9.04136 4.03125 8.57469 4.23125 8.22136 4.55125C7.86802 4.23125 7.40136 4.03125 6.88802 4.03125H4.22135C3.12135 4.03125 2.22135 4.93125 2.22135 6.03125V7.88458C1.81469 8.25125 1.55469 8.77792 1.55469 9.36458V12.6979C1.55469 13.0646 1.85469 13.3646 2.22135 13.3646C2.58802 13.3646 2.88802 13.0646 2.88802 12.6979V12.0312H13.5547V12.6979C13.5547 13.0646 13.8547 13.3646 14.2214 13.3646C14.588 13.3646 14.888 13.0646 14.888 12.6979V9.36458C14.888 8.77792 14.628 8.25125 14.2214 7.88458ZM9.55469 5.36458H12.2214C12.588 5.36458 12.888 5.66458 12.888 6.03125V7.36458H8.88802V6.03125C8.88802 5.66458 9.18802 5.36458 9.55469 5.36458ZM3.55469 6.03125C3.55469 5.66458 3.85469 5.36458 4.22135 5.36458H6.88802C7.25469 5.36458 7.55469 5.66458 7.55469 6.03125V7.36458H3.55469V6.03125ZM2.88802 10.6979V9.36458C2.88802 8.99792 3.18802 8.69792 3.55469 8.69792H12.888C13.2547 8.69792 13.5547 8.99792 13.5547 9.36458V10.6979H2.88802Z" fill="#5D5D60"/>
</svg>
