<svg width="35" height="35" viewBox="0 0 35 35" fill="none" xmlns="http://www.w3.org/2000/svg">
<g id="ic:round-plus">
<path id="Vector" d="M25.0964 18.44H18.6678V24.8686C18.6678 25.2096 18.5323 25.5366 18.2912 25.7777C18.0501 26.0188 17.7231 26.1543 17.3821 26.1543C17.0411 26.1543 16.7141 26.0188 16.4729 25.7777C16.2318 25.5366 16.0964 25.2096 16.0964 24.8686V18.44H9.66779C9.3268 18.44 8.99978 18.3046 8.75866 18.0634C8.51754 17.8223 8.38208 17.4953 8.38208 17.1543C8.38208 16.8133 8.51754 16.4863 8.75866 16.2452C8.99978 16.004 9.3268 15.8686 9.66779 15.8686H16.0964V9.44001C16.0964 9.09902 16.2318 8.77199 16.4729 8.53087C16.7141 8.28976 17.0411 8.1543 17.3821 8.1543C17.7231 8.1543 18.0501 8.28976 18.2912 8.53087C18.5323 8.77199 18.6678 9.09902 18.6678 9.44001V15.8686H25.0964C25.4374 15.8686 25.7644 16.004 26.0055 16.2452C26.2466 16.4863 26.3821 16.8133 26.3821 17.1543C26.3821 17.4953 26.2466 17.8223 26.0055 18.0634C25.7644 18.3046 25.4374 18.44 25.0964 18.44Z" fill="#262626"/>
</g>
</svg>
