<svg width="25" height="25" viewBox="0 0 25 25" fill="none" xmlns="http://www.w3.org/2000/svg">
<g id="ic:round-add">
<path id="Vector" d="M18.3289 13.4873H13.3289V18.4873C13.3289 19.0373 12.8789 19.4873 12.3289 19.4873C11.7789 19.4873 11.3289 19.0373 11.3289 18.4873V13.4873H6.32886C5.77886 13.4873 5.32886 13.0373 5.32886 12.4873C5.32886 11.9373 5.77886 11.4873 6.32886 11.4873H11.3289V6.4873C11.3289 5.9373 11.7789 5.4873 12.3289 5.4873C12.8789 5.4873 13.3289 5.9373 13.3289 6.4873V11.4873H18.3289C18.8789 11.4873 19.3289 11.9373 19.3289 12.4873C19.3289 13.0373 18.8789 13.4873 18.3289 13.4873Z" fill="#005EE3"/>
</g>
</svg>
