<svg width="20" height="21" viewBox="0 0 20 21" fill="none" xmlns="http://www.w3.org/2000/svg">
<g id="mdi:information-outline">
<path id="Vector" d="M9.16406 8.19661H10.8307V6.52995H9.16406M9.99739 17.3633C6.3224 17.3633 3.33073 14.3716 3.33073 10.6966C3.33073 7.02161 6.3224 4.02995 9.99739 4.02995C13.6724 4.02995 16.6641 7.02161 16.6641 10.6966C16.6641 14.3716 13.6724 17.3633 9.99739 17.3633ZM9.99739 2.36328C8.90305 2.36328 7.81941 2.57883 6.80837 2.99762C5.79732 3.41641 4.87866 4.03024 4.10484 4.80406C2.54204 6.36686 1.66406 8.48648 1.66406 10.6966C1.66406 12.9068 2.54204 15.0264 4.10484 16.5892C4.87866 17.363 5.79732 17.9768 6.80837 18.3956C7.81941 18.8144 8.90305 19.0299 9.99739 19.0299C12.2075 19.0299 14.3271 18.152 15.8899 16.5892C17.4528 15.0264 18.3307 12.9068 18.3307 10.6966C18.3307 9.60226 18.1152 8.51863 17.6964 7.50759C17.2776 6.49654 16.6638 5.57788 15.8899 4.80406C15.1161 4.03024 14.1975 3.41641 13.1864 2.99762C12.1754 2.57883 11.0917 2.36328 9.99739 2.36328ZM9.16406 14.8633H10.8307V9.86328H9.16406V14.8633Z" fill="#A3A3A3"/>
</g>
</svg>
