<svg width="22" height="22" viewBox="0 0 22 22" fill="none" xmlns="http://www.w3.org/2000/svg">
<g id="lets-icons:insta">
<g id="Group">
<path id="Vector" d="M3.125 9.76562C3.125 6.466 3.125 4.81575 4.1505 3.79112C5.176 2.7665 6.82538 2.76562 10.125 2.76562H11.875C15.1746 2.76562 16.8249 2.76562 17.8495 3.79112C18.8741 4.81662 18.875 6.466 18.875 9.76562V11.5156C18.875 14.8152 18.875 16.4655 17.8495 17.4901C16.824 18.5147 15.1746 18.5156 11.875 18.5156H10.125C6.82538 18.5156 5.17512 18.5156 4.1505 17.4901C3.12587 16.4646 3.125 14.8152 3.125 11.5156V9.76562Z" stroke="white" stroke-width="2"/>
<path id="Vector_2" d="M14.9375 8.01562C15.6624 8.01562 16.25 7.428 16.25 6.70312C16.25 5.97825 15.6624 5.39062 14.9375 5.39062C14.2126 5.39062 13.625 5.97825 13.625 6.70312C13.625 7.428 14.2126 8.01562 14.9375 8.01562Z" fill="white"/>
<path id="Vector_3" d="M11 13.2656C12.4497 13.2656 13.625 12.0904 13.625 10.6406C13.625 9.19088 12.4497 8.01562 11 8.01562C9.55025 8.01562 8.375 9.19088 8.375 10.6406C8.375 12.0904 9.55025 13.2656 11 13.2656Z" stroke="white" stroke-width="2"/>
</g>
</g>
</svg>
