<svg width="15" height="16" viewBox="0 0 15 16" fill="none" xmlns="http://www.w3.org/2000/svg">
<g id="ic Linkedin">
<path id="Oval" d="M2.06932 4.43552C3.05253 4.43552 3.84958 3.63847 3.84958 2.65526C3.84958 1.67205 3.05253 0.875 2.06932 0.875C1.08611 0.875 0.289062 1.67205 0.289062 2.65526C0.289062 3.63847 1.08611 4.43552 2.06932 4.43552Z" fill="white"/>
<path id="Shape" d="M3.55287 5.625H0.585772C0.421989 5.625 0.289062 5.75793 0.289062 5.92171V14.823C0.289062 14.9868 0.421989 15.1197 0.585772 15.1197H3.55287C3.71666 15.1197 3.84958 14.9868 3.84958 14.823V5.92171C3.84958 5.75793 3.71666 5.625 3.55287 5.625Z" fill="white"/>
<path id="Shape_2" d="M12.3957 5.1299C11.1276 4.69552 9.54134 5.07709 8.59009 5.7613C8.55745 5.63371 8.44114 5.53877 8.30287 5.53877H5.33577C5.17199 5.53877 5.03906 5.67169 5.03906 5.83548V14.7368C5.03906 14.9006 5.17199 15.0335 5.33577 15.0335H8.30287C8.46666 15.0335 8.59958 14.9006 8.59958 14.7368V8.33971C9.07907 7.92669 9.69682 7.79495 10.2024 8.00977C10.6926 8.21687 10.9733 8.72246 10.9733 9.396V14.7368C10.9733 14.9006 11.1062 15.0335 11.27 15.0335H14.2371C14.4009 15.0335 14.5338 14.9006 14.5338 14.7368V8.79842C14.5 6.36006 13.3529 5.45747 12.3957 5.1299Z" fill="white"/>
</g>
</svg>
