<svg width="24" height="24" viewBox="0 0 24 24" fill="none" xmlns="http://www.w3.org/2000/svg">
<g id="icon-park:loading-one">
<g id="Group">
<path id="Vector (Stroke)" fill-rule="evenodd" clip-rule="evenodd" d="M12 1C12.5523 1 13 1.44772 13 2V4C13 4.55228 12.5523 5 12 5C11.4477 5 11 4.55228 11 4V2C11 1.44772 11.4477 1 12 1Z" fill="black"/>
<path id="Vector (Stroke)_2" opacity="0.1" fill-rule="evenodd" clip-rule="evenodd" d="M21.5279 6.50017C21.8041 6.97846 21.6402 7.59005 21.1619 7.86619L19.4299 8.86619C18.9516 9.14233 18.34 8.97846 18.0638 8.50017C17.7877 8.02187 17.9516 7.41028 18.4299 7.13414L20.1619 6.13414C20.6402 5.858 21.2518 6.02187 21.5279 6.50017Z" fill="#262626"/>
<path id="Vector (Stroke)_3" opacity="0.2" fill-rule="evenodd" clip-rule="evenodd" d="M19 12C19 11.4477 19.4477 11 20 11H22C22.5523 11 23 11.4477 23 12C23 12.5523 22.5523 13 22 13H20C19.4477 13 19 12.5523 19 12Z" fill="#262626"/>
<path id="Vector (Stroke)_4" opacity="0.3" fill-rule="evenodd" clip-rule="evenodd" d="M18.0638 15.5002C18.34 15.0219 18.9516 14.858 19.4299 15.1341L21.1619 16.1341C21.6402 16.4103 21.8041 17.0219 21.5279 17.5002C21.2518 17.9785 20.6402 18.1423 20.1619 17.8662L18.4299 16.8662C17.9516 16.59 17.7877 15.9785 18.0638 15.5002Z" fill="#262626"/>
<path id="Vector (Stroke)_5" opacity="0.4" fill-rule="evenodd" clip-rule="evenodd" d="M15.5002 18.0638C15.9785 17.7877 16.59 17.9516 16.8662 18.4299L17.8662 20.1619C18.1423 20.6402 17.9785 21.2518 17.5002 21.5279C17.0219 21.8041 16.4103 21.6402 16.1341 21.1619L15.1341 19.4299C14.858 18.9516 15.0219 18.34 15.5002 18.0638Z" fill="#262626"/>
<path id="Vector (Stroke)_6" opacity="0.5" fill-rule="evenodd" clip-rule="evenodd" d="M12 19C12.5523 19 13 19.4477 13 20V22C13 22.5523 12.5523 23 12 23C11.4477 23 11 22.5523 11 22V20C11 19.4477 11.4477 19 12 19Z" fill="#262626"/>
<path id="Vector (Stroke)_7" opacity="0.6" fill-rule="evenodd" clip-rule="evenodd" d="M8.50017 18.0638C8.97846 18.34 9.14233 18.9516 8.86619 19.4299L7.86619 21.1619C7.59005 21.6402 6.97846 21.8041 6.50017 21.5279C6.02187 21.2518 5.858 20.6402 6.13414 20.1619L7.13414 18.4299C7.41028 17.9516 8.02187 17.7877 8.50017 18.0638Z" fill="#262626"/>
<path id="Vector (Stroke)_8" opacity="0.7" fill-rule="evenodd" clip-rule="evenodd" d="M5.93809 15.5002C6.21423 15.9785 6.05036 16.5901 5.57206 16.8662L3.84001 17.8662C3.36172 18.1423 2.75013 17.9785 2.47398 17.5002C2.19784 17.0219 2.36172 16.4103 2.84001 16.1341L4.57207 15.1341C5.05036 14.858 5.66195 15.0219 5.93809 15.5002Z" fill="#262626"/>
<path id="Vector (Stroke)_9" opacity="0.8" fill-rule="evenodd" clip-rule="evenodd" d="M1 12C1 11.4477 1.44772 11 2 11H4C4.55228 11 5 11.4477 5 12C5 12.5523 4.55228 13 4 13H2C1.44772 13 1 12.5523 1 12Z" fill="#262626"/>
<path id="Vector (Stroke)_10" opacity="0.9" fill-rule="evenodd" clip-rule="evenodd" d="M2.47398 6.50017C2.75013 6.02187 3.36172 5.858 3.84001 6.13414L5.57206 7.13414C6.05036 7.41028 6.21423 8.02187 5.93809 8.50017C5.66195 8.97846 5.05036 9.14233 4.57207 8.86619L2.84001 7.86619C2.36172 7.59005 2.19784 6.97846 2.47398 6.50017Z" fill="#262626"/>
<path id="Vector (Stroke)_11" fill-rule="evenodd" clip-rule="evenodd" d="M6.50017 2.47399C6.97846 2.19784 7.59005 2.36172 7.86619 2.84001L8.86619 4.57206C9.14233 5.05035 8.97846 5.66194 8.50017 5.93809C8.02187 6.21423 7.41028 6.05035 7.13414 5.57206L6.13414 3.84001C5.858 3.36172 6.02187 2.75013 6.50017 2.47399Z" fill="#262626"/>
</g>
</g>
</svg>
