<svg width="25" height="25" viewBox="0 0 25 25" fill="none" xmlns="http://www.w3.org/2000/svg">
<g id="logos:whatsapp-icon" clip-path="url(#clip0_12054_12364)">
<path id="Vector" d="M1.10363 11.8797C1.10307 13.8962 1.62995 15.8651 2.63181 17.6006L1.00781 23.5301L7.07591 21.939C8.75427 22.8527 10.6347 23.3314 12.5457 23.3315H12.5507C18.8591 23.3315 23.9942 18.1982 23.9969 11.8888C23.9981 8.83136 22.8086 5.95638 20.6473 3.79341C18.4863 1.63062 15.6124 0.438895 12.5502 0.4375C6.24112 0.4375 1.10632 5.57052 1.10372 11.8797" fill="url(#paint0_linear_12054_12364)"/>
<path id="Vector_2" d="M0.693285 11.8761C0.692634 13.9651 1.2384 16.0045 2.27598 17.802L0.59375 23.9441L6.87942 22.296C8.61133 23.2403 10.5613 23.7381 12.5455 23.7389H12.5506C19.0853 23.7389 24.4049 18.4209 24.4077 11.8856C24.4088 8.71832 23.1764 5.74 20.9379 3.49953C18.6991 1.25934 15.7224 0.0247398 12.5506 0.0234375C6.01477 0.0234375 0.69589 5.34065 0.693285 11.8761ZM4.43663 17.4925L4.20194 17.1199C3.21533 15.5512 2.69459 13.7383 2.69533 11.8768C2.69738 6.44474 7.11822 2.0253 12.5543 2.0253C15.1869 2.02641 17.6609 3.05265 19.5217 4.9146C21.3825 6.77674 22.4064 9.25209 22.4058 11.8848C22.4033 17.3169 17.9824 21.7369 12.5506 21.7369H12.5467C10.778 21.736 9.04342 21.261 7.53068 20.3634L7.17068 20.15L3.44063 21.1279L4.43663 17.4925Z" fill="url(#paint1_linear_12054_12364)"/>
<path id="Vector_3" d="M9.58483 6.92114C9.36288 6.42784 9.1293 6.41789 8.91823 6.40924C8.74539 6.40179 8.54781 6.40235 8.35041 6.40235C8.15283 6.40235 7.83181 6.47668 7.56046 6.77296C7.28883 7.06952 6.52344 7.78617 6.52344 9.24375C6.52344 10.7013 7.58511 12.1101 7.73311 12.3079C7.8813 12.5054 9.78269 15.5923 12.794 16.7798C15.2967 17.7667 15.806 17.5704 16.3492 17.521C16.8925 17.4717 18.1021 16.8045 18.3489 16.1127C18.5959 15.421 18.5959 14.828 18.5219 14.7041C18.4478 14.5807 18.2502 14.5065 17.9539 14.3584C17.6577 14.2104 16.201 13.4935 15.9295 13.3946C15.6579 13.2958 15.4604 13.2465 15.2628 13.5432C15.0652 13.8394 14.4979 14.5065 14.3249 14.7041C14.1522 14.9022 13.9793 14.9268 13.6831 14.7786C13.3866 14.63 12.4325 14.3175 11.3005 13.3083C10.4197 12.523 9.82511 11.5532 9.65227 11.2566C9.47944 10.9604 9.63376 10.7998 9.78232 10.6522C9.91544 10.5195 10.0787 10.3063 10.227 10.1333C10.3747 9.96031 10.424 9.83686 10.5228 9.63928C10.6217 9.44152 10.5722 9.26849 10.4982 9.12031C10.424 8.97212 9.84827 7.50691 9.58483 6.92114Z" fill="white"/>
</g>
<defs>
<linearGradient id="paint0_linear_12054_12364" x1="1150.46" y1="2309.69" x2="1150.46" y2="0.4375" gradientUnits="userSpaceOnUse">
<stop stop-color="#1FAF38"/>
<stop offset="1" stop-color="#60D669"/>
</linearGradient>
<linearGradient id="paint1_linear_12054_12364" x1="1191.29" y1="2392.09" x2="1191.29" y2="0.0234375" gradientUnits="userSpaceOnUse">
<stop stop-color="#F9F9F9"/>
<stop offset="1" stop-color="white"/>
</linearGradient>
<clipPath id="clip0_12054_12364">
<rect width="23.814" height="24" fill="white" transform="translate(0.59375 0.0234375)"/>
</clipPath>
</defs>
</svg>
