<svg width="28" height="28" viewBox="0 0 28 28" fill="none" xmlns="http://www.w3.org/2000/svg">
<g id="material-symbols-light:map-outline">
<path id="Vector" d="M18.3749 25.6673L9.62492 22.5751L3.85284 24.828C3.4795 24.9684 3.1329 24.9276 2.81304 24.7058C2.49318 24.4839 2.33325 24.1717 2.33325 23.7693V5.76051C2.33325 5.49742 2.39645 5.2574 2.52284 5.04045C2.64922 4.8235 2.83297 4.67281 3.07409 4.58839L9.62492 2.33398L18.3749 5.42625L24.147 3.17331C24.5203 3.03293 24.8669 3.05944 25.1868 3.25283C25.5067 3.44622 25.6666 3.73483 25.6666 4.11866V22.3542C25.6666 22.6359 25.5893 22.8804 25.4347 23.0875C25.2811 23.2956 25.074 23.4419 24.8135 23.5263L18.3749 25.6673ZM17.6458 23.8709V6.64254L10.3541 4.07301V21.3013L17.6458 23.8709ZM19.1041 23.8709L24.2083 22.1731V4.72386L19.1041 6.64401V23.8709ZM3.79159 23.2774L8.89575 21.3013V4.07301L3.79159 5.82824V23.2774Z" fill="white"/>
</g>
</svg>
