<svg width="15" height="15" viewBox="0 0 15 15" fill="none" xmlns="http://www.w3.org/2000/svg">
<g id="carbon:location" clip-path="url(#clip0_11564_8733)">
<path id="Vector" d="M7.01563 7.89844C6.58298 7.89844 6.16005 7.77014 5.80032 7.52978C5.44058 7.28941 5.16021 6.94777 4.99464 6.54806C4.82907 6.14835 4.78575 5.70851 4.87016 5.28418C4.95456 4.85985 5.1629 4.47007 5.46883 4.16414C5.77476 3.85822 6.16453 3.64988 6.58887 3.56547C7.0132 3.48107 7.45303 3.52439 7.85275 3.68995C8.25246 3.85552 8.5941 4.1359 8.83447 4.49563C9.07483 4.85536 9.20313 5.27829 9.20313 5.71094C9.20243 6.29089 8.97174 6.84688 8.56166 7.25697C8.15157 7.66705 7.59557 7.89774 7.01563 7.89844ZM7.01563 4.39844C6.75604 4.39844 6.50228 4.47542 6.28644 4.61963C6.0706 4.76385 5.90237 4.96884 5.80303 5.20867C5.70369 5.44849 5.6777 5.71239 5.72835 5.967C5.77899 6.2216 5.90399 6.45546 6.08755 6.63902C6.2711 6.82257 6.50497 6.94758 6.75957 6.99822C7.01417 7.04886 7.27807 7.02287 7.5179 6.92353C7.75773 6.82419 7.96271 6.65596 8.10693 6.44012C8.25115 6.22429 8.32813 5.97053 8.32813 5.71094C8.32778 5.36295 8.18939 5.02931 7.94332 4.78324C7.69725 4.53718 7.36362 4.39879 7.01563 4.39844Z" fill="white"/>
<path id="Vector_2" d="M7.01563 13.1484L3.32488 8.79575C3.27359 8.73039 3.22284 8.66462 3.17263 8.59844C2.5425 7.7678 2.20195 6.75354 2.20313 5.71094C2.20313 4.43458 2.71016 3.21051 3.61268 2.30799C4.5152 1.40547 5.73927 0.898438 7.01563 0.898438C8.29198 0.898438 9.51606 1.40547 10.4186 2.30799C11.3211 3.21051 11.8281 4.43458 11.8281 5.71094C11.8291 6.75304 11.4888 7.76679 10.8591 8.59713L10.8586 8.59844C10.8586 8.59844 10.7274 8.77081 10.7077 8.794L7.01563 13.1484ZM3.87132 8.07125C3.87132 8.07125 3.97325 8.206 3.99644 8.23487L7.01563 11.7957L10.0388 8.23006C10.058 8.206 10.1604 8.07037 10.1608 8.06994C10.6758 7.39144 10.9542 6.56277 10.9531 5.71094C10.9531 4.66665 10.5383 3.66513 9.79986 2.9267C9.06144 2.18828 8.05992 1.77344 7.01563 1.77344C5.97134 1.77344 4.96982 2.18828 4.2314 2.9267C3.49297 3.66513 3.07813 4.66665 3.07813 5.71094C3.07705 6.56332 3.3557 7.39251 3.87132 8.07125Z" fill="white"/>
</g>
<defs>
<clipPath id="clip0_11564_8733">
<rect width="14" height="14" fill="white" transform="translate(0.015625 0.0234375)"/>
</clipPath>
</defs>
</svg>
