<svg width="25" height="25" viewBox="0 0 25 25" fill="none" xmlns="http://www.w3.org/2000/svg">
<g id="mingcute:search-line" clip-path="url(#clip0_8850_23913)">
<g id="Group">
<path id="Vector" fill-rule="evenodd" clip-rule="evenodd" d="M11.22 2.89844C9.86457 2.89855 8.52884 3.2228 7.32424 3.84413C6.11963 4.46546 5.08107 5.36585 4.29522 6.47019C3.50936 7.57453 2.99899 8.85078 2.80669 10.1925C2.61439 11.5342 2.74573 12.9024 3.18976 14.183C3.63379 15.4636 4.37763 16.6195 5.35922 17.5542C6.34081 18.4888 7.53168 19.1752 8.83249 19.556C10.1333 19.9369 11.5063 20.0011 12.837 19.7434C14.1677 19.4856 15.4174 18.9134 16.482 18.0744L20.134 21.7264C20.3226 21.9086 20.5752 22.0094 20.8374 22.0071C21.0996 22.0048 21.3504 21.8997 21.5358 21.7143C21.7212 21.5288 21.8264 21.278 21.8287 21.0158C21.8309 20.7536 21.7301 20.501 21.548 20.3124L17.896 16.6604C18.884 15.4071 19.4991 13.9008 19.6711 12.3142C19.843 10.7275 19.5648 9.12446 18.8682 7.68853C18.1716 6.2526 17.0849 5.04179 15.7323 4.19467C14.3797 3.34754 12.8159 2.89833 11.22 2.89844ZM4.71998 11.3984C4.71998 9.67453 5.4048 8.02123 6.62379 6.80224C7.84277 5.58326 9.49607 4.89844 11.22 4.89844C12.9439 4.89844 14.5972 5.58326 15.8162 6.80224C17.0352 8.02123 17.72 9.67453 17.72 11.3984C17.72 13.1223 17.0352 14.7756 15.8162 15.9946C14.5972 17.2136 12.9439 17.8984 11.22 17.8984C9.49607 17.8984 7.84277 17.2136 6.62379 15.9946C5.4048 14.7756 4.71998 13.1223 4.71998 11.3984Z" fill="#5D5D60"/>
</g>
</g>
<defs>
<clipPath id="clip0_8850_23913">
<rect width="24" height="24" fill="white" transform="translate(0.719727 0.898438)"/>
</clipPath>
</defs>
</svg>
