<svg width="15" height="15" viewBox="0 0 15 15" fill="none" xmlns="http://www.w3.org/2000/svg">
<g id="noto:fire" clip-path="url(#clip0_13186_9461)">
<path id="Vector" d="M4.31791 5.2363C4.25557 5.9013 4.21182 7.07817 4.60448 7.57911C4.60448 7.57911 4.41963 6.2863 6.07666 4.66427C6.74385 4.0113 6.89807 3.12317 6.6651 2.45708C6.53276 2.07973 6.29104 1.76802 6.08104 1.55036C5.95854 1.42239 6.0526 1.2113 6.23088 1.21895C7.30932 1.26708 9.05713 1.56676 9.79979 3.43052C10.1257 4.24864 10.1498 5.09411 9.99448 5.9538C9.89604 6.50286 9.54604 7.72348 10.3445 7.87333C10.9143 7.98052 11.1899 7.5277 11.3135 7.20177C11.3649 7.06614 11.5432 7.03223 11.6395 7.14052C12.602 8.23536 12.684 9.52489 12.4849 10.635C12.0999 12.781 9.92666 14.3429 7.7676 14.3429C5.07041 14.3429 2.92338 12.7996 2.36666 10.0061C2.14244 8.87848 2.25619 6.64723 3.99526 5.07223C4.12432 4.95411 4.33541 5.05911 4.31791 5.2363Z" fill="url(#paint0_radial_13186_9461)"/>
<path id="Vector_2" d="M8.75722 9.25089C7.763 7.9712 8.20816 6.51105 8.45207 5.92917C8.48488 5.85261 8.39738 5.78042 8.32847 5.82745C7.90082 6.11839 7.02472 6.80308 6.61675 7.76667C6.06441 9.06933 6.10379 9.70698 6.43082 10.4857C6.62769 10.955 6.3991 11.0545 6.28425 11.072C6.17269 11.0895 6.06988 11.0151 5.98785 10.9375C5.7519 10.7109 5.58374 10.423 5.50222 10.1062C5.48472 10.0384 5.39613 10.0198 5.35566 10.0756C5.04941 10.4989 4.89082 11.1781 4.88316 11.6582C4.8591 13.1425 6.08519 14.3456 7.56832 14.3456C9.43754 14.3456 10.7993 12.2784 9.72519 10.5503C9.41347 10.0471 9.12035 9.71792 8.75722 9.25089Z" fill="url(#paint1_radial_13186_9461)"/>
</g>
<defs>
<radialGradient id="paint0_radial_13186_9461" cx="0" cy="0" r="1" gradientUnits="userSpaceOnUse" gradientTransform="translate(7.23339 14.3769) rotate(-179.751) scale(7.72053 12.6678)">
<stop offset="0.314" stop-color="#FF9800"/>
<stop offset="0.662" stop-color="#FF6D00"/>
<stop offset="0.972" stop-color="#F44336"/>
</radialGradient>
<radialGradient id="paint1_radial_13186_9461" cx="0" cy="0" r="1" gradientUnits="userSpaceOnUse" gradientTransform="translate(7.67112 6.69571) rotate(90.5787) scale(8.07804 6.07933)">
<stop offset="0.214" stop-color="#FFF176"/>
<stop offset="0.328" stop-color="#FFF27D"/>
<stop offset="0.487" stop-color="#FFF48F"/>
<stop offset="0.672" stop-color="#FFF7AD"/>
<stop offset="0.793" stop-color="#FFF9C4"/>
<stop offset="0.822" stop-color="#FFF8BD" stop-opacity="0.804"/>
<stop offset="0.863" stop-color="#FFF6AB" stop-opacity="0.529"/>
<stop offset="0.91" stop-color="#FFF38D" stop-opacity="0.209"/>
<stop offset="0.941" stop-color="#FFF176" stop-opacity="0"/>
</radialGradient>
<clipPath id="clip0_13186_9461">
<rect width="14" height="14" fill="white" transform="translate(0.429688 0.78125)"/>
</clipPath>
</defs>
</svg>
