<svg width="19" height="16" viewBox="0 0 19 16" fill="none" xmlns="http://www.w3.org/2000/svg">
<g clip-path="url(#clip0_14547_8444)">
<path d="M9.81826 0C9.97339 0.118371 10.1437 0.220814 10.2818 0.357285C13.0819 3.15379 15.8783 5.95318 18.6711 8.75548C18.7872 8.87204 18.8686 9.02335 18.9658 9.15837V9.41177C18.946 9.44796 18.925 9.48416 18.9062 9.52036C18.8696 9.59503 18.8165 9.66035 18.7509 9.71136C18.6853 9.76237 18.6089 9.79772 18.5276 9.81472C18.4462 9.83172 18.3621 9.82993 18.2816 9.80946C18.2011 9.789 18.1263 9.75042 18.0629 9.69665C18.0032 9.64573 17.9463 9.59172 17.8922 9.53484C15.2255 6.86552 12.5589 4.19584 9.89239 1.52579C9.84043 1.46717 9.79212 1.40539 9.74775 1.34081L9.65807 1.30896C9.61902 1.37701 9.59262 1.4581 9.53874 1.51204C6.86116 4.19632 4.18093 6.87783 1.49804 9.55656C1.39173 9.66299 1.25432 9.76471 1.11329 9.80416C0.831601 9.88235 0.638864 9.75167 0.452637 9.41177V9.15837C0.549909 9.02335 0.631271 8.87204 0.747347 8.75548C3.54088 5.95294 6.33731 3.15354 9.13663 0.357285C9.27585 0.220091 9.44581 0.118009 9.6013 0H9.81826Z" fill="#262626"/>
<path d="M3.4538 16.0006C3.10087 15.8743 2.99529 15.6147 2.99709 15.2542C3.00649 13.3179 3.00107 11.3809 3.00288 9.44606C2.99831 9.33172 3.00901 9.21729 3.0347 9.10579C3.10196 8.86181 3.35291 8.70362 3.60532 8.72714C3.73223 8.73991 3.85087 8.79605 3.9413 8.8861C4.03172 8.97616 4.0884 9.09464 4.1018 9.22162C4.10831 9.28714 4.10578 9.35411 4.10578 9.42036V14.8723H15.3145V14.6667C15.3145 12.9176 15.3145 11.1685 15.3145 9.41963C15.3125 9.35324 15.314 9.28678 15.3189 9.22054C15.333 9.08428 15.3972 8.95812 15.4989 8.8665C15.6007 8.77489 15.7327 8.72432 15.8696 8.72461C16.0034 8.72514 16.1322 8.77515 16.2314 8.86502C16.3306 8.95489 16.3931 9.07828 16.4069 9.21149C16.415 9.28952 16.4184 9.36798 16.4171 9.44642C16.4171 11.3823 16.4127 13.3197 16.4221 15.2542C16.4239 15.6144 16.3209 15.8761 15.9654 16.0003L3.4538 16.0006Z" fill="#262626"/>
<path d="M6.62547 11.8113C6.63993 11.7432 6.65223 11.6748 6.66995 11.6079C6.71525 11.4375 6.79479 11.2781 6.9037 11.1395C7.01261 11.0009 7.14861 10.886 7.30338 10.8018C7.45815 10.7176 7.62844 10.6659 7.80385 10.6498C7.97926 10.6338 8.15611 10.6537 8.32358 10.7083C8.34337 10.7171 8.36554 10.7189 8.38649 10.7134C8.40743 10.708 8.42592 10.6956 8.43893 10.6783C9.28606 9.82614 10.1351 8.97485 10.9861 8.12442C11.0036 8.11004 11.0158 8.09021 11.0207 8.0681C11.0256 8.04599 11.023 8.02287 11.0132 8.00243C10.7637 7.24224 11.2808 6.42016 12.0709 6.31736C12.0859 6.31424 12.1007 6.31 12.115 6.30469H12.3855C12.4661 6.32351 12.5479 6.33871 12.6271 6.36152C12.75 6.39772 12.7717 6.48677 12.6813 6.57871C12.486 6.77564 12.2904 6.97292 12.093 7.16767C12.0688 7.18783 12.051 7.2147 12.042 7.24491C12.033 7.27511 12.0331 7.3073 12.0423 7.33745C12.0673 7.43338 12.0854 7.53147 12.1027 7.62921C12.1058 7.66197 12.1202 7.69263 12.1434 7.7159C12.1667 7.73916 12.1973 7.75357 12.23 7.75663C12.3277 7.77329 12.4241 7.79356 12.5193 7.81745C12.5494 7.82652 12.5815 7.82655 12.6117 7.81755C12.6418 7.80854 12.6687 7.79089 12.6889 7.76677C12.8816 7.57021 13.0769 7.37618 13.2714 7.18143C13.3691 7.08369 13.4544 7.10614 13.4935 7.23935C13.7499 8.1179 13.0501 8.98234 12.1418 8.90451C12.0369 8.89131 11.9333 8.86964 11.8319 8.83971C11.818 8.83383 11.8026 8.83245 11.7879 8.83576C11.7732 8.83907 11.7599 8.84691 11.7498 8.85817C10.8904 9.72212 10.0299 10.5851 9.16829 11.4471C9.15626 11.4583 9.14838 11.4732 9.14595 11.4895C9.14352 11.5057 9.14668 11.5223 9.15491 11.5365C9.21196 11.709 9.23234 11.8916 9.21475 12.0724C9.19716 12.2533 9.14199 12.4284 9.05277 12.5867C8.96355 12.7449 8.84227 12.8827 8.6967 12.9912C8.55113 13.0998 8.3845 13.1767 8.2075 13.2169C8.1576 13.2285 8.10734 13.2379 8.05707 13.2484H7.78659C7.71065 13.2307 7.63363 13.2158 7.55842 13.1952C7.41775 13.1561 7.39642 13.0699 7.49984 12.966C7.69414 12.7711 7.88844 12.5763 8.08275 12.3818C8.10414 12.365 8.12038 12.3425 8.12959 12.3169C8.1388 12.2913 8.14061 12.2636 8.13482 12.237C8.11095 12.1284 8.08817 12.0198 8.06684 11.9112C8.06302 11.882 8.04956 11.8548 8.0286 11.8341C8.00764 11.8134 7.98038 11.8003 7.95112 11.7968C7.85168 11.778 7.75224 11.7606 7.65388 11.7346C7.6239 11.7253 7.59188 11.725 7.56171 11.7336C7.53154 11.7422 7.50452 11.7594 7.48393 11.7831C7.2883 11.9829 7.09014 12.1812 6.89234 12.3774C6.80447 12.4651 6.7137 12.4422 6.6808 12.3224C6.65765 12.2381 6.64247 12.1519 6.62402 12.0665L6.62547 11.8113Z" fill="#262626"/>
<path d="M8.51346 6.12971C8.42332 6.12524 8.333 6.12621 8.24298 6.13261C8.18441 6.1381 8.12891 6.16133 8.08387 6.19921C7.64898 6.62757 7.21686 7.06039 6.78751 7.49768C6.74014 7.54654 6.71917 7.62944 6.70398 7.70039C6.64214 7.98998 6.64576 7.99433 6.35973 8.04609C6.25248 8.06045 6.1542 8.11363 6.08346 8.19559C6.03862 8.24881 5.98402 8.29442 5.93592 8.34546C5.85239 8.43415 5.84878 8.53369 5.93339 8.61912C6.2046 8.894 6.47737 9.16718 6.75171 9.43867C6.83633 9.52229 6.94011 9.52048 7.02581 9.43867C7.1003 9.36627 7.17443 9.29641 7.24277 9.21967C7.27123 9.18539 7.2914 9.14501 7.30171 9.10166C7.32196 9.02166 7.33209 8.93949 7.34764 8.85804C7.36572 8.76428 7.41779 8.70166 7.51072 8.69695C7.74107 8.68464 7.90849 8.57568 8.06217 8.40736C8.29035 8.15795 8.53624 7.92446 8.77779 7.68772C8.8092 7.65907 8.83449 7.62435 8.85214 7.58565C8.86979 7.54696 8.87943 7.50509 8.88049 7.46256C8.88146 7.43245 8.8846 7.40245 8.88989 7.37279C8.90942 7.25297 8.97089 7.19795 9.09348 7.19614C9.24897 7.19396 9.4041 7.19614 9.55959 7.19614C9.73099 7.19614 9.76715 7.15053 9.72991 6.97894C9.68074 6.73974 9.55094 6.52472 9.36226 6.36992C9.17358 6.21511 8.93749 6.12992 8.69354 6.12863C8.63351 6.12863 8.57349 6.12971 8.51346 6.12971Z" fill="#262626"/>
<path d="M11.0737 10.0137C10.8929 10.1947 10.7201 10.3681 10.5487 10.544C10.5413 10.554 10.5362 10.5654 10.5337 10.5775C10.5311 10.5896 10.5312 10.6021 10.5338 10.6142C10.5813 10.7583 10.579 10.9143 10.5273 11.0569C10.5089 11.1058 10.5378 11.1257 10.5635 11.1518L12.3133 12.9013C12.3856 12.9737 12.4543 13.0439 12.5259 13.1141C12.7093 13.2951 12.9494 13.2951 13.1341 13.1141C13.2007 13.0493 13.2658 12.9831 13.3309 12.9172C13.5355 12.7112 13.5355 12.4785 13.329 12.2714C12.7661 11.7069 12.2029 11.1431 11.6393 10.5798L11.0737 10.0137Z" fill="#262626"/>
<path d="M8.26904 8.85962C8.41369 9.00442 8.5652 9.155 8.71852 9.30197C8.72958 9.30989 8.74226 9.31527 8.75563 9.31771C8.76901 9.32015 8.78276 9.31959 8.7959 9.31609C8.93738 9.27033 9.08949 9.26919 9.23164 9.31283C9.2424 9.31655 9.25382 9.31796 9.26516 9.31696C9.2765 9.31596 9.28751 9.31258 9.29745 9.30704C9.47609 9.1322 9.65219 8.95482 9.82395 8.78288L9.08483 8.04297L8.26904 8.85962Z" fill="#262626"/>
</g>
<defs>
<clipPath id="clip0_14547_8444">
<rect width="18.5143" height="16" fill="white" transform="translate(0.452637)"/>
</clipPath>
</defs>
</svg>
