<svg width="90" height="90" viewBox="0 0 90 90" fill="none" xmlns="http://www.w3.org/2000/svg">
<g id="Layer_1" clip-path="url(#clip0_2199_2143)">
<path id="Vector" d="M-0.00154819 37.2198C0.281419 35.3957 0.477138 33.5528 0.859143 31.7476C4.27833 15.5877 16.9953 3.36348 33.2471 0.570793C54.3281 -3.05145 74.73 10.9403 78.9227 31.9267C80.9317 41.978 79.2834 51.4331 74.1004 60.2636C73.7137 60.9211 73.8269 61.244 74.3174 61.7319C78.6208 65.9951 82.9172 70.2678 87.1806 74.5688C91.0643 78.488 90.9063 84.3514 86.8646 87.8511C83.3039 90.9337 78.0738 90.6815 74.572 87.2125C70.2898 82.9704 66.0359 78.6977 61.7796 74.4274C61.5343 74.1799 61.3693 73.85 61.1688 73.5578C61.1358 73.685 61.1028 73.8146 61.0698 73.9419C58.226 75.1815 55.4482 76.6191 52.5242 77.6254C30.4952 85.2116 6.28503 71.7243 1.0808 49.0127C0.642202 47.1015 0.453557 45.1336 0.144651 43.1917C0.109281 42.9631 0.045613 42.7369 -0.00390625 42.5106C-0.00390625 40.7454 -0.00390625 38.9826 -0.00390625 37.2175L-0.00154819 37.2198ZM39.8237 77.6113C60.4496 77.715 77.5573 60.8363 77.6587 40.2835C77.7648 19.2429 61.0486 2.23934 40.1373 2.11443C19.2355 1.99188 2.20795 18.8706 2.11835 39.8028C2.02874 60.5888 18.9006 77.5052 39.8237 77.6113ZM70.8911 80.3969C72.7941 82.3388 74.631 84.3727 76.6377 86.218C79.1938 88.5676 83.1695 88.4215 85.7068 86.0506C88.2441 83.6821 88.7322 79.6428 86.4566 77.041C84.5561 74.8681 82.2664 73.0369 80.1866 71.0903C77.2201 74.0597 74.0438 77.2366 70.8887 80.3946L70.8911 80.3969ZM72.4828 63.0375C71.0067 64.7107 69.6107 66.4617 68.0355 68.0313C66.4415 69.6197 64.6682 71.029 63.0128 72.4808C65.0809 74.5264 67.2031 76.6262 69.2735 78.6718C72.379 75.5704 75.5553 72.3959 78.7034 69.2474C76.6495 67.197 74.5555 65.1066 72.4828 63.0375Z" fill="#5D5D60"/>
<path id="Vector_2" d="M39.9321 9.17188C56.9077 9.19544 70.6293 22.9751 70.5986 39.9716C70.568 56.8314 56.7356 70.611 39.8944 70.5615C22.8527 70.5121 9.12171 56.7206 9.17594 39.71C9.23018 22.8525 23.0295 9.15066 39.9297 9.17423L39.9321 9.17188ZM39.8873 68.4405C55.441 68.5301 68.3939 55.7261 68.4811 40.1766C68.5707 24.2948 55.9221 11.3919 40.1608 11.2882C24.3005 11.1845 11.4067 23.8918 11.2958 39.7336C11.1874 55.5282 23.9539 68.3486 39.8873 68.4405Z" fill="#5D5D60"/>
<path id="Vector_3" d="M55.7228 50.0949C54.9046 52.8664 53.0582 54.2639 50.1319 54.377C50.1319 55.3244 50.1201 56.2553 50.1366 57.1862C50.1484 57.9215 49.9362 58.4824 49.1108 58.5531C48.4223 58.6097 48.0261 58.0888 48.0167 57.1697C48.0096 56.2624 48.0167 55.3574 48.0167 54.3935H40.952C40.952 55.3527 40.959 56.286 40.9496 57.2169C40.9402 58.0865 40.5605 58.5578 39.8956 58.5602C39.2282 58.5649 38.8462 58.0935 38.8368 57.2286C38.8274 56.2954 38.8368 55.3621 38.8368 54.3841H31.7697C31.7697 55.3079 31.7768 56.2341 31.7697 57.1603C31.7603 58.0888 31.3712 58.605 30.6826 58.5531C29.855 58.4918 29.6357 57.9356 29.6498 57.1956C29.6663 56.2883 29.6545 55.3786 29.6545 54.3935C26.7918 54.2733 24.8771 52.9182 24.0636 50.0926C23.052 50.0926 22.0545 50.0855 21.0594 50.0949C20.3473 50.102 19.8403 49.8475 19.779 49.0768C19.7247 48.4028 20.2152 47.9927 21.0688 47.981C22.005 47.9668 22.9435 47.9786 23.9409 47.9786V40.9226C22.9859 40.9226 22.0545 40.9156 21.1207 40.9226C20.385 40.9297 19.8261 40.7035 19.779 39.8715C19.7389 39.1905 20.2152 38.8157 21.0924 38.8063C22.0286 38.7969 22.9624 38.8063 23.948 38.8063V32.4479C23.0402 32.4479 22.1134 32.455 21.1867 32.4479C20.2388 32.4409 19.7672 32.0779 19.7695 31.378C19.7719 30.6781 20.2317 30.3387 21.1985 30.334C22.1064 30.3293 23.0166 30.334 23.9079 30.334C24.9125 26.7989 26.108 25.7455 29.6522 25.3166C29.6522 24.3739 29.6616 23.4147 29.6498 22.4555C29.6404 21.7438 29.8927 21.2371 30.6638 21.1711C31.3335 21.1146 31.7532 21.6118 31.7673 22.4579C31.7815 23.3935 31.7697 24.3315 31.7697 25.326H38.8368C38.8368 24.3668 38.8297 23.4336 38.8368 22.5003C38.8462 21.6166 39.2117 21.1641 39.8885 21.1641C40.5676 21.1641 40.9378 21.6189 40.9496 22.498C40.9614 23.4312 40.952 24.3645 40.952 25.3401H48.0167C48.0167 24.4069 48.0096 23.4783 48.0167 22.5498C48.0238 21.6236 48.4176 21.1146 49.1132 21.1711C49.9432 21.2371 50.1484 21.8051 50.1366 22.538C50.1225 23.4453 50.1319 24.3527 50.1319 25.3213C53.3624 25.4815 55.263 27.1359 55.8337 30.334C56.8193 30.334 57.7861 30.3411 58.7553 30.334C59.4769 30.3269 59.9933 30.6121 60.0004 31.3804C60.0074 32.1486 59.4863 32.4479 58.7718 32.4503C57.8074 32.455 56.8429 32.4503 55.8337 32.4503V38.8087C56.7439 38.8087 57.673 38.804 58.5997 38.8087C59.5405 38.8134 60.0216 39.181 60.0145 39.8715C60.0074 40.5573 59.5264 40.9156 58.5761 40.9226C57.6942 40.9297 56.8123 40.9226 55.8573 40.9226V47.9786C56.7651 47.9786 57.6942 47.9715 58.6233 47.9786C59.5453 47.988 60.064 48.3839 60.0074 49.0721C59.939 49.8969 59.3778 50.109 58.6398 50.0973C57.673 50.0808 56.7062 50.0926 55.7228 50.0926V50.0949ZM39.8838 52.2183C43.2935 52.2183 46.7056 52.223 50.1154 52.2183C52.4051 52.2136 53.6643 50.9575 53.6643 48.6785C53.669 42.8009 53.669 36.9257 53.6643 31.0481C53.6643 28.7597 52.4168 27.5059 50.1225 27.5036C43.3006 27.4989 36.4811 27.4989 29.6592 27.5036C27.3554 27.5036 26.1151 28.7456 26.1127 31.0386C26.108 36.9162 26.108 42.7915 26.1127 48.6691C26.1127 50.9622 27.3578 52.2136 29.6498 52.2183C33.0596 52.2254 36.4717 52.2183 39.8814 52.2183H39.8838Z" fill="#5D5D60"/>
<path id="Vector_4" d="M36.7133 42.3769H31.0586C31.0586 43.329 31.0586 44.2858 31.0586 45.2426C31.0586 45.5655 31.0775 45.8907 31.0469 46.2112C30.9855 46.8546 30.6271 47.2694 29.9669 47.2505C29.3113 47.2317 28.9482 46.8192 28.9458 46.1594C28.9411 42.9849 28.8987 39.8104 28.9741 36.6383C29.0166 34.8637 30.3819 33.485 32.3674 32.9406C35.2654 32.1441 38.1635 33.6429 38.727 36.2353C38.7954 36.5487 38.8237 36.874 38.8237 37.1945C38.8308 40.0744 38.8284 42.9543 38.8284 45.8341C38.8284 45.9213 38.8284 46.0109 38.8284 46.0981C38.8025 46.7839 38.4771 47.2505 37.7673 47.2482C37.0623 47.2482 36.718 46.791 36.7156 46.0981C36.7086 44.8726 36.7156 43.6448 36.7156 42.3769H36.7133ZM36.7086 40.1733C36.7086 39.2 36.7156 38.2691 36.7086 37.3382C36.6991 36.0727 36.1803 35.3869 34.973 35.0169C33.3082 34.5055 31.3581 35.2054 31.1577 36.537C30.9808 37.7271 31.12 38.962 31.12 40.171H36.7086V40.1733Z" fill="#5D5D60"/>
<path id="Vector_5" d="M47.6995 35.2726V45.1589C48.3008 45.1589 48.9045 45.1495 49.5058 45.1589C50.3594 45.1731 50.864 45.5713 50.8192 46.2336C50.7673 46.9971 50.2722 47.2752 49.5577 47.2752C47.5887 47.2705 45.6197 47.2705 43.6507 47.2752C42.9362 47.2752 42.4387 47.0042 42.375 46.2454C42.3208 45.5878 42.8325 45.1754 43.6767 45.1589C44.2591 45.1471 44.8415 45.1589 45.4806 45.1589V35.2726C44.8604 35.2726 44.252 35.2702 43.646 35.2726C42.9339 35.2773 42.401 34.9945 42.3844 34.2356C42.3679 33.4791 42.8679 33.1562 43.5941 33.1562C45.5914 33.1562 47.591 33.1562 49.5883 33.1562C50.3122 33.1562 50.8192 33.4626 50.8098 34.2238C50.8004 34.9851 50.2745 35.2749 49.5624 35.2726C48.9752 35.2726 48.3881 35.2726 47.6995 35.2726Z" fill="#5D5D60"/>
</g>
<defs>
<clipPath id="clip0_2199_2143">
<rect width="90" height="90" fill="white"/>
</clipPath>
</defs>
</svg>
