<svg width="100" height="90" viewBox="0 0 100 90" fill="none" xmlns="http://www.w3.org/2000/svg">
<g id="Layer_1" clip-path="url(#clip0_2200_2153)">
<path id="Vector" d="M25.811 78.6461C26.193 79.3239 26.6169 80.0373 27.011 80.7686C28.1811 82.9386 27.5542 85.3048 25.4348 86.5831C23.8348 87.5522 22.205 88.4856 20.5632 89.3833C18.3065 90.6199 15.8945 89.966 14.593 87.7305C9.93629 79.74 5.29747 71.7436 0.676559 63.7353C-0.642848 61.4463 0.0079 59.0444 2.27656 57.7008C3.82881 56.7793 5.39896 55.8815 6.97508 55.0076C9.2736 53.7293 11.6736 54.3833 13.0348 56.6366C13.4288 57.2906 13.805 57.9564 14.2288 58.6877C17.005 57.0944 19.7274 55.5367 22.4497 53.9731C24.6229 52.7246 26.802 51.4761 28.9692 50.2157C30.9811 49.0504 33.0766 48.7531 35.3453 49.3655C42.4856 51.2918 49.6379 53.1586 56.7782 55.073C60.6409 56.1075 62.5693 59.4428 61.6081 63.3191C61.5782 63.444 61.5722 63.5748 61.5245 63.8958C61.9364 63.6758 62.2409 63.5212 62.5334 63.3548C69.4947 59.3595 76.4439 55.3346 83.423 51.3631C87.8828 48.8245 93.2081 51.1728 94.2708 56.0896C94.9276 59.1277 93.5067 62.1836 90.5992 63.878C86.5216 66.2501 82.426 68.5926 78.3365 70.941C72.1335 74.5082 65.9126 78.0516 59.7275 81.6544C57.2439 83.0991 54.6827 83.438 51.9065 82.677C45.3215 80.8815 38.6886 79.2525 32.1453 77.3381C29.6737 76.6187 27.7035 76.9814 25.805 78.6342L25.811 78.6461ZM24.3423 76.1193C24.8199 75.8518 25.1901 75.6853 25.5124 75.4535C27.6438 73.9136 29.9005 73.8423 32.3841 74.5379C39.0826 76.4047 45.8289 78.117 52.5394 79.9541C54.6469 80.5308 56.5454 80.3048 58.414 79.199C61.4648 77.3916 64.5514 75.6497 67.626 73.8839C74.8439 69.7341 82.0738 65.5902 89.2798 61.4226C91.5664 60.0967 92.2768 57.4392 90.9932 55.2929C89.7395 53.1883 87.1186 52.5403 84.8559 53.7828C84.0678 54.2168 83.2857 54.6806 82.5036 55.1265C75.5126 59.1455 68.5036 63.1289 61.5484 67.1954C59.4767 68.4083 57.4707 68.7174 55.1364 68.0337C50.6767 66.7317 46.1573 65.6259 41.6617 64.4368C40.2707 64.0682 38.8796 63.7115 37.4946 63.3191C36.6587 63.0813 36.2587 62.4808 36.4617 61.6425C36.6647 60.7924 37.3155 60.501 38.1632 60.6378C38.3602 60.6675 38.5513 60.7329 38.7483 60.7805C44.02 62.1657 49.2916 63.5688 54.5752 64.9243C56.5215 65.4237 58.4081 64.3358 58.9394 62.5105C59.4946 60.614 58.5155 58.6758 56.6409 57.9743C56.2946 57.8435 55.9424 57.7484 55.5842 57.6592C48.7304 55.834 41.8707 54.0444 35.0289 52.1657C33.214 51.6663 31.6438 51.8744 30.0438 52.8197C26.3005 55.0314 22.5095 57.1657 18.7423 59.3358C17.7333 59.9184 16.7244 60.501 15.6497 61.1253C18.5572 66.1372 21.4289 71.0956 24.3423 76.1253V76.1193ZM9.50643 57.0171C8.91539 57.243 8.55718 57.3381 8.24076 57.5105C6.75419 58.3488 5.27359 59.1931 3.79895 60.0611C2.72433 60.6972 2.55119 61.369 3.19597 62.4868C7.76314 70.3762 12.3303 78.2656 16.9094 86.1491C17.5781 87.2965 18.2587 87.4808 19.4109 86.8328C20.808 86.048 22.199 85.2394 23.59 84.4368C24.9035 83.6758 25.0766 83.0337 24.3363 81.7436C23.208 79.7757 22.0617 77.8138 20.9274 75.8459C17.5423 70.0076 14.1691 64.1693 10.7602 58.3488C10.4557 57.8256 9.9124 57.4451 9.50643 57.023V57.0171Z" fill="#5D5D60"/>
<path id="Vector_2" d="M54.7943 41.721C45.3018 48.5581 34.4122 45.0266 29.3793 38.4332C24.0062 31.394 24.5077 21.5961 30.6211 15.1098C36.3704 9.01587 47.1764 6.91718 55.66 14.0159C63.266 9.17639 71.3735 8.08246 79.8093 11.4356C88.2272 14.7828 93.2661 21.1621 95.5228 30.2822C96.0721 29.5985 96.4482 29.0397 96.9138 28.5819C97.5586 27.9398 98.4243 27.9457 98.9735 28.4986C99.5407 29.0694 99.5348 29.8839 98.884 30.5557C97.7676 31.7091 96.6273 32.8387 95.4691 33.9564C94.687 34.7115 93.9706 34.6996 93.1885 33.9445C92.084 32.8744 90.9974 31.7804 89.9168 30.6865C89.1467 29.9077 89.0571 29.105 89.6482 28.4927C90.2273 27.8922 90.9138 27.9219 91.7855 28.5878C91.8631 28.6473 91.9526 28.6948 92.2571 28.891C90.0362 22.0182 85.9049 17.0777 79.4153 14.3012C71.9227 11.0967 64.675 11.8518 57.7615 16.0194C58.7824 17.8149 59.7436 19.5153 60.7406 21.2751C65.5406 18.243 70.7466 17.4285 76.2392 19.4974C80.4362 21.0789 83.5287 23.9326 85.4452 27.9814C89.2959 36.0967 85.9765 45.8351 78.0004 49.9433C69.5347 54.3072 58.9078 50.8173 54.7884 41.721H54.7943ZM43.5764 42.6187C52.0301 42.6306 58.854 35.9184 58.8839 27.5593C58.9197 19.2061 52.0898 12.3571 43.7137 12.3512C35.2958 12.3512 28.436 19.1407 28.454 27.4701C28.4719 35.8173 35.248 42.6068 43.5764 42.6187ZM70.2571 49.0159C78.5974 49.0159 84.9974 41.8993 84.1377 33.5819C83.0451 23.0527 70.7466 17.589 62.1078 23.7781C61.5824 24.1586 61.4391 24.5153 61.5167 25.1812C62.1317 30.2644 60.8481 34.8363 57.6003 38.8197C57.1227 39.4023 57.0809 39.8601 57.3615 40.52C59.5167 45.6033 64.6749 49.0159 70.2511 49.0218L70.2571 49.0159Z" fill="#5D5D60"/>
<path id="Vector_3" d="M59.1343 4.66571C59.1343 3.75608 59.1164 2.99508 59.1343 2.24003C59.1641 1.30662 59.7074 0.712088 60.5253 0.741815C61.4089 0.777487 61.8985 1.31256 61.9224 2.14491C61.9701 3.982 61.9701 5.8191 61.9224 7.65026C61.8985 8.57772 61.3313 9.05335 60.3164 9.07118C58.5731 9.10091 56.8298 9.10091 55.0865 9.07118C54.0716 9.05335 53.4925 8.4826 53.5104 7.63837C53.5283 6.81197 54.0776 6.34229 55.0567 6.30067C55.3253 6.28878 55.588 6.30067 55.9522 6.12826C55.6716 5.95585 55.391 5.7656 55.0985 5.61102C40.9551 -1.85628 23.0506 6.3304 19.5402 21.8774C18.4536 26.6871 18.7402 31.4077 20.4058 36.0629C20.5969 36.5979 20.5849 37.3173 20.376 37.8286C20.2446 38.1437 19.4984 38.4529 19.1342 38.3577C18.6745 38.2388 18.1312 37.7811 17.9461 37.3411C16.8596 34.7371 16.2805 31.9903 16.1312 29.1782C15.373 14.9987 25.1163 2.76916 39.1581 0.402933C45.8805 -0.73262 52.2149 0.54562 58.0716 4.06524C58.3761 4.24954 58.6865 4.41601 59.1343 4.66571Z" fill="#5D5D60"/>
<path id="Vector_4" d="M6.36345 61.2883C6.53061 61.11 6.79927 60.6106 7.19927 60.4679C7.59927 60.3252 8.34554 60.3787 8.5545 60.6403C9.17539 61.437 9.6948 62.3466 10.0649 63.2919C10.1903 63.607 9.86196 64.3026 9.52763 64.5404C9.19927 64.7782 8.57241 64.7842 8.14853 64.6653C7.50375 64.475 6.27986 62.2336 6.36345 61.2883Z" fill="#5D5D60"/>
<path id="Vector_5" d="M45.0699 36.2866C45.0699 36.9584 45.0878 37.6183 45.0699 38.2842C45.046 39.1522 44.5624 39.6516 43.7146 39.7349C42.9325 39.8122 42.3176 39.1641 42.2758 38.2664C42.246 37.6005 42.2699 36.9346 42.2699 36.2569C40.843 35.8288 39.5594 35.2105 38.8072 33.9441C38.3773 33.2188 38.0967 32.3686 37.9295 31.5363C37.7504 30.6623 38.3236 29.9727 39.1176 29.8538C39.8997 29.7349 40.5445 30.2402 40.6758 31.1736C40.8609 32.4816 41.649 33.1772 42.8669 33.4626C44.1385 33.7598 45.2848 33.4804 46.1505 32.4816C47.1117 31.3758 46.5863 29.7408 45.0699 29.1938C44.4191 28.962 43.6967 28.8966 43.0042 28.8133C40.1564 28.4685 38.1863 26.6671 37.9116 24.1225C37.6728 21.8811 39.1654 19.8538 41.7624 18.9025C41.9176 18.8431 42.0669 18.7717 42.2699 18.6766C42.2699 18.0167 42.246 17.3508 42.2699 16.6849C42.3057 15.8288 42.7654 15.3116 43.637 15.2462C44.443 15.1867 45.0281 15.7991 45.0699 16.7087C45.0997 17.3389 45.0699 17.9751 45.0699 18.6647C45.5355 18.855 46.0072 19.0095 46.443 19.2295C48.0967 20.0738 49.1654 21.3579 49.4221 23.2367C49.5594 24.2474 49.0758 24.9965 48.2221 25.1213C47.4221 25.2402 46.8311 24.6992 46.64 23.6944C46.4072 22.4221 45.5833 21.6671 44.1743 21.4293C42.9146 21.2153 41.4818 21.8276 40.9504 22.8086C40.2818 24.0393 41.0937 25.5494 42.6519 25.918C43.1713 26.0428 43.7087 26.0904 44.246 26.1439C47.0758 26.4293 49.0938 28.2188 49.4221 30.7515C49.7146 33.0107 48.1923 35.1035 45.5654 36.0666C45.4102 36.1261 45.2609 36.1915 45.0579 36.2688L45.0699 36.2866Z" fill="#5D5D60"/>
<path id="Vector_6" d="M71.6424 26.8878C73.0573 27.3456 74.2931 27.9817 74.9857 29.2481C75.3558 29.9258 75.5528 30.7344 75.6663 31.5073C75.7857 32.304 75.3499 32.8747 74.52 32.9877C73.6484 33.1066 73.1349 32.6488 72.926 31.8165C72.4543 29.9258 70.8066 29.0638 69.0513 29.8129C68.1976 30.1815 67.5409 30.7701 67.6364 31.7808C67.7319 32.7558 68.4185 33.3147 69.326 33.5465C69.9051 33.6952 70.52 33.719 71.117 33.7903C73.4155 34.0638 75.3558 35.7998 75.6484 37.845C75.9707 40.1161 74.7648 42.1018 72.4245 43.0115C71.8334 43.2433 71.5409 43.5049 71.6364 44.153C71.6842 44.48 71.6483 44.8188 71.6364 45.1518C71.6006 45.9841 71.123 46.4419 70.3349 46.5489C69.5946 46.644 68.9319 46.0495 68.8543 45.2231C68.8006 44.5989 68.8424 43.9627 68.8424 43.3266C66.8603 42.6607 65.3797 41.5727 64.908 39.4978C64.8424 39.2065 64.7886 38.9033 64.8065 38.606C64.8483 37.8034 65.2662 37.2742 66.0901 37.2029C66.92 37.1375 67.4095 37.5953 67.5886 38.3801C68.0424 40.3599 69.9528 41.2398 71.726 40.2647C72.4125 39.8902 72.8961 39.367 72.8722 38.5228C72.8424 37.6488 72.323 37.0662 71.5588 36.8046C70.8722 36.5727 70.126 36.4954 69.3976 36.4003C66.9916 36.0911 65.111 34.3551 64.8245 32.1494C64.5558 30.0626 65.8334 28.0471 68.0901 27.1851C68.711 26.9473 68.92 26.65 68.8483 26.0317C68.8066 25.6393 68.8066 25.2231 68.8782 24.8367C69.0215 24.0876 69.517 23.6357 70.2812 23.6654C71.0812 23.6952 71.5886 24.1589 71.6364 24.9912C71.6663 25.5858 71.6424 26.1922 71.6424 26.8759V26.8878Z" fill="#5D5D60"/>
</g>
<defs>
<clipPath id="clip0_2200_2153">
<rect width="99.3913" height="90" fill="white"/>
</clipPath>
</defs>
</svg>
