<svg width="25" height="25" viewBox="0 0 25 25" fill="none" xmlns="http://www.w3.org/2000/svg">
<g id="Layer_1">
<path id="Vector" d="M10.86 6.06386C11.1524 6.96659 11.4709 7.86386 11.7313 8.77477C12.3233 10.8448 13.6266 12.2561 15.8637 12.8711C16.7408 13.1125 17.5931 13.4343 18.6666 13.7889C18.2549 13.9375 18.0266 14.0261 17.7938 14.1025C17.0157 14.3561 16.2331 14.5948 15.4578 14.8566C13.6513 15.4689 12.4484 16.628 11.8869 18.3584C11.5451 19.4152 11.2018 20.472 10.7059 21.522C10.4106 20.6139 10.0877 19.7139 9.82585 18.7975C9.22658 16.6907 7.85494 15.3093 5.60767 14.6889C4.77422 14.4584 3.96112 14.1666 2.95312 13.842C3.27458 13.6975 3.4404 13.6061 3.61785 13.5461C4.46149 13.2625 5.30512 12.9802 6.15458 12.7102C8.0004 12.1211 9.11894 10.8884 9.69494 9.18523C10.0455 8.15159 10.3684 7.10841 10.7044 6.07068C10.7553 6.06795 10.8062 6.06523 10.8571 6.0625L10.86 6.06386Z" fill="#005EE3"/>
<path id="Vector_2" d="M22.8729 6.8621C20.3885 7.2971 19.1303 8.66756 18.8889 11.028C18.3682 9.94665 18.1282 8.89529 17.4576 8.21619C16.8002 7.54938 15.7063 7.26165 14.918 6.86483C15.6874 6.47483 16.7914 6.17347 17.4678 5.4971C18.1325 4.83301 18.3652 3.78847 18.8714 2.73438C19.1536 5.02665 20.3362 6.48438 22.87 6.8621H22.8729Z" fill="#005EE3"/>
</g>
</svg>
