<svg width="33" height="32" viewBox="0 0 33 32" fill="none" xmlns="http://www.w3.org/2000/svg">
<path d="M14.1352 8.83606C15.184 6.22139 15.7084 4.91406 16.6102 4.91406C17.5119 4.91406 18.0363 6.2214 19.0851 8.83606L19.134 8.95782C19.7265 10.435 20.0227 11.1736 20.6265 11.6225C21.2303 12.0714 22.023 12.1424 23.6082 12.2843L23.8948 12.31C26.4892 12.5424 27.7864 12.6585 28.064 13.4838C28.3415 14.3092 27.3782 15.1856 25.4514 16.9385L24.8084 17.5236C23.8331 18.4109 23.3454 18.8546 23.1181 19.4361C23.0757 19.5446 23.0404 19.6557 23.0126 19.7688C22.8632 20.375 23.006 21.0186 23.2916 22.3059L23.3805 22.7066C23.9054 25.0724 24.1678 26.2553 23.7096 26.7655C23.5384 26.9562 23.3158 27.0935 23.0686 27.1609C22.407 27.3414 21.4677 26.576 19.5891 25.0453C18.3555 24.0401 17.7387 23.5375 17.0306 23.4244C16.7521 23.3799 16.4682 23.3799 16.1897 23.4244C15.4816 23.5375 14.8648 24.0401 13.6312 25.0453C11.7526 26.576 10.8133 27.3414 10.1517 27.1609C9.90448 27.0935 9.68193 26.9562 9.5107 26.7655C9.05246 26.2553 9.31491 25.0724 9.83981 22.7066L9.92871 22.3059C10.2143 21.0186 10.3571 20.375 10.2077 19.7688C10.1799 19.6557 10.1446 19.5446 10.1022 19.4361C9.87491 18.8546 9.38724 18.4109 8.41189 17.5236L7.76885 16.9385C5.84213 15.1856 4.87876 14.3092 5.15634 13.4838C5.43391 12.6585 6.73112 12.5424 9.32553 12.31L9.61212 12.2843C11.1973 12.1424 11.9899 12.0714 12.5937 11.6225C13.1975 11.1736 13.4938 10.435 14.0863 8.95781L14.1352 8.83606Z" fill="#ECBA0B" stroke="#ECBA0B" stroke-width="0.862829"/>
</svg>
