<svg width="72" height="72" viewBox="0 0 72 72" fill="none" xmlns="http://www.w3.org/2000/svg">
<g id="tdesign:discount-filled" clip-path="url(#clip0_2922_5050)">
<path id="Vector" d="M49.3353 25.6231C48.6773 24.7905 47.7156 24.2533 46.6616 24.1298C45.6076 24.0063 44.5477 24.3065 43.7151 24.9645C42.8824 25.6224 42.3453 26.5842 42.2218 27.6381C42.0983 28.6921 42.3985 29.752 43.0564 30.5847C43.7144 31.4173 44.6761 31.9544 45.7301 32.078C46.7841 32.2015 47.844 31.9012 48.6766 31.2433C49.5093 30.5854 50.0464 29.6236 50.1699 28.5696C50.2935 27.5156 49.9932 26.4557 49.3353 25.6231Z" fill="white"/>
<path id="Vector_2" d="M65.6927 12.7082L64.5721 40.7819L32.2251 66.3426L5.77122 32.8653L38.1179 7.30722L65.6927 12.7082ZM41.2351 21.8328C40.4013 22.4808 39.704 23.2876 39.1835 24.2065C38.6631 25.1254 38.3297 26.1383 38.2026 27.1866C38.0756 28.235 38.1573 29.2982 38.4432 30.3148C38.7291 31.3314 39.2134 32.2814 39.8683 33.1099C40.5231 33.9384 41.3355 34.6291 42.2586 35.1421C43.1817 35.655 44.1973 35.9801 45.2466 36.0987C46.296 36.2172 47.3585 36.1268 48.3728 35.8326C49.387 35.5385 50.333 35.0464 51.1562 34.3849C52.8012 33.0628 53.8571 31.1442 54.094 29.0471C54.3308 26.95 53.7294 24.8442 52.4208 23.1885C51.1121 21.5328 49.2022 20.4613 47.1071 20.2073C45.012 19.9534 42.9014 20.5376 41.2351 21.8328Z" fill="white"/>
</g>
<defs>
<clipPath id="clip0_2922_5050">
<rect width="64" height="64" fill="white" transform="translate(8.03906 0.585938) rotate(6.68411)"/>
</clipPath>
</defs>
</svg>
