<svg width="41" height="40" viewBox="0 0 41 40" fill="none" xmlns="http://www.w3.org/2000/svg">
<g id="material-symbols:holiday-village-outline-rounded">
<path id="Vector" d="M3.7207 29.9896V18.0313C3.7207 17.5868 3.80404 17.1635 3.9707 16.7613C4.13737 16.359 4.37348 16.0046 4.67904 15.6979L11.3457 9.03125C11.679 8.69792 12.054 8.44792 12.4707 8.28125C12.8874 8.11459 13.304 8.03125 13.7207 8.03125C14.1374 8.03125 14.554 8.11459 14.9707 8.28125C15.3874 8.44792 15.7624 8.69792 16.0957 9.03125L22.7624 15.6979C23.0679 16.0035 23.304 16.3579 23.4707 16.7613C23.6374 17.1646 23.7207 17.5879 23.7207 18.0313V29.9896C23.7207 30.9063 23.3946 31.6913 22.7424 32.3446C22.0901 32.9979 21.3051 33.324 20.3874 33.3229H7.05404C6.13737 33.3229 5.35293 32.9968 4.7007 32.3446C4.04848 31.6924 3.72181 30.9074 3.7207 29.9896ZM7.05404 29.9896H12.054V26.6563C12.054 26.184 12.214 25.7885 12.534 25.4696C12.854 25.1507 13.2496 24.9907 13.7207 24.9896C14.1929 24.9896 14.589 25.1496 14.909 25.4696C15.229 25.7896 15.3885 26.1851 15.3874 26.6563V29.9896H20.3874V18.0313L13.7207 11.3646L7.05404 18.0313V29.9896ZM27.054 31.6563V15.2813L21.2624 9.48959C20.7346 8.96181 20.6096 8.35736 20.8874 7.67625C21.1651 6.99514 21.679 6.65514 22.429 6.65625C22.6513 6.65625 22.8735 6.70514 23.0957 6.80292C23.3179 6.9007 23.4985 7.01848 23.6374 7.15625L29.429 12.9479C29.7346 13.2535 29.9707 13.6079 30.1374 14.0113C30.304 14.4146 30.3874 14.8379 30.3874 15.2813V31.6563C30.3874 32.1285 30.2274 32.5246 29.9074 32.8446C29.5874 33.1646 29.1918 33.324 28.7207 33.3229C28.2485 33.3229 27.8529 33.1629 27.534 32.8429C27.2151 32.5229 27.0551 32.1274 27.054 31.6563ZM33.7207 31.6563V12.5313L30.679 9.48959C30.1513 8.96181 30.0263 8.35736 30.304 7.67625C30.5818 6.99514 31.0957 6.65514 31.8457 6.65625C32.0679 6.65625 32.2901 6.70514 32.5124 6.80292C32.7346 6.9007 32.9151 7.01848 33.054 7.15625L36.0957 10.1979C36.4013 10.5035 36.6374 10.8579 36.804 11.2613C36.9707 11.6646 37.054 12.0879 37.054 12.5313V31.6563C37.054 32.1285 36.894 32.5246 36.574 32.8446C36.254 33.1646 35.8585 33.324 35.3874 33.3229C34.9151 33.3229 34.5196 33.1629 34.2007 32.8429C33.8818 32.5229 33.7218 32.1274 33.7207 31.6563ZM13.7207 21.6563C13.2485 21.6563 12.8529 21.4963 12.534 21.1763C12.2151 20.8563 12.0551 20.4607 12.054 19.9896C12.054 19.5174 12.214 19.1218 12.534 18.8029C12.854 18.484 13.2496 18.324 13.7207 18.3229C14.1929 18.3229 14.589 18.4829 14.909 18.8029C15.229 19.1229 15.3885 19.5185 15.3874 19.9896C15.3874 20.4618 15.2274 20.8579 14.9074 21.1779C14.5874 21.4979 14.1918 21.6574 13.7207 21.6563Z" fill="#262626"/>
</g>
</svg>
