<svg width="24" height="24" viewBox="0 0 24 24" fill="none" xmlns="http://www.w3.org/2000/svg">
<path d="M8.1119 11.0519C7.41754 10.3569 6.22949 10.8493 6.22949 11.8315V16.4875C6.22949 16.8276 6.36459 17.1538 6.60507 17.3942C6.84554 17.6347 7.1717 17.7698 7.51178 17.7698H12.1678C13.15 17.7698 13.6424 16.5818 12.9474 15.8874L8.1119 11.0519ZM11.7344 16.4875H7.51178V12.2649L11.7344 16.4875Z" fill="#5D5D60"/>
<path d="M4.38383 2.38281C4.12105 2.38281 3.86085 2.43457 3.61807 2.53513C3.3753 2.63569 3.15471 2.78309 2.9689 2.9689C2.59363 3.34416 2.38281 3.85313 2.38281 4.38383V19.4802C2.38281 20.047 2.60795 20.5905 3.00871 20.9913C3.40946 21.392 3.953 21.6172 4.51975 21.6172H19.6168C20.0126 21.6172 20.3995 21.4999 20.7286 21.28C21.0577 21.0601 21.3142 20.7476 21.4657 20.3819C21.6171 20.0163 21.6567 19.6139 21.5795 19.2257C21.5023 18.8376 21.3117 18.481 21.0318 18.2012L5.79884 2.96882C5.61301 2.78301 5.39241 2.63563 5.14962 2.53508C4.90683 2.43453 4.64661 2.38279 4.38383 2.38281ZM3.6651 4.38383C3.66502 4.24162 3.70713 4.10258 3.78609 3.9843C3.86506 3.86603 3.97734 3.77384 4.10873 3.71941C4.24011 3.66498 4.38469 3.65074 4.52416 3.67851C4.66364 3.70628 4.79174 3.7748 4.89226 3.8754L5.38594 4.36908L4.71658 5.03716C4.68464 5.06699 4.65902 5.10295 4.64126 5.14289C4.62351 5.18283 4.61397 5.22593 4.61322 5.26963C4.61247 5.31334 4.62053 5.35674 4.63691 5.39727C4.65329 5.43779 4.67766 5.4746 4.70857 5.50551C4.73948 5.53642 4.77629 5.56079 4.81681 5.57717C4.85734 5.59355 4.90074 5.60161 4.94445 5.60086C4.98815 5.60011 5.03126 5.59058 5.0712 5.57282C5.11114 5.55506 5.14709 5.52945 5.17693 5.4975L5.84564 4.82942L7.14781 6.13095L6.64002 6.64002C6.60807 6.66985 6.58246 6.70581 6.5647 6.74575C6.54694 6.78569 6.53741 6.8288 6.53666 6.8725C6.53591 6.9162 6.54397 6.95961 6.56035 7.00013C6.57673 7.04066 6.6011 7.07747 6.63201 7.10838C6.66291 7.13928 6.69973 7.16365 6.74025 7.18004C6.78078 7.19642 6.82418 7.20447 6.86789 7.20372C6.91159 7.20298 6.95469 7.19344 6.99463 7.17568C7.03457 7.15793 7.07053 7.13231 7.10036 7.10036L7.60879 6.59258L8.9116 7.8941L8.24289 8.56346C8.21094 8.59329 8.18532 8.62925 8.16757 8.66919C8.14981 8.70913 8.14027 8.75223 8.13952 8.79594C8.13878 8.83964 8.14683 8.88305 8.16321 8.92357C8.17959 8.96409 8.20396 9.00091 8.23487 9.03181C8.26578 9.06272 8.30259 9.08709 8.34312 9.10347C8.38364 9.11985 8.42705 9.12791 8.47075 9.12716C8.51445 9.12641 8.55756 9.11688 8.5975 9.09912C8.63744 9.08136 8.6734 9.05575 8.70323 9.0238L9.37194 8.35509L10.6748 9.65789L10.1663 10.1663C10.1344 10.1962 10.1088 10.2321 10.091 10.2721C10.0732 10.312 10.0637 10.3551 10.063 10.3988C10.0622 10.4425 10.0703 10.4859 10.0867 10.5264C10.103 10.567 10.1274 10.6038 10.1583 10.6347C10.1892 10.6656 10.226 10.69 10.2666 10.7063C10.3071 10.7227 10.3505 10.7308 10.3942 10.73C10.4379 10.7293 10.481 10.7197 10.5209 10.702C10.5609 10.6842 10.5968 10.6586 10.6267 10.6267L11.1351 10.1182L12.4373 11.421L11.7692 12.0898C11.7372 12.1196 11.7116 12.1556 11.6939 12.1955C11.6761 12.2354 11.6666 12.2785 11.6658 12.3222C11.6651 12.3659 11.6731 12.4093 11.6895 12.4499C11.7059 12.4904 11.7303 12.5272 11.7612 12.5581C11.7921 12.589 11.8289 12.6134 11.8694 12.6298C11.9099 12.6462 11.9533 12.6542 11.9971 12.6535C12.0408 12.6527 12.0839 12.6432 12.1238 12.6254C12.1637 12.6077 12.1997 12.582 12.2295 12.5501L12.8982 11.8814L14.2004 13.1842L13.6926 13.6926C13.6607 13.7225 13.6351 13.7584 13.6173 13.7984C13.5995 13.8383 13.59 13.8814 13.5893 13.9251C13.5885 13.9688 13.5966 14.0122 13.613 14.0527C13.6293 14.0933 13.6537 14.1301 13.6846 14.161C13.7155 14.1919 13.7523 14.2163 13.7929 14.2326C13.8334 14.249 13.8768 14.2571 13.9205 14.2563C13.9642 14.2556 14.0073 14.246 14.0472 14.2283C14.0872 14.2105 14.1231 14.1849 14.153 14.153L14.6614 13.6445L15.9636 14.9473L15.2955 15.6161C15.2635 15.6459 15.2379 15.6819 15.2202 15.7218C15.2024 15.7617 15.1929 15.8048 15.1921 15.8485C15.1914 15.8922 15.1994 15.9357 15.2158 15.9762C15.2322 16.0167 15.2566 16.0535 15.2875 16.0844C15.3184 16.1153 15.3552 16.1397 15.3957 16.1561C15.4362 16.1725 15.4797 16.1805 15.5234 16.1798C15.5671 16.179 15.6102 16.1695 15.6501 16.1517C15.69 16.134 15.726 16.1084 15.7558 16.0764L16.4245 15.4077L17.7267 16.7105L17.2189 17.2189C17.187 17.2488 17.1614 17.2847 17.1436 17.3247C17.1258 17.3646 17.1163 17.4077 17.1156 17.4514C17.1148 17.4951 17.1229 17.5385 17.1393 17.579C17.1556 17.6196 17.18 17.6564 17.2109 17.6873C17.2418 17.7182 17.2786 17.7426 17.3192 17.7589C17.3597 17.7753 17.4031 17.7834 17.4468 17.7826C17.4905 17.7819 17.5336 17.7723 17.5735 17.7546C17.6135 17.7368 17.6494 17.7112 17.6793 17.6793L18.1877 17.1708L19.4899 18.4736L18.8218 19.1424C18.7898 19.1722 18.7642 19.2082 18.7465 19.2481C18.7287 19.288 18.7192 19.3311 18.7184 19.3748C18.7177 19.4185 18.7257 19.462 18.7421 19.5025C18.7585 19.543 18.7829 19.5798 18.8138 19.6107C18.8447 19.6416 18.8815 19.666 18.922 19.6824C18.9625 19.6988 19.006 19.7068 19.0497 19.7061C19.0934 19.7053 19.1365 19.6958 19.1764 19.678C19.2163 19.6603 19.2523 19.6347 19.2821 19.6027L19.9508 18.934L20.124 19.1071C20.2247 19.2075 20.2934 19.3356 20.3214 19.4752C20.3493 19.6147 20.3351 19.7594 20.2808 19.8909C20.2264 20.0223 20.1342 20.1347 20.0159 20.2138C19.8976 20.2928 19.7585 20.335 19.6162 20.3349H4.51975C4.29309 20.3349 4.0757 20.2449 3.91542 20.0846C3.75515 19.9243 3.6651 19.7069 3.6651 19.4802V4.38383Z" fill="#5D5D60"/>
</svg>
