<svg width="24" height="24" viewBox="0 0 24 24" fill="none" xmlns="http://www.w3.org/2000/svg">
<path d="M17.5 15.2254C17.5 16.3638 17.109 17.3441 16.3269 18.1663C15.5449 18.9885 14.529 19.4963 13.2793 19.6897V21.6429C13.2793 21.747 13.244 21.8326 13.1732 21.8996C13.1025 21.9665 13.0121 22 12.9021 22H11.3105C11.2083 22 11.1199 21.9647 11.0452 21.894C10.9706 21.8233 10.9332 21.7396 10.9332 21.6429V19.6897C10.4145 19.6228 9.91344 19.5074 9.43007 19.3438C8.9467 19.1801 8.54782 19.0145 8.23343 18.8471C7.91904 18.6797 7.62823 18.5011 7.361 18.3114C7.09377 18.1217 6.91104 17.9821 6.81279 17.8929C6.71454 17.8036 6.64577 17.7366 6.60647 17.692C6.47286 17.5357 6.465 17.3832 6.5829 17.2344L7.79722 15.7277C7.85223 15.6533 7.94262 15.6086 8.06838 15.5938C8.18627 15.5789 8.28059 15.6124 8.35132 15.6942L8.3749 15.7165C9.26305 16.4531 10.218 16.9182 11.2398 17.1116C11.5306 17.1711 11.8214 17.2009 12.1122 17.2009C12.7488 17.2009 13.3088 17.0409 13.7922 16.721C14.2756 16.401 14.5172 15.9472 14.5172 15.3594C14.5172 15.151 14.4583 14.9539 14.3404 14.7679C14.2225 14.5818 14.0909 14.4256 13.9455 14.2991C13.8001 14.1726 13.5702 14.0331 13.2558 13.8806C12.9414 13.7281 12.682 13.609 12.4777 13.5234C12.2733 13.4379 11.9589 13.317 11.5345 13.1607C11.228 13.0417 10.9863 12.9487 10.8094 12.8817C10.6326 12.8147 10.3909 12.7161 10.0844 12.5859C9.77786 12.4557 9.53224 12.3404 9.34754 12.24C9.16284 12.1395 8.9408 12.0074 8.68143 11.8438C8.42206 11.6801 8.21182 11.5219 8.05069 11.3694C7.88957 11.2169 7.71862 11.0346 7.53785 10.8225C7.35707 10.6105 7.21756 10.3947 7.11932 10.1752C7.02107 9.95573 6.93855 9.70833 6.87174 9.43304C6.80493 9.15774 6.77153 8.86756 6.77153 8.5625C6.77153 7.53571 7.15665 6.63542 7.9269 5.86161C8.69715 5.0878 9.69926 4.58929 10.9332 4.36607V2.35714C10.9332 2.26042 10.9706 2.17671 11.0452 2.10603C11.1199 2.03534 11.2083 2 11.3105 2H12.9021C13.0121 2 13.1025 2.03348 13.1732 2.10045C13.244 2.16741 13.2793 2.25298 13.2793 2.35714V4.32143C13.7274 4.36607 14.1616 4.45164 14.5821 4.57812C15.0026 4.70461 15.3445 4.82924 15.6078 4.95201C15.8711 5.07478 16.1206 5.21429 16.3564 5.37054C16.5922 5.52679 16.7455 5.63467 16.8162 5.6942C16.8869 5.75372 16.9459 5.8058 16.9931 5.85045C17.1267 5.98438 17.1463 6.12574 17.052 6.27455L16.097 7.90402C16.0342 8.01562 15.9438 8.07515 15.8259 8.08259C15.7159 8.10491 15.6097 8.07887 15.5076 8.00446C15.484 7.98214 15.427 7.9375 15.3366 7.87054C15.2462 7.80357 15.093 7.70499 14.8768 7.57478C14.6607 7.44457 14.4308 7.32552 14.1871 7.21763C13.9435 7.10975 13.6507 7.01302 13.3088 6.92746C12.9669 6.84189 12.6309 6.79911 12.3008 6.79911C11.5541 6.79911 10.945 6.95908 10.4734 7.27902C10.0019 7.59896 9.76607 8.0119 9.76607 8.51786C9.76607 8.71131 9.79947 8.88988 9.86628 9.05357C9.93309 9.21726 10.049 9.37165 10.2141 9.51674C10.3791 9.66183 10.5344 9.7846 10.6798 9.88505C10.8252 9.98549 11.0452 10.1008 11.34 10.231C11.6347 10.3612 11.8725 10.4617 12.0532 10.5324C12.234 10.6031 12.5091 10.7054 12.8785 10.8393C13.2951 10.9881 13.6134 11.1053 13.8335 11.1908C14.0535 11.2764 14.3522 11.4066 14.7295 11.5815C15.1067 11.7563 15.4034 11.9144 15.6196 12.0558C15.8357 12.1972 16.0794 12.3832 16.3505 12.6138C16.6217 12.8445 16.83 13.0807 16.9754 13.3225C17.1208 13.5644 17.2446 13.849 17.3467 14.1763C17.4489 14.5037 17.5 14.8534 17.5 15.2254Z" fill="#262626"/>
</svg>
