<svg width="24" height="25" viewBox="0 0 24 25" fill="none" xmlns="http://www.w3.org/2000/svg">
<g id="gravity-ui:video">
<path id="Vector" fill-rule="evenodd" clip-rule="evenodd" d="M4.5 6.77344H12.75C13.3467 6.77344 13.919 7.01049 14.341 7.43245C14.7629 7.8544 15 8.4267 15 9.02344V15.0234C15 15.6202 14.7629 16.1925 14.341 16.6144C13.919 17.0364 13.3467 17.2734 12.75 17.2734H4.5C3.90326 17.2734 3.33097 17.0364 2.90901 16.6144C2.48705 16.1925 2.25 15.6202 2.25 15.0234V9.02344C2.25 8.4267 2.48705 7.8544 2.90901 7.43245C3.33097 7.01049 3.90326 6.77344 4.5 6.77344ZM17.178 15.8289C16.9894 16.8658 16.4428 17.8035 15.6336 18.4787C14.8244 19.1539 13.8039 19.5236 12.75 19.5234H4.5C3.30653 19.5234 2.16193 19.0493 1.31802 18.2054C0.474106 17.3615 0 16.2169 0 15.0234L0 9.02344C0 7.82996 0.474106 6.68537 1.31802 5.84146C2.16193 4.99754 3.30653 4.52344 4.5 4.52344H12.75C13.8039 4.52328 14.8244 4.89301 15.6336 5.56817C16.4428 6.24333 16.9894 7.18108 17.178 8.21794L19.509 6.55294C19.9335 6.24942 20.4334 6.06876 20.9539 6.03079C21.4744 5.99282 21.9952 6.09902 22.4593 6.33771C22.9234 6.57641 23.3127 6.93837 23.5845 7.38385C23.8563 7.82932 24 8.34109 24 8.86294V15.1839C24 15.7058 23.8563 16.2175 23.5845 16.663C23.3127 17.1085 22.9234 17.4705 22.4593 17.7092C21.9952 17.9479 21.4744 18.0541 20.9539 18.0161C20.4334 17.9781 19.9335 17.7975 19.509 17.4939L17.178 15.8289ZM17.25 13.1154L20.817 15.6639C20.9052 15.7271 21.0091 15.7648 21.1172 15.7728C21.2254 15.7807 21.3337 15.7587 21.4302 15.7091C21.5266 15.6594 21.6075 15.5841 21.664 15.4915C21.7204 15.3988 21.7502 15.2924 21.75 15.1839V8.86294C21.7502 8.75446 21.7204 8.64803 21.664 8.55538C21.6075 8.46273 21.5266 8.38745 21.4302 8.33782C21.3337 8.28819 21.2254 8.26615 21.1172 8.27411C21.0091 8.28207 20.9052 8.31973 20.817 8.38294L17.25 10.9314V13.1154Z" fill="white"/>
</g>
</svg>
