<svg width="21" height="20" viewBox="0 0 21 20" fill="none" xmlns="http://www.w3.org/2000/svg">
<g id="uil:arrow">
<path id="Vector" d="M8.19025 5.24259C8.11278 5.16449 8.02061 5.10249 7.91906 5.06018C7.81751 5.01788 7.70859 4.99609 7.59858 4.99609C7.48857 4.99609 7.37965 5.01788 7.2781 5.06018C7.17655 5.10249 7.08438 5.16449 7.00691 5.24259L2.84025 9.40926C2.76214 9.48673 2.70015 9.5789 2.65784 9.68044C2.61553 9.78199 2.59375 9.89092 2.59375 10.0009C2.59375 10.1109 2.61553 10.2199 2.65784 10.3214C2.70015 10.423 2.76214 10.5151 2.84025 10.5926L7.00691 14.7593C7.08438 14.8374 7.17655 14.8994 7.2781 14.9417C7.37965 14.984 7.48857 15.0058 7.59858 15.0058C7.70859 15.0058 7.81751 14.984 7.91906 14.9417C8.02061 14.8994 8.11278 14.8374 8.19025 14.7593C8.26836 14.6818 8.33035 14.5896 8.37266 14.4881C8.41496 14.3865 8.43675 14.2776 8.43675 14.1676C8.43675 14.0576 8.41496 13.9487 8.37266 13.8471C8.33035 13.7456 8.26836 13.6534 8.19025 13.5759L4.60691 10.0009L8.19025 6.42593C8.26836 6.34846 8.33035 6.25629 8.37266 6.15474C8.41496 6.05319 8.43675 5.94427 8.43675 5.83426C8.43675 5.72425 8.41496 5.61533 8.37266 5.51378C8.33035 5.41223 8.26836 5.32006 8.19025 5.24259ZM17.3569 9.40926L13.1902 5.24259C13.1125 5.16489 13.0203 5.10326 12.9188 5.06121C12.8173 5.01916 12.7085 4.99752 12.5986 4.99752C12.3767 4.99752 12.1638 5.08567 12.0069 5.24259C11.9292 5.32029 11.8676 5.41253 11.8255 5.51405C11.7835 5.61557 11.7618 5.72438 11.7618 5.83426C11.7618 6.05618 11.85 6.26901 12.0069 6.42593L15.5902 10.0009L12.0069 13.5759C11.9288 13.6534 11.8668 13.7456 11.8245 13.8471C11.7822 13.9487 11.7604 14.0576 11.7604 14.1676C11.7604 14.2776 11.7822 14.3865 11.8245 14.4881C11.8668 14.5896 11.9288 14.6818 12.0069 14.7593C12.0844 14.8374 12.1766 14.8994 12.2781 14.9417C12.3797 14.984 12.4886 15.0058 12.5986 15.0058C12.7086 15.0058 12.8175 14.984 12.9191 14.9417C13.0206 14.8994 13.1128 14.8374 13.1902 14.7593L17.3569 10.5926C17.435 10.5151 17.497 10.423 17.5393 10.3214C17.5816 10.2199 17.6034 10.1109 17.6034 10.0009C17.6034 9.89092 17.5816 9.78199 17.5393 9.68044C17.497 9.5789 17.435 9.48673 17.3569 9.40926Z" fill="white"/>
</g>
</svg>
