<svg width="33" height="33" viewBox="0 0 33 33" fill="none" xmlns="http://www.w3.org/2000/svg">
<path fill-rule="evenodd" clip-rule="evenodd" d="M5.43727 5.42457C8.43785 2.42399 12.5075 0.738281 16.751 0.738281C20.9944 0.738281 25.0641 2.42399 28.0647 5.42457C31.0653 8.42516 32.751 12.4948 32.751 16.7383C32.751 20.9817 31.0653 25.0514 28.0647 28.052C25.0641 31.0526 20.9944 32.7383 16.751 32.7383C12.5075 32.7383 8.43785 31.0526 5.43727 28.052C2.43669 25.0514 0.750977 20.9817 0.750977 16.7383C0.750977 12.4948 2.43669 8.42516 5.43727 5.42457ZM16.751 3.024C13.1137 3.024 9.62544 4.46889 7.05351 7.04082C4.75234 9.34199 3.3534 12.3767 3.08436 15.5954H30.4176C30.1486 12.3767 28.7496 9.34199 26.4484 7.04082C23.8765 4.46889 20.3882 3.024 16.751 3.024ZM30.4176 17.8811H3.08436C3.3534 21.0998 4.75234 24.1346 7.05351 26.4357C9.62544 29.0077 13.1137 30.4526 16.751 30.4526C20.3882 30.4526 23.8765 29.0077 26.4484 26.4357C28.7496 24.1346 30.1486 21.0998 30.4176 17.8811Z" fill="#262626"/>
<path fill-rule="evenodd" clip-rule="evenodd" d="M16.7507 0.738281C17.0947 0.738281 17.4204 0.893215 17.6374 1.16009C21.2228 5.56911 23.3131 11.0041 23.6063 16.6793C23.6083 16.7186 23.6083 16.758 23.6063 16.7972C23.3131 22.4725 21.2228 27.9075 17.6374 32.3165C17.4204 32.5833 17.0947 32.7383 16.7507 32.7383C16.4067 32.7383 16.081 32.5833 15.864 32.3165C12.2786 27.9075 10.1883 22.4725 9.89508 16.7972C9.89305 16.758 9.89305 16.7186 9.89508 16.6793C10.1883 11.0041 12.2786 5.56911 15.864 1.16009C16.081 0.893215 16.4067 0.738281 16.7507 0.738281ZM12.1809 16.7383C12.4341 21.4211 14.0251 25.9227 16.7507 29.7151C19.4763 25.9227 21.0673 21.4211 21.3205 16.7383C21.0673 12.0555 19.4763 7.55382 16.7507 3.76144C14.0251 7.55382 12.4341 12.0555 12.1809 16.7383Z" fill="#262626"/>
</svg>
