<?xml version="1.0" encoding="utf-8"?>
<!-- Generator: Adobe Illustrator 24.1.2, SVG Export Plug-In . SVG Version: 6.00 Build 0)  -->
<svg version="1.1" id="Layer_1" xmlns="http://www.w3.org/2000/svg" xmlns:xlink="http://www.w3.org/1999/xlink" x="0px" y="0px"
	 viewBox="0 0 736.6 192" style="enable-background:new 0 0 736.6 192;" xml:space="preserve">
<style type="text/css">
	.st0{fill:#005EE3;}
	.st1{fill:#FFFFFF;}
</style>
<path class="st0" d="M203.2,61.2h-29.1l-34.9,70H80.9l54.6,27.3c8.5,4.2,18.7,0.8,23-7.6L203.2,61.2z"/>
<path class="st0" d="M51.7,131.2h29.1l34.9-70h58.2l-54.5-27.3c-8.5-4.2-18.7-0.8-23,7.6L51.7,131.2z"/>
<path class="st1" d="M249.8,61.2h43.7c11.2,0,20.4,9.1,20.4,20.4v5.8c0,11.2-9.1,20.4-20.4,20.4h-26.3l5.8-11.6h19
	c5.6,0,10.2-4.6,10.2-10.2v-3c0-5.6-4.6-10.2-10.2-10.2h-30.6V131h-11.6L249.8,61.2L249.8,61.2z"/>
<path class="st1" d="M488.8,61.2h43.7c11.2,0,20.4,9.1,20.4,20.4v5.8c0,11.2-9.1,20.4-20.4,20.4h-26.3l5.8-11.6h19
	c5.6,0,10.2-4.6,10.2-10.2v-3c0-5.6-4.6-10.2-10.2-10.2h-30.6V131h-11.6V61.2z"/>
<path class="st1" d="M389.7,87.5v-5.8c0-11.2-9.1-20.4-20.4-20.4h-43.6v70h11.6V73h30.6c5.6,0,10.2,4.6,10.2,10.2v3
	c0,5.6-4.6,10.2-10.2,10.2h-19l-5.8,11.6h20.4l11.6,23.3h14.6l-12.5-24.9C384.6,103.1,389.7,95.9,389.7,87.5z"/>
<path class="st1" d="M649.1,131.1l-31.3-62.7l-2.3-4.7c-1.7-3.5-6.7-3.5-8.5,0l-2.3,4.7l-31.4,62.7h13.1l24.8-49.6l13.1,26.3h-16
	l-5.8,11.6h27.6l5.8,11.6h13.2L649.1,131.1L649.1,131.1z"/>
<path class="st1" d="M552.8,107.8h21.8l-5.8,11.6H547L552.8,107.8z"/>
<path class="st1" d="M687,72.9V61.2h-8.8h-11.6h-8.8v11.6h8.8v46.6h-8.8v11.7h8.8h11.6h8.8v-11.6h-8.8V72.9H687z"/>
<path class="st1" d="M402.8,87.9v16.6c0,14.7,12,26.7,26.7,26.7H449c14.7,0,26.7-12,26.7-26.7V87.9c0-14.7-12-26.7-26.7-26.7h-19.5
	C414.8,61.2,402.8,73.2,402.8,87.9z M448.3,119.4h-18.2c-8.7,0-15.7-7-15.7-15.7V88.5c0-8.7,7-15.7,15.7-15.7h18.2
	c8.7,0,15.7,7,15.7,15.7v15.2C464,112.5,457,119.4,448.3,119.4z"/>
</svg>
