<svg width="190" height="56" viewBox="0 0 190 56" fill="none" xmlns="http://www.w3.org/2000/svg">
<path d="M0 49.1235V7.37947C0 6.62636 0 6.63281 0.752419 6.63281C5.44393 6.63281 10.1376 6.63281 14.8334 6.63281C18.8836 6.63281 22.7413 7.45694 26.2272 9.5861C32.0315 13.1365 35.6496 18.2017 36.4859 25.0357C37.0975 30.0256 36.3784 34.8197 33.6073 39.1211C30.1978 44.4219 25.3931 47.7281 19.1437 48.7749C17.6861 49.0202 16.1878 49.0977 14.7076 49.1095C10.033 49.1504 5.35615 49.1246 0.683626 49.1246L0 49.1235ZM6.79864 12.9138V42.9361C10.3006 42.8748 13.7725 43.0179 17.2024 42.7059C22.205 42.2519 25.9327 39.6128 28.3307 35.1855C29.7883 32.4958 30.1655 29.5802 29.9957 26.5462C29.5819 19.1582 23.8098 13.3097 16.4253 12.9708C13.3146 12.8299 10.191 12.9041 7.07919 12.8815C6.98516 12.8872 6.8915 12.8979 6.79864 12.9138Z" fill="white"/>
<path d="M127.839 14.6166L122.824 18.5242C121.843 17.5301 120.966 16.508 119.954 15.6441C116.996 13.1179 113.505 12.2239 109.692 12.6166C103.78 13.2245 99.711 16.4381 97.5462 21.8691C94.7644 28.8623 97.0087 37.266 104.115 41.2618C108.914 43.9612 116.496 43.8332 121.067 39.0487C121.621 38.4678 122.121 37.833 122.695 37.167L127.785 41.1273C127.555 41.4264 127.362 41.7008 127.14 41.9558C123.593 46.1291 119.153 48.7445 113.67 49.3029C106.13 50.0697 99.8428 47.5819 94.8095 41.8396C88.4548 34.6118 88.3064 23.7196 92.7479 16.6576C96.2068 11.1437 101.044 7.47281 107.577 6.46148C115.683 5.20701 122.378 7.82462 127.57 14.2164C127.655 14.3251 127.725 14.4477 127.839 14.6166Z" fill="white"/>
<path d="M64.8103 12.8747V24.8632H65.509C71.5616 24.8632 77.6154 24.8718 83.6745 24.8535C84.2119 24.8535 84.3753 24.9611 84.3613 25.5292C84.3194 27.2656 84.3463 29.0032 84.3463 30.815H64.8049V49.0328H58.1406V6.74219H86.7325V12.8747H64.8103Z" fill="white"/>
<path d="M50.0394 6.74947V48.3601C50.0394 49.0777 50.0394 49.0777 49.3106 49.0777C47.4833 49.0777 45.656 49.0584 43.8287 49.0906C43.3235 49.1003 43.2021 48.9529 43.2031 48.4634C43.216 36.973 43.2193 25.4823 43.2128 13.9912C43.2128 11.7319 43.2182 9.47252 43.2042 7.21318C43.2042 6.85921 43.2719 6.69891 43.6718 6.70321C45.6603 6.72042 47.6488 6.71074 49.6363 6.71289C49.7438 6.71504 49.8491 6.73441 50.0394 6.74947Z" fill="white"/>
<path d="M160.763 0.507812V1.03714C160.763 3.04581 160.774 5.0534 160.751 7.06206C160.745 7.33979 160.641 7.60639 160.458 7.81517C155.962 12.3339 151.457 16.8465 146.942 21.3529C145.663 22.6322 144.379 23.906 143.117 25.2024C142.758 25.5715 142.399 25.7576 141.858 25.7468C139.96 25.7102 138.061 25.7328 136.161 25.7328H135.594L160.763 0.507812Z" fill="white"/>
<path d="M189.889 25.7256H185.548C185.242 25.7256 184.932 25.6847 184.635 25.732C183.526 25.9074 182.758 25.4491 181.978 24.6561C176.404 19.0132 170.779 13.4186 165.175 7.79605C165.048 7.66803 164.912 7.47329 164.911 7.30438C164.894 5.06655 164.899 2.82873 164.899 0.664062L189.889 25.7256Z" fill="white"/>
<path d="M189.999 29.889L164.928 54.9957C164.911 54.8823 164.9 54.7681 164.895 54.6536C164.895 52.6288 164.895 50.604 164.884 48.5781C164.876 48.4116 164.905 48.2454 164.968 48.0913C165.032 47.9372 165.128 47.7989 165.251 47.6862C171.081 41.8657 176.907 36.0416 182.73 30.2139C182.911 30.0283 183.15 29.9121 183.408 29.8858C185.538 29.86 187.668 29.8686 189.8 29.8686C189.867 29.8712 189.933 29.878 189.999 29.889Z" fill="white"/>
<path d="M160.76 55.0574L135.648 29.8991C135.748 29.8915 135.9 29.87 136.052 29.8689C138.056 29.8689 140.062 29.8765 142.071 29.8603C142.238 29.8535 142.404 29.8835 142.558 29.9482C142.712 30.0129 142.85 30.1107 142.962 30.2347C148.792 36.0825 154.626 41.9281 160.462 47.7715C160.6 47.9103 160.745 48.1244 160.746 48.3095C160.766 50.5398 160.76 52.7765 160.76 55.0574Z" fill="white"/>
<path d="M162.839 11.25C163.655 12.087 164.419 12.8412 165.142 13.6331C165.286 13.7901 165.329 14.086 165.33 14.3184C165.341 18.4067 165.344 22.4926 165.339 26.5759C165.339 31.3259 165.346 36.0748 165.329 40.8237C165.316 41.1156 165.204 41.3944 165.012 41.6145C164.328 42.3676 163.601 43.0755 162.826 43.8642C161.996 43.0164 161.213 42.2331 160.461 41.4284C160.353 41.3208 160.332 41.1002 160.332 40.9313C160.327 32.0252 160.327 23.1187 160.332 14.2119C160.326 14.0032 160.391 13.7987 160.517 13.632C161.249 12.8498 162.01 12.0935 162.839 11.25Z" fill="white"/>
<path d="M169.313 17.4922C169.401 17.6697 169.449 17.8838 169.581 18.0172C170.979 19.432 172.391 20.8263 173.773 22.2486C173.959 22.4516 174.068 22.713 174.082 22.9878C174.103 26.0153 174.103 29.0421 174.082 32.0682C174.082 32.2952 174.013 32.5857 173.867 32.7384C172.369 34.277 170.849 35.7929 169.333 37.3142C169.262 37.3755 169.187 37.433 169.109 37.4863V17.6805L169.313 17.4922Z" fill="white"/>
<path d="M156.576 17.5312V37.534C156.386 37.3661 156.244 37.2521 156.116 37.1241C154.701 35.7039 153.283 34.288 151.887 32.8496C151.701 32.6466 151.591 32.3848 151.577 32.1094C151.555 29.0647 151.561 26.0199 151.577 22.9752C151.577 22.7783 151.626 22.5233 151.752 22.3942C153.312 20.7965 154.9 19.2182 156.576 17.5312Z" fill="white"/>
</svg>
