<svg width="190" height="22" viewBox="0 0 190 22" fill="none" xmlns="http://www.w3.org/2000/svg">
<g id="Layer_1" clip-path="url(#clip0_2576_8915)">
<path id="Vector" d="M45.4534 9.28134C44.6581 9.28134 43.9673 9.28134 43.2765 9.28134C43.1834 9.2612 43.096 9.22046 43.0206 9.1621C42.9453 9.10375 42.8839 9.02925 42.8411 8.94407C42.0515 7.03096 40.519 6.23431 38.5684 6.15872C36.6178 6.08312 34.8472 6.74021 33.8603 8.55447C33.1857 9.72895 32.8254 11.058 32.8142 12.413C32.803 13.768 33.1414 15.1028 33.7965 16.2883C34.7253 18.0968 36.4611 18.7364 38.4407 18.6783C40.4203 18.6201 42.1677 17.8933 43.1778 16.0267C43.4228 15.4317 43.617 14.817 43.7583 14.1891H38.609V12.0667H45.6798C45.6798 12.2644 45.7263 12.4912 45.7263 12.7122C45.7263 15.0788 45.7263 17.4397 45.7263 19.8064C45.7263 20.4518 45.5173 20.6379 44.931 20.5565C44.769 20.5361 44.6052 20.5361 44.4433 20.5565C44.0311 20.5972 43.8628 20.4344 43.8628 20.0099C43.8628 19.4284 43.7757 18.8469 43.7177 18.0735C42.1851 20.2483 40.13 20.981 37.7324 21.0101C36.2932 21.0657 34.8733 20.6644 33.6754 19.8634C32.4774 19.0624 31.5629 17.9027 31.0622 16.55C30.5216 15.2365 30.2536 13.8265 30.2746 12.4059C30.2955 10.9853 30.605 9.58391 31.1841 8.28698C33.6688 2.64649 41.0763 2.81513 43.7989 5.84471C44.6767 6.80172 45.2524 7.99741 45.4534 9.28134Z" fill="white"/>
<path id="Vector_2" d="M16.6923 20.5528C15.926 20.5528 15.2584 20.5528 14.5908 20.5528C14.0974 20.5528 14.2483 20.1399 14.2483 19.8724C14.2483 17.3488 14.2483 14.8193 14.2483 12.313V4.21863C15.2468 4.21863 16.1698 4.18374 17.0813 4.21863C17.3019 4.21863 17.5515 4.54427 17.6908 4.80013C20.0129 8.62635 22.3157 12.4603 24.5991 16.3021C24.725 16.5419 24.9136 16.7429 25.1448 16.8836V4.26515H27.4959V20.547C26.567 20.547 25.6382 20.5819 24.721 20.547C24.5062 20.547 24.2566 20.2097 24.1405 19.9655C21.8416 16.1548 19.5504 12.3402 17.267 8.52169C17.136 8.27617 16.949 8.06501 16.7213 7.9053L16.6923 20.5528Z" fill="white"/>
<path id="Vector_3" d="M116.815 12.8046C116.631 13.9196 116.373 15.0211 116.043 16.1016C114.795 19.4452 111.776 21.2421 108.061 20.9978C106.4 20.8935 104.82 20.2467 103.561 19.1565C102.303 18.0662 101.436 16.5928 101.094 14.9619C100.647 13.1749 100.68 11.3014 101.187 9.53077C102.284 5.75106 105.251 3.64024 109.285 3.79724C111.027 3.87949 112.688 4.55496 113.994 5.71183C115.3 6.8687 116.172 8.43759 116.467 10.1588C116.641 10.9554 116.687 11.7172 116.815 12.8046ZM114.226 12.4615H114.156C114.115 11.9091 114.104 11.3508 114.022 10.7984C113.897 9.55998 113.33 8.40829 112.426 7.55406C111.522 6.69982 110.341 6.20016 109.1 6.14647C107.848 6.0311 106.599 6.38282 105.59 7.1341C104.582 7.88538 103.886 8.98326 103.637 10.2169C103.252 11.7468 103.276 13.3513 103.707 14.8689C103.985 15.9712 104.628 16.9468 105.53 17.6372C106.432 18.3276 107.541 18.6922 108.676 18.6719C109.823 18.7411 110.958 18.4106 111.889 17.7365C112.821 17.0623 113.49 16.0861 113.784 14.9735C113.985 14.1464 114.132 13.3074 114.226 12.4615Z" fill="white"/>
<path id="Vector_4" d="M162.242 4.21875H164.373C166.114 4.21875 167.896 4.21875 169.661 4.21875C170.309 4.22402 170.954 4.306 171.583 4.46298C172.454 4.64874 173.239 5.1158 173.819 5.79236C174.399 6.46891 174.741 7.31754 174.793 8.2078C174.902 9.05604 174.741 9.91703 174.334 10.6686C173.926 11.4201 173.293 12.024 172.523 12.3946L172.163 12.6272C173.475 13.1389 173.806 14.2321 174.033 15.4067C174.317 16.8604 174.613 18.3142 174.915 19.7679C174.956 19.9889 174.979 20.2156 175.031 20.5413C174.253 20.5413 173.539 20.5762 172.831 20.5413C172.674 20.5413 172.459 20.1808 172.413 19.9598C172.099 18.4886 171.832 17.0058 171.536 15.5288C171.31 14.3658 170.898 13.9471 169.719 13.9123C168.082 13.8657 166.434 13.9123 164.721 13.9123V20.4889H162.242V4.21875ZM164.715 11.7142C166.497 11.7142 168.198 11.7782 169.94 11.7142C170.49 11.6923 171.017 11.4871 171.438 11.1311C171.859 10.7751 172.149 10.2886 172.262 9.74876C172.657 7.91705 171.484 6.48076 169.51 6.43424C168.03 6.39354 166.544 6.43424 165.058 6.43424C164.947 6.4475 164.839 6.47086 164.733 6.50402L164.715 11.7142Z" fill="white"/>
<path id="Vector_5" d="M179.175 15.5313C179.222 15.7174 179.268 15.9209 179.315 16.1128C179.424 16.6493 179.674 17.1472 180.038 17.5558C180.402 17.9644 180.867 18.269 181.387 18.4388C182.755 18.9233 184.241 18.9599 185.631 18.5434C185.939 18.4711 186.23 18.3382 186.486 18.1525C186.743 17.9668 186.96 17.7318 187.125 17.4614C187.291 17.1909 187.401 16.8903 187.449 16.577C187.497 16.2636 187.483 15.9438 187.407 15.636C187.34 15.2421 187.16 14.8767 186.887 14.5851C186.615 14.2935 186.262 14.0887 185.875 13.9961C184.661 13.6065 183.431 13.2809 182.211 12.9087C181.363 12.6941 180.528 12.432 179.709 12.1237C178.995 11.8584 178.382 11.376 177.955 10.7441C177.528 10.1123 177.309 9.36252 177.329 8.59988C177.329 6.92518 177.863 5.48307 179.407 4.70969C180.611 4.06427 181.955 3.72656 183.32 3.72656C184.685 3.72656 186.029 4.06427 187.233 4.70969C188.975 5.61682 189.555 7.31478 189.613 9.29186C188.864 9.29186 188.173 9.29186 187.483 9.29186C187.411 9.27507 187.345 9.24151 187.29 9.19397C187.234 9.14643 187.191 9.08629 187.163 9.01856C186.995 8.00676 186.716 7.04148 185.735 6.51813C184.618 5.98023 183.352 5.8348 182.142 6.10527C181.639 6.17671 181.155 6.34875 180.719 6.61117C180.443 6.79375 180.217 7.04439 180.064 7.33914C179.912 7.63389 179.837 7.96292 179.848 8.2948C179.858 8.62668 179.953 8.95033 180.124 9.23483C180.295 9.51933 180.536 9.75519 180.824 9.91987C181.571 10.2669 182.348 10.5452 183.146 10.7514C184.388 11.1352 185.654 11.4376 186.879 11.8679C189.062 12.6354 189.967 13.8566 189.973 15.8918C190.039 16.8999 189.768 17.9013 189.201 18.7368C188.634 19.5723 187.804 20.194 186.844 20.5031C184.662 21.2971 182.268 21.2786 180.098 20.4507C179.099 20.0914 178.241 19.4223 177.648 18.5407C177.055 17.6591 176.758 16.6109 176.801 15.5487L179.175 15.5313Z" fill="white"/>
<path id="Vector_6" d="M51.4025 18.3049H60.3716V20.4971H48.9062V4.27344H60.1278V6.43659H51.3793V10.9955H58.8332V13.211H51.4025V18.3049Z" fill="white"/>
<path id="Vector_7" d="M0 4.25781H11.2041V6.41515H2.49626V10.9857H9.90956V13.2361H2.49045V18.2951H11.4596C11.4952 18.9206 11.4952 19.5477 11.4596 20.1733C11.4596 20.3245 11.0416 20.5338 10.821 20.5396C7.83128 20.5396 4.83577 20.5396 1.84607 20.5396H0V4.25781Z" fill="white"/>
<path id="Vector_8" d="M147.938 20.5028V19.7119C147.938 14.8158 147.938 9.92539 147.938 5.03503C147.938 4.45354 148.054 4.19187 148.733 4.2035C151.978 4.23839 155.229 4.2035 158.474 4.2035H159.217V6.38991C158.962 6.38991 158.695 6.43062 158.428 6.43062C156.018 6.43062 153.603 6.43062 151.194 6.43062C150.532 6.43062 150.364 6.63414 150.387 7.25634C150.434 8.29721 150.422 9.3439 150.387 10.3848C150.387 10.8732 150.532 11.0244 151.02 11.0186C153.04 11.0186 155.055 11.0186 157.075 11.0186H157.905V13.2457H156.094C154.428 13.2457 152.756 13.2457 151.084 13.2457C150.596 13.2457 150.376 13.3446 150.387 13.8912C150.428 15.3275 150.387 16.7579 150.387 18.2989H159.409V20.5202L147.938 20.5028Z" fill="white"/>
<path id="Vector_9" d="M132.211 4.2514H134.615V12.119C134.899 11.8864 135.056 11.7759 135.195 11.648C137.517 9.32203 139.775 6.99606 142.092 4.67008C142.39 4.40748 142.764 4.24662 143.16 4.2107C143.915 4.14092 144.687 4.2107 145.575 4.2107L138.928 10.6537L145.894 20.539C144.838 20.539 143.944 20.539 143.055 20.539C142.864 20.539 142.666 20.2367 142.527 20.039C140.94 17.7828 139.361 15.5188 137.79 13.2471C137.656 13.061 137.517 12.8808 137.36 12.6656C136.466 13.532 135.578 14.3578 134.731 15.23C134.603 15.3579 134.638 15.6719 134.638 15.8987C134.638 17.4222 134.638 18.9516 134.638 20.5507C133.877 20.5507 133.186 20.5507 132.496 20.5507C132.38 20.5507 132.24 20.3472 132.176 20.2076C132.15 20.0713 132.15 19.9311 132.176 19.7947C132.176 14.8559 132.176 9.91709 132.176 4.97827C132.176 4.73404 132.2 4.50726 132.211 4.2514Z" fill="white"/>
<path id="Vector_10" d="M100.146 4.21857C99.8496 5.02684 99.629 5.72464 99.3852 6.41661C97.8177 10.9232 96.2387 15.424 94.6887 19.9363C94.5262 20.4132 94.2998 20.6283 93.8005 20.5585C93.5918 20.544 93.3823 20.544 93.1736 20.5585C91.4842 20.5585 91.4842 20.5585 90.9385 18.9943C89.3324 14.385 87.7205 9.76796 86.1028 5.14314C86.0099 4.86984 85.9286 4.59072 85.8125 4.20694C86.6775 4.20694 87.438 4.17205 88.1868 4.20694C88.361 4.20694 88.5758 4.55002 88.6571 4.78843C89.6498 7.6959 90.6192 10.6034 91.5945 13.4759L92.7556 16.9649C92.8194 17.1568 92.9065 17.3371 93.04 17.6627C93.7947 15.4356 94.503 13.3538 95.2054 11.2663C95.9078 9.17871 96.6857 6.92833 97.3998 4.74773C97.411 4.65707 97.4405 4.56964 97.4865 4.49075C97.5324 4.41185 97.5939 4.34313 97.6672 4.28876C97.7405 4.23438 97.8241 4.19548 97.9128 4.17442C98.0015 4.15336 98.0936 4.15057 98.1835 4.16623C98.8046 4.24183 99.4084 4.21857 100.146 4.21857Z" fill="white"/>
<path id="Vector_11" d="M79.2061 10.0962L81.9403 13.2537C82.1105 12.6073 82.227 11.948 82.2887 11.2824C82.2887 10.6137 82.5615 10.4334 83.1594 10.509C83.4611 10.5266 83.7634 10.5266 84.0651 10.509C84.144 11.6523 83.9448 12.7976 83.4845 13.8468C83.1711 14.5562 83.2291 14.7307 83.9606 15.0098C84.2042 15.0855 84.4524 15.1458 84.7036 15.1901C84.93 15.2482 85.3306 15.3005 85.348 15.3994C85.4002 15.832 85.4002 16.2693 85.348 16.7019C85.348 16.7601 85.0694 16.8182 84.9242 16.824C84.0118 16.8986 83.1067 16.6103 82.4048 16.0216C82.2949 15.9281 82.1785 15.8426 82.0564 15.7657C81.3165 16.2942 80.4762 16.6649 79.5875 16.8549C78.6988 17.045 77.7806 17.0503 76.8898 16.8706C75.3572 16.6263 74.1903 15.9053 73.784 14.2946C73.5746 13.5427 73.6085 12.7438 73.8807 12.0125C74.1529 11.2812 74.6495 10.6551 75.2991 10.2241C75.6126 9.99731 75.9493 9.79379 76.3557 9.5263C75.4675 8.39239 74.7883 7.14799 75.3746 5.7117C75.6322 5.10267 76.0698 4.58724 76.6285 4.23471C78.0798 3.36247 80.3265 3.83348 81.1392 5.10113C81.4391 5.50848 81.6105 5.99643 81.6312 6.50217C81.6519 7.0079 81.521 7.50826 81.2553 7.93882C80.639 8.71875 79.9531 9.44084 79.2061 10.0962ZM77.4355 10.7416C75.6939 11.5325 75.1134 13.1199 75.99 14.3643C76.8665 15.6087 79.5602 15.8123 80.7619 14.5795L77.4355 10.7416ZM76.8027 6.7235C77.1742 7.3457 77.5342 7.97371 77.9231 8.57847C77.9713 8.61963 78.0284 8.64896 78.0898 8.6641C78.1513 8.67925 78.2155 8.67979 78.2772 8.66569C78.7696 8.51311 79.1881 8.1832 79.4518 7.73967C79.7155 7.29614 79.8059 6.77045 79.7053 6.26412C79.6178 5.93401 79.4048 5.65129 79.1119 5.47636C78.819 5.30142 78.4695 5.24815 78.1379 5.32792C77.7881 5.36886 77.4635 5.53057 77.2198 5.78526C76.9761 6.03994 76.8287 6.3717 76.8027 6.7235Z" fill="#D6262B"/>
<path id="Vector_12" d="M119.531 4.25H121.946V18.2814H129.702V20.5086H119.531V4.25Z" fill="white"/>
<path id="Vector_13" d="M63.1522 20.5592V19.7684C63.1522 14.8548 63.1522 9.94113 63.1522 5.0217C63.1522 4.40531 63.2916 4.13201 63.9592 4.2076C64.4816 4.25994 65.0157 4.2076 65.6427 4.2076V18.2972H66.4728C68.5859 18.2972 70.6991 18.2972 72.8064 18.2972C73.265 18.2972 73.4624 18.3902 73.4682 18.9078C73.4682 20.565 73.503 20.565 71.8485 20.565H63.1406L63.1522 20.5592Z" fill="white"/>
<path id="Vector_14" d="M107.577 0.492188C107.577 1.20742 107.612 1.80055 107.577 2.39367C107.577 2.55649 107.31 2.70768 107.153 2.84724C107.118 2.88213 107.019 2.84724 106.95 2.84724C105.022 2.89376 104.953 2.84724 105.208 0.905048C105.233 0.810403 105.281 0.723487 105.348 0.652339C105.415 0.581191 105.499 0.528108 105.591 0.498002C106.189 0.492188 106.816 0.492188 107.577 0.492188Z" fill="white"/>
<path id="Vector_15" d="M110.016 2.85723V0.53125H112.338C112.338 1.20578 112.338 1.84543 112.338 2.47925C112.31 2.5638 112.261 2.63999 112.196 2.70092C112.131 2.76185 112.052 2.80558 111.966 2.82815C111.333 2.88049 110.695 2.85723 110.016 2.85723Z" fill="white"/>
</g>
<defs>
<clipPath id="clip0_2576_8915">
<rect width="190" height="20.5733" fill="white" transform="translate(0 0.492188)"/>
</clipPath>
</defs>
</svg>
