<svg width="350" height="366" viewBox="0 0 350 366" fill="none" xmlns="http://www.w3.org/2000/svg">
<g clip-path="url(#clip0_12322_7684)">
<path d="M322.824 75.3281H285.062V284.682H322.824V75.3281Z" fill="#F5F5F5"/>
<path d="M322.826 285.127H285.065C284.822 285.127 284.625 284.929 284.625 284.685V75.3287C284.625 75.0847 284.822 74.8867 285.065 74.8867H322.826C323.069 74.8867 323.266 75.0847 323.266 75.3287V284.683C323.266 284.927 323.069 285.125 322.826 285.125V285.127ZM285.507 284.241H322.387V75.7707H285.507V284.239V284.241Z" fill="black"/>
<path d="M310.012 279.057L311.244 81.6628L192.082 28.2148L75.3125 83.5548L80.5031 282.149C80.5728 284.851 82.8935 286.999 85.7177 286.975L303.693 285.155C307.192 285.125 310.012 282.405 310.012 279.057Z" fill="#F5F5F5"/>
<path d="M85.6685 287.415C82.6453 287.415 80.1336 285.067 80.0579 282.157L74.8673 83.5633C74.8633 83.3873 74.9609 83.2253 75.1201 83.1513L191.89 27.8113C192.005 27.7573 192.14 27.7553 192.258 27.8073L311.42 81.2553C311.579 81.3273 311.682 81.4873 311.68 81.6633L310.448 279.057C310.448 282.631 307.417 285.565 303.693 285.595L85.7183 287.415C85.7024 287.415 85.6865 287.415 85.6685 287.415ZM75.755 83.8293L80.9396 282.133C81.0033 284.579 83.1369 286.555 85.7103 286.527L303.685 284.707C306.93 284.679 309.567 282.143 309.567 279.051L310.797 81.9453L192.083 28.6993L75.757 83.8293H75.755Z" fill="black"/>
<path d="M118.402 155.844H96.7176C95.9416 155.844 95.3125 156.476 95.3125 157.256V190.174C95.3125 190.954 95.9416 191.586 96.7176 191.586H118.402C119.178 191.586 119.807 190.954 119.807 190.174V157.256C119.807 156.476 119.178 155.844 118.402 155.844Z" fill="#F5F5F5"/>
<path d="M118.406 192.028H96.72C95.703 192.028 94.875 191.196 94.875 190.174V157.256C94.875 156.234 95.703 155.402 96.72 155.402H118.406C119.423 155.402 120.251 156.234 120.251 157.256V190.174C120.251 191.196 119.423 192.028 118.406 192.028ZM96.72 156.286C96.1886 156.286 95.7567 156.72 95.7567 157.254V190.172C95.7567 190.706 96.1886 191.14 96.72 191.14H118.406C118.937 191.14 119.369 190.706 119.369 190.172V157.254C119.369 156.72 118.937 156.286 118.406 156.286H96.72Z" fill="black"/>
<path d="M146.995 155.844H125.593C124.739 155.844 124.047 156.539 124.047 157.398V190.032C124.047 190.89 124.739 191.586 125.593 191.586H146.995C147.849 191.586 148.541 190.89 148.541 190.032V157.398C148.541 156.539 147.849 155.844 146.995 155.844Z" fill="#F5F5F5"/>
<path d="M146.999 192.028H125.596C124.499 192.028 123.609 191.132 123.609 190.032V157.398C123.609 156.298 124.501 155.402 125.596 155.402H146.999C148.094 155.402 148.985 156.298 148.985 157.398V190.032C148.985 191.132 148.094 192.028 146.999 192.028ZM125.596 156.286C124.987 156.286 124.489 156.784 124.489 157.396V190.03C124.489 190.642 124.985 191.14 125.596 191.14H146.999C147.608 191.14 148.104 190.642 148.104 190.03V157.396C148.104 156.784 147.608 156.286 146.999 156.286H125.596Z" fill="black"/>
<path d="M96.3234 195.559H118.812C119.365 195.559 119.815 196.011 119.815 196.567V230.291C119.815 230.847 119.365 231.299 118.812 231.299H96.3234C95.7701 231.299 95.3203 230.847 95.3203 230.291V196.567C95.3203 196.011 95.7701 195.559 96.3234 195.559Z" fill="#F5F5F5"/>
<path d="M118.808 231.741H96.3199C95.5238 231.741 94.875 231.091 94.875 230.289V196.565C94.875 195.765 95.5238 195.113 96.3199 195.113H118.808C119.604 195.113 120.253 195.763 120.253 196.565V230.289C120.253 231.089 119.604 231.741 118.808 231.741ZM96.3199 195.999C96.0095 195.999 95.7567 196.253 95.7567 196.565V230.289C95.7567 230.601 96.0095 230.855 96.3199 230.855H118.808C119.119 230.855 119.371 230.601 119.371 230.289V196.565C119.371 196.253 119.119 195.999 118.808 195.999H96.3199Z" fill="black"/>
<path d="M146.963 195.559H125.641C124.765 195.559 124.055 196.272 124.055 197.153V229.707C124.055 230.587 124.765 231.301 125.641 231.301H146.963C147.839 231.301 148.549 230.587 148.549 229.707V197.153C148.549 196.272 147.839 195.559 146.963 195.559Z" fill="#F5F5F5"/>
<path d="M146.959 231.743H125.635C124.519 231.743 123.609 230.829 123.609 229.707V197.153C123.609 196.031 124.519 195.117 125.635 195.117H146.959C148.076 195.117 148.985 196.031 148.985 197.153V229.707C148.985 230.829 148.076 231.743 146.959 231.743ZM125.635 196.001C125.005 196.001 124.491 196.517 124.491 197.151V229.705C124.491 230.339 125.005 230.855 125.635 230.855H146.959C147.59 230.855 148.104 230.339 148.104 229.705V197.151C148.104 196.517 147.59 196.001 146.959 196.001H125.635Z" fill="black"/>
<path d="M193.917 56.8906H172.233C171.457 56.8906 170.828 57.5228 170.828 58.3026V84.4006C170.828 85.1804 171.457 85.8126 172.233 85.8126H193.917C194.693 85.8126 195.322 85.1804 195.322 84.4006V58.3026C195.322 57.5228 194.693 56.8906 193.917 56.8906Z" fill="#F5F5F5"/>
<path d="M193.922 86.2552H172.236C171.219 86.2552 170.391 85.4232 170.391 84.4012V58.3032C170.391 57.2812 171.219 56.4492 172.236 56.4492H193.922C194.939 56.4492 195.767 57.2812 195.767 58.3032V84.4012C195.767 85.4232 194.939 86.2552 193.922 86.2552ZM172.236 57.3332C171.704 57.3332 171.272 57.7672 171.272 58.3012V84.3992C171.272 84.9332 171.704 85.3672 172.236 85.3672H193.922C194.453 85.3672 194.885 84.9332 194.885 84.3992V58.3012C194.885 57.7672 194.453 57.3332 193.922 57.3332H172.236Z" fill="black"/>
<path d="M222.51 56.8906H201.109C200.255 56.8906 199.562 57.5864 199.562 58.4446V84.2586C199.562 85.1169 200.255 85.8126 201.109 85.8126H222.51C223.364 85.8126 224.057 85.1169 224.057 84.2586V58.4446C224.057 57.5864 223.364 56.8906 222.51 56.8906Z" fill="#F5F5F5"/>
<path d="M222.515 86.2552H201.111C200.015 86.2552 199.125 85.3592 199.125 84.2592V58.4452C199.125 57.3452 200.017 56.4492 201.111 56.4492H222.515C223.609 56.4492 224.501 57.3452 224.501 58.4452V84.2592C224.501 85.3592 223.609 86.2552 222.515 86.2552ZM201.111 57.3332C200.502 57.3332 200.005 57.8312 200.005 58.4432V84.2572C200.005 84.8692 200.5 85.3672 201.111 85.3672H222.515C223.124 85.3672 223.619 84.8692 223.619 84.2572V58.4432C223.619 57.8312 223.124 57.3332 222.515 57.3332H201.111Z" fill="black"/>
<path d="M194.327 89.0273H171.839C171.285 89.0273 170.836 89.4786 170.836 90.0353V116.941C170.836 117.498 171.285 117.949 171.839 117.949H194.327C194.881 117.949 195.33 117.498 195.33 116.941V90.0353C195.33 89.4786 194.881 89.0273 194.327 89.0273Z" fill="#F5F5F5"/>
<path d="M194.324 118.39H171.836C171.039 118.39 170.391 117.74 170.391 116.938V90.034C170.391 89.234 171.039 88.582 171.836 88.582H194.324C195.12 88.582 195.767 89.232 195.767 90.034V116.938C195.767 117.738 195.12 118.39 194.324 118.39ZM171.836 89.468C171.525 89.468 171.272 89.722 171.272 90.034V116.938C171.272 117.25 171.525 117.504 171.836 117.504H194.324C194.634 117.504 194.887 117.25 194.887 116.938V90.034C194.887 89.722 194.634 89.468 194.324 89.468H171.836Z" fill="black"/>
<path d="M222.478 89.0234H201.157C200.281 89.0234 199.57 89.7371 199.57 90.6174V116.351C199.57 117.232 200.281 117.945 201.157 117.945H222.478C223.354 117.945 224.065 117.232 224.065 116.351V90.6174C224.065 89.7371 223.354 89.0234 222.478 89.0234Z" fill="#F5F5F5"/>
<path d="M222.475 118.388H201.151C200.033 118.388 199.125 117.474 199.125 116.352V90.618C199.125 89.496 200.035 88.582 201.151 88.582H222.475C223.593 88.582 224.501 89.496 224.501 90.618V116.352C224.501 117.474 223.591 118.388 222.475 118.388ZM201.151 89.466C200.52 89.466 200.007 89.982 200.007 90.616V116.35C200.007 116.984 200.52 117.5 201.151 117.5H222.475C223.106 117.5 223.619 116.984 223.619 116.35V90.616C223.619 89.982 223.106 89.466 222.475 89.466H201.151Z" fill="black"/>
<path d="M269.035 155.727H247.35C246.574 155.727 245.945 156.359 245.945 157.139V190.111C245.945 190.89 246.574 191.523 247.35 191.523H269.035C269.811 191.523 270.44 190.89 270.44 190.111V157.139C270.44 156.359 269.811 155.727 269.035 155.727Z" fill="#F5F5F5"/>
<path d="M269.039 191.965H247.353C246.336 191.965 245.508 191.133 245.508 190.111V157.139C245.508 156.117 246.336 155.285 247.353 155.285H269.039C270.056 155.285 270.884 156.117 270.884 157.139V190.111C270.884 191.133 270.056 191.965 269.039 191.965ZM247.353 156.169C246.821 156.169 246.389 156.603 246.389 157.137V190.109C246.389 190.643 246.821 191.077 247.353 191.077H269.039C269.57 191.077 270.002 190.643 270.002 190.109V157.137C270.002 156.603 269.57 156.169 269.039 156.169H247.353Z" fill="black"/>
<path d="M297.635 155.727H276.234C275.38 155.727 274.688 156.422 274.688 157.281V189.969C274.688 190.827 275.38 191.523 276.234 191.523H297.635C298.489 191.523 299.182 190.827 299.182 189.969V157.281C299.182 156.422 298.489 155.727 297.635 155.727Z" fill="#F5F5F5"/>
<path d="M297.632 191.965H276.228C275.132 191.965 274.242 191.069 274.242 189.969V157.281C274.242 156.181 275.134 155.285 276.228 155.285H297.632C298.729 155.285 299.618 156.181 299.618 157.281V189.969C299.618 191.069 298.727 191.965 297.632 191.965ZM276.228 156.169C275.619 156.169 275.122 156.667 275.122 157.279V189.967C275.122 190.579 275.617 191.077 276.228 191.077H297.632C298.241 191.077 298.738 190.579 298.738 189.967V157.279C298.738 156.667 298.243 156.169 297.632 156.169H276.228Z" fill="black"/>
<path d="M269.437 195.5H246.948C246.394 195.5 245.945 195.951 245.945 196.508V230.288C245.945 230.845 246.394 231.296 246.948 231.296H269.437C269.991 231.296 270.44 230.845 270.44 230.288V196.508C270.44 195.951 269.991 195.5 269.437 195.5Z" fill="#F5F5F5"/>
<path d="M297.588 195.5H276.266C275.39 195.5 274.68 196.214 274.68 197.094V229.702C274.68 230.582 275.39 231.296 276.266 231.296H297.588C298.464 231.296 299.174 230.582 299.174 229.702V197.094C299.174 196.214 298.464 195.5 297.588 195.5Z" fill="#F5F5F5"/>
<path d="M195.624 9.61844L66.1946 79.0324C63.45 80.5044 62.9306 83.4964 65.0741 85.4824L75.955 95.5624L196.568 33.3484C197.326 32.9584 198.309 32.9544 199.071 33.3404L322.045 95.6944L329.084 87.2664C331.98 83.8004 330.79 79.1684 326.403 76.8344L200.015 9.61244C198.691 8.90844 196.946 8.91044 195.624 9.61844Z" fill="black"/>
<path d="M227.311 152.539H167.34C165.88 152.539 164.695 153.729 164.695 155.197V285.105C164.695 286.573 165.88 287.763 167.34 287.763H227.311C228.772 287.763 229.956 286.573 229.956 285.105V155.197C229.956 153.729 228.772 152.539 227.311 152.539Z" fill="#F5F5F5"/>
<path d="M227.308 288.206H167.335C165.633 288.206 164.25 286.816 164.25 285.106V155.198C164.25 153.488 165.633 152.098 167.335 152.098H227.308C229.01 152.098 230.393 153.488 230.393 155.198V285.106C230.393 286.816 229.01 288.206 227.308 288.206ZM167.335 152.982C166.121 152.982 165.132 153.976 165.132 155.196V285.104C165.132 286.324 166.121 287.318 167.335 287.318H227.308C228.522 287.318 229.511 286.324 229.511 285.104V155.196C229.511 153.976 228.522 152.982 227.308 152.982H167.335Z" fill="black"/>
<path d="M224.861 156.309H170.037C169.063 156.309 168.273 157.102 168.273 158.081V281.215C168.273 282.193 169.063 282.987 170.037 282.987H224.861C225.835 282.987 226.624 282.193 226.624 281.215V158.081C226.624 157.102 225.835 156.309 224.861 156.309Z" fill="#F5F5F5"/>
<path d="M224.858 283.429H170.031C168.817 283.429 167.828 282.435 167.828 281.215V158.081C167.828 156.861 168.817 155.867 170.031 155.867H224.858C226.072 155.867 227.061 156.861 227.061 158.081V281.215C227.061 282.435 226.074 283.429 224.858 283.429ZM170.031 156.751C169.303 156.751 168.71 157.347 168.71 158.079V281.213C168.71 281.945 169.303 282.541 170.031 282.541H224.858C225.586 282.541 226.179 281.945 226.179 281.213V158.079C226.179 157.347 225.586 156.751 224.858 156.751H170.031Z" fill="black"/>
<path d="M238.468 274.449H156.459C155.77 274.449 155.211 275.011 155.211 275.703V287.809C155.211 288.502 155.77 289.063 156.459 289.063H238.468C239.157 289.063 239.716 288.502 239.716 287.809V275.703C239.716 275.011 239.157 274.449 238.468 274.449Z" fill="#F5F5F5"/>
<path d="M238.463 289.506H156.453C155.522 289.506 154.766 288.744 154.766 287.81V275.704C154.766 274.768 155.524 274.008 156.453 274.008H238.463C239.394 274.008 240.15 274.77 240.15 275.704V287.81C240.15 288.746 239.392 289.506 238.463 289.506ZM156.453 274.892C156.008 274.892 155.645 275.256 155.645 275.704V287.81C155.645 288.258 156.008 288.622 156.453 288.622H238.463C238.909 288.622 239.271 288.258 239.271 287.81V275.704C239.271 275.256 238.909 274.892 238.463 274.892H156.453Z" fill="black"/>
<path d="M97.1352 136.873C96.8924 136.873 96.6953 136.675 96.6953 136.431C96.6953 136.187 96.8924 135.987 97.1352 135.987L277.526 135.691C277.769 135.691 277.966 135.889 277.966 136.133C277.966 136.377 277.769 136.577 277.526 136.577L97.1352 136.873Z" fill="black"/>
<path d="M180.503 193.576C180.39 193.576 180.278 193.532 180.191 193.446C180.02 193.274 180.02 192.992 180.191 192.82L202.806 170.094C202.978 169.922 203.258 169.922 203.429 170.094C203.6 170.266 203.6 170.548 203.429 170.72L180.814 193.446C180.728 193.532 180.615 193.576 180.501 193.576H180.503Z" fill="black"/>
<path d="M179.706 176.464C179.593 176.464 179.482 176.42 179.394 176.334C179.223 176.162 179.223 175.88 179.394 175.708L186.577 168.488C186.748 168.316 187.029 168.316 187.2 168.488C187.371 168.66 187.371 168.942 187.2 169.114L180.017 176.334C179.931 176.42 179.818 176.464 179.704 176.464H179.706Z" fill="black"/>
<path d="M218.893 184.888C218.65 184.888 218.453 184.69 218.453 184.446V174.7C218.453 174.456 218.65 174.258 218.893 174.258C219.136 174.258 219.333 174.456 219.333 174.7V184.446C219.333 184.69 219.136 184.888 218.893 184.888Z" fill="black"/>
<path d="M299.979 184.888C299.736 184.888 299.539 184.69 299.539 184.446V174.7C299.539 174.456 299.736 174.258 299.979 174.258C300.222 174.258 300.419 174.456 300.419 174.7V184.446C300.419 184.69 300.222 184.888 299.979 184.888Z" fill="black"/>
<path d="M335.21 155.543H330.969C329.17 155.543 327.711 157.009 327.711 158.817V347.377C327.711 349.185 329.17 350.651 330.969 350.651H335.21C337.01 350.651 338.468 349.185 338.468 347.377V158.817C338.468 157.009 337.01 155.543 335.21 155.543Z" fill="black"/>
<path d="M189.977 169.523V173.785C189.977 175.593 191.435 177.059 193.235 177.059H346.747C348.546 177.059 350.005 175.593 350.005 173.785V169.523C350.005 167.714 348.546 166.249 346.747 166.249H193.235C191.435 166.249 189.977 167.714 189.977 169.523Z" fill="black"/>
<path d="M203.66 267.039C202.16 267.039 200.938 265.653 200.938 263.949V187.535C200.938 185.831 202.158 184.445 203.66 184.445H315.48C316.981 184.445 318.203 185.831 318.203 187.535V263.949C318.203 265.653 316.983 267.039 315.48 267.039H203.66Z" fill="black"/>
<path d="M246.468 210.515H238.229V219.069H233.938V198.137H247.499V201.631H238.229V207.037H246.468V210.517V210.515Z" fill="white"/>
<path d="M267.095 209.078C267.095 211.138 266.733 212.946 266.008 214.498C265.284 216.05 264.247 217.248 262.895 218.092C261.546 218.936 260 219.358 258.252 219.358C256.505 219.358 254.986 218.942 253.631 218.108C252.275 217.274 251.226 216.084 250.482 214.536C249.738 212.988 249.362 211.208 249.352 209.196V208.16C249.352 206.1 249.722 204.286 250.46 202.718C251.199 201.15 252.243 199.948 253.593 199.11C254.942 198.272 256.485 197.852 258.222 197.852C259.96 197.852 261.5 198.272 262.85 199.11C264.199 199.948 265.244 201.152 265.982 202.718C266.721 204.284 267.091 206.094 267.091 208.146V209.08L267.095 209.078ZM262.746 208.13C262.746 205.936 262.354 204.268 261.574 203.128C260.792 201.988 259.675 201.418 258.226 201.418C256.777 201.418 255.675 201.982 254.892 203.108C254.11 204.234 253.714 205.886 253.704 208.06V209.08C253.704 211.218 254.094 212.876 254.877 214.054C255.659 215.232 256.783 215.822 258.252 215.822C259.721 215.822 260.798 215.254 261.572 214.118C262.344 212.982 262.736 211.326 262.744 209.15V208.13H262.746Z" fill="white"/>
<path d="M277.929 211.407H274.51V219.069H270.219V198.137H277.959C280.419 198.137 282.318 198.689 283.653 199.791C284.989 200.893 285.655 202.451 285.655 204.463C285.655 205.891 285.347 207.081 284.732 208.035C284.117 208.989 283.183 209.749 281.936 210.313L286.441 218.867V219.069H281.834L277.929 211.407ZM274.51 207.913H277.973C279.05 207.913 279.886 207.637 280.477 207.087C281.068 206.535 281.364 205.777 281.364 204.809C281.364 203.841 281.086 203.045 280.526 202.481C279.969 201.915 279.111 201.633 277.959 201.633H274.512V207.915L274.51 207.913Z" fill="white"/>
<path d="M237.191 245.064C237.191 244.25 236.904 243.624 236.333 243.188C235.762 242.752 234.731 242.292 233.242 241.808C231.753 241.324 230.575 240.848 229.709 240.378C227.343 239.094 226.16 237.364 226.16 235.188C226.16 234.058 226.477 233.048 227.112 232.162C227.747 231.276 228.656 230.584 229.844 230.084C231.033 229.586 232.364 229.336 233.843 229.336C235.322 229.336 236.657 229.606 237.82 230.148C238.982 230.69 239.887 231.454 240.53 232.442C241.173 233.43 241.496 234.55 241.496 235.806H237.203C237.203 234.848 236.902 234.102 236.301 233.57C235.7 233.038 234.856 232.772 233.769 232.772C232.683 232.772 231.904 232.994 231.323 233.44C230.742 233.886 230.452 234.472 230.452 235.202C230.452 235.882 230.792 236.452 231.475 236.912C232.157 237.372 233.16 237.804 234.486 238.206C236.928 238.944 238.707 239.86 239.822 240.952C240.938 242.044 241.496 243.406 241.496 245.034C241.496 246.846 240.813 248.266 239.45 249.296C238.086 250.326 236.249 250.842 233.942 250.842C232.34 250.842 230.881 250.548 229.564 249.958C228.248 249.368 227.243 248.562 226.553 247.536C225.862 246.51 225.516 245.322 225.516 243.97H229.823C229.823 246.28 231.196 247.434 233.942 247.434C234.963 247.434 235.76 247.226 236.331 246.808C236.904 246.392 237.189 245.808 237.189 245.062L237.191 245.064Z" fill="white"/>
<path d="M256.161 246.247H248.635L247.204 250.561H242.641L250.395 229.629H254.371L262.167 250.561H257.604L256.159 246.247H256.161ZM249.794 242.753H255.002L252.383 234.917L249.794 242.753Z" fill="white"/>
<path d="M268.408 247.093H277.522V250.557H264.117V229.625H268.408V247.093Z" fill="white"/>
<path d="M292.517 241.487H284.277V247.093H293.948V250.557H279.984V229.625H293.918V233.119H284.275V238.107H292.515V241.485L292.517 241.487Z" fill="white"/>
<path d="M85.4711 35.6872C85.2283 35.6872 85.0312 35.4892 85.0312 35.2452V31.8092C85.0312 31.5652 85.2283 31.3672 85.4711 31.3672C85.7139 31.3672 85.911 31.5652 85.911 31.8092V35.2452C85.911 35.4892 85.7139 35.6872 85.4711 35.6872Z" fill="black"/>
<path d="M85.4711 43.6911C85.2283 43.6911 85.0312 43.4931 85.0312 43.2491V39.8131C85.0312 39.5691 85.2283 39.3711 85.4711 39.3711C85.7139 39.3711 85.911 39.5691 85.911 39.8131V43.2491C85.911 43.4931 85.7139 43.6911 85.4711 43.6911Z" fill="black"/>
<path d="M91.156 37.9699H87.7367C87.4939 37.9699 87.2969 37.7719 87.2969 37.5279C87.2969 37.2839 87.4939 37.0859 87.7367 37.0859H91.156C91.3988 37.0859 91.5959 37.2839 91.5959 37.5279C91.5959 37.7719 91.3988 37.9699 91.156 37.9699Z" fill="black"/>
<path d="M83.1951 37.9699H79.7758C79.533 37.9699 79.3359 37.7719 79.3359 37.5279C79.3359 37.2839 79.533 37.0859 79.7758 37.0859H83.1951C83.4379 37.0859 83.6349 37.2839 83.6349 37.5279C83.6349 37.7719 83.4379 37.9699 83.1951 37.9699Z" fill="black"/>
<path d="M64.9485 49.6909C64.2479 49.6909 63.5473 49.5409 62.8866 49.2429C60.3091 48.0809 59.1349 44.9869 60.2674 42.3489C60.8226 41.0569 61.8377 40.0689 63.1254 39.5649C64.3912 39.0709 65.7725 39.1069 67.0124 39.6649C69.5898 40.8269 70.7641 43.9209 69.6316 46.5589C69.0763 47.8509 68.0613 48.8409 66.7736 49.3429C66.1825 49.5749 65.5655 49.6889 64.9485 49.6889V49.6909ZM64.9505 40.1049C64.443 40.1049 63.9334 40.2009 63.4458 40.3909C62.379 40.8069 61.5371 41.6269 61.0774 42.7009C60.134 44.8969 61.1072 47.4709 63.2468 48.4369C64.2698 48.8989 65.4082 48.9289 66.4511 48.5209C67.5179 48.1049 68.3598 47.2849 68.8196 46.2109C69.763 44.0149 68.7897 41.4409 66.6502 40.4749C66.1048 40.2289 65.5276 40.1049 64.9485 40.1049H64.9505Z" fill="black"/>
<path d="M173.049 348.046C165.143 348.046 158.008 347.408 151.992 346.554C133.609 343.94 121.411 338.78 121.292 338.728C121.069 338.632 120.963 338.372 121.059 338.148C121.154 337.924 121.413 337.818 121.636 337.914C121.755 337.966 133.868 343.086 152.143 345.682C168.996 348.076 194.693 348.748 221.391 338.36C221.617 338.272 221.872 338.384 221.962 338.614C222.049 338.842 221.936 339.098 221.711 339.186C204.36 345.936 187.432 348.048 173.049 348.048V348.046Z" fill="black"/>
<path d="M176.307 357.574C174.412 357.574 172.591 357.542 170.847 357.484C153.044 356.904 139.765 353.736 139.634 353.704C139.397 353.646 139.252 353.408 139.31 353.17C139.367 352.932 139.604 352.786 139.841 352.844C139.972 352.876 153.18 356.024 170.897 356.6C187.229 357.13 210.838 355.52 230.59 344.838C230.803 344.722 231.071 344.802 231.187 345.018C231.302 345.234 231.222 345.502 231.008 345.618C213.191 355.254 192.289 357.574 176.309 357.574H176.307Z" fill="black"/>
<path d="M238.093 336.966C236.936 336.966 235.844 336.226 235.444 335.062C235.199 334.352 235.247 333.594 235.573 332.93C235.896 332.276 236.453 331.79 237.143 331.562C238.574 331.09 240.145 331.88 240.642 333.328C240.887 334.038 240.839 334.794 240.513 335.46C240.191 336.114 239.633 336.6 238.943 336.83C238.662 336.922 238.375 336.968 238.093 336.968V336.966ZM237.997 332.31C237.806 332.31 237.611 332.34 237.42 332.404C236.954 332.558 236.58 332.884 236.363 333.324C236.14 333.774 236.11 334.29 236.278 334.774C236.618 335.766 237.689 336.312 238.668 335.988C239.134 335.834 239.508 335.508 239.725 335.068C239.948 334.618 239.978 334.102 239.81 333.618C239.536 332.82 238.787 332.31 237.997 332.31Z" fill="black"/>
<path d="M313.54 59.8271C313.476 59.8271 313.413 59.8131 313.351 59.7851L304.446 55.5411C304.289 55.4651 304.19 55.3051 304.196 55.1291C304.202 54.9531 304.307 54.7971 304.47 54.7311L318.585 48.9391C318.756 48.8691 318.953 48.9131 319.077 49.0511C319.2 49.1891 319.228 49.3891 319.143 49.5551L313.93 59.5911C313.852 59.7411 313.697 59.8291 313.538 59.8291L313.54 59.8271ZM305.728 55.1711L313.345 58.8011L317.805 50.2151L305.728 55.1691V55.1711Z" fill="black"/>
<path d="M294.848 48.3147C294.722 48.3147 294.599 48.2607 294.511 48.1587C294.354 47.9727 294.376 47.6927 294.561 47.5347L337.784 10.6367C337.971 10.4787 338.247 10.5007 338.405 10.6867C338.562 10.8727 338.54 11.1527 338.355 11.3107L295.132 48.2087C295.049 48.2787 294.947 48.3147 294.848 48.3147Z" fill="black"/>
<path d="M287.3 40.4653C287.237 40.4653 287.173 40.4513 287.111 40.4233C286.892 40.3193 286.797 40.0553 286.902 39.8333L304.413 2.74934C304.516 2.52934 304.779 2.43334 305 2.53934C305.219 2.64334 305.314 2.90734 305.209 3.12934L287.699 40.2133C287.623 40.3733 287.466 40.4673 287.3 40.4673V40.4653Z" fill="black"/>
<path d="M278.756 37.2056C278.649 37.2056 278.543 37.1676 278.458 37.0896C277.076 35.8156 276.44 34.5616 276.561 33.3576C276.649 32.4956 277.098 31.9996 277.496 31.5616C277.815 31.2096 278.117 30.8776 278.255 30.3456C278.515 29.3296 277.936 28.5376 277.262 27.6176C276.613 26.7316 275.876 25.7256 275.988 24.4216C276.121 22.8416 277.345 22.0616 278.531 21.3076C279.602 20.6256 280.613 19.9836 280.854 18.7816C281.129 17.4136 280.203 16.2576 279.224 15.0336C278.155 13.6996 277.051 12.3196 277.431 10.5396C277.749 9.04957 278.925 8.24757 279.962 7.53957C280.908 6.89557 281.724 6.33957 281.825 5.40357C281.967 4.09557 280.639 2.50757 277.986 0.813566C277.781 0.681566 277.719 0.409566 277.851 0.201566C277.982 -0.00443451 278.255 -0.0664345 278.46 0.0655655C281.501 2.00757 282.888 3.78557 282.701 5.49957C282.556 6.84157 281.487 7.56957 280.456 8.27357C279.469 8.94757 278.535 9.58157 278.291 10.7256C277.998 12.0936 278.927 13.2516 279.909 14.4796C280.973 15.8076 282.074 17.1836 281.716 18.9576C281.399 20.5296 280.126 21.3396 278.999 22.0556C277.904 22.7516 276.959 23.3536 276.864 24.4956C276.782 25.4676 277.359 26.2556 277.97 27.0916C278.675 28.0536 279.473 29.1436 279.105 30.5656C278.914 31.3096 278.506 31.7596 278.145 32.1576C277.781 32.5576 277.494 32.8736 277.437 33.4456C277.343 34.3556 277.887 35.3616 279.051 36.4336C279.23 36.5996 279.242 36.8796 279.079 37.0596C278.991 37.1556 278.874 37.2036 278.754 37.2036L278.756 37.2056Z" fill="black"/>
<path d="M113.418 106.938C113.27 106.938 113.125 106.862 113.042 106.726C112.914 106.518 112.98 106.244 113.187 106.116L146.158 85.8036C146.365 85.6756 146.635 85.7416 146.763 85.9496C146.89 86.1576 146.825 86.4316 146.618 86.5596L113.647 106.872C113.575 106.916 113.495 106.938 113.418 106.938Z" fill="black"/>
<path d="M132.215 82.6867C132.067 82.6867 131.922 82.6107 131.838 82.4747C131.711 82.2667 131.777 81.9927 131.984 81.8647L149.337 71.1747C149.544 71.0467 149.817 71.1127 149.942 71.3207C150.069 71.5287 150.004 71.8027 149.797 71.9307L132.444 82.6207C132.372 82.6647 132.292 82.6867 132.215 82.6867Z" fill="black"/>
<path d="M87.5645 135.974C87.5645 135.974 99.0961 138.414 110.389 130.5C121.68 122.588 128.819 117.066 128.819 117.066C128.819 117.066 128.839 112.714 131.257 110.892C133.675 109.072 135.11 102.872 137.003 102.914L136.324 109.942C136.324 109.942 142.06 107.142 144.996 105.434C147.932 103.726 149.942 104.74 149.942 104.74C149.942 104.74 139.777 117.646 136.503 118.844C133.229 120.042 131.506 124.996 129.681 127.516L127.856 130.036C127.856 130.036 114.342 153.508 87.5625 151.242V135.974H87.5645Z" fill="white"/>
<path d="M91.1314 151.837C89.9592 151.837 88.759 151.787 87.529 151.683C87.3001 151.663 87.125 151.471 87.125 151.241V135.973C87.125 135.839 87.1847 135.713 87.2882 135.629C87.3917 135.545 87.527 135.513 87.6564 135.539C87.7699 135.563 99.1443 137.839 110.137 130.135C120.355 122.975 127.247 117.713 128.385 116.841C128.425 115.895 128.726 112.245 130.995 110.537C132.048 109.745 132.963 107.931 133.769 106.333C134.814 104.263 135.718 102.473 136.985 102.473C136.995 102.473 137.005 102.473 137.015 102.473C137.139 102.475 137.254 102.529 137.336 102.621C137.417 102.713 137.457 102.835 137.445 102.957L136.842 109.195C138.466 108.391 142.498 106.377 144.779 105.051C147.886 103.243 150.052 104.299 150.143 104.345C150.263 104.405 150.346 104.515 150.376 104.645C150.404 104.775 150.374 104.911 150.29 105.015C149.872 105.545 140.009 118.033 136.657 119.259C134.472 120.057 132.971 122.747 131.645 125.119C131.096 126.103 130.577 127.035 130.039 127.775L128.228 130.277C127.993 130.675 124.542 136.425 118.036 141.827C112.382 146.523 103.294 151.833 91.1314 151.833V151.837ZM88.0067 150.833C101.473 151.843 111.44 146.151 117.449 141.167C124.045 135.697 127.444 129.871 127.478 129.813C127.486 129.799 127.494 129.787 127.504 129.775L129.329 127.255C129.834 126.555 130.342 125.647 130.879 124.687C132.278 122.181 133.865 119.339 136.356 118.429C138.832 117.523 146.117 108.841 149.204 104.967C148.475 104.813 147.058 104.751 145.221 105.819C142.303 107.515 136.577 110.313 136.52 110.341C136.376 110.411 136.205 110.397 136.076 110.307C135.944 110.215 135.873 110.061 135.889 109.901L136.498 103.585C135.877 104.115 135.184 105.491 134.555 106.735C133.664 108.503 132.74 110.331 131.522 111.247C129.305 112.917 129.261 117.027 129.261 117.067C129.261 117.203 129.197 117.333 129.09 117.415C129.018 117.471 121.814 123.033 110.642 130.861C100.695 137.831 90.4269 136.851 88.0067 136.493V150.831V150.833Z" fill="black"/>
<path d="M95.3894 134.206L89.4107 158.934C89.4107 158.934 76.9177 156.966 76.2768 162.41C75.6359 167.854 77.2759 185.322 77.9586 191.6C78.6413 197.878 79.7558 205.578 71.8544 207.572C63.953 209.566 35.1418 203.5 27.5947 206.84C20.0475 210.18 17.3686 206.56 17.9936 200.676C18.6185 194.79 20.1411 167.868 20.1411 167.868L14.8569 185.618L0.445312 184.044C0.445312 184.044 3.62976 145.206 22.7623 137.782C41.8948 130.358 50.3216 130.026 64.6138 131.248C78.908 132.472 88.8653 135.914 95.3914 134.208L95.3894 134.206Z" fill="white"/>
<path d="M22.6111 208.565C21.4129 208.565 20.4039 208.265 19.5859 207.665C17.9001 206.427 17.1975 203.993 17.5538 200.629C18.0295 196.151 19.0365 179.251 19.4804 171.621L15.2749 185.745C15.2132 185.949 15.0162 186.081 14.8052 186.059L0.393626 184.485C0.156783 184.459 -0.0183614 184.247 0.00154136 184.009C0.00950246 183.911 0.837457 174.131 4.002 163.571C8.21342 149.517 14.644 140.457 22.5991 137.371C42.0222 129.835 50.3277 129.583 64.6477 130.809C70.2523 131.289 75.1723 132.105 79.5111 132.825C86.1487 133.927 91.391 134.797 95.2761 133.781C95.4273 133.741 95.5865 133.785 95.696 133.893C95.8075 134.003 95.8512 134.161 95.8154 134.313L89.8366 159.041C89.7829 159.265 89.566 159.409 89.3411 159.373C89.2575 159.359 81.0336 158.101 77.8651 160.515C77.1825 161.035 76.8063 161.673 76.7128 162.463C76.0798 167.825 77.7119 185.281 78.3945 191.553L78.4602 192.153C79.1389 198.313 79.9828 205.979 71.96 208.003C68.3217 208.921 60.5 208.179 52.2184 207.395C42.1835 206.445 31.8081 205.461 27.7699 207.247C25.7836 208.125 24.06 208.565 22.6091 208.565H22.6111ZM20.1392 167.425C20.165 167.425 20.1909 167.427 20.2148 167.431C20.4357 167.469 20.5909 167.667 20.579 167.893C20.5631 168.163 19.0505 194.895 18.4295 200.723C18.2046 202.837 18.3141 205.635 20.1053 206.951C21.6179 208.061 24.1456 207.883 27.4156 206.437C31.6609 204.557 42.1556 205.551 52.302 206.513C60.5059 207.291 68.2541 208.025 71.747 207.143C79.0255 205.307 78.2612 198.371 77.5865 192.251L77.5208 191.649C77.4969 191.423 75.0668 168.917 75.839 162.357C75.9604 161.329 76.464 160.471 77.3357 159.807C80.4127 157.463 87.3189 158.205 89.0783 158.439L94.7944 134.797C90.8238 135.595 85.7267 134.749 79.3718 133.695C75.0489 132.977 70.1468 132.163 64.5761 131.687C50.3973 130.475 42.1715 130.723 22.9196 138.193C5.3315 145.017 1.34896 179.397 0.923039 183.651L14.5385 185.139L19.7172 167.741C19.7729 167.551 19.9481 167.425 20.1392 167.425Z" fill="black"/>
<path d="M42.5356 100.66C41.3753 102.89 41.9505 105.628 44.0044 107.066C46.2654 108.648 48.8269 110.946 50.2937 113.922C53.3368 120.094 49.7106 124.196 40.3941 123.582C31.0776 122.968 30.783 124.44 22.3542 128.628C13.9234 132.816 10.3827 130.498 10.2135 122.936C10.0444 115.374 18.2025 106.112 22.0597 104.684C22.402 104.558 23.009 104.18 23.825 103.604C27.0732 101.316 27.8354 98.946 29.2744 97.454C32.8529 93.744 41.6858 94.39 42.9655 97.402C43.3198 98.238 43.2362 99.316 42.5376 100.658L42.5356 100.66Z" fill="black"/>
<path d="M23.1434 96.5475C25.6153 98.6135 27.0204 102.454 25.681 104.072C24.3415 105.69 20.765 104.474 18.2931 102.408C15.8211 100.342 15.3913 98.2115 16.7307 96.5915C18.0702 94.9735 20.6715 94.4795 23.1434 96.5455V96.5475Z" fill="black"/>
<path d="M25.2034 113.774C25.707 113.374 26.4175 113.356 27.134 113.634C27.3271 112.416 27.5918 111.394 27.5918 111.394C27.349 106.276 36.5361 104.492 36.5361 104.492H36.8903C38.2019 106.236 39.1732 107.836 39.8857 109.298C40.0788 109.694 40.3554 110.042 40.7117 110.3L42.2462 111.422C42.7716 111.806 42.8612 112.558 42.4432 113.056L41.5615 114.104C43.6055 120.506 39.826 121.178 39.826 121.178C39.2807 121.316 38.7513 121.408 38.2338 121.468C39.4916 124.888 42.7159 131.092 49.6998 131.678C50.4421 131.74 50.7606 132.65 50.1953 133.138C47.2557 135.68 39.9653 140.48 28.6725 138.216C27.8565 138.052 27.6137 137.01 28.2625 136.486C30.5075 134.668 33.3556 130.148 30.0199 119.44C29.6358 119.188 29.2935 118.942 29.0069 118.714C28.0794 119.378 26.519 118.874 25.4741 117.548C24.4053 116.194 24.2839 114.502 25.2034 113.772V113.774Z" fill="white"/>
<path d="M34.393 139.245C32.5898 139.245 30.6552 139.067 28.5893 138.653C28.046 138.545 27.628 138.141 27.4947 137.603C27.3613 137.057 27.5504 136.497 27.9882 136.143C30.0004 134.515 32.8784 130.219 29.6481 119.725C29.4113 119.567 29.1864 119.407 28.9754 119.249C27.8449 119.789 26.2249 119.213 25.1322 117.825C24.561 117.101 24.2147 116.261 24.157 115.461C24.0953 114.597 24.3699 113.875 24.9312 113.427C25.4188 113.039 26.0756 112.915 26.7841 113.067C26.9354 112.227 27.0986 111.555 27.1503 111.349C26.9712 105.963 36.0668 104.135 36.4549 104.059C36.4827 104.053 36.5106 104.051 36.5385 104.051H36.8927C37.0301 104.051 37.1614 104.117 37.245 104.227C38.4929 105.887 39.5159 107.529 40.2842 109.107C40.4494 109.447 40.6882 109.737 40.9728 109.945L42.5073 111.067C42.8556 111.323 43.0865 111.715 43.1382 112.145C43.19 112.575 43.0606 113.013 42.782 113.343L42.0575 114.205C42.8238 116.725 42.7979 118.695 41.9779 120.061C41.1897 121.373 39.9578 121.607 39.906 121.617C39.5756 121.701 39.2214 121.775 38.8472 121.835C40.2344 125.339 43.381 130.707 49.74 131.241C50.2634 131.285 50.7053 131.635 50.8645 132.131C51.0237 132.623 50.8784 133.139 50.4863 133.479C48.2652 135.401 42.766 139.247 34.393 139.247V139.245ZM29.0093 118.275C29.1048 118.275 29.2023 118.307 29.2819 118.369C29.5745 118.599 29.9128 118.843 30.2651 119.071C30.3507 119.127 30.4144 119.211 30.4442 119.309C33.9053 130.413 30.7388 135.055 28.5435 136.831C28.3724 136.969 28.3007 137.179 28.3525 137.389C28.4022 137.593 28.5555 137.739 28.7625 137.781C40.0374 140.043 47.3098 135.053 49.9111 132.803C50.0843 132.653 50.0505 132.471 50.0266 132.401C50.0067 132.341 49.9231 132.141 49.6663 132.121C42.4993 131.519 39.1696 125.285 37.8222 121.623C37.7744 121.495 37.7884 121.353 37.86 121.239C37.9297 121.123 38.0491 121.047 38.1844 121.031C38.7337 120.965 39.2373 120.873 39.7209 120.751C39.7866 120.737 40.6623 120.557 41.2355 119.585C41.9222 118.421 41.8903 116.573 41.146 114.241C41.1002 114.095 41.13 113.937 41.2296 113.819L42.1112 112.771C42.2346 112.625 42.2884 112.441 42.2665 112.251C42.2446 112.061 42.1471 111.895 41.9918 111.783L40.4573 110.661C40.0573 110.369 39.7249 109.965 39.496 109.495C38.7795 108.023 37.8322 106.491 36.6778 104.937H36.5862C35.9454 105.071 27.8231 106.861 28.038 111.375C28.04 111.419 28.036 111.465 28.0241 111.507C28.0221 111.517 27.7614 112.523 27.5743 113.705C27.5544 113.837 27.4748 113.953 27.3593 114.019C27.2439 114.085 27.1046 114.097 26.9812 114.047C26.3821 113.813 25.8348 113.841 25.4825 114.121C25.1561 114.381 24.9989 114.833 25.0387 115.395C25.0844 116.021 25.3631 116.687 25.8248 117.273C26.7085 118.395 28.0221 118.879 28.7565 118.355C28.8321 118.301 28.9237 118.273 29.0132 118.273L29.0093 118.275Z" fill="black"/>
<path d="M36.8322 122.022C33.9045 122.022 32.6844 120.526 32.6267 120.452C32.4755 120.26 32.5073 119.982 32.6984 119.83C32.8874 119.678 33.1641 119.71 33.3154 119.9C33.3751 119.972 34.7185 121.56 38.1736 121.032C38.4105 120.996 38.6393 121.162 38.6752 121.404C38.711 121.646 38.5458 121.872 38.305 121.908C37.7716 121.99 37.282 122.024 36.8322 122.024V122.022Z" fill="black"/>
<path d="M53.1211 331.05L52.6653 348.108L46.6686 348.76L43.7031 330.402L53.1211 331.05Z" fill="white"/>
<path d="M46.6709 349.202C46.4579 349.202 46.2709 349.046 46.237 348.83L43.2715 330.472C43.2496 330.338 43.2894 330.202 43.381 330.102C43.4725 330.002 43.5999 329.948 43.7372 329.958L53.1552 330.606C53.3901 330.622 53.5712 330.822 53.5652 331.06L53.1094 348.12C53.1035 348.342 52.9363 348.524 52.7154 348.548L46.7187 349.2C46.7027 349.2 46.6868 349.202 46.6709 349.202ZM44.2288 330.88L47.0391 348.274L52.2377 347.71L52.6716 331.462L44.2288 330.882V330.88Z" fill="black"/>
<path d="M87.1477 336.652L88.105 350.24L80.1797 350.892L77.3516 336.652H87.1477Z" fill="white"/>
<path d="M80.1826 351.333C79.9737 351.333 79.7926 351.185 79.7508 350.977L76.9226 336.737C76.8967 336.607 76.9305 336.471 77.0141 336.369C77.0977 336.267 77.2231 336.207 77.3545 336.207H87.1506C87.3815 336.207 87.5745 336.387 87.5905 336.619L88.5478 350.207C88.5657 350.449 88.3846 350.659 88.1437 350.679L80.2205 351.331C80.2085 351.331 80.1966 351.331 80.1846 351.331L80.1826 351.333ZM77.8918 337.093L80.5389 350.415L87.6362 349.831L86.7386 337.091H77.8918V337.093Z" fill="black"/>
<path d="M78.0617 356.742C77.5124 356.374 77.178 355.756 77.1601 355.092C77.1084 353.098 77.1024 348.852 77.9025 347.256C78.9633 345.14 83.3439 348.09 83.3439 348.09C83.3439 348.09 85.9074 344.52 87.4101 343.768C88.1863 343.38 92.734 346.422 97.3176 350.568C102.341 355.112 104.608 356.562 105.691 360.478C106.198 362.316 104.855 364.166 102.962 364.302C98.3486 364.634 89.0381 364.08 78.0617 356.742Z" fill="white"/>
<path d="M100.933 364.817C95.8557 364.817 87.4647 363.559 77.8198 357.111C77.1531 356.665 76.7431 355.915 76.7232 355.105C76.6635 352.807 76.6874 348.705 77.5114 347.057C77.7482 346.583 78.1463 346.261 78.6617 346.127C80.1505 345.733 82.3557 346.953 83.2374 347.495C83.93 346.569 85.9043 344.029 87.2159 343.373C88.5355 342.715 94.2934 347.235 97.6151 350.239C98.4073 350.955 99.1297 351.593 99.7905 352.177C103.373 355.345 105.172 356.933 106.12 360.361C106.394 361.351 106.207 362.407 105.61 363.257C104.999 364.127 104.048 364.669 102.997 364.745C102.39 364.789 101.699 364.817 100.935 364.817H100.933ZM79.3026 346.935C79.1533 346.935 79.012 346.951 78.8827 346.985C78.608 347.057 78.4229 347.207 78.2975 347.457C77.7581 348.533 77.5054 351.313 77.6029 355.083C77.6168 355.607 77.8796 356.089 78.3075 356.375C89.1863 363.647 98.4073 364.189 102.931 363.861C103.717 363.805 104.43 363.399 104.888 362.747C105.331 362.115 105.471 361.331 105.268 360.599C104.39 357.427 102.766 355.991 99.2054 352.845C98.5426 352.259 97.8181 351.619 97.024 350.899C91.9727 346.329 88.1852 344.099 87.5702 344.181C86.4576 344.743 84.3997 347.383 83.7031 348.351C83.5638 348.545 83.2971 348.593 83.1001 348.459C82.4134 347.997 80.5445 346.935 79.3026 346.935Z" fill="black"/>
<path d="M98.7817 361.136C93.9752 361.136 86.1415 359.996 78.5565 353.914C78.3655 353.762 78.3356 353.482 78.4869 353.292C78.6381 353.1 78.9168 353.07 79.1059 353.222C90.8306 362.624 103.132 359.894 103.256 359.864C103.493 359.808 103.73 359.956 103.785 360.194C103.841 360.432 103.694 360.67 103.457 360.726C103.409 360.738 101.626 361.136 98.7837 361.136H98.7817Z" fill="black"/>
<path d="M55.4936 352.258L55.406 342.918C55.406 342.918 53.5431 340.084 50.9876 342.388C50.9876 342.388 48.6251 339.06 44.2406 343.208C44.2406 343.208 38.0707 354.766 35.3381 361.64C34.6076 363.48 35.9133 365.498 37.8856 365.544C40.7178 365.61 44.3799 365.458 45.9761 364.374C48.4699 362.68 52.7371 357.34 54.598 354.934C55.1891 354.168 55.5055 353.228 55.4956 352.258H55.4936Z" fill="white"/>
<path d="M39.0264 366C38.6542 366 38.2721 365.996 37.876 365.986C36.7973 365.96 35.836 365.426 35.2389 364.52C34.6458 363.618 34.5304 362.48 34.9304 361.476C37.6392 354.658 43.7911 343.114 43.8528 342.998C43.8747 342.956 43.9046 342.918 43.9384 342.884C45.6281 341.284 47.2502 340.55 48.7549 340.698C49.8754 340.808 50.6377 341.386 51.0337 341.774C51.7881 341.202 52.5643 340.962 53.3464 341.064C54.8272 341.256 55.7368 342.616 55.7746 342.672C55.8204 342.744 55.8462 342.826 55.8482 342.912L55.9358 352.252C55.9457 353.316 55.5935 354.364 54.9446 355.204C52.7494 358.044 48.6952 363.058 46.2213 364.74C44.9893 365.578 42.5711 366 39.0244 366H39.0264ZM44.5952 343.48C44.0976 344.418 38.3338 355.294 35.7484 361.804C35.4519 362.55 35.5335 363.362 35.9733 364.03C36.4072 364.692 37.1078 365.08 37.8959 365.1C41.773 365.19 44.5554 364.802 45.7277 364.006C48.1896 362.334 52.5065 356.914 54.248 354.66C54.7755 353.978 55.0621 353.126 55.0541 352.26L54.9685 343.062C54.7595 342.792 54.1127 342.052 53.229 341.94C52.5981 341.86 51.9413 342.12 51.2825 342.714C51.189 342.798 51.0636 342.838 50.9402 342.824C50.8148 342.81 50.7034 342.744 50.6297 342.64C50.6018 342.604 49.9311 341.694 48.6534 341.576C47.4293 341.462 46.064 342.102 44.5952 343.478V343.48Z" fill="black"/>
<path d="M50.9887 347.865C50.7459 347.865 50.5489 347.667 50.5469 347.423V342.389C50.5449 342.145 50.7419 341.947 50.9848 341.945C51.2276 341.945 51.4246 342.143 51.4266 342.387V347.423C51.4286 347.667 51.2315 347.865 50.9887 347.867V347.865Z" fill="black"/>
<path d="M89.5564 337.422C89.5564 337.422 91.8174 303.122 88.1075 272.272C84.3977 241.42 70.5991 197.364 70.5991 197.364C70.5991 197.364 55.7536 196.688 44.9464 198.146C34.1392 199.606 29.8621 198.104 29.8621 198.104C29.8621 198.104 21.7935 207.386 22.4523 224.838C23.1111 242.29 41.9351 315.902 41.2226 333.18C41.2226 333.18 47.5537 336.377 55.7536 334.787L52.3542 235.58C52.3542 235.58 59.3859 256.004 62.6877 269.994C65.3786 281.4 70.0478 288.778 70.0478 288.778C70.0478 288.778 69.8487 315.294 75.9051 337.299C75.9051 337.299 83.0582 339.549 89.5545 337.422H89.5564Z" fill="black"/>
<path d="M77.6811 300.603C77.5417 300.603 77.4024 300.535 77.3168 300.411L72.1322 292.831C71.9948 292.629 72.0446 292.353 72.2456 292.215C72.4466 292.077 72.7213 292.127 72.8586 292.329L78.0433 299.909C78.1806 300.111 78.1309 300.387 77.9298 300.525C77.8542 300.577 77.7666 300.603 77.6811 300.603Z" fill="white"/>
<path d="M42.8173 282.171C41.0181 282.171 38.7372 281.819 36.8345 280.401C36.6395 280.255 36.5977 279.977 36.743 279.781C36.8883 279.585 37.1629 279.543 37.36 279.689C40.7255 282.199 45.6236 280.983 45.6733 280.971C45.9102 280.909 46.149 281.053 46.2087 281.291C46.2684 281.529 46.1271 281.769 45.8903 281.829C45.7848 281.857 44.517 282.171 42.8173 282.171Z" fill="white"/>
<path d="M29.7159 203.565H69.1612L51.7343 160.457H12.2891L29.7159 203.565Z" fill="white"/>
<path d="M69.1626 204.008H29.7173C29.5382 204.008 29.377 203.898 29.3093 203.732L11.8844 160.622C11.8287 160.486 11.8446 160.33 11.9262 160.208C12.0078 160.086 12.1452 160.012 12.2924 160.012H51.7377C51.9168 160.012 52.0781 160.122 52.1457 160.288L69.5706 203.398C69.6263 203.534 69.6104 203.69 69.5288 203.812C69.4472 203.934 69.3099 204.008 69.1626 204.008ZM30.0139 203.122H68.5078L51.4412 160.898H12.9452L30.0119 203.122H30.0139Z" fill="black"/>
<path d="M44.6111 189.99C44.6111 189.99 51.4835 185.944 54.6063 185.084C57.729 184.224 55.3626 186.874 53.1156 187.956C50.8685 189.038 50.7969 190.46 50.7969 190.46C50.7969 190.46 63.0888 190.062 64.4681 189.99C65.8474 189.918 63.7795 191.842 60.1034 192.458C60.1034 192.458 59.0744 195.584 56.4154 197.076C53.7564 198.568 45.0928 197.076 45.0928 197.076C45.0928 197.076 34.8926 201.356 17.9971 200.678C6.81975 200.23 1.33454 191.196 2.05502 184.762L12.8164 185.762C12.8164 185.762 17.2946 195.92 44.6111 189.988V189.99Z" fill="white"/>
<path d="M21.5546 201.19C20.3963 201.19 19.2041 201.168 17.9761 201.118C12.8093 200.912 8.2735 198.816 5.20051 195.22C2.56339 192.134 1.22195 188.204 1.61403 184.71C1.6419 184.47 1.85287 184.298 2.0917 184.318L12.8531 185.318C13.0123 185.332 13.1517 185.432 13.2154 185.58C13.2591 185.676 17.9582 195.302 44.4468 189.568C45.1812 189.138 51.4665 185.484 54.4857 184.654C54.9554 184.524 56.2053 184.18 56.4999 184.974C56.886 186.014 54.6569 187.7 53.3015 188.352C52.1233 188.918 51.6157 189.562 51.3968 189.994C53.9085 189.912 63.2608 189.606 64.4411 189.544C65.2053 189.508 65.3148 189.968 65.3307 190.112C65.4322 191.05 63.0797 192.348 60.4247 192.848C60.1102 193.652 58.9837 196.138 56.6253 197.46C54.008 198.928 46.2539 197.716 45.1374 197.53C44.0208 197.966 35.3154 201.19 21.5526 201.19H21.5546ZM2.45194 185.242C2.24097 188.386 3.49882 191.868 5.87123 194.644C8.78301 198.052 13.0939 200.036 18.0139 200.234C34.6009 200.898 44.8209 196.708 44.9224 196.666C44.9981 196.634 45.0836 196.624 45.1672 196.638C47.5337 197.046 54.1295 197.848 56.1993 196.688C58.6713 195.302 59.6744 192.348 59.6843 192.318C59.7361 192.162 59.8694 192.048 60.0306 192.02C62.1224 191.67 63.5395 190.914 64.1445 190.446C61.7701 190.544 51.2853 190.886 50.8117 190.9C50.6883 190.904 50.5689 190.856 50.4833 190.768C50.3977 190.68 50.3519 190.56 50.3579 190.436C50.3619 190.368 50.4693 188.736 52.9253 187.554C54.2966 186.894 55.4132 185.81 55.6301 185.356C55.4948 185.35 55.2241 185.372 54.7226 185.508C51.6914 186.342 44.9025 190.328 44.8349 190.368C44.7951 190.392 44.7513 190.408 44.7055 190.418C19.3633 195.92 13.4223 187.748 12.5367 186.178L2.45592 185.242H2.45194Z" fill="black"/>
</g>
<defs>
<clipPath id="clip0_12322_7684">
<rect width="350" height="366" fill="white"/>
</clipPath>
</defs>
</svg>
