<svg width="173" height="45" viewBox="0 0 173 45" fill="none" xmlns="http://www.w3.org/2000/svg">
<g id="Layer_1" clip-path="url(#clip0_3032_4866)">
<g id="ebU0z8">
<path id="Vector" d="M0.414062 0H9.48129V13.3523H23.8344V0H32.9649V34.5259H23.8652V20.6063H9.51862V34.5128H0.414062V0Z" fill="white"/>
<path id="Vector_2" d="M104.203 31.2979V44.9387H95.3125V8.55777H104.185V11.9337C104.589 11.4577 104.816 11.1774 105.058 10.9084C106.9 8.84956 109.287 7.97419 111.959 7.75575C115.367 7.48678 118.548 8.06874 121.177 10.4503C123.225 12.307 124.26 14.7245 124.783 17.3963C125.489 21.064 125.374 24.6894 124.067 28.2186C122.404 32.7079 118.652 35.3569 113.869 35.3781C112.547 35.39 111.228 35.2638 109.932 35.0015C107.598 34.5125 105.74 33.21 104.203 31.2979ZM104.148 21.6003L104.203 21.6085C104.234 22.1774 104.243 22.7496 104.297 23.3152C104.549 26 105.779 27.7165 108.007 28.142C109.251 28.3843 110.524 28.4392 111.783 28.305C114.302 28.0214 115.516 26.8053 116.003 24.3112C116.38 22.4157 116.365 20.4627 115.959 18.5732C115.51 16.4312 114.245 15.15 112.089 14.881C110.94 14.7384 109.778 14.7351 108.629 14.8712C106.356 15.1337 104.983 16.41 104.505 18.6205C104.297 19.5855 104.261 20.5978 104.148 21.5938V21.6003Z" fill="white"/>
<path id="Vector_3" d="M126.593 37.8682H128.099C131.074 37.8682 134.049 37.8568 137.025 37.8796C137.538 37.8796 137.788 37.7459 137.937 37.2275C138.245 36.1353 138.638 35.0693 139.042 33.8548C137.499 33.8548 136.046 33.7929 134.604 33.8776C133.7 33.9314 133.305 33.6592 133.01 32.7708C130.455 24.9462 127.846 17.1315 125.256 9.31506C125.181 9.08847 125.134 8.85374 125.043 8.5H131.653C131.788 8.5 131.923 8.50978 132.057 8.51141C134.096 8.5326 134.102 8.53097 134.763 10.5034C136.664 16.1849 138.563 21.8669 140.462 27.5495C140.529 27.7517 140.612 27.9505 140.748 28.3108C141.382 26.2259 141.975 24.2877 142.561 22.3478C143.88 17.9856 145.193 13.6283 146.477 9.26126C146.639 8.69887 146.878 8.49511 147.478 8.50326C149.989 8.53912 152.509 8.51793 155.036 8.51793C155.059 8.69047 155.059 8.8654 155.036 9.03794C152.143 18.1807 149.236 27.3224 146.315 36.463C145.708 38.3572 144.818 40.1242 143.474 41.6288C141.697 43.6208 139.396 44.6348 136.82 44.7929C133.481 44.9983 130.123 44.9266 126.773 44.9706C126.726 44.9706 126.679 44.9282 126.583 44.8809L126.593 37.8682Z" fill="white"/>
<path id="Vector_4" d="M36.1169 8.55469H44.9991V9.53276C44.9991 13.8786 44.9651 18.2229 45.0219 22.5737C45.0404 23.6804 45.2186 24.7786 45.5509 25.8339C45.981 27.1967 47.0976 27.8813 48.4835 28.0737C52.1432 28.5807 54.6214 26.5854 54.9152 22.7253C55.0985 20.2948 55.0482 17.8431 55.0774 15.4012C55.1002 13.1516 55.0774 10.9004 55.0774 8.58077H63.9662V34.5224H55.0856V30.0103C54.8437 30.3673 54.722 30.5303 54.6182 30.7047C52.867 33.6389 50.2363 35.1191 46.8931 35.3717C45.1079 35.507 43.3227 35.3603 41.6283 34.692C38.3306 33.3879 36.8456 30.7194 36.2906 27.3956C36.1481 26.5117 36.0775 25.6176 36.0796 24.7222C36.0569 19.5629 36.0634 14.4035 36.0634 9.24423C36.0634 9.03394 36.0974 8.82203 36.1169 8.55469Z" fill="white"/>
<path id="Vector_5" d="M91.639 16.2288H83.6234C82.6789 13.5277 80.8644 12.5773 77.6949 13.1316C77.0858 13.2395 76.4969 13.4407 75.9486 13.7282C75.1907 14.1292 74.8775 14.8497 74.9181 15.7055C74.9586 16.5613 75.4049 17.2297 76.1823 17.4269C77.4547 17.7529 78.7693 17.916 80.0773 18.1018C82.0248 18.3789 84.0161 18.4702 85.9328 18.8924C90.675 19.9357 92.4245 23.0557 91.8548 27.9933C91.5124 30.9927 89.771 32.9913 87.0331 34.1242C83.8263 35.4511 80.4571 35.5473 77.0636 35.3174C74.8077 35.1544 72.6184 34.6915 70.6206 33.5732C67.9574 32.0849 66.401 29.8386 66.0764 26.7642C66.0647 26.656 66.0604 26.547 66.0634 26.4382C66.0839 26.3483 66.1139 26.2609 66.1527 26.1774H68.2771C70.0071 26.1774 71.7388 26.1611 73.4704 26.1969C73.7187 26.1969 74.1358 26.4137 74.1829 26.6028C74.7249 28.7758 76.2927 29.7213 78.3067 29.925C79.4871 30.0137 80.6741 29.9213 81.8268 29.6512C82.9385 29.4132 83.4173 28.6307 83.4384 27.5858C83.4595 26.4757 83.0213 25.659 81.9307 25.3395C80.7476 24.9923 79.5061 24.8391 78.2824 24.6532C76.3608 24.3598 74.4052 24.2375 72.5145 23.8153C69.2038 23.0736 67.2238 20.9235 66.8343 17.7155C66.4335 14.3623 67.3634 11.521 70.3804 9.65942C72.5859 8.29664 75.0576 7.86629 77.5861 7.73588C80.6324 7.57287 83.6461 7.7799 86.496 9.00737C89.612 10.3506 91.2965 12.7371 91.639 16.2288Z" fill="white"/>
<path id="Vector_6" d="M165.625 15.5783H163.84V8.52803C164.814 8.52803 165.769 8.50684 166.727 8.55086C166.871 8.55086 167.066 8.85569 167.125 9.05293C167.467 10.194 167.774 11.3351 168.098 12.4892C168.178 12.7663 168.288 13.0353 168.451 13.4934C168.897 11.9056 169.304 10.5135 169.676 9.11325C169.789 8.68289 169.961 8.4775 170.442 8.50195C171.245 8.5427 172.052 8.51336 172.922 8.51336V15.5718H171.159V10.4124L171.034 10.3701C170.952 10.5327 170.88 10.7004 170.818 10.8721C170.431 12.1974 170.02 13.5178 169.682 14.8561C169.52 15.4691 169.234 15.7315 168.616 15.6321C168.482 15.6101 168.345 15.6101 168.21 15.6321C167.561 15.7462 167.256 15.4788 167.095 14.817C166.771 13.5031 166.36 12.2088 165.979 10.9047C165.926 10.6903 165.802 10.5001 165.628 10.3652L165.625 15.5783Z" fill="white"/>
<path id="Vector_7" d="M163.171 8.57031V10.0113H160.977V15.57H159.081V12.8363C159.081 12.7271 159.081 12.6195 159.081 12.5103C159.063 11.7523 159.304 10.815 158.945 10.2933C158.671 9.8956 157.647 10.0211 156.879 9.90375V8.57031H163.171Z" fill="white"/>
</g>
</g>
<defs>
<clipPath id="clip0_3032_4866">
<rect width="172.508" height="44.97" fill="white" transform="translate(0.414062)"/>
</clipPath>
</defs>
</svg>
