<svg width="196" height="61" viewBox="0 0 196 61" fill="none" xmlns="http://www.w3.org/2000/svg">
<path d="M78.2761 21.9787C78.3101 22.1463 78.344 22.2552 78.344 22.3558C78.344 22.5485 78.327 22.7412 78.3101 22.9926C78.0812 23.0178 77.8607 23.0513 77.6488 23.0513C71.0613 23.0513 64.4823 23.0513 57.8948 23.0681C57.3777 23.0681 57.0809 22.8753 56.8012 22.4647C54.529 19.163 52.2315 15.8781 49.9424 12.5848C49.7728 12.3418 49.5863 12.1072 49.3489 11.7887C48.6113 12.5848 47.9161 13.3139 47.2718 14.0764C47.1192 14.2608 47.0853 14.5876 47.0768 14.8558C47.0598 16.5066 47.0598 18.1491 47.0683 19.7999C47.0768 20.8893 48.1026 21.8949 49.2217 21.9452C49.3913 21.9535 49.5524 21.9619 49.7813 21.9787C49.7813 22.3306 49.7813 22.6407 49.7813 23.0094C46.8903 23.0094 44.0247 23.0094 41.0913 23.0094C41.0913 22.6742 41.0913 22.3642 41.0913 22.0373C41.1845 22.0038 41.2693 21.9535 41.3371 21.9619C42.2782 22.1044 42.8717 21.5681 43.4312 20.9396C43.7279 20.6044 43.8551 20.2357 43.8551 19.7915C43.8466 14.4535 43.8551 9.12393 43.8466 3.78594C43.8466 2.65465 42.7954 1.63231 41.6339 1.59041C41.4728 1.58203 41.3032 1.56527 41.0658 1.54851C41.0489 1.22169 41.0404 0.928398 41.0234 0.651861C41.6593 0.450744 48.8318 0.417224 49.7643 0.601582C49.7643 0.886498 49.7643 1.18817 49.7643 1.50661C49.6372 1.54013 49.527 1.59041 49.4252 1.58203C48.357 1.44795 47.755 2.12672 47.2124 2.85577C47.0598 3.06527 46.9835 3.37532 46.9835 3.6351C46.9666 6.4256 46.9751 9.22449 46.9835 12.015C46.9835 12.0904 47.0174 12.1742 47.0514 12.3418C47.2294 12.2077 47.3905 12.1239 47.5007 11.9982C49.9509 9.29153 52.3926 6.58482 54.8342 3.86974C55.3175 3.33343 55.309 3.23287 54.919 2.62951C54.4273 1.87532 53.8084 1.35577 52.7232 1.63231C52.7062 1.23007 52.6893 0.911638 52.6723 0.534543C55.4023 0.534543 58.0729 0.534543 60.7943 0.534543C60.7943 0.852979 60.7943 1.13789 60.7943 1.43957C59.0563 1.50661 57.9372 2.60437 56.8435 3.677C55.6651 4.8418 54.5629 6.08203 53.4269 7.28873C52.7571 8.00102 52.0873 8.71331 51.3837 9.4675C51.5447 9.70214 51.6634 9.91164 51.816 10.1044C54.1984 13.2301 56.5807 16.3474 58.9546 19.4731C59.6667 20.4116 60.6078 21.0736 61.6676 21.5681C62.6426 22.0206 64.0075 21.7692 64.7366 21.0736C65.1266 20.7049 65.3047 20.2943 65.3047 19.7412C65.2792 17.001 65.2962 14.2692 65.2962 11.529C65.2962 10.2636 64.4653 9.41722 63.1682 9.33343C63.0834 9.32505 62.9986 9.30829 62.8545 9.28315C62.8545 9.00661 62.8545 8.72169 62.8545 8.37812C64.5925 8.37812 66.2966 8.37812 68.1024 8.37812C68.1024 8.72169 68.1024 9.01499 68.1024 9.31667C68.1024 12.7524 68.1024 16.1882 68.1024 19.6239C68.1024 20.8474 68.9757 21.7189 70.205 21.7357C70.4594 21.7357 70.7137 21.7357 70.968 21.7357C72.2652 21.7273 73.13 20.8809 73.1384 19.6072C73.1384 17.0094 73.1384 14.4116 73.1384 11.8139C73.1384 10.1882 72.4347 9.43398 70.7222 9.29153C70.7222 9.00661 70.7222 8.72169 70.7222 8.37812C72.2228 8.37812 73.7065 8.37812 75.2664 8.37812C75.4529 9.30829 75.6395 10.2468 75.8599 11.3195C76.1482 11.0597 76.3431 10.8669 76.5466 10.691C77.1316 10.1714 77.6996 9.61834 78.3185 9.14069C79.285 8.39488 80.4211 8.07644 81.6419 8.06806C83.9565 8.04292 85.7369 9.75242 85.7538 12.0653C85.7793 14.5792 85.8047 17.0932 85.7369 19.6072C85.7114 20.5457 86.1014 21.1658 86.839 21.61C87.1866 21.8111 87.619 21.8697 88.1023 22.0122C88.1107 22.0709 88.1616 22.2217 88.1701 22.3725C88.1786 22.5066 88.1531 22.6491 88.1362 22.8921C85.6945 22.9759 83.2528 22.9088 80.7687 22.934C80.7348 22.7245 80.7009 22.5736 80.6839 22.4144C80.6754 22.2804 80.7009 22.1379 80.7094 21.9368C81.4893 21.9535 82.1252 21.677 82.6424 21.1155C82.9391 20.7887 83.1087 20.4535 83.1087 19.9926C83.1002 17.3697 83.1171 14.7385 83.1002 12.1155C83.0917 10.7496 82.0913 9.76918 80.7178 9.8446C78.8696 9.94516 77.386 10.825 76.2075 12.1993C76.0125 12.434 75.9108 12.8111 75.9108 13.1211C75.8853 15.4424 75.8938 17.7552 75.9023 20.0764C75.9023 20.8893 76.7586 21.8027 77.5809 21.92C77.7929 21.9703 77.9964 21.9703 78.2761 21.9787Z" fill="white"/>
<path d="M0.365075 1.54912C0.365075 1.18879 0.365075 0.895491 0.365075 0.543536C2.53547 0.543536 4.67194 0.543536 6.93559 0.543536C8.04622 3.30052 9.19076 6.11616 10.3268 8.9318C11.4629 11.7558 12.6074 14.5715 13.8368 17.4039C14.7693 15.5771 15.5239 13.6916 16.3124 11.8312C17.1093 9.95415 17.9062 8.07706 18.7032 6.19158C19.5001 4.31449 20.2971 2.43739 21.111 0.535156C23.044 0.535156 24.96 0.535156 26.9439 0.535156C26.9439 0.870352 26.9439 1.18041 26.9439 1.5156C26.8167 1.54074 26.698 1.59102 26.6048 1.58264C25.8756 1.48208 25.3754 1.84242 24.8922 2.31169C24.4174 2.76421 24.2139 3.267 24.2139 3.94577C24.2394 9.11616 24.2309 14.2782 24.2309 19.4486C24.2309 20.9569 25.1211 21.8871 26.6302 21.9542C26.715 21.9542 26.7913 21.9793 26.9439 22.0128C26.9439 22.3229 26.9439 22.6329 26.9439 23.0016C24.0952 23.0016 21.2551 23.0016 18.3556 23.0016C18.3556 22.6664 18.3556 22.348 18.3556 22.0044C18.4997 21.9793 18.6099 21.9374 18.7117 21.9542C19.7799 22.0966 20.3734 21.4011 20.9244 20.6804C21.0686 20.496 21.1533 20.2195 21.1533 19.9849C21.1618 14.7307 21.1618 9.48488 21.1618 4.23907C21.1025 4.23069 21.077 4.21393 21.0431 4.21393C21.0177 4.21393 20.9753 4.22231 20.9668 4.23907C18.2708 10.5324 15.5748 16.8173 12.8024 23.3033C10.0725 16.7167 7.41037 10.2893 4.73977 3.86197C4.69738 3.86197 4.65499 3.86197 4.6126 3.85359C4.58716 4.02119 4.53629 4.18879 4.53629 4.35639C4.53629 9.46812 4.52782 14.5798 4.53629 19.6916C4.53629 20.7642 5.59605 21.8285 6.67277 21.8871C6.8932 21.8955 7.10515 21.9206 7.3595 21.9458C7.3595 22.2642 7.3595 22.5324 7.3595 22.9178C5.05346 22.9765 2.74742 22.9346 0.407465 22.943C0.373553 22.7419 0.331163 22.591 0.314206 22.4318C0.305728 22.2977 0.331163 22.1553 0.339641 21.9877C0.449856 21.9542 0.551593 21.8955 0.65333 21.9039C1.72157 22.0212 2.33199 21.3592 2.85763 20.6134C3.04415 20.3452 3.08654 19.9346 3.09502 19.5826C3.12893 17.01 3.14589 14.4458 3.16284 11.8731C3.1798 9.25024 3.18828 6.61896 3.19676 3.99605C3.19676 2.57985 2.23873 1.62454 0.788979 1.57426C0.687242 1.59102 0.577027 1.57426 0.365075 1.54912Z" fill="white"/>
<path d="M168.461 38.6363C168.639 39.5916 168.8 40.4631 168.987 41.4603C169.258 41.2256 169.444 41.0748 169.622 40.924C170.275 40.3541 170.894 39.7256 171.598 39.2229C172.768 38.3932 174.099 38.0832 175.532 38.3094C177.482 38.6195 178.864 40.1782 178.881 42.1474C178.906 44.7201 178.914 47.2843 178.872 49.8569C178.855 50.6111 179.177 51.1055 179.686 51.5999C180.135 52.0273 180.661 51.9603 181.246 51.9854C181.246 52.2955 181.246 52.5804 181.246 52.924C178.787 52.924 176.346 52.924 173.862 52.924C173.862 52.6055 173.862 52.3374 173.862 52.0273C174.065 52.0022 174.26 51.977 174.446 51.9603C175.464 51.8849 176.329 50.9798 176.329 49.9659C176.337 47.4268 176.346 44.8877 176.329 42.3402C176.32 40.8402 175.294 39.8681 173.777 39.977C172.022 40.1027 170.606 40.9407 169.487 42.2396C169.241 42.5245 169.105 43.0022 169.105 43.3877C169.071 45.6167 169.08 47.8541 169.088 50.0916C169.088 51.0972 169.953 52.0106 170.962 52.1027C171.123 52.1195 171.293 52.1363 171.496 52.153C171.496 52.4547 171.496 52.7229 171.496 53.0497C167.35 53.0497 163.213 53.0497 159.016 53.0497C158.898 52.1614 158.779 51.2815 158.643 50.2256C158.372 50.5106 158.194 50.6949 158.024 50.8877C157.338 51.6754 156.592 52.396 155.651 52.8821C154.481 53.4854 153.285 53.586 152.073 52.991C149.538 51.7508 149.148 48.2145 151.352 46.4631C152.37 45.6502 153.59 45.3067 154.845 45.0553C156.058 44.8122 157.27 44.5692 158.474 44.3346C158.474 43.3374 158.576 42.3821 158.448 41.4603C158.279 40.2452 157.422 39.5497 156.219 39.3653C155.583 39.2648 154.921 39.2648 154.277 39.3402C152.963 39.4994 152.285 40.329 152.378 41.653C152.42 42.2061 152.582 42.7424 152.683 43.2871C151.835 43.4463 151.827 43.4547 151.395 42.8011C150.886 42.0301 150.386 41.2592 149.852 40.4463C151.149 39.1223 152.7 38.3849 154.498 38.2089C155.71 38.0916 156.922 38.1418 158.109 38.5022C160.195 39.1391 161.229 40.4966 161.238 42.6418C161.246 45.0469 161.238 47.4435 161.238 49.8485C161.238 51.0553 162.136 51.9351 163.357 51.9435C163.612 51.9435 163.866 51.9435 164.12 51.9435C165.468 51.9351 166.308 51.0972 166.308 49.748C166.308 47.1502 166.308 44.5525 166.308 41.9547C166.308 40.4882 165.57 39.7089 164.086 39.6083C164.035 39.6083 163.976 39.5748 163.832 39.5329C163.823 39.2731 163.806 38.9882 163.79 38.6363C165.383 38.6363 166.884 38.6363 168.461 38.6363ZM158.533 45.3569C158.338 45.3569 158.228 45.3318 158.118 45.3569C156.948 45.6502 155.769 45.9351 154.608 46.262C154.209 46.3793 153.819 46.5804 153.489 46.8318C152.488 47.5608 152.192 49.2452 152.836 50.3094C153.48 51.3653 154.769 51.7173 156.024 51.1642C156.999 50.7284 157.745 50.0078 158.338 49.1446C158.431 49.0106 158.516 48.843 158.516 48.6921C158.542 47.586 158.533 46.4798 158.533 45.3569Z" fill="white"/>
<path d="M44.6393 40.1034C43.7576 39.0307 43.1556 37.8995 43.003 36.5922C42.9182 35.8799 42.8843 35.1341 42.9861 34.4302C43.3167 32.1844 44.8597 30.7598 47.1658 30.4749C48.412 30.3157 49.6414 30.4078 50.8622 30.7263C51.3539 30.852 51.8457 30.9944 52.3459 31.0363C52.6935 31.0615 53.058 30.9442 53.4056 30.8604C53.7448 30.7849 54.0754 30.6844 54.4993 30.5671C54.4993 32.3939 54.4993 34.0782 54.4993 35.8129C54.2026 35.8129 53.9397 35.8129 53.6261 35.8129C53.5158 35.5112 53.4395 35.1844 53.2954 34.8911C52.3967 33.0056 50.9809 31.7486 48.8614 31.3799C47.861 31.2039 46.886 31.3799 45.9788 31.8157C44.8089 32.3687 44.156 33.5838 44.3256 34.8576C44.546 36.5 45.4108 37.69 46.9199 38.4442C47.3353 38.6537 47.7338 38.9302 48.0729 39.2486C50.93 41.9553 53.7617 44.6788 56.6103 47.3855C56.746 47.5196 56.9156 47.6201 57.1106 47.7626C57.9329 46.4889 58.2381 45.1229 58.3229 43.6816C58.3314 43.5726 58.3229 43.4553 58.3229 43.3464C58.306 41.1257 57.3395 40.0196 55.1012 39.6676C54.991 39.6509 54.8808 39.6257 54.7113 39.5922C54.6943 39.324 54.6773 39.0559 54.6604 38.7961C55.2793 38.595 61.1292 38.528 62.6722 38.6956C62.6722 38.9721 62.6722 39.257 62.6722 39.609C61.765 39.5 61.197 40.028 60.6714 40.6229C60.1457 41.2263 59.8151 41.8967 59.7727 42.7347C59.6709 44.6369 59.0859 46.4051 58.0855 48.0308C58.0262 48.1229 57.9923 48.2235 57.7973 48.5C58.0092 48.6341 58.2381 48.7514 58.4416 48.9023C59.5438 49.7738 60.6544 50.6369 61.7396 51.5335C62.2228 51.9274 62.7315 52.162 63.3589 52.0782C63.4946 52.0615 63.6302 52.1034 63.8337 52.1285C63.8422 52.4134 63.8591 52.6816 63.8761 53.0084C60.8579 53.2682 58.0008 53.1592 55.7117 50.8715C55.4488 51.081 55.2284 51.2486 55.008 51.4162C52.6002 53.2766 49.8533 53.9218 46.8775 53.4525C42.7572 52.7989 40.2731 48.9274 41.3159 44.9218C41.7652 43.1956 42.6809 41.7542 44.0713 40.6062C44.2154 40.4553 44.3849 40.3129 44.6393 40.1034ZM54.8554 50.243C51.5913 47.0922 48.3442 43.9414 45.0971 40.7989C43.2828 42.3659 42.9521 45.2319 43.6304 47.109C45.2073 51.4916 51.0826 53.1844 54.8045 50.3352C54.8384 50.3101 54.8554 50.243 54.8554 50.243Z" fill="white"/>
<path d="M132.34 52.0036C132.34 52.3136 132.34 52.5818 132.34 52.9086C129.89 52.9086 127.482 52.9086 125.007 52.9086C124.99 52.6153 124.973 52.3471 124.956 52.0371C125.185 52.0036 125.371 51.97 125.558 51.9449C126.49 51.8527 127.321 50.9645 127.33 50.0259C127.338 47.3779 127.346 44.7214 127.338 42.0734C127.33 40.7997 126.414 39.9198 125.117 39.9449C123.421 39.9784 122.09 40.7578 121.03 42.0064C120.818 42.2578 120.7 42.6684 120.691 43.0036C120.666 45.3751 120.666 47.7466 120.683 50.1265C120.691 51.0399 121.514 51.8695 122.438 51.9449C122.607 51.9617 122.768 51.97 122.972 51.9868C122.997 52.1376 123.031 52.2633 123.04 52.3974C123.048 52.5315 123.023 52.674 123.023 52.808C122.421 53.0008 116.605 53.0511 115.553 52.8583C115.545 52.6069 115.528 52.3471 115.511 52.0203C115.774 51.9868 115.994 51.9701 116.206 51.9365C116.995 51.836 117.851 50.9477 117.851 50.1684C117.868 47.4617 117.876 44.755 117.851 42.0483C117.843 40.8667 116.952 39.9784 115.757 39.9533C113.917 39.9198 112.51 40.7829 111.425 42.1823C111.221 42.4421 111.136 42.8611 111.136 43.2047C111.111 45.5175 111.111 47.8388 111.128 50.16C111.136 51.0483 111.95 51.9282 112.84 52.0539C113.01 52.079 113.18 52.079 113.417 52.0958C113.417 52.389 113.417 52.6823 113.417 53.0175C110.95 53.0175 108.508 53.0175 106.024 53.0175C106.024 52.7075 106.024 52.4393 106.024 52.1125C106.821 52.146 107.448 51.836 107.94 51.2494C108.203 50.9393 108.356 50.6125 108.356 50.1935C108.347 47.2941 108.356 44.3863 108.347 41.4868C108.347 40.5818 107.533 39.727 106.626 39.6181C106.431 39.593 106.245 39.5678 106.016 39.5427C106.016 39.241 106.016 38.9728 106.016 38.579C107.491 38.579 108.949 38.5622 110.467 38.5874C110.679 39.484 110.882 40.3471 111.111 41.2857C111.297 41.1432 111.45 41.0511 111.586 40.9254C112.069 40.4561 112.535 39.9701 113.035 39.5175C114.146 38.5203 115.503 38.16 116.952 38.2522C118.572 38.3527 119.691 39.1823 120.25 40.7159C120.293 40.8164 120.31 40.9337 120.352 41.0343C120.378 41.1097 120.42 41.1684 120.496 41.3276C120.912 40.9337 121.293 40.5734 121.675 40.2131C122.658 39.2913 123.752 38.5958 125.134 38.4114C127.304 38.1181 129.203 39.2326 129.754 41.1935C129.873 41.6125 129.89 42.0734 129.89 42.5175C129.898 44.8052 129.898 47.093 129.898 49.389C129.907 50.7969 130.831 51.836 132.34 52.0036Z" fill="white"/>
<path d="M137.347 50.7473C137.322 51.1747 137.305 51.4345 137.305 51.7026C137.305 53.4038 137.305 55.1049 137.305 56.806C137.305 58.1468 138.042 58.9261 139.382 59.0099C139.492 59.0183 139.594 59.0434 139.755 59.0686C139.755 59.3786 139.755 59.6635 139.755 59.9904C137.169 59.9904 134.651 59.9904 132.108 59.9904C132.074 59.8395 132.031 59.7306 132.031 59.6216C132.031 59.454 132.057 59.2948 132.074 59.0937C132.252 59.0602 132.404 59.0099 132.565 59.0015C133.744 58.9261 134.507 58.1216 134.507 56.9317C134.507 51.8786 134.507 46.8256 134.507 41.7809C134.507 40.4149 133.837 39.711 132.43 39.5937C132.32 39.5853 132.218 39.5434 132.065 39.5099C132.065 39.225 132.065 38.9568 132.065 38.6552C132.828 38.4457 133.591 38.563 134.337 38.5378C135.1 38.5127 135.855 38.5295 136.703 38.5295C136.864 39.4177 137.025 40.2809 137.203 41.2697C137.364 41.0686 137.491 40.9513 137.584 40.8088C138.975 38.6719 141.272 37.6915 143.799 38.211C145.257 38.5127 146.368 39.3255 147.148 40.5658C147.784 41.5797 148.123 42.7026 148.267 43.8758C148.53 45.9624 148.377 48.0071 147.419 49.9261C146.571 51.6356 145.316 52.901 143.341 53.2697C141.001 53.7138 139.034 53.1188 137.644 51.0993C137.593 51.0239 137.517 50.9568 137.347 50.7473ZM137.203 45.9038C137.186 45.9038 137.169 45.9038 137.16 45.9038C137.211 46.7669 137.186 47.6384 137.33 48.4848C137.644 50.387 139.322 51.8032 141.281 51.9038C143.358 52.0127 144.782 50.9652 145.367 48.8954C145.418 48.711 145.469 48.5183 145.503 48.3256C145.766 46.968 145.783 45.6021 145.622 44.2445C145.52 43.4233 145.308 42.6021 145.003 41.8311C144.638 40.901 143.892 40.2976 142.909 40.0211C141.162 39.535 139.399 40.1216 138.33 41.5714C137.601 42.5602 137.093 43.6328 137.203 44.9066C137.22 45.2334 137.203 45.5686 137.203 45.9038Z" fill="white"/>
<path d="M88.7418 47.1193C89.1064 47.1193 89.437 47.1193 89.827 47.1193C89.7253 47.4126 89.6659 47.6557 89.5557 47.8735C87.9364 51.326 85.2149 53.2367 81.3659 53.4378C75.0412 53.7646 71.1837 49.5411 70.2172 44.5216C69.6576 41.664 69.8696 38.84 71.0565 36.1501C72.4045 33.0914 74.6851 31.0802 78.0509 30.3931C79.6279 30.0746 81.1963 30.1501 82.7478 30.5523C83.46 30.7367 84.1636 30.9378 84.8843 31.0719C85.6643 31.2143 86.4442 31.2897 87.1394 30.7031C87.3175 30.5523 87.6481 30.5774 87.9025 30.5272C88.0975 31.2478 88.1229 37.583 87.9449 38.4797C87.8262 38.4881 87.6905 38.5132 87.5549 38.5132C87.4447 38.5132 87.3429 38.4797 87.2157 38.4545C86.9275 36.5523 86.0966 34.935 84.7656 33.5691C82.9513 31.7171 80.7724 31.164 78.2544 31.759C76.5842 32.1529 75.3803 33.1249 74.5919 34.6249C74.0238 35.7059 73.7271 36.8707 73.6084 38.0691C73.3625 40.4657 73.371 42.8707 73.7017 45.259C74.2188 48.9797 77.2964 51.6445 81.0946 51.7115C81.8491 51.7199 82.6206 51.6529 83.3667 51.5272C85.2743 51.2003 86.7579 50.1948 87.8262 48.6026C88.1483 48.1333 88.4196 47.6473 88.7418 47.1193Z" fill="white"/>
<path d="M98.7954 38.1173C102.432 38.1341 105.383 40.6815 105.951 44.2598C106.205 45.8687 106.095 47.4357 105.51 48.9525C104.247 52.2123 101.161 53.7709 98.2612 53.5363C94.9124 53.2681 92.14 50.7709 91.572 47.6033C91.2922 46.0363 91.4025 44.486 91.9111 42.9776C92.92 39.9944 95.6246 38.1005 98.7954 38.1173ZM103.348 45.6843C103.272 44.8045 103.221 43.8575 103.085 42.919C102.907 41.6871 102.39 40.6229 101.279 39.9357C98.6088 38.2849 95.2346 39.6508 94.5817 42.6843C94.1494 44.6955 94.1833 46.7318 94.5902 48.7514C94.7598 49.6145 95.1328 50.3938 95.7772 51.0223C96.6674 51.8771 97.761 52.1285 98.9649 52.1117C101.313 52.0698 102.848 50.7207 103.119 48.4329C103.229 47.5363 103.272 46.648 103.348 45.6843Z" fill="white"/>
<path d="M183.486 59.8726C183.817 59.1771 184.113 58.5737 184.402 57.9788C185.309 56.1184 186.207 54.2581 187.132 52.4061C187.31 52.0458 187.327 51.7525 187.149 51.3922C185.58 48.1156 184.037 44.8224 182.46 41.5542C181.951 40.5067 181.129 39.7777 179.883 39.5095C179.883 39.2581 179.883 38.9899 179.883 38.7302C180.51 38.5374 186.665 38.5039 187.589 38.6883C187.589 38.9481 187.589 39.2078 187.589 39.5179C187.454 39.5514 187.318 39.6184 187.191 39.6101C186.292 39.543 185.877 40.1464 185.546 40.8084C185.453 41.0011 185.47 41.3196 185.555 41.5207C186.513 43.7581 187.496 45.9788 188.471 48.1995C188.564 48.4006 188.658 48.6017 188.81 48.9201C188.971 48.6268 189.09 48.4341 189.183 48.2246C190.099 46.0961 191.023 43.9676 191.93 41.8307C192.388 40.7581 191.769 39.7274 190.599 39.6017C190.463 39.5849 190.319 39.5765 190.09 39.5598C190.073 39.2581 190.065 38.9732 190.048 38.6212C192.015 38.6212 193.923 38.6212 195.881 38.6212C195.881 38.9313 195.881 39.2162 195.881 39.5011C194.499 39.7106 193.761 40.6324 193.244 41.7553C190.54 47.705 187.861 53.6715 185.165 59.6296C185.037 59.9062 184.902 60.1743 184.749 60.4844C184.317 60.2749 183.944 60.0905 183.486 59.8726Z" fill="white"/>
<path d="M120.979 8.41016C120.979 8.72021 120.979 8.98837 120.979 9.3487C120.03 9.22301 119.377 9.642 118.987 10.4381C118.877 10.6643 118.809 11.0079 118.894 11.2258C119.945 13.7146 121.039 16.1951 122.175 18.818C122.353 18.4912 122.48 18.2817 122.573 18.0638C123.472 15.9856 124.362 13.9074 125.261 11.8292C125.803 10.5638 125.176 9.58334 123.777 9.4744C123.692 9.46602 123.616 9.44088 123.48 9.41574C123.48 9.09731 123.48 8.77887 123.48 8.41016C125.405 8.41016 127.312 8.41016 129.279 8.41016C129.296 8.70345 129.313 8.97161 129.33 9.25652C127.881 9.48278 127.126 10.4465 126.592 11.628C123.904 17.561 121.225 23.494 118.546 29.4269C118.419 29.7034 118.283 29.9716 118.131 30.2817C117.69 30.0805 117.317 29.9046 116.893 29.7035C117.029 29.385 117.13 29.1336 117.249 28.8906C118.309 26.7035 119.369 24.5163 120.454 22.3375C120.674 21.9018 120.691 21.5414 120.479 21.0889C118.945 17.9129 117.452 14.7286 115.926 11.5526C115.401 10.4465 114.595 9.63362 113.281 9.37384C113.281 9.08893 113.281 8.78725 113.281 8.4353C115.825 8.41016 118.351 8.41016 120.979 8.41016Z" fill="white"/>
<path d="M113.078 14.1783C109.763 14.4381 106.559 14.6978 103.371 14.9492C103.32 15.0666 103.252 15.1336 103.252 15.209C103.176 17.5973 104.939 20.0358 107.237 20.6476C109.636 21.2761 111.798 20.614 113.002 18.6196C113.265 18.1755 113.604 18.1923 114.079 18.3012C113.96 19.0805 113.604 19.7677 113.214 20.4213C112.281 22.0135 110.916 22.9688 109.06 23.2789C105.957 23.79 102.93 22.2733 101.641 19.1392C100.463 16.29 100.641 13.4911 102.396 10.9185C103.939 8.64757 106.16 7.70064 108.915 8.18668C111.035 8.56377 112.654 10.2984 112.934 12.4101C113.002 12.9465 113.027 13.4995 113.078 14.1783ZM110.586 13.3738C110.772 12.5945 110.755 11.9073 110.594 11.2202C110.348 10.156 109.695 9.53584 108.619 9.3012C105.787 8.68109 103.201 10.8599 103.278 13.8096C103.278 13.8515 103.345 13.8934 103.413 13.9772C105.762 13.7761 108.144 13.5833 110.586 13.3738Z" fill="white"/>
<path d="M89.1995 22.7984C89.1995 21.0638 89.1995 19.4297 89.1995 17.7454C89.4708 17.7454 89.7167 17.7454 89.988 17.7454C90.1152 18.1476 90.2084 18.5498 90.378 18.9269C91.3699 21.1811 93.9049 22.5135 96.3466 22.0694C97.1689 21.9186 97.8557 21.5666 98.0761 20.6867C98.305 19.7817 98.0507 19.0024 97.3216 18.4409C96.8637 18.0806 96.3211 17.8124 95.787 17.5694C94.6086 17.0331 93.3877 16.5722 92.2177 16.0191C91.5904 15.7174 90.9715 15.3487 90.4373 14.9046C89.0385 13.7398 88.8265 12.2146 89.3182 10.5638C89.8015 8.94649 91.0393 8.21744 92.6501 8.01632C93.5827 7.899 94.5068 7.95766 95.4055 8.29286C95.7785 8.42694 96.1516 8.55263 96.5416 8.62805C97.0079 8.72023 97.4742 8.78727 97.9235 8.47722C98.127 8.33476 98.4407 8.35152 98.7713 8.28448C98.7713 9.78448 98.7713 11.2007 98.7713 12.6755C98.5254 12.7007 98.2881 12.7174 98.0252 12.7426C97.9405 12.5582 97.8726 12.4074 97.8218 12.2565C97.2283 10.5638 96.0583 9.49118 94.2949 9.08057C93.5997 8.91297 92.896 8.92135 92.2008 9.15599C90.8612 9.61688 90.4713 11.2342 91.5056 12.1979C91.9041 12.575 92.4212 12.8515 92.9299 13.0778C94.0829 13.5973 95.2783 14.0415 96.4314 14.561C97.0418 14.8376 97.6692 15.1308 98.2033 15.5247C99.7039 16.6141 100.238 18.2565 99.7463 20.0582C99.2969 21.7174 97.9828 22.832 96.1855 23.1001C95.1596 23.251 94.1592 23.1588 93.1758 22.8487C92.6416 22.6811 92.099 22.5135 91.5565 22.3627C90.9884 22.2035 90.4543 22.2286 89.9456 22.5889C89.7761 22.7146 89.5048 22.7146 89.1995 22.7984Z" fill="white"/>
<path d="M40.6467 18.2663C39.8498 21.2411 37.7302 23.0428 34.9494 23.2691C31.0071 23.5959 28.93 21.3082 28.0144 19.1378C27.582 18.0903 27.37 16.9925 27.3531 15.878C27.3276 14.3529 27.6244 12.878 28.362 11.5204C30.5832 7.4143 35.5683 7.17129 38.3067 8.94782C38.7476 9.23274 39.1461 9.59308 39.6293 9.96179C39.3156 10.4646 39.0443 10.9171 38.7646 11.3529C38.4509 11.8473 38.1033 12.3333 37.815 12.8361C37.5692 13.2635 37.2555 13.4311 36.7213 13.2886C36.7383 13.0707 36.7807 12.8612 36.7637 12.6517C36.7298 12.0149 36.7468 11.3612 36.6027 10.7495C36.4077 9.88637 35.7888 9.36682 34.907 9.18246C33.0079 8.79699 31.2191 9.6266 30.4221 11.3864C29.4811 13.4646 29.3793 15.6098 30.3289 17.7216C31.1936 19.6573 32.7621 20.6797 34.907 20.7635C35.5259 20.7886 36.1618 20.7886 36.7553 20.6629C37.9676 20.4031 38.9002 19.6992 39.57 18.6685C39.8921 18.1741 39.9006 18.1825 40.6467 18.2663Z" fill="white"/>
<path d="M68.3062 3.06516C68.3062 4.17969 67.4754 4.9674 66.2884 4.98416C65.2456 5.00092 64.4148 4.17969 64.4063 3.1322C64.3978 2.01768 65.2456 1.22997 66.4241 1.23835C67.5517 1.24673 68.3062 1.98416 68.3062 3.06516Z" fill="white"/>
</svg>
