<svg width="256" height="61" viewBox="0 0 256 61" fill="none" xmlns="http://www.w3.org/2000/svg">
<g clip-path="url(#clip0_5873_17420)">
<path d="M0.03125 0.554688C3.89118 0.554688 7.75111 0.554688 11.639 0.554688C11.639 19.359 11.639 38.1495 11.639 56.9817C7.79307 56.9817 3.93314 56.9817 0.03125 56.9817C0.03125 38.1912 0.03125 19.4008 0.03125 0.554688Z" fill="white"/>
<path d="M38.2891 56.98C38.2891 38.1339 38.2891 19.3573 38.2891 0.539062C42.149 0.539062 45.981 0.539062 49.8409 0.539062C49.8409 19.3573 49.8409 38.1339 49.8409 56.98C45.9949 56.98 42.177 56.98 38.2891 56.98Z" fill="white"/>
<path d="M19.1484 39.0656C19.1484 26.191 19.1484 13.3859 19.1484 0.539062C23.0363 0.539062 26.8961 0.539062 30.7839 0.539062C30.7839 13.3998 30.7839 26.2049 30.7839 39.0656C26.8961 39.0656 23.0502 39.0656 19.1484 39.0656Z" fill="white"/>
<path d="M76.4766 18.4648C80.3224 18.4648 84.1403 18.4648 88.0002 18.4648C88.0002 31.2838 88.0002 44.1028 88.0002 56.9775C84.1963 56.9775 80.3644 56.9775 76.4766 56.9775C76.4766 44.1446 76.4766 31.3256 76.4766 18.4648Z" fill="white"/>
<path d="M57.4131 19.2305C58.1263 19.2305 58.406 19.2444 59.0213 19.2444C61.8883 19.2444 64.7552 19.2444 67.6221 19.2444C68.643 19.2444 68.8388 19.4392 68.8388 20.4692C68.8388 32.3417 68.8388 44.2143 68.8528 56.0729C68.8528 56.7271 68.657 56.8941 68.0137 56.8941C64.6992 56.8662 61.3988 56.8802 58.0844 56.8802C57.5949 56.8802 57.3851 56.8384 57.3991 56.1981C57.441 49.0997 57.4131 42.0151 57.4131 34.9167C57.4131 29.4745 57.4131 24.6865 57.4131 19.2305Z" fill="white"/>
<path d="M107.072 0.554688C107.072 4.28486 107.072 7.95936 107.072 11.7034C96.835 11.7034 86.626 11.7034 76.375 11.7034C76.375 7.98719 76.375 4.29878 76.375 0.554688C86.612 0.554688 96.821 0.554688 107.072 0.554688Z" fill="white"/>
<path d="M68.9496 11.7166C65.0478 11.7166 61.2159 11.7166 57.3281 11.7166C57.3281 8.00039 57.3281 4.31198 57.3281 0.540049C57.5379 0.526131 57.7617 0.498294 57.9854 0.498294C61.4117 0.498294 64.8241 0.512212 68.2504 0.484375C68.8098 0.484375 69.0056 0.623561 69.0056 1.20814C68.9776 4.479 68.9916 7.73594 68.9916 11.0068C68.9776 11.2156 68.9636 11.4244 68.9496 11.7166Z" fill="white"/>
<path d="M133.216 13.2469C132.181 13.2469 131.244 13.2469 130.237 13.2469C130.223 13.0102 130.209 12.7875 130.209 12.5509C130.209 8.79292 130.223 5.03491 130.195 1.2769C130.195 0.60881 130.405 0.455706 131.034 0.483543C132.083 0.525299 133.132 0.51138 134.181 0.483543C134.643 0.469624 134.824 0.622728 134.936 1.06812C135.649 3.83791 136.391 6.60771 137.174 9.54452C137.384 8.70941 137.565 8.01348 137.747 7.31755C138.293 5.22977 138.852 3.1559 139.369 1.06812C139.481 0.622728 139.677 0.469624 140.125 0.483543C141.271 0.51138 142.404 0.497461 143.551 0.483543C143.929 0.483543 144.096 0.594891 144.096 0.998529C144.082 4.99315 144.082 8.97386 144.082 12.9685C144.082 13.0381 144.054 13.0938 144.012 13.219C143.075 13.219 142.138 13.219 141.104 13.219C141.174 9.976 141.243 6.73297 141.313 3.48995C141.271 3.48995 141.229 3.47603 141.187 3.47603C140.95 4.3529 140.712 5.24369 140.474 6.12056C139.873 8.30577 139.272 10.491 138.684 12.6901C138.558 13.1494 138.363 13.3443 137.873 13.3025C137.202 13.2469 136.363 13.4835 135.901 13.1633C135.482 12.8711 135.454 12.0081 135.272 11.3957C134.573 8.84859 133.901 6.3015 133.202 3.7544C133.174 3.65697 133.118 3.55954 132.978 3.48995C133.062 6.70514 133.146 9.96208 133.216 13.2469Z" fill="white"/>
<path d="M246.198 4.06083C246.212 4.35312 246.226 4.5619 246.24 4.75676C246.24 5.04905 246.24 5.35525 246.24 5.6893C246.002 5.71714 245.834 5.74497 245.652 5.74497C244.422 5.75889 244.422 5.75889 244.422 6.95589C244.422 7.95802 244.422 8.94624 244.422 9.94838C244.422 11.034 244.618 11.215 245.68 11.1593C245.792 11.1593 245.904 11.1315 246.058 11.1175C246.058 11.8135 246.058 12.4955 246.058 13.3863C245.093 13.3445 244.156 13.3723 243.233 13.2332C242.352 13.094 241.807 12.3006 241.779 11.3402C241.737 9.69784 241.723 8.05545 241.751 6.41306C241.751 5.89808 241.611 5.70322 241.079 5.74497C240.366 5.78673 239.639 5.75889 238.814 5.75889C238.814 6.45482 238.814 7.09507 238.814 7.73533C238.814 8.47301 238.828 9.22461 238.8 9.96229C238.772 11.0062 238.94 11.201 239.975 11.1732C240.114 11.1732 240.254 11.1732 240.45 11.1732C240.45 11.8413 240.45 12.5233 240.45 13.2471C239.457 13.4698 238.464 13.4976 237.499 13.2192C236.632 12.9687 236.171 12.231 236.157 11.0897C236.129 9.60041 236.143 8.12505 236.143 6.63576C236.143 6.38523 236.143 6.13469 236.143 5.80065C235.695 5.77281 235.29 5.74497 234.828 5.71714C234.828 5.18823 234.828 4.65933 234.828 4.10258C235.234 4.07475 235.625 4.06083 236.115 4.03299C236.115 3.08653 236.115 2.15399 236.115 1.17969C237.038 1.17969 237.877 1.17969 238.8 1.17969C238.8 2.11223 238.8 3.04477 238.8 4.01907C239.807 4.01907 240.73 4.01907 241.709 4.01907C241.709 3.07261 241.709 2.15399 241.709 1.19361C242.632 1.19361 243.471 1.19361 244.408 1.19361C244.408 1.93129 244.45 2.64114 244.394 3.35098C244.352 3.92164 244.548 4.15826 245.135 4.08867C245.471 4.01907 245.792 4.06083 246.198 4.06083Z" fill="white"/>
<path d="M204.233 57.1176C205.142 57.1176 205.995 57.1176 206.848 57.1176C207.351 58.6765 208.106 58.8296 209.379 58.5651C210.246 58.3842 210.526 57.5212 210.274 55.9484C209.799 56.1294 209.351 56.3799 208.862 56.4912C206.75 56.9923 204.974 56.0319 204.302 53.9859C203.813 52.5105 203.939 51.0352 204.526 49.5737C205.351 47.5555 208.148 46.5952 210.4 48.3071C210.442 48.0705 210.47 47.8617 210.498 47.6112C211.295 47.6112 212.078 47.6112 212.931 47.6112C212.945 47.8896 212.973 48.1262 212.973 48.3767C212.973 51.23 212.973 54.0833 212.973 56.9366C212.973 58.7043 212.288 59.6647 210.582 60.1518C209.001 60.6111 207.421 60.6251 205.883 59.957C204.624 59.4281 204.065 58.4816 204.233 57.1176ZM210.372 51.8007C210.358 51.8007 210.33 51.7868 210.316 51.7868C210.274 51.4666 210.26 51.1465 210.204 50.8264C210.022 49.9774 209.435 49.5041 208.596 49.4902C207.813 49.4763 207.113 49.9495 207.002 50.7568C206.89 51.5641 206.876 52.4131 206.974 53.2204C207.072 54.0694 207.757 54.5566 208.582 54.5566C209.407 54.5566 209.98 54.139 210.176 53.3039C210.274 52.8028 210.302 52.2878 210.372 51.8007Z" fill="white"/>
<path d="M197.273 13.2455C196.322 13.2455 195.483 13.2455 194.602 13.2455C194.602 8.98641 194.602 4.75517 194.602 0.496094C195.469 0.496094 196.322 0.496094 197.259 0.496094C197.259 1.88795 197.259 3.26589 197.259 4.65774C197.874 4.3237 198.378 3.9479 198.951 3.76695C201.063 3.05711 202.839 4.35153 202.853 6.55066C202.867 8.7498 202.853 10.9489 202.853 13.2177C201.986 13.2177 201.161 13.2177 200.251 13.2177C200.238 13.0089 200.224 12.7583 200.224 12.5217C200.196 10.8097 200.196 9.09776 200.14 7.38578C200.098 6.46715 199.608 5.99392 198.825 5.96609C198 5.93825 197.468 6.38364 197.343 7.31619C197.259 7.9286 197.287 8.56886 197.287 9.19519C197.273 10.5175 197.273 11.8536 197.273 13.2455Z" fill="white"/>
<path d="M158.299 57.0619C157.376 57.0619 156.537 57.0619 155.656 57.0619C155.656 52.8307 155.656 48.5994 155.656 44.3125C156.495 44.3125 157.348 44.3125 158.299 44.3125C158.299 45.6904 158.299 47.0545 158.299 48.5855C158.621 48.321 158.775 48.1679 158.957 48.0288C160.006 47.2493 161.138 47.1101 162.313 47.6251C163.348 48.0705 163.865 48.9195 163.865 50.0469C163.865 52.3574 163.865 54.6679 163.865 57.0341C163.026 57.0341 162.159 57.0341 161.222 57.0341C161.222 55.2386 161.236 53.4848 161.222 51.7311C161.222 51.3692 161.18 50.9934 161.082 50.6315C160.915 49.9774 160.411 49.6851 159.782 49.6851C159.139 49.6851 158.663 50.0191 158.481 50.6454C158.369 51.0352 158.313 51.4666 158.313 51.8703C158.285 53.5962 158.299 55.2803 158.299 57.0619Z" fill="white"/>
<path d="M199.676 31.0343C197.298 31.0343 195.158 31.0343 193.033 31.0343C192.893 32.0365 193.368 32.8994 194.221 33.2474C195.396 33.7345 196.375 33.3031 197.494 31.772C198.137 32.1061 198.781 32.4401 199.424 32.7742C197.9 35.6135 194.166 36.4347 191.746 34.5001C190.809 33.7484 190.348 32.7185 190.222 31.5493C190.04 29.7677 190.236 28.0697 191.564 26.7057C193.9 24.3256 198.053 25.2025 199.144 28.3341C199.438 29.1692 199.494 30.06 199.676 31.0343ZM192.991 29.2249C194.263 29.2249 195.48 29.2249 196.697 29.2249C196.683 28.181 196.068 27.499 195.131 27.4155C194.012 27.3181 193.271 27.9027 192.991 29.2249Z" fill="white"/>
<path d="M197.832 47.332C200.909 47.332 202.839 49.2389 202.853 52.3149C202.853 55.3909 200.895 57.3812 197.888 57.3812C194.867 57.3812 192.867 55.3909 192.867 52.3566C192.853 49.2806 194.783 47.332 197.832 47.332ZM197.79 55.1403C198.727 55.1543 199.384 54.8063 199.762 53.999C200.307 52.8299 200.251 51.6468 199.692 50.5194C199.328 49.7678 198.629 49.4337 197.79 49.4755C196.489 49.5312 195.762 50.408 195.608 52.0504C195.468 53.5258 196.238 54.848 197.37 55.0986C197.524 55.1403 197.692 55.1403 197.79 55.1403Z" fill="white"/>
<path d="M186.479 52.3843C186.465 55.3907 184.479 57.4089 181.501 57.3532C178.396 57.2976 176.522 55.516 176.508 52.3286C176.494 49.3083 178.284 47.2066 181.752 47.304C184.591 47.4015 186.493 49.3918 186.479 52.3843ZM179.179 52.3426C179.277 52.7879 179.333 53.2751 179.501 53.7205C179.85 54.7087 180.647 55.1959 181.724 55.1402C182.605 55.0984 183.416 54.486 183.57 53.5256C183.696 52.7184 183.696 51.8693 183.556 51.076C183.361 50.0738 182.535 49.4892 181.612 49.4753C180.55 49.4614 179.794 49.9764 179.459 51.0064C179.319 51.4239 179.277 51.8554 179.179 52.3426Z" fill="white"/>
<path d="M145.433 52.8862C144.23 52.8862 143.14 52.8862 142.049 52.8862C140.986 52.8862 139.909 52.8862 138.86 52.8862C138.706 53.8744 139.154 54.7235 139.979 55.0993C141.126 55.6143 142.091 55.1967 143.321 53.6518C143.951 53.9719 144.58 54.3059 145.209 54.64C144.384 56.6025 142.007 57.7438 139.629 57.3402C137.518 56.9783 136.091 55.2524 135.993 52.9419C135.923 51.1882 136.245 49.5319 137.644 48.3349C139.056 47.11 140.762 47.0544 142.454 47.5833C144.133 48.1122 144.902 49.4762 145.223 51.1186C145.335 51.6614 145.349 52.2181 145.433 52.8862ZM142.538 51.1603C142.412 49.8659 141.797 49.2674 140.692 49.2813C139.671 49.2952 138.902 50.0608 138.846 51.1603C140.063 51.1603 141.28 51.1603 142.538 51.1603Z" fill="white"/>
<path d="M215.366 30.5351C215.268 33.7364 213.31 35.518 210.29 35.4762C207.185 35.4205 205.255 33.3467 205.381 30.2985C205.521 27.1947 207.409 25.3713 210.457 25.427C213.982 25.4827 215.38 27.9324 215.366 30.5351ZM208.08 30.3681C208.192 30.8831 208.262 31.412 208.43 31.9131C208.737 32.7899 209.408 33.2492 210.331 33.2771C211.254 33.3049 211.954 32.9013 212.331 32.0383C212.821 30.9109 212.765 29.7696 212.247 28.684C211.912 27.9741 211.282 27.5844 210.443 27.5983C208.989 27.6401 208.164 28.6283 208.08 30.3681Z" fill="white"/>
<path d="M227.488 9.1398C227.655 10.295 227.949 11.1858 229.11 11.4642C230.536 11.7982 231.417 11.0745 232.047 9.87748C232.732 10.2254 233.361 10.5595 233.991 10.8796C232.984 13.0231 230.578 14.0948 228.103 13.5102C225.977 13.0092 224.733 11.1997 224.774 8.66657C224.816 6.67621 225.404 4.92248 227.348 4.00385C229.767 2.86253 233.403 3.55846 234.033 7.48349C234.116 7.99848 234.13 8.52738 234.186 9.1398C231.921 9.1398 229.739 9.1398 227.488 9.1398ZM227.627 7.3443C228.886 7.3443 230.103 7.3443 231.319 7.3443C231.194 6.13339 230.508 5.45138 229.473 5.4653C228.522 5.47922 227.725 6.27258 227.627 7.3443Z" fill="white"/>
<path d="M146.519 6.46602C146.617 5.102 147.274 4.26689 148.449 3.89109C149.959 3.41786 151.47 3.41786 152.938 4.05811C153.917 4.48959 154.421 5.26903 154.421 6.36859C154.407 8.21976 154.407 10.0709 154.421 11.936C154.421 12.3536 154.477 12.7711 154.505 13.2304C153.749 13.2304 152.938 13.2304 152.085 13.2304C152.043 13.0356 151.987 12.8129 151.959 12.7015C151.176 12.9799 150.393 13.4114 149.582 13.5366C147.806 13.8011 146.477 12.8407 146.17 11.2262C145.876 9.73688 146.841 8.28935 148.477 7.84396C149.526 7.55167 150.603 7.32897 151.666 7.07844C151.847 6.25724 151.666 5.67267 151.162 5.47781C150.505 5.22727 149.806 5.50564 149.358 6.13198C149.246 6.28508 149.05 6.4521 148.897 6.4521C148.113 6.47994 147.358 6.46602 146.519 6.46602ZM151.638 8.7765C150.896 9.05487 150.155 9.29149 149.456 9.61162C148.827 9.9039 148.631 10.4606 148.883 10.9617C149.148 11.4906 149.75 11.6855 150.365 11.4349C151.386 11.0452 151.931 9.94566 151.638 8.7765Z" fill="white"/>
<path d="M180.758 7.02568C180.786 6.39934 180.814 5.75909 180.129 5.4668C179.458 5.18843 178.814 5.49463 178.325 6.20448C178.241 6.31583 178.087 6.4411 177.961 6.4411C177.178 6.46893 176.395 6.45502 175.612 6.45502C175.584 5.03532 176.395 4.08886 177.975 3.72698C179.22 3.44861 180.465 3.49036 181.681 3.92184C182.884 4.35331 183.429 5.11883 183.443 6.38542C183.457 8.20875 183.443 10.046 183.443 11.8833C183.443 12.3147 183.485 12.7462 183.513 13.2334C182.744 13.2334 181.961 13.2334 181.122 13.2334C181.094 13.0246 181.052 12.8019 181.01 12.5235C180.646 12.7462 180.325 12.955 179.989 13.1359C178.605 13.8597 176.801 13.6648 175.906 12.6905C174.493 11.1456 175.08 8.75158 177.15 7.98606C178.283 7.55458 179.5 7.3458 180.758 7.02568ZM180.744 8.75158C179.905 9.0717 179.136 9.32224 178.409 9.64236C177.877 9.87898 177.668 10.3244 177.863 10.909C178.031 11.3961 178.633 11.6884 179.178 11.5074C179.5 11.3961 179.807 11.2152 180.059 10.9925C180.702 10.4357 180.786 9.68412 180.744 8.75158Z" fill="white"/>
<path d="M141.366 35.1833C141.366 33.4713 141.366 31.8289 141.366 30.1865C141.366 29.8386 141.38 29.4906 141.366 29.1427C141.338 28.238 140.849 27.709 140.024 27.6812C139.199 27.6534 138.639 28.1266 138.569 29.0313C138.513 29.8664 138.527 30.7015 138.513 31.5366C138.499 32.7197 138.513 33.9028 138.513 35.1416C137.604 35.1416 136.737 35.1416 135.828 35.1416C135.828 32.0238 135.828 28.9339 135.828 25.7883C136.723 25.7883 137.604 25.7883 138.513 25.7883C138.541 25.9692 138.569 26.1641 138.583 26.3033C139.212 26.0388 139.842 25.6213 140.513 25.5517C142.499 25.3151 144.009 25.83 144.079 28.3771C144.135 30.4788 144.093 32.5945 144.079 34.7101C144.079 34.8632 143.855 35.1416 143.73 35.1555C142.96 35.2111 142.191 35.1833 141.366 35.1833Z" fill="white"/>
<path d="M210.877 3.89453C211.8 3.89453 212.653 3.89453 213.548 3.89453C213.548 6.99837 213.548 10.0883 213.548 13.2339C212.695 13.2339 211.841 13.2339 210.946 13.2339C210.904 13.0529 210.863 12.8442 210.807 12.5658C209.968 13.2617 209.045 13.6097 207.968 13.5818C206.415 13.5401 205.45 12.7606 205.324 11.2018C205.213 9.82383 205.255 8.41806 205.241 7.04012C205.227 6.01015 205.241 4.96626 205.241 3.89453C206.15 3.89453 206.989 3.89453 207.898 3.89453C207.912 4.15898 207.954 4.3956 207.954 4.63221C207.954 6.3442 207.94 8.0701 207.968 9.78208C207.968 10.3388 207.996 10.9234 208.625 11.2018C209.226 11.4662 209.856 11.4801 210.331 11.0208C210.625 10.7425 210.863 10.2414 210.877 9.83775C210.932 8.12577 210.905 6.41379 210.905 4.68789C210.877 4.43735 210.877 4.18682 210.877 3.89453Z" fill="white"/>
<path d="M218.742 54.3035C219.232 52.1323 219.679 50.1697 220.099 48.2072C220.197 47.734 220.393 47.553 220.896 47.5809C221.609 47.6226 222.323 47.5948 223.148 47.5948C222.714 48.9727 222.295 50.2532 221.889 51.5198C221.204 53.6633 220.533 55.8067 219.833 57.9363C219.665 58.4513 219.442 59.008 219.092 59.4117C218.742 59.8014 218.225 60.1772 217.736 60.2468C216.896 60.386 216.029 60.2885 215.12 60.2885C215.12 59.5787 215.12 58.9245 215.12 58.1729C215.484 58.1729 215.82 58.1868 216.155 58.1729C217.064 58.1172 217.316 57.7832 217.078 56.9063C216.729 55.6815 216.351 54.4706 215.987 53.2457C215.428 51.4085 214.869 49.5712 214.281 47.6087C215.218 47.6087 216.057 47.5809 216.896 47.6366C217.036 47.6505 217.232 47.9706 217.288 48.1794C217.722 50.0027 218.127 51.84 218.547 53.6633C218.561 53.8025 218.631 53.9556 218.742 54.3035Z" fill="white"/>
<path d="M174.636 57.0752C173.713 57.0752 172.902 57.0752 171.993 57.0752C171.993 56.4349 171.993 55.8086 171.993 55.1962C171.979 53.7626 171.979 52.3289 171.923 50.8814C171.895 50.0045 171.419 49.5731 170.622 49.5452C169.839 49.5174 169.252 49.9906 169.196 50.8397C169.126 51.7444 169.154 52.6491 169.154 53.5538C169.154 54.709 169.154 55.8643 169.154 57.0612C168.231 57.0612 167.378 57.0612 166.469 57.0612C166.469 53.9435 166.469 50.8397 166.469 47.6662C167.336 47.6662 168.175 47.6662 169.084 47.6662C169.112 47.8472 169.154 48.0281 169.21 48.3482C170.035 47.5549 171.014 47.3461 172.077 47.3879C173.503 47.4435 174.538 48.2647 174.594 49.6566C174.692 51.8835 174.636 54.1105 174.636 56.3375C174.636 56.5463 174.636 56.7829 174.636 57.0752Z" fill="white"/>
<path d="M173.696 25.7734C174.563 25.7734 175.416 25.7734 176.381 25.7734C176.381 26.024 176.381 26.2606 176.381 26.5111C176.381 28.2927 176.381 30.0882 176.381 31.8698C176.381 32.8023 176.773 33.2059 177.682 33.2059C178.633 33.2199 179.234 32.691 179.234 31.828C179.234 29.8377 179.234 27.8473 179.234 25.8013C180.129 25.8013 180.982 25.8013 181.877 25.8013C181.877 28.8912 181.877 32.0089 181.877 35.1685C181.024 35.1685 180.171 35.1685 179.29 35.1685C179.248 34.9458 179.22 34.7231 179.178 34.4308C178.269 35.2102 177.29 35.5303 176.129 35.4329C174.759 35.3216 173.78 34.5839 173.724 33.2199C173.626 30.7702 173.696 28.3205 173.696 25.7734Z" fill="white"/>
<path d="M136.567 44.2969C136.567 45.1181 136.567 45.8697 136.567 46.7326C135.505 46.7326 134.484 46.7326 133.379 46.7326C133.379 50.2262 133.379 53.6223 133.379 57.0602C132.316 57.0602 131.323 57.0602 130.246 57.0602C130.246 53.6501 130.246 50.254 130.246 46.7605C129.127 46.7605 128.106 46.7605 127.016 46.7605C127.016 45.8975 127.016 45.132 127.016 44.3108C130.19 44.2969 133.337 44.2969 136.567 44.2969Z" fill="white"/>
<path d="M223.533 4.95072C222.96 5.49354 222.443 5.98069 221.925 6.46784C221.478 6.23123 221.072 5.99461 220.652 5.82759C220.331 5.70232 219.981 5.60489 219.646 5.59097C219.086 5.56314 218.387 5.54922 218.275 6.23123C218.149 6.96891 218.876 6.95499 219.38 7.08026C220.219 7.28904 221.058 7.45606 221.869 7.73443C222.904 8.09631 223.617 8.79224 223.715 9.94748C223.827 11.228 223.296 12.2023 222.177 12.8425C219.869 14.137 216.835 13.6777 214.891 11.7291C215.422 11.228 215.967 10.713 216.471 10.2398C217.044 10.5877 217.576 10.9635 218.163 11.2419C218.862 11.576 219.618 11.6038 220.317 11.2558C220.582 11.1306 220.89 10.7548 220.89 10.5042C220.876 10.2676 220.513 9.93356 220.233 9.85005C219.282 9.57168 218.275 9.44641 217.324 9.15412C215.702 8.63914 215.044 6.98283 215.8 5.45179C216.471 4.12953 217.674 3.62846 219.058 3.54495C220.666 3.44752 222.149 3.86507 223.533 4.95072Z" fill="white"/>
<path d="M165.016 11.7297C165.575 11.2008 166.106 10.7137 166.652 10.1987C167.029 10.4631 167.407 10.7415 167.799 10.9781C168.61 11.4792 169.505 11.6323 170.4 11.2843C170.694 11.173 171.057 10.7833 171.057 10.5327C171.057 10.2961 170.652 9.93423 170.358 9.83679C169.603 9.60018 168.806 9.54451 168.05 9.32181C166.442 8.87642 165.701 8.05522 165.673 6.80255C165.645 5.45245 166.484 4.25546 167.925 3.79614C170.008 3.14197 171.896 3.65696 173.7 4.92355C173.127 5.46637 172.609 5.95352 172.134 6.41283C171.505 6.14838 170.945 5.84217 170.358 5.68907C169.952 5.57772 169.463 5.5638 169.071 5.67515C168.806 5.74474 168.61 6.10662 168.386 6.34324C168.61 6.55202 168.792 6.85822 169.057 6.95565C169.533 7.12268 170.064 7.15051 170.554 7.2897C171.141 7.4428 171.714 7.60983 172.274 7.83252C173.267 8.23616 173.84 8.98776 173.91 10.0595C173.98 11.2287 173.491 12.1334 172.512 12.7597C170.47 14.0541 167.435 13.7897 165.519 12.189C165.365 12.0638 165.225 11.9246 165.016 11.7297Z" fill="white"/>
<path d="M246.5 11.7579C247.059 11.2151 247.605 10.714 248.052 10.2826C248.835 10.6723 249.521 11.1316 250.276 11.3543C250.765 11.5074 251.381 11.41 251.898 11.2568C252.178 11.1733 252.486 10.7836 252.542 10.4774C252.569 10.2965 252.15 9.93459 251.87 9.85108C251.073 9.61446 250.234 9.51703 249.437 9.29433C247.954 8.8907 247.255 8.12517 247.185 6.98385C247.101 5.52241 247.773 4.47851 249.171 3.88002C250.961 3.1145 253.492 3.57381 255.143 4.96566C254.695 5.39714 254.262 5.85645 253.772 6.23225C253.646 6.32968 253.311 6.30184 253.143 6.20441C252.374 5.75902 251.591 5.39714 250.695 5.61984C250.388 5.68943 250.136 6.06523 249.856 6.28793C250.108 6.51062 250.332 6.85859 250.626 6.95602C251.577 7.24831 252.569 7.41533 253.52 7.72154C254.667 8.09734 255.38 8.96029 255.394 10.1434C255.408 11.3404 254.807 12.3147 253.702 12.8992C251.73 13.957 248.849 13.6926 247.115 12.2729C246.92 12.1337 246.738 11.9528 246.5 11.7579Z" fill="white"/>
<path d="M154.002 26.8184C153.401 27.3891 152.869 27.8763 152.506 28.2103C151.555 27.9458 150.73 27.6953 149.891 27.4865C149.709 27.4448 149.443 27.4726 149.289 27.57C149.037 27.7371 148.73 27.9737 148.688 28.2242C148.66 28.3773 149.023 28.7114 149.261 28.8088C149.709 28.9758 150.212 29.0176 150.688 29.1428C151.317 29.3099 151.946 29.4769 152.548 29.7135C154.687 30.5625 154.575 33.221 153.121 34.3901C151.065 36.0604 147.303 35.7263 145.359 33.6107C145.891 33.1096 146.408 32.6086 146.94 32.1075C147.443 32.4276 147.905 32.7617 148.408 33.0261C149.135 33.4019 149.932 33.5133 150.702 33.1792C150.995 33.054 151.331 32.6642 151.345 32.3998C151.345 32.1771 150.925 31.8291 150.632 31.7317C149.946 31.5229 149.219 31.4533 148.52 31.2724C146.758 30.827 146.003 30.0336 145.975 28.6696C145.947 27.2082 146.842 26.0529 148.45 25.6215C150.45 25.0786 152.254 25.5936 154.002 26.8184Z" fill="white"/>
<path d="M155.758 11.6992C156.317 11.1842 156.849 10.6971 157.366 10.2238C157.898 10.5579 158.387 10.9059 158.904 11.1842C159.59 11.5461 160.359 11.6157 161.058 11.2956C161.366 11.1564 161.701 10.7945 161.743 10.4883C161.771 10.2934 161.324 9.91764 161.03 9.82021C160.275 9.59751 159.478 9.514 158.723 9.31914C157.212 8.9155 156.471 8.10822 156.429 6.89731C156.373 5.49154 157.1 4.35021 158.499 3.86306C160.639 3.11146 162.555 3.6682 164.442 4.93479C163.869 5.4637 163.352 5.96477 162.904 6.38232C162.093 6.10395 161.366 5.79774 160.611 5.6168C160.261 5.53329 159.813 5.63072 159.478 5.79774C158.946 6.04828 158.96 6.60502 159.506 6.85555C159.813 6.99474 160.177 7.05041 160.513 7.13392C161.282 7.32878 162.051 7.49581 162.792 7.74634C163.869 8.12214 164.554 8.87374 164.624 10.0429C164.694 11.1425 164.247 12.0193 163.352 12.6735C161.226 14.1767 157.492 13.7174 155.758 11.6992Z" fill="white"/>
<path d="M193.926 5.85574C193.268 6.24546 192.653 6.60735 192.052 6.95531C191.982 6.91355 191.926 6.89964 191.912 6.85788C191.478 6.09236 190.863 5.57737 189.94 5.70264C188.989 5.82791 188.555 6.53775 188.318 7.4007C188.052 8.375 188.066 9.32146 188.513 10.2401C188.835 10.9082 189.297 11.3953 190.094 11.4232C190.933 11.4649 191.52 11.0891 191.898 10.3654C191.954 10.2679 192.024 10.1705 192.094 10.0591C192.751 10.4071 193.38 10.7551 193.996 11.0891C193.254 12.7733 191.282 13.8728 189.492 13.6223C187.227 13.3022 185.73 11.9382 185.451 9.83645C185.241 8.26365 185.339 6.73261 186.318 5.38251C188.164 2.79366 192.289 3.00244 193.926 5.85574Z" fill="white"/>
<path d="M155.153 49.5189C154.3 50.02 153.699 50.3679 153.07 50.7437C152.888 50.5071 152.734 50.2844 152.552 50.0896C151.643 49.1153 150.259 49.2684 149.643 50.4514C149.042 51.6067 149 52.8037 149.545 54.0007C149.867 54.6966 150.371 55.1977 151.196 55.2116C151.993 55.2255 152.566 54.8358 152.944 54.1538C152.986 54.0703 153.042 54.0007 153.126 53.8476C153.769 54.1816 154.398 54.5157 155.028 54.8358C154.216 56.9932 151.196 58.1762 148.762 56.854C146.776 55.7683 145.923 53.3465 146.609 50.7855C147.406 47.8069 150.608 46.429 153.293 47.9461C153.951 48.2941 154.454 48.9065 155.153 49.5189Z" fill="white"/>
<path d="M222.11 25.8851C222.11 26.5114 222.11 26.9986 222.11 27.5831C221.536 27.5831 220.991 27.5831 220.362 27.5831C220.348 27.945 220.32 28.2373 220.32 28.5296C220.32 30.4782 220.292 32.4129 220.348 34.3615C220.362 35.0852 220.124 35.294 219.439 35.2244C218.865 35.1687 218.292 35.2105 217.621 35.2105C217.621 32.6634 217.621 30.1859 217.621 27.6527C217.117 27.6249 216.712 27.611 216.25 27.5831C216.25 27.0542 216.25 26.5392 216.25 26.0243C216.292 25.9964 216.334 25.9547 216.376 25.9547C217.69 25.8851 217.69 25.8851 217.704 24.5489C217.718 23.0457 218.585 22.2245 220.264 22.1967C220.823 22.1827 221.369 22.2802 221.984 22.3358C221.984 23.0179 221.984 23.672 221.984 24.2566C221.452 24.4236 220.893 24.5071 220.473 24.7994C220.264 24.9386 220.348 25.4675 220.278 25.9129C220.921 25.8851 221.48 25.8851 222.11 25.8851Z" fill="white"/>
<path d="M170.398 23.0335C170.398 23.9938 170.398 24.9125 170.398 25.9007C171.013 25.9007 171.559 25.9007 172.16 25.9007C172.16 26.4853 172.16 27.0002 172.16 27.5987C171.601 27.5987 171.055 27.5987 170.398 27.5987C170.398 28.5313 170.398 29.3803 170.398 30.2154C170.398 30.8 170.398 31.3707 170.398 31.9552C170.398 32.86 170.538 32.9991 171.447 33.0131C171.629 33.0131 171.811 33.027 172.034 33.0409C172.034 33.7368 172.034 34.391 172.034 35.2679C171.041 35.2122 170.049 35.2261 169.098 35.0591C168.314 34.9199 167.797 34.1126 167.769 33.2079C167.727 31.663 167.699 30.1319 167.699 28.587C167.699 27.6266 167.727 27.6266 166.776 27.5987C166.664 27.5987 166.552 27.5709 166.398 27.557C166.398 27.0142 166.398 26.4992 166.398 25.9146C166.846 25.9146 167.252 25.9146 167.713 25.9146C167.713 24.9125 167.713 23.9799 167.713 23.0195C168.622 23.0334 169.475 23.0335 170.398 23.0335Z" fill="white"/>
<path d="M156.195 27.64C155.733 27.6122 155.341 27.5843 154.922 27.5704C154.922 27.0276 154.922 26.5404 154.922 25.9559C155.313 25.9419 155.719 25.9141 156.181 25.9002C156.181 24.9398 156.181 24.0212 156.181 23.0469C157.118 23.0469 157.985 23.0469 158.908 23.0469C158.908 23.9794 158.908 24.898 158.908 25.8863C159.495 25.8863 160.012 25.8863 160.586 25.8863C160.586 26.4848 160.586 26.9997 160.586 27.6122C160.138 27.6122 159.705 27.5704 159.271 27.6261C159.103 27.6539 158.838 27.9044 158.838 28.0576C158.81 29.4216 158.81 30.7856 158.824 32.1635C158.838 32.7481 159.131 33.0543 159.761 33.0265C160.012 33.0126 160.264 33.0265 160.558 33.0265C160.558 33.7502 160.558 34.4044 160.558 35.2813C159.565 35.2256 158.558 35.2674 157.607 35.0864C156.656 34.9055 156.208 34.0843 156.195 32.8734C156.181 31.3841 156.195 29.9087 156.195 28.4194C156.195 28.1689 156.195 27.9184 156.195 27.64Z" fill="white"/>
<path d="M189.208 33.0404C189.208 33.3466 189.208 33.5693 189.208 33.792C189.166 35.3787 189.529 35.1282 187.753 35.2674C187.571 35.2813 187.389 35.2395 187.194 35.2395C185.599 35.1839 184.872 34.4601 184.83 32.8595C184.802 31.398 184.83 29.9366 184.83 28.489C184.83 28.2385 184.83 27.988 184.83 27.6678C184.383 27.64 183.977 27.6122 183.516 27.5843C183.516 27.0554 183.516 26.5404 183.516 25.9698C183.935 25.9419 184.341 25.9141 184.816 25.8863C184.816 24.9259 184.816 24.0073 184.816 23.0469C185.725 23.0469 186.578 23.0469 187.529 23.0469C187.529 23.7985 187.557 24.564 187.515 25.3156C187.487 25.8167 187.655 25.9837 188.145 25.9419C188.508 25.9141 188.872 25.9419 189.291 25.9419C189.291 26.5126 189.291 27.0137 189.291 27.6261C188.956 27.6261 188.606 27.6539 188.271 27.6261C187.683 27.5565 187.445 27.7513 187.473 28.3916C187.529 29.5468 187.487 30.7021 187.487 31.8712C187.487 32.929 187.585 33.0404 188.606 33.0543C188.774 33.0126 188.942 33.0265 189.208 33.0404Z" fill="white"/>
<path d="M130.195 22.3945C131.202 22.3945 132.167 22.3945 133.174 22.3945C133.174 26.6397 133.174 30.8709 133.174 35.1439C132.195 35.1439 131.216 35.1439 130.195 35.1439C130.195 30.9127 130.195 26.6814 130.195 22.3945Z" fill="white"/>
<path d="M190.968 57.0602C190.073 57.0602 189.248 57.0602 188.367 57.0602C188.367 52.8011 188.367 48.5699 188.367 44.2969C189.234 44.2969 190.073 44.2969 190.968 44.2969C190.968 48.556 190.968 52.7733 190.968 57.0602Z" fill="white"/>
<path d="M162.219 35.1545C162.219 32.0229 162.219 28.919 162.219 25.7734C163.1 25.7734 163.953 25.7734 164.862 25.7734C164.862 28.8634 164.862 31.9811 164.862 35.1545C163.995 35.1545 163.156 35.1545 162.219 35.1545Z" fill="white"/>
<path d="M162.219 22.3945C163.128 22.3945 163.966 22.3945 164.861 22.3945C164.861 23.0763 164.861 23.7164 164.861 24.4261C163.966 24.4261 163.114 24.4261 162.219 24.4261C162.219 23.7443 162.219 23.1042 162.219 22.3945Z" fill="white"/>
</g>
<defs>
<clipPath id="clip0_5873_17420">
<rect width="255.294" height="60" fill="white" transform="translate(0.03125 0.484375)"/>
</clipPath>
</defs>
</svg>
