<svg width="438" height="400" viewBox="0 0 438 400" fill="none" xmlns="http://www.w3.org/2000/svg">
<g clip-path="url(#clip0_12631_2255)">
<path d="M281.176 204.125C290.271 217.132 304.401 223.528 315.789 220.138C327.26 216.723 333.263 204.177 333.723 203.18C338.156 193.591 334.518 188.63 338.753 185.005C346.312 178.537 360.786 191.874 371.308 185.01C376.913 181.353 379.041 173.503 379.086 168.304C379.171 158.724 372.215 154.894 374.266 150.617C377.084 144.736 390.673 151.032 401.695 143.357C408.523 138.603 413.468 129.117 411.549 120.973C408.348 107.377 386.75 100.654 376.421 106.528C369.154 110.659 371.045 118.987 362.448 123.418C354.031 127.754 348.556 121.658 342.724 125.808C334.165 131.897 341.83 147.959 332.487 155.249C327.031 159.506 322.773 155.313 317.5 159.474C308.836 166.311 316.345 180.773 309.255 191.938C305.821 197.346 298.4 202.868 281.172 204.125H281.176Z" fill="white"/>
<path d="M309.555 221.525C299.373 221.525 288.248 215.116 280.763 204.413C280.658 204.265 280.643 204.073 280.72 203.908C280.797 203.746 280.958 203.635 281.14 203.622C295.128 202.602 304.448 198.579 308.836 191.668C312.117 186.501 312.198 180.659 312.275 175.009C312.36 168.743 312.444 162.826 317.191 159.078C319.95 156.901 322.459 156.896 324.886 156.892C327.296 156.888 329.574 156.886 332.181 154.85C336.77 151.268 337.101 145.383 337.42 139.69C337.743 133.944 338.049 128.517 342.435 125.397C345.437 123.26 348.352 123.69 351.44 124.146C354.687 124.625 358.042 125.121 362.221 122.967C366.586 120.718 368.175 117.386 369.71 114.163C371.126 111.195 372.589 108.126 376.175 106.086C381.639 102.979 390.612 103.206 398.506 106.649C405.724 109.797 410.659 114.976 412.043 120.857C414.132 129.736 408.422 139.288 401.985 143.768C396.01 147.928 389.344 148.069 383.985 148.182C379.475 148.278 375.91 148.353 374.721 150.834C373.857 152.636 374.826 154.401 376.169 156.841C377.713 159.653 379.637 163.153 379.59 168.307C379.537 174.265 377.041 181.869 371.584 185.43C365.953 189.102 359.173 187.173 353.192 185.47C347.707 183.909 342.527 182.436 339.08 185.387C337.104 187.079 336.986 189.027 336.808 191.974C336.633 194.908 336.413 198.558 334.18 203.391C333.532 204.791 327.519 217.171 315.932 220.62C313.881 221.232 311.738 221.527 309.555 221.527V221.525ZM282.102 204.556C290.968 216.731 304.651 222.928 315.645 219.654C327.001 216.273 333.017 203.508 333.267 202.967C335.42 198.308 335.634 194.762 335.805 191.914C335.985 188.941 336.126 186.591 338.427 184.621C342.285 181.32 347.717 182.866 353.47 184.502C359.526 186.225 365.79 188.009 371.036 184.587C376.917 180.753 378.549 172.546 378.587 168.301C378.63 163.41 376.778 160.038 375.29 157.326C373.859 154.724 372.73 152.666 373.816 150.397C375.273 147.359 379.109 147.277 383.966 147.175C389.188 147.064 395.687 146.927 401.412 142.943C407.576 138.653 413.052 129.535 411.066 121.09C409.755 115.521 405.031 110.594 398.106 107.575C390.488 104.254 381.876 104.008 376.675 106.965C373.363 108.849 372.033 111.642 370.621 114.6C369.013 117.972 367.351 121.46 362.683 123.863C358.218 126.164 354.539 125.621 351.295 125.142C348.29 124.697 345.694 124.315 343.021 126.216C339.028 129.056 338.737 134.248 338.427 139.746C338.094 145.663 337.752 151.779 332.801 155.643C329.92 157.891 327.362 157.895 324.888 157.897C322.529 157.901 320.301 157.904 317.816 159.864C313.445 163.316 313.37 168.739 313.282 175.02C313.205 180.539 313.12 186.796 309.685 192.204C305.211 199.251 295.934 203.404 282.102 204.554V204.556Z" fill="black"/>
<path d="M295.698 207.472C295.283 207.472 294.866 207.468 294.444 207.455C288.662 207.307 283.027 205.975 277.697 203.497C277.445 203.379 277.336 203.08 277.454 202.827C277.571 202.575 277.871 202.466 278.123 202.583C283.326 205.004 288.826 206.304 294.472 206.45C302.571 206.657 309.827 204.81 316.025 200.952C322.472 196.94 325.657 192.007 330.93 183.835C334.602 178.149 336.134 174.614 337.613 171.197C339.074 167.827 340.453 164.645 343.696 159.686C346.367 155.601 351.339 147.999 359.803 141.28C368.291 134.544 378.911 129.993 390.513 128.12C390.791 128.075 391.045 128.263 391.09 128.537C391.135 128.811 390.947 129.069 390.673 129.114C379.241 130.96 368.781 135.44 360.428 142.069C352.089 148.686 347.175 156.2 344.536 160.238C341.341 165.124 339.979 168.27 338.535 171.597C337.038 175.053 335.49 178.626 331.775 184.381C326.422 192.672 323.193 197.676 316.553 201.807C310.509 205.569 303.497 207.472 295.696 207.472H295.698Z" fill="black"/>
<path d="M277.32 202.62C280.423 203.798 289.965 206.95 300.703 203.116C302.598 202.44 316.161 197.595 318.293 187.272C320.093 178.558 312.166 173.599 314.978 168.507C318.577 161.987 333.098 167.355 337.621 159.701C339.933 155.79 338.451 150.478 337.961 148.716C336.759 144.4 334.824 143.799 331.494 137.953C330.919 136.944 324.967 126.365 327.375 124.207C329.144 122.62 333.316 127.472 339.434 126.061C339.993 125.933 343.866 124.979 345.959 121.566C347.905 118.394 347.236 114.851 346.639 111.906C344.967 103.686 340.589 101.12 341.639 99.159C343.233 96.1822 353.769 101.259 368.784 101.761C378.04 102.072 390.287 102.482 397.005 94.465C401.679 88.8858 402.909 80.1438 400.112 73.5444C394.622 60.596 373.906 56.5864 360.519 61.0259C353.299 63.4209 352.274 66.9238 344.548 68.0336C333.583 69.6075 330.639 63.2734 322.662 65.1274C311.892 67.6316 302.718 82.5624 303.742 94.9077C304.405 102.878 309.065 106.731 306.811 109.913C303.141 115.097 289.264 107.035 283.68 113.04C279.311 117.738 282.891 127.966 283.59 129.957C287.164 140.162 294.698 143.519 293.316 146.915C291.625 151.068 280.16 146.532 275.994 151.964C271.941 157.246 277.17 168.864 281.717 178.962C285.902 188.26 289.384 192.428 287.534 196.654C285.904 200.377 281.116 201.908 277.326 202.62H277.32Z" fill="white"/>
<path d="M289.943 205.468C284.502 205.468 279.947 204.159 277.141 203.092C276.932 203.013 276.799 202.801 276.818 202.577C276.838 202.352 277.005 202.168 277.227 202.125C282.546 201.127 285.854 199.217 287.064 196.452C288.341 193.537 286.814 190.501 284.288 185.469C283.375 183.649 282.338 181.585 281.25 179.167C276.611 168.859 271.352 157.177 275.587 151.656C277.954 148.568 282.374 148.501 286.273 148.444C289.442 148.396 292.18 148.356 292.845 146.722C293.39 145.383 292.124 143.897 290.21 141.65C288.016 139.071 285.009 135.54 283.11 130.121C281.474 125.451 279.325 116.976 283.307 112.695C286.397 109.372 291.831 110.103 296.628 110.749C300.839 111.316 304.816 111.85 306.397 109.622C307.449 108.136 306.743 106.431 305.676 103.85C304.729 101.56 303.55 98.7093 303.238 94.9498C302.175 82.1639 311.739 67.1498 322.545 64.6371C326.523 63.7111 329.324 64.759 332.291 65.8667C335.541 67.0814 338.901 68.3366 344.476 67.5368C348.766 66.921 350.883 65.5844 353.334 64.0362C355.229 62.8386 357.19 61.6005 360.361 60.5505C374.465 55.8736 395.104 60.4457 400.577 73.3513C403.453 80.1388 402.115 89.1546 397.393 94.7916C390.517 102.997 377.949 102.576 368.77 102.268C361.687 102.03 355.498 100.762 350.979 99.8362C346.206 98.8568 342.757 98.1511 342.087 99.4C341.769 99.9945 342.25 100.822 343.199 102.355C344.393 104.28 346.195 107.186 347.136 111.809C347.705 114.602 348.482 118.426 346.392 121.832C344.254 125.318 340.319 126.379 339.551 126.554C335.92 127.392 332.956 126.124 330.789 125.201C329.209 124.525 328.217 124.136 327.714 124.585C326.3 125.853 328.766 132.146 331.936 137.706C333.317 140.133 334.476 141.671 335.406 142.905C336.754 144.695 337.727 145.986 338.45 148.583C338.952 150.383 340.479 155.864 338.058 159.959C335.578 164.157 330.434 164.627 325.458 165.083C321.119 165.481 317.023 165.855 315.422 168.753C314.186 170.992 315.242 173.218 316.581 176.036C318.067 179.167 319.752 182.717 318.79 187.376C316.814 196.944 305.603 201.903 300.877 203.592C297.03 204.965 293.32 205.468 289.949 205.468H289.943ZM279.167 202.737C283.938 204.277 291.887 205.731 300.531 202.645C304.094 201.373 315.871 196.495 317.798 187.173C318.691 182.843 317.083 179.456 315.665 176.468C314.32 173.635 313.048 170.957 314.534 168.267C316.393 164.901 320.749 164.503 325.36 164.08C330.081 163.648 334.966 163.201 337.184 159.446C339.386 155.721 337.945 150.55 337.47 148.852C336.799 146.44 335.92 145.274 334.592 143.51C333.644 142.253 332.464 140.685 331.05 138.202C329.461 135.412 324.474 126.127 327.032 123.832C328.035 122.932 329.421 123.522 331.174 124.272C333.326 125.192 336.003 126.334 339.314 125.571C340.013 125.41 343.595 124.446 345.524 121.302C347.406 118.233 346.702 114.782 346.14 112.006C345.235 107.56 343.559 104.857 342.335 102.881C341.317 101.241 340.584 100.054 341.191 98.9188C342.216 97.007 345.586 97.6978 351.174 98.844C355.659 99.7635 361.798 101.021 368.796 101.256C377.767 101.558 390.055 101.968 396.614 94.1394C401.107 88.7761 402.382 80.1966 399.645 73.7384C394.377 61.316 374.369 56.9579 360.674 61.5C357.62 62.5136 355.712 63.7175 353.869 64.8809C351.426 66.4227 349.119 67.8811 344.615 68.527C338.788 69.3631 335.148 68.003 331.936 66.8034C328.993 65.7042 326.452 64.7568 322.772 65.6122C312.393 68.0266 303.215 82.5125 304.241 94.86C304.541 98.4633 305.687 101.235 306.606 103.461C307.716 106.143 308.591 108.262 307.218 110.199C305.287 112.926 301.016 112.353 296.495 111.743C291.72 111.102 286.782 110.437 284.047 113.377C281.363 116.264 281.367 122.091 284.062 129.785C285.897 135.029 288.833 138.476 290.978 140.993C293.054 143.431 294.554 145.193 293.779 147.098C292.864 149.348 289.817 149.393 286.29 149.446C282.62 149.502 278.461 149.564 276.389 152.265C272.52 157.31 277.646 168.699 282.169 178.75C283.249 181.149 284.28 183.202 285.191 185.013C287.851 190.308 289.455 193.503 287.99 196.852C286.784 199.608 283.82 201.582 279.171 202.731L279.167 202.737Z" fill="black"/>
<path d="M275.278 203.336C271.7 203.336 268.595 202.778 266.225 202.147C265.956 202.077 265.798 201.801 265.868 201.531C265.939 201.264 266.217 201.104 266.484 201.174C270.648 202.284 277.143 203.159 284.455 201.02C284.893 200.892 295.269 197.781 301.674 189.064C307.162 181.597 306.661 174.285 305.968 164.166C305.633 159.269 305.252 153.717 305.524 147.279C305.879 138.836 306.961 113.146 319.961 96.9839C327.491 87.6217 339.007 81.5121 354.191 78.8262C362.976 77.2737 372.98 76.9187 383.121 77.804C383.399 77.8276 383.603 78.0714 383.579 78.3494C383.555 78.6252 383.314 78.8326 383.034 78.807C369.783 77.6522 337.187 77.1711 320.746 97.6148C307.955 113.521 306.882 138.958 306.531 147.319C306.261 153.705 306.64 159.226 306.974 164.098C307.654 174.041 308.193 181.896 302.487 189.661C295.994 198.497 285.87 201.658 284.737 201.989C281.369 202.973 278.167 203.338 275.276 203.338L275.278 203.336Z" fill="black"/>
<path d="M193.135 297.621H78.9297V390.775H193.135V297.621Z" fill="#F5F5F5"/>
<path d="M193.136 391.276H78.9322C78.6542 391.276 78.4297 391.051 78.4297 390.773V297.62C78.4297 297.342 78.6542 297.117 78.9322 297.117H193.138C193.416 297.117 193.64 297.342 193.64 297.62V390.773C193.64 391.051 193.416 391.276 193.138 391.276H193.136ZM79.4348 390.269H192.633V298.122H79.4348V390.269Z" fill="black"/>
<path d="M177.145 317.527H94.9219V390.768H177.145V317.527Z" fill="#F5F5F5"/>
<path d="M177.148 391.273H94.9244C94.6464 391.273 94.4219 391.048 94.4219 390.77V317.53C94.4219 317.252 94.6464 317.027 94.9244 317.027H177.148C177.426 317.027 177.65 317.252 177.65 317.53V390.77C177.65 391.048 177.426 391.273 177.148 391.273ZM95.427 390.266H176.643V318.03H95.427V390.266Z" fill="black"/>
<path d="M169.442 327.341H102.635C102.357 327.341 102.133 327.116 102.133 326.838C102.133 326.56 102.357 326.336 102.635 326.336H169.442C169.72 326.336 169.944 326.56 169.944 326.838C169.944 327.116 169.72 327.341 169.442 327.341Z" fill="black"/>
<path d="M169.442 337.759H102.635C102.357 337.759 102.133 337.534 102.133 337.256C102.133 336.978 102.357 336.754 102.635 336.754H169.442C169.72 336.754 169.944 336.978 169.944 337.256C169.944 337.534 169.72 337.759 169.442 337.759Z" fill="black"/>
<path d="M169.442 348.181H102.635C102.357 348.181 102.133 347.956 102.133 347.678C102.133 347.4 102.357 347.176 102.635 347.176H169.442C169.72 347.176 169.944 347.4 169.944 347.678C169.944 347.956 169.72 348.181 169.442 348.181Z" fill="black"/>
<path d="M169.442 358.603H102.635C102.357 358.603 102.133 358.378 102.133 358.1C102.133 357.822 102.357 357.598 102.635 357.598H169.442C169.72 357.598 169.944 357.822 169.944 358.1C169.944 358.378 169.72 358.603 169.442 358.603Z" fill="black"/>
<path d="M169.442 369.021H102.635C102.357 369.021 102.133 368.796 102.133 368.518C102.133 368.24 102.357 368.016 102.635 368.016H169.442C169.72 368.016 169.944 368.24 169.944 368.518C169.944 368.796 169.72 369.021 169.442 369.021Z" fill="black"/>
<path d="M169.442 379.439H102.635C102.357 379.439 102.133 379.214 102.133 378.936C102.133 378.658 102.357 378.434 102.635 378.434H169.442C169.72 378.434 169.944 378.658 169.944 378.936C169.944 379.214 169.72 379.439 169.442 379.439Z" fill="black"/>
<path d="M416.402 220.574H266.688V390.775H416.402V220.574Z" fill="#F5F5F5"/>
<path d="M416.404 391.276H266.69C266.412 391.276 266.188 391.051 266.188 390.773V220.573C266.188 220.295 266.412 220.07 266.69 220.07H416.404C416.682 220.07 416.907 220.295 416.907 220.573V390.773C416.907 391.051 416.682 391.276 416.404 391.276ZM267.193 390.269H415.9V221.075H267.193V390.269Z" fill="black"/>
<path d="M406.299 185.852H200.229L177.742 225.127H428.786L406.299 185.852Z" fill="black"/>
<path d="M428.789 225.63H177.746C177.566 225.63 177.402 225.534 177.31 225.38C177.22 225.224 177.22 225.033 177.31 224.877L199.794 185.6C199.884 185.444 200.051 185.348 200.231 185.348H406.302C406.482 185.348 406.649 185.444 406.739 185.6L429.223 224.877C429.313 225.033 429.311 225.224 429.223 225.38C429.134 225.536 428.967 225.63 428.787 225.63H428.789ZM178.616 224.623H427.921L406.012 186.353H200.524L178.614 224.623H178.616Z" fill="#F5F5F5"/>
<path d="M293.76 266.012H87.6901L65.2031 305.289H316.247L293.76 266.012Z" fill="black"/>
<path d="M316.25 305.794H65.2068C65.0271 305.794 64.8624 305.698 64.7705 305.544C64.6807 305.388 64.6807 305.197 64.7705 305.041L87.2553 265.764C87.3451 265.608 87.512 265.512 87.6916 265.512H293.763C293.943 265.512 294.11 265.608 294.2 265.764L316.684 305.041C316.774 305.197 316.772 305.388 316.684 305.544C316.595 305.7 316.428 305.794 316.248 305.794H316.25ZM66.0772 304.787H315.382L293.472 266.517H87.9846L66.075 304.787H66.0772Z" fill="#F5F5F5"/>
<path d="M312.033 223.621H190.781V390.774H312.033V223.621Z" fill="#F5F5F5"/>
<path d="M312.036 391.275H190.784C190.506 391.275 190.281 391.051 190.281 390.773V223.62C190.281 223.342 190.506 223.117 190.784 223.117H312.036C312.314 223.117 312.539 223.342 312.539 223.62V390.773C312.539 391.051 312.314 391.275 312.036 391.275ZM191.289 390.268H311.533V224.122H191.289V390.268Z" fill="black"/>
<path d="M311.621 231.056H191.188L251.405 175.629L311.621 231.056Z" fill="#F5F5F5"/>
<path d="M251.41 175.628L309.921 229.485H319.436L251.41 166.871L183.383 229.485H192.897L251.41 175.628Z" fill="black"/>
<path d="M319.436 229.991H309.922C309.796 229.991 309.674 229.944 309.582 229.859L251.411 176.314L193.24 229.859C193.148 229.944 193.026 229.991 192.9 229.991H183.385C183.178 229.991 182.992 229.865 182.917 229.671C182.842 229.478 182.893 229.258 183.045 229.117L251.071 166.5C251.263 166.323 251.56 166.323 251.753 166.5L319.778 229.117C319.93 229.258 319.981 229.476 319.907 229.671C319.832 229.863 319.646 229.991 319.438 229.991H319.436ZM310.118 228.984H318.147L251.411 167.557L184.675 228.984H192.703L251.071 175.259C251.263 175.082 251.56 175.082 251.753 175.259L310.121 228.984H310.118Z" fill="#F5F5F5"/>
<path d="M284.043 243.588H218.768C218.49 243.588 218.266 243.363 218.266 243.085V237.202C218.266 220.918 231.516 207.668 247.801 207.668H255.013C271.298 207.668 284.548 220.918 284.548 237.202V243.085C284.548 243.363 284.324 243.588 284.046 243.588H284.043ZM219.273 242.581H283.541V237.202C283.541 221.472 270.744 208.675 255.013 208.675H247.801C232.07 208.675 219.273 221.472 219.273 237.202V242.581Z" fill="black"/>
<path d="M251.409 239.414C251.131 239.414 250.906 239.19 250.906 238.912V214.245C250.906 213.967 251.131 213.742 251.409 213.742C251.687 213.742 251.911 213.967 251.911 214.245V238.912C251.911 239.19 251.687 239.414 251.409 239.414Z" fill="black"/>
<path d="M225.964 236.654C225.835 236.654 225.707 236.605 225.608 236.507C225.412 236.31 225.412 235.991 225.608 235.794L244.905 216.499C245.102 216.302 245.42 216.302 245.617 216.499C245.814 216.696 245.814 217.014 245.617 217.211L226.321 236.507C226.222 236.605 226.094 236.654 225.966 236.654H225.964Z" fill="black"/>
<path d="M258.174 233.294C258.046 233.294 257.918 233.245 257.819 233.146C257.623 232.95 257.623 232.631 257.819 232.434L270.572 219.683C270.768 219.486 271.087 219.486 271.284 219.683C271.481 219.879 271.481 220.198 271.284 220.395L258.532 233.146C258.433 233.245 258.305 233.294 258.177 233.294H258.174Z" fill="black"/>
<path d="M319.428 376.352H183.375V395.326H319.428V376.352Z" fill="#F5F5F5"/>
<path d="M319.431 395.831H183.378C183.1 395.831 182.875 395.607 182.875 395.329V376.354C182.875 376.076 183.1 375.852 183.378 375.852H319.431C319.709 375.852 319.933 376.076 319.933 376.354V395.329C319.933 395.607 319.709 395.831 319.431 395.831ZM183.882 394.824H318.928V376.857H183.882V394.824Z" fill="black"/>
<path d="M208.353 310.34H197.727V376.348H208.353V310.34Z" fill="#F5F5F5"/>
<path d="M208.356 376.853H197.729C197.451 376.853 197.227 376.628 197.227 376.35V310.342C197.227 310.064 197.451 309.84 197.729 309.84H208.356C208.634 309.84 208.858 310.064 208.858 310.342V376.35C208.858 376.628 208.634 376.853 208.356 376.853ZM198.234 375.846H207.853V310.843H198.234V375.846Z" fill="black"/>
<path d="M305.08 310.34H294.453V376.348H305.08V310.34Z" fill="#F5F5F5"/>
<path d="M305.082 376.853H294.456C294.178 376.853 293.953 376.628 293.953 376.35V310.342C293.953 310.064 294.178 309.84 294.456 309.84H305.082C305.36 309.84 305.585 310.064 305.585 310.342V376.35C305.585 376.628 305.36 376.853 305.082 376.853ZM294.96 375.846H304.58V310.843H294.96V375.846Z" fill="black"/>
<path d="M248.289 317.527H220.586V376.348H248.289V317.527Z" fill="#F5F5F5"/>
<path d="M248.291 376.853H220.588C220.31 376.853 220.086 376.629 220.086 376.351V317.53C220.086 317.252 220.31 317.027 220.588 317.027H248.291C248.569 317.027 248.794 317.252 248.794 317.53V376.351C248.794 376.629 248.569 376.853 248.291 376.853ZM221.091 375.846H247.789V318.032H221.091V375.846Z" fill="black"/>
<path d="M282.219 317.527H254.516V376.348H282.219V317.527Z" fill="#F5F5F5"/>
<path d="M282.221 376.853H254.518C254.24 376.853 254.016 376.629 254.016 376.351V317.53C254.016 317.252 254.24 317.027 254.518 317.027H282.221C282.499 317.027 282.724 317.252 282.724 317.53V376.351C282.724 376.629 282.499 376.853 282.221 376.853ZM255.021 375.846H281.719V318.032H255.021V375.846Z" fill="black"/>
<path d="M305.081 383.06H197.729C197.451 383.06 197.227 382.835 197.227 382.557C197.227 382.279 197.451 382.055 197.729 382.055H305.081C305.359 382.055 305.583 382.279 305.583 382.557C305.583 382.835 305.359 383.06 305.081 383.06Z" fill="black"/>
<path d="M305.081 389.564H197.729C197.451 389.564 197.227 389.339 197.227 389.061C197.227 388.783 197.451 388.559 197.729 388.559H305.081C305.359 388.559 305.583 388.783 305.583 389.061C305.583 389.339 305.359 389.564 305.081 389.564Z" fill="black"/>
<path d="M318.159 284.895H184.646L170.078 310.342H332.729L318.159 284.895Z" fill="black"/>
<path d="M332.732 310.843H170.082C169.902 310.843 169.737 310.747 169.645 310.593C169.556 310.437 169.556 310.247 169.645 310.091L184.213 284.643C184.303 284.487 184.47 284.391 184.65 284.391H318.162C318.342 284.391 318.509 284.487 318.598 284.643L333.166 310.091C333.256 310.247 333.254 310.437 333.166 310.593C333.076 310.749 332.91 310.843 332.73 310.843H332.732ZM170.95 309.836H331.864L317.871 285.396H184.943L170.95 309.836Z" fill="#F5F5F5"/>
<path d="M283.99 275.801H218.745C218.467 275.801 218.242 275.576 218.242 275.298V248.452C218.242 248.174 218.467 247.949 218.745 247.949H283.99C284.268 247.949 284.493 248.174 284.493 248.452V275.298C284.493 275.576 284.268 275.801 283.99 275.801ZM219.249 274.793H283.488V248.954H219.249V274.793Z" fill="black"/>
<path d="M231.667 268.691C231.538 268.691 231.41 268.641 231.312 268.543C231.115 268.346 231.115 268.028 231.312 267.831L246.299 252.847C246.495 252.65 246.814 252.65 247.011 252.847C247.208 253.044 247.208 253.362 247.011 253.559L232.024 268.543C231.925 268.641 231.797 268.691 231.669 268.691H231.667Z" fill="black"/>
<path d="M258.401 270.986C258.273 270.986 258.144 270.937 258.046 270.838C257.849 270.642 257.849 270.323 258.046 270.126L264.201 263.972C264.398 263.775 264.716 263.775 264.913 263.972C265.11 264.169 265.11 264.487 264.913 264.684L258.758 270.838C258.66 270.937 258.531 270.986 258.403 270.986H258.401Z" fill="black"/>
<path d="M396.061 292.608H332.682C332.404 292.608 332.18 292.383 332.18 292.105V238.596C332.18 238.318 332.404 238.094 332.682 238.094H396.061C396.339 238.094 396.563 238.318 396.563 238.596V292.105C396.563 292.383 396.339 292.608 396.061 292.608ZM333.187 291.6H395.558V239.099H333.187V291.6Z" fill="black"/>
<path d="M364.37 286.154C364.092 286.154 363.867 285.93 363.867 285.652V243.909C363.867 243.631 364.092 243.406 364.37 243.406C364.648 243.406 364.872 243.631 364.872 243.909V285.652C364.872 285.93 364.648 286.154 364.37 286.154Z" fill="black"/>
<path d="M336.042 286.595C335.913 286.595 335.785 286.546 335.687 286.447C335.49 286.251 335.49 285.932 335.687 285.735L360.857 260.566C361.054 260.369 361.373 260.369 361.57 260.566C361.766 260.762 361.766 261.081 361.57 261.278L336.399 286.447C336.3 286.546 336.172 286.595 336.044 286.595H336.042Z" fill="black"/>
<path d="M340.026 262.371C339.898 262.371 339.769 262.322 339.671 262.223C339.474 262.027 339.474 261.708 339.671 261.511L356.869 244.312C357.066 244.115 357.385 244.115 357.581 244.312C357.778 244.508 357.778 244.827 357.581 245.024L340.383 262.223C340.285 262.322 340.156 262.371 340.028 262.371H340.026Z" fill="black"/>
<path d="M370.276 277.814C370.148 277.814 370.019 277.765 369.921 277.667C369.724 277.47 369.724 277.152 369.921 276.955L386.538 260.339C386.734 260.142 387.053 260.142 387.25 260.339C387.447 260.536 387.447 260.854 387.25 261.051L370.633 277.667C370.535 277.765 370.406 277.814 370.278 277.814H370.276Z" fill="black"/>
<path d="M396.061 371.541H332.682C332.404 371.541 332.18 371.317 332.18 371.039V317.53C332.18 317.252 332.404 317.027 332.682 317.027H396.061C396.339 317.027 396.563 317.252 396.563 317.53V371.039C396.563 371.317 396.339 371.541 396.061 371.541ZM333.187 370.534H395.558V318.032H333.187V370.534Z" fill="black"/>
<path d="M364.37 365.092C364.092 365.092 363.867 364.867 363.867 364.589V322.846C363.867 322.568 364.092 322.344 364.37 322.344C364.648 322.344 364.872 322.568 364.872 322.846V364.589C364.872 364.867 364.648 365.092 364.37 365.092Z" fill="black"/>
<path d="M336.042 365.532C335.913 365.532 335.785 365.483 335.687 365.385C335.49 365.188 335.49 364.87 335.687 364.673L360.857 339.503C361.054 339.306 361.373 339.306 361.57 339.503C361.766 339.7 361.766 340.018 361.57 340.215L336.399 365.385C336.3 365.483 336.172 365.532 336.044 365.532H336.042Z" fill="black"/>
<path d="M340.026 341.305C339.898 341.305 339.769 341.255 339.671 341.157C339.474 340.96 339.474 340.642 339.671 340.445L356.869 323.245C357.066 323.048 357.385 323.048 357.581 323.245C357.778 323.442 357.778 323.761 357.581 323.957L340.383 341.157C340.285 341.255 340.156 341.305 340.028 341.305H340.026Z" fill="black"/>
<path d="M370.276 356.748C370.148 356.748 370.019 356.699 369.921 356.601C369.724 356.404 369.724 356.085 369.921 355.888L386.538 339.273C386.734 339.076 387.053 339.076 387.25 339.273C387.447 339.469 387.447 339.788 387.25 339.985L370.633 356.601C370.535 356.699 370.406 356.748 370.278 356.748H370.276Z" fill="black"/>
<path d="M40.4713 159.203C40.1933 159.203 39.9688 158.978 39.9688 158.7V154.796C39.9688 154.518 40.1933 154.293 40.4713 154.293C40.7493 154.293 40.9739 154.518 40.9739 154.796V158.7C40.9739 158.978 40.7493 159.203 40.4713 159.203Z" fill="black"/>
<path d="M40.4713 168.301C40.1933 168.301 39.9688 168.076 39.9688 167.798V163.893C39.9688 163.615 40.1933 163.391 40.4713 163.391C40.7493 163.391 40.9739 163.615 40.9739 163.893V167.798C40.9739 168.076 40.7493 168.301 40.4713 168.301Z" fill="black"/>
<path d="M37.8763 161.798H33.9713C33.6933 161.798 33.4688 161.574 33.4688 161.296C33.4688 161.018 33.6933 160.793 33.9713 160.793H37.8763C38.1543 160.793 38.3789 161.018 38.3789 161.296C38.3789 161.574 38.1543 161.798 37.8763 161.798Z" fill="black"/>
<path d="M46.9701 161.798H43.0651C42.7871 161.798 42.5625 161.574 42.5625 161.296C42.5625 161.018 42.7871 160.793 43.0651 160.793H46.9701C47.2481 160.793 47.4726 161.018 47.4726 161.296C47.4726 161.574 47.2481 161.798 46.9701 161.798Z" fill="black"/>
<path d="M48.868 294.744C48.6948 294.744 48.5237 294.654 48.4317 294.491C33.1261 267.961 28.9067 239.92 28.062 221.067C27.1466 200.64 29.8883 186.285 29.9161 186.142C29.9696 185.868 30.2305 185.69 30.5063 185.744C30.7801 185.797 30.9576 186.06 30.9041 186.334C30.8763 186.475 28.156 200.737 29.0692 221.05C29.9118 239.783 34.1055 267.643 49.3043 293.987C49.4433 294.228 49.3599 294.536 49.1204 294.675C49.0412 294.72 48.9557 294.744 48.8702 294.744H48.868Z" fill="black"/>
<path d="M55.858 289.218C55.6783 289.218 55.503 289.12 55.4131 288.951C40.2422 260.24 38.3624 238.485 38.3453 238.269C38.3239 237.991 38.5292 237.75 38.8072 237.728C39.0916 237.705 39.3269 237.912 39.3483 238.19C39.3654 238.404 41.2366 259.968 56.3028 288.481C56.4332 288.727 56.3391 289.03 56.0932 289.161C56.0183 289.201 55.9371 289.218 55.858 289.218Z" fill="black"/>
<path d="M433.177 378.148L433.185 388.041C433.189 391.039 429.718 394.044 422.742 396.37C408.793 401.019 386.03 401.216 371.447 396.869C371.207 396.798 370.972 396.725 370.737 396.65C363.348 394.328 359.638 391.24 359.634 388.144L359.625 378.251C359.629 381.348 363.34 384.436 370.728 386.758C370.964 386.833 371.199 386.903 371.438 386.976C386.021 391.324 408.784 391.127 422.734 386.478C429.708 384.153 433.181 381.147 433.177 378.148Z" fill="black"/>
<path d="M421.359 369.425C421.601 369.497 421.836 369.568 422.071 369.643C436.616 374.215 436.913 381.751 422.734 386.477C408.784 391.126 386.022 391.323 371.439 386.975C371.199 386.905 370.964 386.832 370.729 386.757C356.187 382.185 355.889 374.649 370.068 369.921C384.016 365.272 406.778 365.075 421.359 369.423V369.425Z" fill="white"/>
<path d="M396.261 390.609C387.343 390.609 378.421 389.556 371.304 387.433C371.063 387.36 370.825 387.288 370.588 387.213C363.242 384.903 359.179 381.732 359.149 378.282C359.119 374.923 362.945 371.794 369.916 369.47C384.02 364.769 406.676 364.547 421.496 368.967C421.74 369.04 421.977 369.113 422.215 369.188C429.563 371.497 433.624 374.668 433.654 378.118C433.684 381.477 429.858 384.606 422.886 386.93C415.555 389.375 405.91 390.609 396.259 390.609H396.261ZM396.576 366.799C386.963 366.799 377.352 367.999 370.22 370.377C363.766 372.528 360.079 375.406 360.105 378.276C360.13 381.234 364.054 384.159 370.874 386.304C371.107 386.377 371.341 386.449 371.578 386.52C385.994 390.818 408.874 390.596 422.587 386.026C429.041 383.875 432.726 380.996 432.702 378.126C432.677 375.169 428.75 372.243 421.93 370.099C421.697 370.026 421.462 369.953 421.225 369.883C414.309 367.821 405.442 366.799 396.576 366.799Z" fill="black"/>
<path d="M435.208 364.43L435.216 374.322C435.221 377.32 431.75 380.325 424.774 382.652C410.824 387.301 388.061 387.497 373.478 383.15C373.239 383.079 373.003 383.007 372.768 382.932C365.38 380.609 361.669 377.521 361.665 374.425L361.656 364.532C361.661 367.629 365.371 370.717 372.76 373.039C372.995 373.114 373.23 373.185 373.47 373.257C388.053 377.605 410.815 377.408 424.765 372.759C431.739 370.434 435.212 367.428 435.208 364.43Z" fill="black"/>
<path d="M423.39 355.706C423.632 355.779 423.867 355.849 424.103 355.924C438.647 360.496 438.944 368.032 424.765 372.758C410.816 377.407 388.053 377.604 373.47 373.256C373.23 373.186 372.995 373.113 372.76 373.038C358.218 368.466 357.921 360.93 372.099 356.202C386.047 351.553 408.81 351.356 423.39 355.704V355.706Z" fill="white"/>
<path d="M398.292 376.888C389.375 376.888 380.455 375.836 373.335 373.712C373.094 373.64 372.854 373.567 372.617 373.492C365.271 371.183 361.21 368.011 361.18 364.562C361.15 361.202 364.976 358.074 371.948 355.747C386.049 351.047 408.705 350.824 423.527 355.245C423.771 355.317 424.009 355.39 424.246 355.465C431.594 357.774 435.657 360.946 435.687 364.395C435.717 367.755 431.891 370.883 424.92 373.21C417.589 375.654 407.944 376.888 398.292 376.888ZM398.607 353.078C388.994 353.078 379.383 354.278 372.251 356.656C365.797 358.807 362.11 361.688 362.136 364.556C362.161 367.513 366.086 370.438 372.906 372.581C373.139 372.654 373.374 372.727 373.609 372.797C388.023 377.096 410.908 376.873 424.618 372.303C431.072 370.152 434.759 367.271 434.734 364.404C434.708 361.446 430.781 358.521 423.962 356.376C423.729 356.303 423.493 356.23 423.256 356.16C416.34 354.098 407.473 353.076 398.607 353.076V353.078Z" fill="black"/>
<path d="M429.38 350.605L429.388 360.498C429.392 363.496 425.922 366.501 418.946 368.827C404.996 373.476 382.233 373.673 367.65 369.326C367.411 369.255 367.175 369.182 366.94 369.107C359.551 366.785 355.841 363.697 355.837 360.601L355.828 350.708C355.832 353.805 359.543 356.893 366.932 359.215C367.167 359.29 367.402 359.36 367.642 359.433C382.224 363.781 404.987 363.584 418.937 358.935C425.911 356.61 429.384 353.604 429.38 350.605Z" fill="black"/>
<path d="M417.562 341.88C417.804 341.952 418.039 342.023 418.274 342.098C432.819 346.67 433.116 354.206 418.937 358.932C404.988 363.581 382.225 363.777 367.642 359.43C367.402 359.359 367.167 359.287 366.932 359.212C352.39 354.64 352.092 347.104 366.271 342.378C380.219 337.729 402.982 337.532 417.562 341.88Z" fill="white"/>
<path d="M392.464 363.064C383.547 363.064 374.627 362.012 367.507 359.888C367.266 359.816 367.026 359.743 366.789 359.668C359.443 357.358 355.382 354.187 355.352 350.738C355.322 347.378 359.148 344.25 366.119 341.923C380.221 337.223 402.877 337 417.699 341.42C417.943 341.493 418.181 341.566 418.418 341.641C425.766 343.95 429.827 347.122 429.857 350.571C429.887 353.93 426.061 357.059 419.089 359.384C411.758 361.828 402.114 363.062 392.462 363.062L392.464 363.064ZM392.779 339.254C383.166 339.254 373.555 340.454 366.423 342.832C359.969 344.983 356.282 347.864 356.308 350.731C356.333 353.689 360.258 356.614 367.077 358.757C367.311 358.83 367.544 358.902 367.781 358.973C382.197 363.271 405.078 363.051 418.79 358.479C425.244 356.328 428.929 353.449 428.905 350.579C428.88 347.622 424.953 344.697 418.133 342.552C417.9 342.479 417.665 342.406 417.428 342.336C410.512 340.274 401.645 339.252 392.779 339.252V339.254Z" fill="black"/>
<path d="M436.606 339.215L436.615 349.107C436.619 352.106 433.148 355.11 426.172 357.437C412.222 362.086 389.46 362.282 374.877 357.935C374.637 357.864 374.402 357.792 374.167 357.717C366.778 355.394 363.068 352.307 363.063 349.21L363.055 339.317C363.059 342.414 366.769 345.502 374.158 347.824C374.393 347.899 374.629 347.97 374.868 348.042C389.451 352.39 412.214 352.193 426.164 347.544C433.137 345.22 436.611 342.213 436.606 339.215Z" fill="black"/>
<path d="M424.789 330.489C425.031 330.562 425.266 330.632 425.501 330.707C440.045 335.279 440.343 342.815 426.164 347.541C412.214 352.19 389.451 352.387 374.868 348.039C374.629 347.969 374.394 347.896 374.158 347.821C359.616 343.249 359.319 335.713 373.498 330.987C387.445 326.338 410.208 326.141 424.789 330.489Z" fill="white"/>
<path d="M399.691 351.673C390.773 351.673 381.851 350.621 374.734 348.498C374.492 348.425 374.253 348.352 374.015 348.277C366.669 345.968 362.606 342.796 362.578 339.347C362.548 335.988 366.374 332.859 373.346 330.532C387.448 325.832 410.106 325.61 424.926 330.03C425.17 330.103 425.407 330.175 425.644 330.25C432.993 332.56 437.054 335.731 437.084 339.18C437.114 342.54 433.288 345.668 426.316 347.993C418.985 350.437 409.34 351.671 399.689 351.671L399.691 351.673ZM400.005 327.864C390.392 327.864 380.782 329.063 373.65 331.441C367.195 333.592 363.509 336.473 363.534 339.341C363.56 342.298 367.484 345.224 374.304 347.366C374.537 347.439 374.77 347.512 375.008 347.582C389.424 351.881 412.304 351.658 426.017 347.088C432.469 344.937 436.155 342.059 436.132 339.189C436.106 336.231 432.18 333.304 425.36 331.161C425.127 331.088 424.892 331.016 424.654 330.945C417.738 328.884 408.872 327.861 400.005 327.861V327.864Z" fill="black"/>
<path d="M428.059 327.934L428.068 337.826C428.072 340.824 424.601 343.829 417.625 346.155C403.675 350.804 380.913 351.001 366.33 346.654C366.09 346.583 365.855 346.51 365.62 346.436C358.231 344.113 354.521 341.025 354.516 337.929L354.508 328.036C354.512 331.133 358.222 334.221 365.611 336.543C365.846 336.618 366.082 336.688 366.321 336.761C380.904 341.109 403.667 340.912 417.617 336.263C424.591 333.938 428.064 330.932 428.059 327.934Z" fill="black"/>
<path d="M416.242 319.208C416.484 319.28 416.719 319.351 416.954 319.426C431.498 323.998 431.796 331.534 417.617 336.26C403.667 340.909 380.904 341.106 366.322 336.758C366.082 336.688 365.847 336.615 365.612 336.54C351.069 331.968 350.772 324.432 364.951 319.706C378.898 315.057 401.661 314.86 416.242 319.208Z" fill="white"/>
<path d="M391.144 340.392C382.226 340.392 373.306 339.34 366.187 337.216C365.945 337.144 365.708 337.071 365.471 336.996C358.125 334.687 354.061 331.515 354.031 328.066C354.001 324.706 357.827 321.576 364.799 319.251C378.901 314.551 401.559 314.328 416.379 318.749C416.623 318.821 416.86 318.894 417.1 318.969C424.446 321.278 428.509 324.45 428.539 327.899C428.569 331.259 424.743 334.387 417.771 336.712C410.44 339.156 400.795 340.39 391.144 340.39V340.392ZM391.458 316.582C381.846 316.582 372.235 317.782 365.103 320.16C358.649 322.311 354.962 325.19 354.987 328.059C355.013 331.017 358.937 333.942 365.757 336.087C365.99 336.16 366.223 336.233 366.461 336.303C380.877 340.602 403.757 340.379 417.47 335.809C423.924 333.658 427.609 330.78 427.585 327.91C427.559 324.952 423.633 322.027 416.813 319.882C416.578 319.807 416.345 319.737 416.107 319.666C409.191 317.604 400.325 316.582 391.458 316.582Z" fill="black"/>
<path d="M434.286 315.215L434.294 325.107C434.299 328.106 430.828 331.11 423.852 333.437C409.902 338.086 387.139 338.282 372.556 333.935C372.317 333.864 372.082 333.792 371.846 333.717C364.458 331.394 360.747 328.307 360.743 325.21L360.734 315.317C360.739 318.414 364.449 321.502 371.838 323.824C372.073 323.899 372.308 323.97 372.548 324.042C387.131 328.39 409.893 328.193 423.843 323.544C430.817 321.22 434.29 318.213 434.286 315.215Z" fill="black"/>
<path d="M422.469 306.491C422.71 306.564 422.945 306.634 423.181 306.709C437.725 311.281 438.022 318.817 423.844 323.543C409.894 328.192 387.131 328.389 372.548 324.042C372.309 323.971 372.073 323.898 371.838 323.823C357.296 319.251 356.999 311.715 371.177 306.987C385.125 302.338 407.888 302.141 422.469 306.489V306.491Z" fill="white"/>
<path d="M397.371 327.675C388.453 327.675 379.533 326.623 372.414 324.502C372.172 324.429 371.932 324.356 371.695 324.281C364.349 321.972 360.286 318.8 360.258 315.351C360.228 311.991 364.054 308.861 371.026 306.536C385.129 301.836 407.785 301.614 422.606 306.034C422.849 306.106 423.087 306.179 423.324 306.254C430.672 308.564 434.733 311.735 434.763 315.184C434.793 318.544 430.967 321.672 423.996 323.997C416.665 326.441 407.02 327.673 397.368 327.673L397.371 327.675ZM397.685 303.865C388.072 303.865 378.461 305.065 371.329 307.443C364.875 309.594 361.188 312.475 361.214 315.342C361.24 318.3 365.164 321.225 371.984 323.37C372.217 323.443 372.452 323.516 372.689 323.586C387.103 327.885 409.986 327.662 423.696 323.092C430.15 320.941 433.835 318.063 433.812 315.193C433.786 312.235 429.86 309.31 423.04 307.165C422.807 307.092 422.571 307.02 422.334 306.949C415.418 304.888 406.551 303.865 397.685 303.865Z" fill="black"/>
<path d="M406.538 308.262L404.773 309.804C406.369 310.011 407.573 310.251 408.505 310.499C409.151 310.672 409.666 310.85 410.094 311.025L406.632 312.877C406.187 312.717 405.584 312.475 404.688 312.233C403.864 312.013 402.795 311.795 401.375 311.641C398.695 311.352 397.269 311.75 396.707 312.24C396.046 312.817 397.068 313.341 399.932 314.28C403.997 315.544 404.874 316.72 403.067 318.298C401.283 319.857 397.162 320.909 392.017 320.747L389.97 322.534L385.93 322.098L387.836 320.434C386.313 320.238 384.912 319.96 383.777 319.656C382.898 319.421 382.179 319.168 381.688 318.927L385.272 317.011C385.909 317.306 386.73 317.612 387.729 317.879C388.726 318.146 389.897 318.375 391.236 318.518C393.586 318.771 395.635 318.559 396.439 317.858C397.201 317.192 396.36 316.63 393.813 315.864C390.122 314.759 388.116 313.557 390.06 311.859C391.826 310.317 395.766 309.385 400.599 309.492L402.504 307.828L406.544 308.264L406.538 308.262Z" fill="black"/>
<path d="M304.435 59.6657L280.357 14.8713C279.713 13.4791 277.865 13.1776 276.811 14.2939L240.269 56.5115C239.688 57.1274 239.516 58.0319 239.837 58.8168C240.156 59.6016 240.909 60.1319 241.755 60.1683C247.113 60.3308 252.472 60.4912 257.829 60.6537C258.607 60.6772 259.326 61.0814 259.751 61.7336C260.177 62.3859 260.256 63.207 259.963 63.9298C252.234 82.9664 237.211 111.977 208.456 137.775C149.686 190.503 78.1598 189.802 60.4141 189.12C61.8961 199.211 63.3781 209.303 64.8601 219.392C83.7201 219.292 162.101 216.734 224.33 155.837C258.317 122.579 273.507 85.5989 280.378 63.7673C280.863 62.2233 282.35 61.2161 283.964 61.338C290.102 61.8063 296.24 62.2747 302.377 62.7451C303.269 62.6852 304.05 62.172 304.396 61.4043C304.76 60.6002 304.501 59.8411 304.437 59.6679L304.435 59.6657Z" fill="black"/>
<path d="M64.8616 219.868C64.6242 219.868 64.4232 219.695 64.389 219.46L59.9429 189.188C59.9215 189.046 59.9643 188.905 60.0605 188.798C60.1546 188.691 60.2872 188.627 60.4348 188.64C86.5573 189.643 153.25 186.664 208.139 137.417C230.555 117.305 247.843 92.5203 259.522 63.7494C259.757 63.172 259.693 62.5155 259.353 61.9937C259.013 61.4719 258.438 61.149 257.815 61.1298L241.742 60.6444C240.703 60.5994 239.785 59.9536 239.396 58.9956C239.007 58.0376 239.214 56.9341 239.924 56.1835L276.453 13.9809C277.071 13.3265 277.948 13.0314 278.816 13.1704C279.684 13.3116 280.422 13.8718 280.792 14.6716L304.857 59.4383C304.868 59.4575 304.877 59.4789 304.885 59.5003C305.007 59.8275 305.242 60.6893 304.832 61.6002C304.413 62.5262 303.484 63.1485 302.409 63.2212C302.387 63.2212 302.364 63.2212 302.34 63.2212L283.927 61.8141C282.518 61.705 281.256 62.569 280.833 63.9098C269.734 99.1731 250.309 131.079 224.663 156.176C166.39 213.203 93.4969 219.716 64.8637 219.868H64.8616ZM60.9715 189.617L65.2743 218.91C94.0765 218.696 166.253 212.003 223.998 155.494C249.533 130.506 268.872 98.7368 279.924 63.6232C280.48 61.8569 282.163 60.7192 284.002 60.8625L302.379 62.2653C303.089 62.2076 303.694 61.8034 303.963 61.2068C304.218 60.6444 304.083 60.0969 304.002 59.8617L279.941 15.0993C279.689 14.5561 279.229 14.2076 278.666 14.1156C278.104 14.0215 277.556 14.2097 277.165 14.6224L240.636 56.8251C240.17 57.3212 240.038 58.0269 240.286 58.6385C240.534 59.2501 241.122 59.6649 241.78 59.6927L257.847 60.176C258.782 60.2038 259.646 60.6893 260.155 61.4719C260.666 62.2546 260.76 63.2405 260.407 64.1087C248.673 93.0164 231.302 117.921 208.776 138.13C154.025 187.252 87.603 190.558 60.9715 189.617Z" fill="white"/>
<path d="M119.204 337.319C119.204 337.319 118.998 345.586 118.793 357.651C118.631 367.242 118.464 379.226 118.402 391.362H78.1968C77.3906 376.296 76.8495 366.224 76.8495 366.224C76.8495 366.224 72.9809 378.007 69.4373 391.362H24.7734C25.6994 375.916 26.5356 361.361 27.066 351.976C27.4381 345.374 27.6626 341.328 27.6626 341.328L119.204 337.316V337.319Z" fill="white"/>
<path d="M69.4384 391.837C69.3978 391.837 69.3571 391.833 69.3165 391.822C69.062 391.754 68.9102 391.493 68.9765 391.239C72.4837 378.023 76.3588 366.193 76.3973 366.075C76.47 365.857 76.6839 365.72 76.9148 365.75C77.1436 365.78 77.3169 365.968 77.3297 366.197L78.677 391.335C78.692 391.598 78.4888 391.822 78.2258 391.837C77.9606 391.859 77.7382 391.649 77.7232 391.386L76.5149 368.84C75.1976 372.993 72.4516 381.872 69.9025 391.485C69.8469 391.698 69.6523 391.839 69.4405 391.839L69.4384 391.837Z" fill="black"/>
<path d="M24.7748 391.837C24.7748 391.837 24.7555 391.837 24.7449 391.837C24.4818 391.822 24.2808 391.596 24.2979 391.333C25.3094 374.465 26.1691 359.416 26.5904 351.949C26.9625 345.347 27.1871 341.303 27.1871 341.303C27.1999 341.057 27.3988 340.863 27.6426 340.852L119.184 336.84C119.316 336.834 119.445 336.885 119.539 336.977C119.633 337.069 119.684 337.198 119.682 337.33C119.682 337.413 119.475 345.734 119.271 357.658C119.064 369.948 118.931 381.288 118.88 391.365C118.88 391.628 118.664 391.84 118.403 391.84H118.401C118.138 391.84 117.924 391.624 117.926 391.361C117.978 381.28 118.11 369.935 118.318 357.643C118.493 347.392 118.668 339.802 118.715 337.818L28.1152 341.789C28.0489 342.995 27.8436 346.662 27.5421 352.004C27.1208 359.472 26.2611 374.52 25.2496 391.39C25.2346 391.645 25.025 391.84 24.7727 391.84L24.7748 391.837Z" fill="black"/>
<path d="M126.339 210.356C127.981 210.228 136.037 226.726 161.247 226.033C186.458 225.343 206.685 197.132 206.685 197.132C206.685 197.132 215.391 182.451 221.999 177.144C228.607 171.836 229.642 171.137 229.642 171.137C229.642 171.137 231.714 173.897 229.642 177.144C227.57 180.392 221.851 186.467 221.851 186.467C221.851 186.467 228.151 189.927 225.311 197.132C222.044 205.418 212.833 204.753 212.833 204.753C212.833 204.753 194.14 287.508 116.891 248.183L126.341 210.356H126.339Z" fill="white"/>
<path d="M155.199 259.264C143.499 259.264 130.618 255.71 116.675 248.612C116.476 248.512 116.373 248.287 116.429 248.071L125.879 210.244C125.929 210.045 126.1 209.9 126.305 209.883C126.878 209.84 127.43 210.451 128.636 211.794C132.475 216.076 141.463 226.109 161.238 225.558C185.926 224.882 206.099 197.135 206.3 196.855C206.634 196.288 215.104 182.074 221.704 176.773C228.252 171.514 229.337 170.77 229.379 170.742C229.591 170.599 229.875 170.648 230.029 170.851C230.053 170.881 232.273 173.916 230.051 177.404C228.269 180.194 223.928 184.944 222.594 186.381C224.091 187.442 228.227 191.06 225.761 197.311C222.822 204.757 215.186 205.242 213.252 205.244C213.237 205.244 213.225 205.244 213.212 205.244C212.752 207.085 210.545 215.336 205.675 224.743C200.588 234.573 191.467 247.725 176.916 254.557C170.225 257.699 162.975 259.266 155.203 259.266L155.199 259.264ZM117.447 247.932C140.233 259.452 160.103 261.39 176.506 253.689C203.913 240.824 212.288 205.011 212.369 204.65C212.421 204.419 212.637 204.261 212.87 204.28C213.231 204.305 221.772 204.814 224.869 196.96C227.525 190.224 221.867 187.022 221.625 186.89C221.494 186.819 221.407 186.691 221.383 186.546C221.36 186.4 221.405 186.25 221.507 186.143C221.565 186.084 227.221 180.064 229.245 176.89C230.673 174.649 229.944 172.658 229.51 171.833C228.789 172.374 226.903 173.826 222.303 177.521C215.84 182.713 207.187 197.236 207.1 197.381C206.873 197.7 186.422 225.827 161.264 226.516C160.736 226.531 160.212 226.537 159.699 226.537C140.567 226.537 131.748 216.7 127.924 212.434C127.458 211.914 126.981 211.384 126.654 211.08L117.447 247.934V247.932Z" fill="black"/>
<path d="M1.39062 248.183C1.39062 248.183 8.95685 199.354 35.6846 187.34C62.4145 175.326 98.5732 176.996 108.545 182.996C118.517 188.997 144.507 216.123 144.507 216.123L121.541 248.185C121.541 248.185 126.789 334.492 122.641 357.275C122.641 357.275 97.0912 360.254 86.2551 355.988C75.4191 351.719 39.7885 345.742 22.757 353.565L25.8515 244.296L1.39062 248.183Z" fill="black"/>
<path d="M104.602 358.777C97.8416 358.777 90.6966 358.247 86.0816 356.431C75.3909 352.221 40.032 346.156 22.9577 354C22.808 354.068 22.6326 354.055 22.4958 353.963C22.3589 353.871 22.2776 353.718 22.2819 353.551L25.3614 244.859L1.4673 248.657C1.3176 248.683 1.16362 248.631 1.05456 248.524C0.945489 248.417 0.896302 248.263 0.919826 248.112C0.939073 247.99 2.87875 235.698 8.06904 222.097C12.8744 209.504 21.5334 193.176 35.4897 186.904C47.5041 181.505 62.7392 178.318 78.3892 177.936C91.6226 177.611 103.558 179.437 108.793 182.587C118.705 188.551 143.791 214.681 144.854 215.791C145.012 215.955 145.031 216.212 144.896 216.398L122.029 248.321C122.287 252.641 127.136 335.256 123.111 357.355C123.072 357.562 122.905 357.721 122.696 357.744C122.095 357.815 113.697 358.773 104.602 358.773V358.777ZM45.9151 349.265C62.0335 349.265 79.4478 352.792 86.4323 355.542C96.3488 359.446 119.125 357.173 122.234 356.84C126.212 333.847 121.118 249.072 121.066 248.214C121.06 248.105 121.09 247.996 121.154 247.906L143.889 216.167C141.075 213.248 117.557 188.974 108.301 183.406C103.209 180.344 91.4793 178.573 78.4127 178.892C62.8868 179.272 47.7821 182.429 35.8832 187.777C11.3581 198.801 3.00065 241.79 1.97628 247.609L25.7806 243.824C25.9217 243.8 26.065 243.843 26.1698 243.937C26.2767 244.031 26.3366 244.168 26.3323 244.309L23.2592 352.821C29.3135 350.24 37.4336 349.265 45.9151 349.265Z" fill="white"/>
<path d="M46.2354 331.525C46.0087 331.525 45.8055 331.362 45.7649 331.129C45.72 330.87 45.8932 330.622 46.152 330.575C67.4713 326.807 80.6876 317.282 88.0207 309.954C95.9505 302.029 98.8761 294.931 98.906 294.861C99.0044 294.615 99.2845 294.499 99.5283 294.598C99.7721 294.696 99.8919 294.974 99.7914 295.22C99.7614 295.293 96.761 302.57 88.6965 310.63C81.2672 318.054 67.884 327.705 46.3188 331.516C46.291 331.52 46.2632 331.522 46.2354 331.522V331.525Z" fill="black"/>
<path d="M119.608 282.314H67.5938L83.8853 224.219H135.897L119.608 282.314Z" fill="white"/>
<path d="M119.607 282.792H67.5948C67.4451 282.792 67.3039 282.721 67.2141 282.603C67.1243 282.484 67.0944 282.33 67.135 282.186L83.4266 224.091C83.4843 223.885 83.6725 223.742 83.8863 223.742H135.898C136.048 223.742 136.189 223.813 136.279 223.93C136.369 224.05 136.399 224.204 136.358 224.347L120.067 282.443C120.009 282.648 119.821 282.792 119.607 282.792ZM68.2235 281.836H119.243L135.267 224.696H84.2478L68.2235 281.836Z" fill="black"/>
<path d="M4.73275 247.655L31.8091 242.914C31.8091 242.914 28.5948 281.208 81.8514 260.612C81.8514 260.612 79.8882 254.881 80.1641 248.185C80.4421 241.49 84.4476 247.969 85.0079 253.41C85.5682 258.85 98.0724 256.643 105.587 254.498C113.102 252.353 122.965 253.758 105.587 263.343C88.2093 272.927 84.4027 268.653 84.4027 268.653C84.4027 268.653 62.2109 299.703 34.5999 293.108C0.637405 284.993 4.73275 247.655 4.73275 247.655Z" fill="white"/>
<path d="M42.3169 294.491C39.7742 294.491 37.1587 294.207 34.4919 293.569C16.7291 289.327 9.45368 277.039 6.4768 267.478C3.26254 257.154 4.25056 247.695 4.25911 247.601C4.28264 247.389 4.44303 247.22 4.65261 247.182L31.7289 242.441C31.8722 242.415 32.0241 242.458 32.1331 242.559C32.2422 242.659 32.2999 242.804 32.2871 242.95C32.2764 243.074 31.3632 255.383 40.2019 261.995C48.4482 268.164 62.2633 267.602 81.2623 260.325C80.8089 258.847 79.4531 253.888 79.6904 248.163C79.7247 247.355 79.8252 244.896 81.2195 244.853C81.2302 244.853 81.2409 244.853 81.2495 244.853C83.0309 244.853 85.0967 249.586 85.4859 253.358C85.5693 254.16 85.95 254.782 86.6536 255.257C89.8336 257.41 98.7707 255.945 105.458 254.036C109.128 252.988 114.707 252.509 115.62 254.72C116.442 256.711 113.236 259.666 105.819 263.757C91.2344 271.802 85.9543 270.187 84.5043 269.317C83.2447 270.987 77.9582 277.708 70.1503 283.728C63.3882 288.942 53.5508 294.489 42.3191 294.489L42.3169 294.491ZM5.1787 248.061C5.03755 249.859 4.58418 258.206 7.39852 267.226C11.6243 280.771 20.8159 289.32 34.7144 292.641C37.2977 293.259 39.8405 293.537 42.3212 293.537C65.7363 293.54 83.8179 268.652 84.0167 268.374C84.1001 268.256 84.2349 268.182 84.3803 268.175C84.5321 268.169 84.6669 268.227 84.7631 268.336C84.7952 268.368 88.7152 272.108 105.36 262.925C114.891 257.667 114.949 255.599 114.739 255.09C114.217 253.824 109.919 253.762 105.723 254.959C102.222 255.958 90.4602 258.99 86.1211 256.052C85.1823 255.417 84.6498 254.545 84.5386 253.458C84.1279 249.481 82.0429 245.811 81.2601 245.811H81.2516C81.1211 245.815 80.7276 246.264 80.6485 248.206C80.3769 254.735 82.2909 260.4 82.3102 260.457C82.3936 260.699 82.2695 260.966 82.03 261.058C62.4814 268.618 48.2151 269.191 39.6266 262.758C31.53 256.694 31.2478 246.132 31.3119 243.487L5.18297 248.063L5.1787 248.061Z" fill="black"/>
<path d="M76.2451 165.087C73.9718 167.168 69.5257 169.71 66.0463 167.959C63.4565 166.655 62.0087 163.276 62.0985 159.403C60.8988 159.501 59.3269 159.416 58.2042 158.426C56.4762 156.899 56.7992 154.091 56.8676 152.243C57.1798 143.724 52.2291 142.415 53.4416 136.635C54.3933 132.09 57.9625 129.383 58.6298 128.876C62.0001 126.321 64.282 127.144 69.9492 125.66C79.4829 123.162 79.7866 119.054 86.0675 119.035C86.4311 119.035 94.9789 119.129 97.8809 125.034C100.24 129.837 97.4853 135.675 94.6346 138.741C90.9456 142.712 88.2959 140.749 84.5919 144.081C78.0907 149.927 82.9987 158.9 76.243 165.085L76.2451 165.087Z" fill="black"/>
<path d="M95.2741 149.884L94.8977 149.559C93.0115 147.934 91.0462 146.045 90.5457 143.606C88.4157 133.234 78.9162 129.47 78.4778 138.993C78.3666 141.396 69.59 141.272 70.6315 143.794C73.3474 150.369 73.4073 148.601 69.575 151.024C69.1409 151.041 68.711 151.137 68.3026 151.325C66.3372 152.241 65.6422 154.909 66.7478 157.283C67.4193 158.724 68.6041 159.717 69.868 160.078V170.469C69.868 174.363 67.5134 177.872 63.9078 179.346L60.3984 180.781C60.3984 180.781 76.7584 191.458 93.3644 179.735L91.1488 178.74C87.2459 176.989 84.6839 173.166 84.5492 168.891L84.5321 166.859C85.6484 166.958 86.7305 166.883 87.7293 166.592C92.3742 165.24 93.9161 159.89 93.127 153.237L95.0175 152.221C95.9007 151.747 96.0333 150.536 95.2741 149.882V149.884Z" fill="white"/>
<path d="M76.5707 185.676C67.1888 185.676 60.2449 181.254 60.138 181.183C59.9883 181.085 59.907 180.914 59.9241 180.739C59.9412 180.561 60.0546 180.409 60.2192 180.341L63.7286 178.906C67.1696 177.499 69.3937 174.188 69.3937 170.472V160.427C68.0934 159.944 66.9621 158.868 66.3184 157.489C65.7367 156.24 65.5913 154.872 65.9142 153.64C66.2436 152.374 67.022 151.401 68.1041 150.896C68.5126 150.706 68.9574 150.59 69.4279 150.556C70.0759 150.152 70.6062 149.868 71.0361 149.639C71.8209 149.22 72.0754 149.066 72.0968 148.852C72.1332 148.488 71.7846 147.686 71.2072 146.358C70.927 145.715 70.5891 144.934 70.1935 143.978C70.0267 143.576 70.0331 143.174 70.2063 142.817C70.6939 141.816 72.4283 141.331 74.2632 140.815C75.912 140.354 77.9672 139.778 78.0035 138.972C78.2366 133.891 80.8521 133.138 81.9663 133.051C85.2447 132.796 89.6223 136.72 91.0145 143.51C91.4914 145.832 93.4311 147.663 95.2104 149.198L95.5868 149.521C96.0615 149.932 96.3053 150.55 96.2369 151.172C96.1685 151.797 95.7963 152.346 95.2446 152.643L93.6385 153.507C94.4298 160.823 92.334 165.752 87.8644 167.052C86.9919 167.307 86.0381 167.414 85.0159 167.371L85.0287 168.889C85.157 172.942 87.6356 176.643 91.346 178.307L93.5616 179.301C93.7177 179.372 93.8246 179.52 93.8417 179.691C93.8588 179.862 93.7818 180.029 93.6428 180.127C87.7019 184.32 81.7631 185.674 76.5728 185.674L76.5707 185.676ZM61.4789 180.858C64.907 182.732 78.5638 189.061 92.3939 179.825L90.9525 179.18C86.9106 177.368 84.2096 173.335 84.0706 168.909L84.0514 166.866C84.0514 166.732 84.107 166.603 84.2054 166.511C84.3037 166.419 84.4342 166.372 84.571 166.387C85.6681 166.486 86.6861 166.4 87.5928 166.137C91.6347 164.961 93.4781 160.282 92.6484 153.298C92.6249 153.103 92.7232 152.913 92.8965 152.821L94.7869 151.805C95.0671 151.655 95.2467 151.388 95.2831 151.072C95.3173 150.755 95.1997 150.456 94.9602 150.248L94.5838 149.925C92.6847 148.287 90.6125 146.322 90.0757 143.707C88.8268 137.625 84.9153 133.789 82.0368 134.007C80.2169 134.15 79.0921 135.976 78.953 139.019C78.8846 140.514 76.7632 141.108 74.5155 141.739C73.1084 142.133 71.359 142.625 71.0596 143.238C71.0233 143.313 70.9912 143.424 71.0703 143.617C71.4617 144.566 71.7996 145.343 72.0776 145.982C73.3842 148.993 73.5532 149.378 71.4809 150.486C71.0425 150.721 70.495 151.012 69.8278 151.433C69.7572 151.478 69.676 151.504 69.5926 151.506C69.2012 151.523 68.8355 151.608 68.5019 151.764C67.6828 152.145 67.0904 152.898 66.8338 153.884C66.5686 154.902 66.6905 156.039 67.1803 157.087C67.7641 158.338 68.8184 159.288 69.9989 159.623C70.2042 159.681 70.3453 159.869 70.3453 160.083V170.474C70.3453 174.582 67.8881 178.239 64.0879 179.793L61.4767 180.86L61.4789 180.858Z" fill="black"/>
<path d="M84.5292 167.339C84.5057 167.339 84.4801 167.339 84.4565 167.332C77.8569 166.321 74.8972 161.293 74.7753 161.082C74.6427 160.853 74.7218 160.562 74.9506 160.432C75.1795 160.299 75.4703 160.378 75.6029 160.607C75.6307 160.656 78.4707 165.45 84.5998 166.391C84.8607 166.432 85.0404 166.676 84.9997 166.937C84.9634 167.174 84.7602 167.343 84.5292 167.343V167.339Z" fill="black"/>
<path d="M137.541 106.879C144.382 100.616 145.008 90.1662 138.939 83.5394C132.871 76.9125 122.406 76.618 115.566 82.8815C108.725 89.1451 108.099 99.5948 114.167 106.222C120.236 112.848 130.701 113.143 137.541 106.879Z" fill="white"/>
<path d="M126.71 112.14C120.326 112.14 114.118 108.802 110.885 102.96C108.072 97.8786 108.036 91.8117 110.793 86.7307C110.919 86.4998 111.207 86.4121 111.441 86.5383C111.674 86.6644 111.759 86.9531 111.633 87.1862C109.035 91.9785 109.069 97.7032 111.723 102.498C116.128 110.457 126.368 113.504 134.548 109.292C138.536 107.236 141.434 103.791 142.711 99.5893C143.966 95.4535 143.493 91.0718 141.378 87.2525C136.973 79.2932 126.733 76.2458 118.553 80.4586C118.318 80.5805 118.032 80.4886 117.91 80.2533C117.788 80.0181 117.882 79.7315 118.115 79.6096C126.748 75.1616 137.559 78.3822 142.212 86.7885C144.454 90.8366 144.954 95.4813 143.622 99.8652C142.27 104.317 139.201 107.966 134.982 110.141C132.349 111.498 129.511 112.14 126.71 112.14Z" fill="black"/>
<path d="M123.01 104.254L123.544 102.011C121.985 101.613 120.559 100.873 119.789 100.167L121.153 97.5499C122.011 98.2984 123.281 99.0811 124.81 99.3976C126.151 99.6756 127.193 99.3462 127.417 98.401C127.631 97.5029 127.013 96.7822 125.413 95.8306C123.1 94.4598 121.665 92.9244 122.21 90.632C122.706 88.5534 124.552 87.2254 127.186 87.2511L127.721 85.0078L130.026 85.4847L129.53 87.5633C131.089 87.961 132.069 88.5106 132.755 89.0474L131.438 91.575C130.888 91.188 129.937 90.4224 128.243 90.0717C126.714 89.7552 126.064 90.3133 125.905 90.9763C125.719 91.7547 126.425 92.4219 128.243 93.5916C130.805 95.1634 131.624 96.6945 131.117 98.8202C130.617 100.922 128.707 102.411 125.89 102.323L125.317 104.731L123.012 104.254H123.01Z" fill="black"/>
<path d="M174.123 114.713C179.936 111.521 182.142 104.368 179.049 98.7366C175.957 93.1048 168.737 91.1268 162.924 94.3185C157.111 97.5102 154.905 104.663 157.998 110.295C161.09 115.927 168.31 117.905 174.123 114.713Z" fill="white"/>
<path d="M168.175 117.095C166.336 117.095 164.477 116.701 162.732 115.874C159.71 114.439 157.461 111.92 156.396 108.783C155.316 105.596 155.581 102.16 157.144 99.106C160.343 92.8617 168.049 90.2036 174.319 93.1824C177.856 94.8633 180.3 98.5286 180.861 102.987C180.893 103.248 180.709 103.488 180.446 103.522C180.189 103.552 179.945 103.37 179.913 103.107C179.385 98.9114 177.197 95.6075 173.908 94.0464C168.098 91.2856 160.959 93.7513 157.993 99.5422C156.547 102.365 156.301 105.536 157.298 108.475C158.28 111.366 160.354 113.686 163.141 115.01C168.951 117.771 176.09 115.305 179.056 109.514C179.176 109.279 179.464 109.185 179.699 109.306C179.935 109.426 180.027 109.715 179.907 109.95C177.599 114.456 172.944 117.095 168.175 117.095Z" fill="black"/>
<path d="M168.488 111.663L168.287 110.027C167.143 110.149 166.003 110.008 165.31 109.728L165.571 107.634C166.332 107.921 167.378 108.131 168.482 107.962C169.448 107.814 170.064 107.333 169.981 106.644C169.899 105.99 169.307 105.658 167.998 105.421C166.106 105.079 164.76 104.407 164.555 102.737C164.369 101.221 165.276 99.8718 167.047 99.2302L166.846 97.5943L168.509 97.3398L168.695 98.856C169.84 98.7341 170.633 98.856 171.225 99.0485L170.973 101.071C170.509 100.95 169.679 100.674 168.458 100.86C167.355 101.029 167.057 101.565 167.117 102.049C167.188 102.618 167.825 102.887 169.335 103.218C171.443 103.633 172.374 104.455 172.564 106.005C172.752 107.538 171.843 109.012 169.936 109.655L170.152 111.413L168.488 111.668V111.663Z" fill="black"/>
<path d="M186.227 143.268C187.343 136.071 182.594 129.36 175.62 128.279C168.646 127.198 162.089 132.157 160.973 139.354C159.857 146.552 164.606 153.263 171.58 154.344C178.554 155.424 185.112 150.466 186.227 143.268Z" fill="white"/>
<path d="M173.483 155.388C172.041 155.388 170.593 155.15 169.19 154.671C165.705 153.482 162.901 150.959 161.297 147.563C158.012 140.617 160.85 132.16 167.623 128.706C171.718 126.617 176.517 126.754 180.463 129.07C180.689 129.202 180.766 129.495 180.634 129.724C180.501 129.951 180.208 130.028 179.979 129.895C176.318 127.744 171.862 127.62 168.057 129.559C161.74 132.78 159.094 140.675 162.161 147.157C163.656 150.317 166.263 152.665 169.501 153.769C172.687 154.855 176.111 154.603 179.141 153.059C185.458 149.838 188.104 141.943 185.037 135.461C184.924 135.222 185.026 134.937 185.264 134.824C185.501 134.711 185.788 134.813 185.899 135.051C189.184 141.997 186.346 150.456 179.573 153.908C177.646 154.891 175.568 155.388 173.483 155.388Z" fill="black"/>
<path d="M176.036 148.794L175.262 147.156C174.111 147.677 172.873 147.926 172.054 147.87L171.605 145.597C172.499 145.633 173.66 145.49 174.753 144.934C175.711 144.446 176.186 143.732 175.861 143.043C175.55 142.389 174.817 142.248 173.371 142.451C171.28 142.748 169.646 142.511 168.855 140.839C168.138 139.322 168.617 137.601 170.243 136.322L169.468 134.684L171.115 133.844L171.831 135.36C172.982 134.838 173.852 134.693 174.537 134.686L174.971 136.883C174.445 136.917 173.485 136.912 172.274 137.53C171.181 138.086 171.057 138.749 171.286 139.233C171.556 139.802 172.315 139.864 174.004 139.686C176.346 139.391 177.601 139.928 178.335 141.478C179.06 143.011 178.621 144.861 176.853 146.191L177.685 147.949L176.038 148.789L176.036 148.794Z" fill="black"/>
<path d="M69.8749 74.0014C69.7851 74.0014 69.6953 73.9757 69.614 73.9244C69.3938 73.779 69.3317 73.4839 69.4772 73.2636L70.8694 71.138C71.0148 70.9177 71.3099 70.8557 71.5302 70.999C71.7505 71.1444 71.8125 71.4395 71.667 71.6598L70.2748 73.7854C70.1829 73.9244 70.031 74.0014 69.8749 74.0014Z" fill="black"/>
<path d="M64.9999 81.4389C64.9101 81.4389 64.8203 81.4132 64.739 81.3619C64.5188 81.2165 64.4567 80.9214 64.6022 80.7011L65.9944 78.5755C66.1398 78.3552 66.4349 78.2932 66.6552 78.4365C66.8754 78.5819 66.9375 78.877 66.792 79.0973L65.3998 81.2229C65.3079 81.3619 65.156 81.4389 64.9999 81.4389Z" fill="black"/>
<path d="M65.5362 74.9096C65.4442 74.9096 65.3523 74.884 65.2689 74.8284L63.1945 73.4277C62.9763 73.2801 62.9186 72.9829 63.0661 72.7648C63.2137 72.5466 63.511 72.4889 63.7291 72.6364L65.8035 74.0371C66.0216 74.1847 66.0794 74.4819 65.9318 74.7001C65.8399 74.8369 65.688 74.9096 65.5362 74.9096Z" fill="black"/>
<path d="M72.8018 79.8081C72.7098 79.8081 72.6179 79.7824 72.5345 79.7268L70.4601 78.3261C70.2419 78.1786 70.1842 77.8813 70.3318 77.6632C70.4793 77.4451 70.7766 77.3873 70.9947 77.5349L73.0691 78.9356C73.2873 79.0831 73.345 79.3804 73.1974 79.5985C73.1055 79.7354 72.9536 79.8081 72.8018 79.8081Z" fill="black"/>
<path d="M102.73 49.3361C102.258 49.3361 101.787 49.242 101.338 49.0516C100.431 48.6689 99.7278 47.9482 99.36 47.0222C98.6072 45.1297 99.5054 42.9634 101.364 42.1936C102.258 41.8236 103.239 41.8258 104.131 42.2021C105.038 42.5849 105.739 43.3056 106.109 44.2315C106.862 46.1241 105.964 48.2903 104.105 49.0602C103.663 49.2441 103.197 49.3361 102.73 49.3361ZM102.739 42.5443C102.354 42.5443 101.971 42.6213 101.603 42.7731C100.061 43.4125 99.3172 45.2152 99.9438 46.7913C100.25 47.5611 100.831 48.1578 101.582 48.4742C102.318 48.7843 103.128 48.7865 103.864 48.4807C105.406 47.8413 106.152 46.0385 105.523 44.4625C105.218 43.6926 104.636 43.096 103.885 42.7795C103.515 42.6234 103.126 42.5443 102.737 42.5443H102.739Z" fill="black"/>
<path d="M188.417 63.5647C187.964 63.5647 187.511 63.4791 187.074 63.3102C186.131 62.9424 185.389 62.2196 184.985 61.2786C184.159 59.3562 185.023 57.1065 186.91 56.2618C187.818 55.8555 188.832 55.8298 189.758 56.1912C190.701 56.5591 191.443 57.2819 191.85 58.2228C192.675 60.1453 191.811 62.3949 189.925 63.2396C189.442 63.4556 188.931 63.5647 188.419 63.5647H188.417ZM188.417 56.8927C188.037 56.8927 187.658 56.9739 187.301 57.1322C185.887 57.7652 185.242 59.4545 185.864 60.9001C186.168 61.6058 186.721 62.1447 187.423 62.4185C188.109 62.6879 188.86 62.6686 189.534 62.3671C190.947 61.7363 191.593 60.0448 190.971 58.5991C190.667 57.8935 190.113 57.3546 189.41 57.0808C189.087 56.9547 188.751 56.8927 188.415 56.8927H188.417Z" fill="black"/>
<path d="M248.829 3.89586C248.675 3.89586 248.525 3.82316 248.433 3.68416C248.286 3.46603 248.344 3.16879 248.562 3.02123L250.668 1.60129C250.886 1.45374 251.184 1.51147 251.331 1.7296C251.479 1.94772 251.421 2.24497 251.203 2.39252L249.096 3.81246C249.015 3.86806 248.921 3.89373 248.829 3.89373V3.89586Z" fill="black"/>
<path d="M241.454 8.86071C241.3 8.86071 241.15 8.788 241.058 8.649C240.911 8.43088 240.969 8.13363 241.187 7.98607L243.293 6.56613C243.511 6.41858 243.809 6.47632 243.956 6.69444C244.104 6.91257 244.046 7.20981 243.828 7.35737L241.721 8.77731C241.64 8.83291 241.546 8.85857 241.454 8.85857V8.86071Z" fill="black"/>
<path d="M244.482 3.05014C244.326 3.05014 244.174 2.97315 244.082 2.83415L242.711 0.738455C242.566 0.518193 242.628 0.223085 242.85 0.0776692C243.071 -0.065608 243.368 -0.00573094 243.511 0.216669L244.882 2.31237C245.027 2.53263 244.965 2.82774 244.743 2.97315C244.662 3.02661 244.572 3.05014 244.482 3.05014Z" fill="black"/>
<path d="M249.279 10.3822C249.123 10.3822 248.971 10.3052 248.879 10.1662L247.508 8.07049C247.363 7.85022 247.425 7.55512 247.647 7.4097C247.868 7.26642 248.165 7.3263 248.308 7.5487L249.679 9.6444C249.824 9.86466 249.762 10.1598 249.54 10.3052C249.459 10.3586 249.369 10.3822 249.279 10.3822Z" fill="black"/>
<path d="M135.134 53.2121C135 53.2121 134.865 53.1565 134.771 53.0453C134.6 52.8443 134.623 52.5427 134.822 52.3717L179.4 14.2043C179.601 14.0333 179.903 14.0568 180.074 14.2557C180.245 14.4567 180.222 14.7582 180.023 14.9293L135.444 53.0966C135.355 53.1736 135.243 53.2121 135.134 53.2121Z" fill="black"/>
<path d="M197.744 37.5364C197.609 37.5364 197.476 37.4808 197.38 37.3696C197.209 37.1686 197.233 36.8671 197.431 36.696L225.181 12.9355C225.382 12.7644 225.682 12.7858 225.855 12.9868C226.026 13.1879 226.003 13.4894 225.804 13.6605L198.054 37.4209C197.964 37.4979 197.853 37.5364 197.744 37.5364Z" fill="black"/>
</g>
<defs>
<clipPath id="clip0_12631_2255">
<rect width="436.17" height="400" fill="white" transform="translate(0.914062)"/>
</clipPath>
</defs>
</svg>
