<svg width="409" height="410" viewBox="0 0 409 410" fill="none" xmlns="http://www.w3.org/2000/svg">
<g clip-path="url(#clip0_14003_5679)">
<path d="M334.518 314.653H58.3359V124.676L340.813 127.197L340.793 307.848C340.799 311.607 337.988 314.653 334.518 314.653Z" fill="#F5F5F5"/>
<path d="M334.514 315.157H58.3317C58.2655 315.157 58.1999 315.145 58.1387 315.119C58.0774 315.094 58.0218 315.057 57.975 315.01C57.9281 314.963 57.891 314.908 57.8658 314.846C57.8406 314.785 57.8278 314.719 57.8281 314.653V124.676C57.828 124.61 57.8411 124.544 57.8667 124.482C57.8922 124.421 57.9297 124.365 57.9769 124.319C58.0759 124.229 58.2031 124.177 58.3363 124.172L340.813 126.693C340.946 126.694 341.073 126.748 341.167 126.842C341.26 126.937 341.312 127.064 341.312 127.197L341.294 307.848C341.306 311.88 338.257 315.157 334.514 315.157ZM58.8285 314.149H334.507C337.693 314.149 340.285 311.323 340.285 307.848L340.305 127.708L58.8285 125.196V314.149Z" fill="black"/>
<path d="M204.269 153.768L42.1993 152.957C41.6784 152.954 41.1666 152.82 40.711 152.567C40.2554 152.314 39.8705 151.951 39.5918 151.51C39.3131 151.069 39.1494 150.566 39.1158 150.045C39.0823 149.525 39.1799 149.004 39.3997 148.531L87.0316 83.5388C87.548 82.8334 88.2262 82.2626 89.009 81.8746C89.7919 81.4865 90.6564 81.2924 91.5298 81.3088C110.61 81.6824 222.628 78.5586 222.628 78.5586L204.269 153.768Z" fill="black"/>
<path d="M119.335 229.804H100.15C99.5902 229.802 99.0541 229.579 98.6586 229.183C98.263 228.787 98.0403 228.251 98.0391 227.69V198.295C98.0397 197.735 98.2622 197.197 98.6578 196.801C99.0534 196.404 99.5898 196.181 100.15 196.18H119.335C119.895 196.18 120.432 196.403 120.828 196.8C121.224 197.197 121.447 197.734 121.448 198.295V227.69C121.446 228.251 121.223 228.788 120.827 229.184C120.431 229.58 119.895 229.803 119.335 229.804ZM100.15 197.19C99.8572 197.191 99.5769 197.308 99.3701 197.515C99.1633 197.722 99.0469 198.002 99.0463 198.295V227.69C99.0475 227.983 99.1641 228.263 99.3708 228.47C99.5774 228.677 99.8574 228.794 100.15 228.795H119.335C119.627 228.795 119.907 228.678 120.114 228.471C120.321 228.264 120.437 227.983 120.438 227.69V198.295C120.438 198.002 120.322 197.721 120.115 197.514C119.908 197.307 119.627 197.19 119.335 197.19H100.15Z" fill="black"/>
<path d="M92.8932 229.804H74.0332C73.4301 229.804 72.8517 229.564 72.4251 229.137C71.9984 228.71 71.7584 228.132 71.7578 227.528V198.458C71.7614 197.855 72.0023 197.277 72.4282 196.851C72.8542 196.424 73.4308 196.183 74.0332 196.18H92.8932C93.4963 196.18 94.0745 196.421 94.5007 196.848C94.9269 197.275 95.1663 197.854 95.1663 198.458V227.528C95.1657 228.131 94.9261 228.71 94.4999 229.136C94.0737 229.563 93.4959 229.803 92.8932 229.804ZM74.0332 197.19C73.6976 197.191 73.376 197.325 73.1388 197.562C72.9015 197.8 72.7679 198.122 72.7673 198.458V227.528C72.7679 227.864 72.9015 228.186 73.1388 228.423C73.376 228.661 73.6976 228.795 74.0332 228.795H92.8932C93.2288 228.795 93.5504 228.661 93.7877 228.423C94.025 228.186 94.1585 227.864 94.1591 227.528V198.458C94.1585 198.122 94.025 197.8 93.7877 197.562C93.5504 197.325 93.2288 197.191 92.8932 197.19H74.0332Z" fill="black"/>
<path d="M119.795 266.042H99.6941C99.2552 266.042 98.8342 265.867 98.5238 265.557C98.2134 265.246 98.0391 264.824 98.0391 264.385V234.073C98.0397 233.634 98.2143 233.213 98.5246 232.902C98.8349 232.592 99.2556 232.418 99.6941 232.418H119.795C120.233 232.418 120.654 232.592 120.964 232.902C121.275 233.213 121.449 233.634 121.45 234.073V264.385C121.45 264.824 121.275 265.246 120.965 265.557C120.655 265.867 120.234 266.042 119.795 266.042ZM99.6941 233.426C99.6093 233.426 99.5254 233.443 99.4471 233.476C99.3687 233.508 99.2976 233.556 99.2376 233.616C99.1777 233.676 99.1301 233.747 99.0977 233.825C99.0653 233.904 99.0486 233.988 99.0486 234.073V264.385C99.0486 264.556 99.1166 264.721 99.2376 264.842C99.3587 264.963 99.5229 265.031 99.6941 265.031H119.795C119.88 265.031 119.964 265.014 120.042 264.982C120.12 264.949 120.191 264.902 120.251 264.842C120.311 264.782 120.359 264.711 120.391 264.632C120.424 264.554 120.44 264.47 120.44 264.385V234.073C120.44 233.988 120.424 233.904 120.391 233.825C120.359 233.747 120.311 233.676 120.251 233.616C120.191 233.556 120.12 233.508 120.042 233.476C119.964 233.443 119.88 233.426 119.795 233.426H99.6941Z" fill="black"/>
<path d="M92.8475 266.042H74.0767C73.4617 266.041 72.8722 265.795 72.4375 265.36C72.0029 264.924 71.7584 264.334 71.7578 263.718V234.74C71.7584 234.124 72.0029 233.534 72.4377 233.099C72.8724 232.663 73.4619 232.419 74.0767 232.418H92.8475C93.4623 232.419 94.0517 232.663 94.4865 233.099C94.9212 233.534 95.1657 234.124 95.1663 234.74V263.718C95.1657 264.334 94.9213 264.924 94.4866 265.36C94.0519 265.795 93.4625 266.041 92.8475 266.042ZM74.0767 233.426C73.7292 233.427 73.3962 233.566 73.1507 233.812C72.9052 234.058 72.7673 234.392 72.7673 234.74V263.718C72.7673 264.066 72.9052 264.399 73.1507 264.646C73.3962 264.892 73.7292 265.031 74.0767 265.031H92.8475C93.1949 265.031 93.528 264.892 93.7735 264.646C94.019 264.399 94.1568 264.066 94.1568 263.718V234.74C94.1568 234.392 94.019 234.058 93.7735 233.812C93.528 233.566 93.1949 233.427 92.8475 233.426H74.0767Z" fill="black"/>
<path d="M139.697 309.427L138.57 129.58L247.532 80.8828L351.637 130.298L349.577 312.244C349.513 314.705 347.391 316.662 344.808 316.642L145.477 314.983C142.276 314.957 139.697 312.478 139.697 309.427Z" fill="#F5F5F5"/>
<path d="M344.851 317.149H344.805L145.473 315.492C142.014 315.463 139.199 312.742 139.197 309.435L138.07 129.588C138.071 129.491 138.099 129.397 138.152 129.315C138.205 129.234 138.28 129.17 138.368 129.13L247.33 80.4323C247.396 80.4023 247.469 80.3867 247.542 80.3867C247.615 80.3867 247.687 80.4023 247.753 80.4323L351.856 129.845C351.942 129.886 352.015 129.951 352.066 130.032C352.117 130.113 352.144 130.207 352.144 130.303L350.084 312.252C350.008 314.963 347.671 317.147 344.851 317.149ZM139.08 129.904L140.206 309.421C140.206 312.183 142.573 314.45 145.471 314.463L344.803 316.123H344.839C347.129 316.123 349.006 314.378 349.063 312.226L351.123 130.608L247.536 81.4407L139.08 129.904Z" fill="black"/>
<path d="M333.251 230.844H314.064C313.504 230.843 312.968 230.62 312.573 230.224C312.177 229.828 311.954 229.291 311.953 228.731V199.393C311.954 198.832 312.176 198.295 312.572 197.898C312.967 197.502 313.504 197.279 314.064 197.277H333.249C333.809 197.278 334.346 197.501 334.742 197.898C335.138 198.294 335.361 198.832 335.362 199.393V228.729C335.361 229.289 335.139 229.826 334.743 230.223C334.347 230.619 333.811 230.843 333.251 230.844ZM314.064 198.281C313.771 198.282 313.491 198.398 313.284 198.605C313.077 198.812 312.961 199.093 312.96 199.386V228.729C312.962 229.021 313.078 229.301 313.285 229.508C313.491 229.715 313.771 229.832 314.064 229.833H333.249C333.541 229.833 333.822 229.716 334.028 229.509C334.235 229.302 334.352 229.021 334.352 228.729V199.393C334.352 199.248 334.324 199.104 334.268 198.97C334.213 198.836 334.131 198.714 334.029 198.612C333.927 198.509 333.805 198.428 333.671 198.372C333.537 198.317 333.394 198.288 333.249 198.288L314.064 198.281Z" fill="black"/>
<path d="M306.815 230.843H287.955C287.352 230.843 286.774 230.603 286.347 230.177C285.92 229.75 285.68 229.171 285.68 228.567V199.548C285.683 198.945 285.924 198.367 286.35 197.941C286.776 197.514 287.353 197.273 287.955 197.27H306.815C307.418 197.27 307.996 197.51 308.423 197.938C308.849 198.365 309.088 198.944 309.088 199.548V228.567C309.088 229.171 308.848 229.749 308.422 230.176C307.996 230.602 307.418 230.842 306.815 230.843ZM287.955 198.28C287.62 198.281 287.298 198.415 287.061 198.652C286.823 198.89 286.69 199.212 286.689 199.548V228.567C286.69 228.903 286.823 229.225 287.061 229.463C287.298 229.7 287.62 229.834 287.955 229.835H306.815C307.151 229.834 307.472 229.7 307.71 229.463C307.947 229.225 308.08 228.903 308.081 228.567V199.548C308.08 199.212 307.947 198.89 307.71 198.652C307.472 198.415 307.151 198.281 306.815 198.28H287.955Z" fill="black"/>
<path d="M333.711 267.025H313.608C313.17 267.025 312.749 266.851 312.439 266.54C312.128 266.23 311.954 265.809 311.953 265.37V235.106C311.953 234.667 312.127 234.245 312.438 233.935C312.748 233.624 313.169 233.449 313.608 233.449H333.709C334.148 233.45 334.568 233.625 334.879 233.935C335.189 234.246 335.363 234.667 335.364 235.106V265.37C335.363 265.809 335.188 266.229 334.879 266.539C334.569 266.849 334.149 267.024 333.711 267.025ZM313.608 234.455C313.437 234.455 313.273 234.523 313.152 234.645C313.031 234.766 312.963 234.93 312.963 235.102V265.366C312.963 265.45 312.979 265.534 313.012 265.613C313.044 265.691 313.092 265.762 313.152 265.822C313.212 265.882 313.283 265.929 313.361 265.961C313.44 265.994 313.523 266.01 313.608 266.01H333.709C333.794 266.01 333.877 265.994 333.956 265.961C334.034 265.929 334.105 265.882 334.165 265.822C334.225 265.762 334.273 265.691 334.305 265.613C334.338 265.534 334.354 265.45 334.354 265.366V235.106C334.354 234.935 334.286 234.77 334.165 234.649C334.044 234.528 333.88 234.46 333.709 234.46L313.608 234.455Z" fill="black"/>
<path d="M306.767 267.025H287.996C287.383 267.023 286.795 266.779 286.361 266.344C285.927 265.91 285.682 265.322 285.68 264.708V235.773C285.68 235.157 285.925 234.567 286.359 234.131C286.794 233.696 287.384 233.45 287.999 233.449H306.769C307.385 233.45 307.974 233.695 308.409 234.131C308.844 234.566 309.088 235.157 309.088 235.773V264.708C309.086 265.323 308.841 265.912 308.406 266.347C307.971 266.781 307.381 267.025 306.767 267.025ZM287.996 234.46C287.649 234.461 287.316 234.599 287.07 234.845C286.825 235.092 286.687 235.425 286.687 235.773V264.708C286.687 265.056 286.825 265.389 287.07 265.636C287.316 265.882 287.649 266.021 287.996 266.021H306.767C307.115 266.021 307.448 265.882 307.693 265.636C307.939 265.389 308.076 265.056 308.076 264.708V235.773C308.076 235.425 307.939 235.092 307.693 234.845C307.448 234.599 307.115 234.461 306.767 234.46H287.996Z" fill="black"/>
<path d="M267.632 137.027H248.449C247.889 137.026 247.352 136.803 246.955 136.406C246.559 136.01 246.337 135.472 246.336 134.911V111.779C246.337 111.219 246.559 110.681 246.955 110.284C247.352 109.888 247.889 109.665 248.449 109.664H267.632C268.192 109.665 268.729 109.888 269.125 110.284C269.521 110.681 269.744 111.219 269.744 111.779V134.911C269.744 135.472 269.521 136.01 269.125 136.406C268.729 136.803 268.192 137.026 267.632 137.027ZM248.449 110.67C248.156 110.67 247.876 110.787 247.669 110.994C247.462 111.201 247.345 111.482 247.345 111.775V134.911C247.345 135.204 247.462 135.485 247.669 135.692C247.876 135.899 248.156 136.016 248.449 136.016H267.632C267.777 136.016 267.92 135.987 268.054 135.932C268.188 135.876 268.309 135.795 268.412 135.692C268.514 135.59 268.596 135.468 268.651 135.334C268.706 135.2 268.735 135.056 268.735 134.911V111.779C268.735 111.486 268.619 111.205 268.412 110.998C268.205 110.791 267.924 110.675 267.632 110.675L248.449 110.67Z" fill="black"/>
<path d="M241.19 137.027H222.33C221.728 137.023 221.151 136.782 220.725 136.355C220.299 135.929 220.058 135.352 220.055 134.748V111.942C220.058 111.339 220.299 110.762 220.725 110.335C221.151 109.909 221.728 109.668 222.33 109.664H241.19C241.792 109.668 242.369 109.909 242.795 110.335C243.221 110.762 243.462 111.339 243.465 111.942V134.76C243.459 135.361 243.217 135.935 242.791 136.359C242.365 136.783 241.791 137.023 241.19 137.027ZM222.33 110.67C221.995 110.671 221.673 110.805 221.436 111.042C221.198 111.28 221.065 111.602 221.064 111.938V134.76C221.065 135.096 221.198 135.418 221.436 135.655C221.673 135.893 221.995 136.027 222.33 136.027H241.19C241.526 136.027 241.847 135.893 242.085 135.655C242.322 135.418 242.455 135.096 242.456 134.76V111.942C242.455 111.606 242.322 111.284 242.085 111.047C241.847 110.809 241.526 110.675 241.19 110.675L222.33 110.67Z" fill="black"/>
<path d="M268.092 166.306H247.989C247.551 166.305 247.131 166.13 246.821 165.82C246.511 165.51 246.337 165.089 246.336 164.651V140.6C246.337 140.161 246.511 139.741 246.821 139.431C247.131 139.12 247.551 138.946 247.989 138.945H268.092C268.53 138.946 268.95 139.12 269.26 139.431C269.57 139.741 269.744 140.161 269.744 140.6V164.651C269.744 165.089 269.57 165.51 269.26 165.82C268.95 166.13 268.53 166.305 268.092 166.306ZM247.989 139.949C247.818 139.949 247.654 140.017 247.533 140.138C247.412 140.258 247.344 140.422 247.343 140.593V164.651C247.344 164.822 247.412 164.986 247.533 165.107C247.654 165.228 247.818 165.297 247.989 165.297H268.092C268.263 165.297 268.426 165.228 268.547 165.107C268.667 164.986 268.735 164.822 268.735 164.651V140.6C268.735 140.429 268.667 140.265 268.547 140.145C268.426 140.024 268.262 139.956 268.092 139.956L247.989 139.949Z" fill="black"/>
<path d="M241.147 166.306H222.376C221.761 166.306 221.171 166.061 220.735 165.626C220.3 165.19 220.055 164.6 220.055 163.984V141.269C220.055 140.653 220.3 140.062 220.735 139.627C221.17 139.191 221.76 138.946 222.376 138.945H241.147C241.762 138.946 242.352 139.191 242.786 139.627C243.221 140.063 243.465 140.653 243.465 141.269V163.984C243.465 164.599 243.22 165.19 242.786 165.625C242.351 166.06 241.761 166.305 241.147 166.306ZM222.376 139.949C222.028 139.95 221.695 140.088 221.449 140.334C221.203 140.581 221.065 140.914 221.064 141.262V163.984C221.065 164.332 221.203 164.666 221.449 164.912C221.695 165.158 222.028 165.297 222.376 165.297H241.147C241.494 165.297 241.828 165.158 242.073 164.912C242.319 164.666 242.458 164.332 242.458 163.984V141.269C242.458 140.921 242.319 140.587 242.073 140.341C241.828 140.095 241.494 139.957 241.147 139.956L222.376 139.949Z" fill="black"/>
<path d="M199.574 230.79H180.386C179.827 230.79 179.29 230.567 178.894 230.171C178.498 229.775 178.275 229.238 178.273 228.677V199.279C178.274 198.719 178.497 198.181 178.893 197.784C179.289 197.388 179.826 197.165 180.386 197.164H199.571C200.131 197.165 200.668 197.389 201.063 197.785C201.459 198.182 201.681 198.719 201.682 199.279V228.675C201.681 229.235 201.459 229.772 201.064 230.168C200.669 230.565 200.133 230.788 199.574 230.79ZM180.386 198.175C180.094 198.175 179.813 198.291 179.606 198.498C179.399 198.705 179.283 198.986 179.283 199.279V228.675C179.284 228.967 179.4 229.248 179.607 229.454C179.814 229.661 180.094 229.777 180.386 229.777H199.571C199.863 229.777 200.143 229.66 200.35 229.454C200.557 229.247 200.674 228.967 200.675 228.675V199.279C200.674 198.987 200.558 198.706 200.351 198.499C200.144 198.292 199.864 198.175 199.571 198.175H180.386Z" fill="black"/>
<path d="M173.125 230.79H154.265C153.663 230.79 153.085 230.55 152.659 230.123C152.232 229.696 151.993 229.118 151.992 228.514V199.442C151.992 198.838 152.232 198.259 152.658 197.832C153.084 197.405 153.662 197.165 154.265 197.164H173.125C173.728 197.168 174.304 197.409 174.73 197.835C175.156 198.262 175.397 198.839 175.401 199.442V228.512C175.401 229.116 175.161 229.696 174.734 230.123C174.308 230.55 173.729 230.79 173.125 230.79ZM154.265 198.177C153.93 198.178 153.608 198.311 153.371 198.549C153.134 198.786 153 199.109 152.999 199.444V228.512C153 228.848 153.134 229.17 153.371 229.407C153.608 229.644 153.93 229.777 154.265 229.777H173.125C173.461 229.777 173.782 229.644 174.02 229.407C174.257 229.17 174.391 228.848 174.391 228.512V199.442C174.391 199.106 174.257 198.784 174.02 198.547C173.783 198.309 173.461 198.175 173.125 198.175L154.265 198.177Z" fill="black"/>
<path d="M200.029 267.024H179.926C179.488 267.023 179.068 266.849 178.758 266.539C178.448 266.228 178.274 265.808 178.273 265.369V235.057C178.274 234.618 178.448 234.198 178.758 233.888C179.068 233.577 179.488 233.403 179.926 233.402H200.029C200.467 233.403 200.887 233.577 201.197 233.888C201.507 234.198 201.681 234.618 201.682 235.057V265.369C201.681 265.808 201.507 266.228 201.197 266.539C200.887 266.849 200.467 267.023 200.029 267.024ZM179.926 234.411C179.755 234.411 179.592 234.48 179.471 234.601C179.351 234.722 179.283 234.886 179.283 235.057V265.369C179.283 265.54 179.351 265.704 179.471 265.825C179.592 265.947 179.755 266.015 179.926 266.015H200.029C200.2 266.015 200.364 265.947 200.484 265.825C200.605 265.704 200.672 265.54 200.672 265.369V235.057C200.672 234.886 200.605 234.722 200.484 234.601C200.364 234.48 200.2 234.411 200.029 234.411H179.926Z" fill="black"/>
<path d="M173.085 267.024H154.314C153.701 267.022 153.114 266.778 152.681 266.344C152.247 265.91 152.002 265.323 152 264.709V235.724C152.001 235.108 152.245 234.518 152.681 234.082C153.116 233.647 153.706 233.402 154.321 233.402H173.092C173.707 233.402 174.297 233.647 174.732 234.082C175.168 234.518 175.412 235.108 175.413 235.724V264.709C175.411 265.325 175.164 265.915 174.728 266.349C174.291 266.783 173.7 267.026 173.085 267.024ZM154.314 234.411C153.967 234.411 153.633 234.55 153.387 234.796C153.142 235.042 153.003 235.376 153.003 235.724V264.709C153.003 265.057 153.142 265.391 153.387 265.637C153.633 265.883 153.967 266.022 154.314 266.022H173.085C173.433 266.022 173.766 265.883 174.012 265.637C174.258 265.391 174.396 265.057 174.397 264.709V235.724C174.396 235.376 174.258 235.042 174.012 234.796C173.766 234.55 173.433 234.411 173.085 234.411H154.314Z" fill="black"/>
<path d="M247.196 63.9417L365.543 127.197C368.061 128.538 368.519 131.263 366.569 133.073L362.045 138.748C361.071 139.972 359.703 140.82 358.175 141.15C356.647 141.48 355.052 141.271 353.66 140.559L246.33 85.5585C245.976 85.3774 245.584 85.283 245.186 85.283C244.788 85.283 244.396 85.3774 244.041 85.5585L134.061 141.113C133.357 141.469 132.553 141.577 131.781 141.418C131.008 141.259 130.312 140.843 129.805 140.238L125.149 134.685C122.501 131.526 123.59 127.305 127.601 125.18L243.178 63.9417C243.797 63.6132 244.487 63.4414 245.187 63.4414C245.887 63.4414 246.577 63.6132 247.196 63.9417Z" fill="black"/>
<path d="M132.485 141.998C131.901 141.998 131.324 141.87 130.795 141.622C130.266 141.374 129.798 141.013 129.424 140.564L124.759 135.01C123.466 133.466 122.948 131.605 123.306 129.774C123.706 127.725 125.185 125.877 127.362 124.731L242.949 63.4838C243.64 63.1149 244.411 62.9219 245.194 62.9219C245.977 62.9219 246.749 63.1149 247.44 63.4838L365.803 126.739C367.202 127.489 368.092 128.687 368.276 130.026C368.433 131.263 367.966 132.462 366.962 133.406L362.461 139.053C361.41 140.366 359.939 141.276 358.296 141.63C356.653 141.983 354.939 141.759 353.442 140.995L246.108 86.0105C245.824 85.8658 245.51 85.7904 245.192 85.7904C244.874 85.7904 244.56 85.8658 244.276 86.0105L134.296 141.565C133.734 141.849 133.114 141.997 132.485 141.998ZM245.187 63.9422C244.571 63.9424 243.965 64.0935 243.42 64.3823L127.843 125.628C125.936 126.638 124.638 128.22 124.306 129.968C124.008 131.495 124.446 133.053 125.542 134.36L130.198 139.913C130.63 140.433 131.226 140.791 131.888 140.927C132.55 141.063 133.238 140.97 133.84 140.662L243.823 85.1007C244.249 84.8844 244.719 84.7717 245.196 84.7717C245.674 84.7717 246.144 84.8844 246.57 85.1007L353.9 140.096C355.189 140.751 356.664 140.943 358.077 140.637C359.49 140.332 360.755 139.55 361.66 138.421L366.181 132.744C366.197 132.724 366.214 132.705 366.234 132.689C367.014 131.969 367.378 131.068 367.261 130.152C367.131 129.141 366.421 128.222 365.313 127.631L246.966 64.3891C246.419 64.0957 245.808 63.9422 245.187 63.9422Z" fill="white"/>
<path d="M270.817 196.48H217.19C215.519 196.48 214.164 197.837 214.164 199.51V316.654C214.164 318.327 215.519 319.684 217.19 319.684H270.817C272.489 319.684 273.844 318.327 273.844 316.654V199.51C273.844 197.837 272.489 196.48 270.817 196.48Z" fill="white"/>
<path d="M270.821 320.188H217.196C216.26 320.188 215.362 319.815 214.7 319.153C214.038 318.49 213.665 317.592 213.664 316.654V199.511C213.665 198.573 214.038 197.675 214.7 197.012C215.362 196.35 216.26 195.977 217.196 195.977H270.821C271.757 195.978 272.654 196.351 273.316 197.013C273.977 197.676 274.35 198.574 274.351 199.511V316.654C274.35 317.591 273.977 318.49 273.316 319.152C272.654 319.815 271.757 320.187 270.821 320.188ZM217.196 196.987C216.528 196.987 215.888 197.253 215.416 197.726C214.943 198.198 214.678 198.84 214.678 199.508V316.652C214.678 317.321 214.943 317.962 215.416 318.435C215.888 318.908 216.528 319.173 217.196 319.173H270.821C271.489 319.173 272.129 318.908 272.602 318.435C273.074 317.962 273.339 317.321 273.339 316.652V199.511C273.339 198.842 273.074 198.201 272.602 197.728C272.129 197.255 271.489 196.99 270.821 196.99L217.196 196.987Z" fill="black"/>
<path d="M269.092 315.153L219.764 315.334C219.149 315.334 218.559 315.089 218.125 314.654C217.69 314.218 217.445 313.628 217.445 313.012V202.24C217.445 201.625 217.688 201.036 218.121 200.601C218.554 200.166 219.142 199.92 219.755 199.918L269.928 199.978C270.145 199.978 270.361 200.022 270.561 200.107C270.761 200.192 270.943 200.315 271.095 200.471C271.247 200.627 271.366 200.812 271.446 201.014C271.526 201.217 271.565 201.433 271.56 201.651L269.092 315.153Z" fill="black"/>
<path d="M281.348 308.719H206.928C206.14 308.719 205.5 309.359 205.5 310.149V318.031C205.5 318.82 206.14 319.461 206.928 319.461H281.348C282.137 319.461 282.776 318.82 282.776 318.031V310.149C282.776 309.359 282.137 308.719 281.348 308.719Z" fill="#F5F5F5"/>
<path d="M281.348 319.966H206.94C206.427 319.965 205.936 319.76 205.574 319.397C205.212 319.034 205.008 318.542 205.008 318.029V310.148C205.008 309.635 205.212 309.143 205.574 308.78C205.936 308.417 206.427 308.212 206.94 308.211H281.359C281.872 308.212 282.364 308.416 282.726 308.779C283.089 309.142 283.293 309.634 283.293 310.148V318.029C283.293 318.284 283.242 318.537 283.144 318.773C283.046 319.008 282.903 319.222 282.722 319.402C282.541 319.582 282.327 319.724 282.091 319.821C281.855 319.918 281.603 319.967 281.348 319.966ZM206.94 309.222C206.697 309.222 206.464 309.318 206.292 309.49C206.121 309.662 206.024 309.895 206.024 310.138V318.02C206.024 318.263 206.121 318.496 206.292 318.668C206.464 318.84 206.697 318.937 206.94 318.937H281.359C281.602 318.937 281.835 318.84 282.007 318.668C282.178 318.496 282.275 318.263 282.275 318.02V310.138C282.275 309.895 282.178 309.662 282.007 309.49C281.835 309.318 281.602 309.222 281.359 309.222H206.94Z" fill="black"/>
<path d="M233.614 303.371C233.211 303.309 232.843 303.105 232.576 302.796C232.309 302.487 232.161 302.093 232.158 301.684L231.586 207.347C231.588 207.181 231.648 207.022 231.755 206.897C231.862 206.771 232.01 206.687 232.172 206.659L270.531 200.166C270.663 200.143 270.8 200.149 270.93 200.185C271.06 200.22 271.18 200.284 271.283 200.372C271.386 200.459 271.467 200.568 271.523 200.691C271.579 200.814 271.606 200.948 271.604 201.083L271.222 309.158L233.614 303.371Z" fill="#F5F5F5"/>
<path d="M271.218 309.656H271.14L233.534 303.878C233.011 303.8 232.534 303.536 232.188 303.136C231.842 302.735 231.652 302.224 231.65 301.694L231.078 207.359C231.077 207.073 231.178 206.795 231.363 206.577C231.547 206.358 231.803 206.212 232.085 206.165L270.442 199.672C270.647 199.638 270.856 199.648 271.056 199.704C271.256 199.759 271.442 199.857 271.6 199.991C271.759 200.126 271.886 200.293 271.973 200.482C272.059 200.671 272.104 200.876 272.104 201.084L271.717 309.152C271.717 309.286 271.664 309.414 271.569 309.508C271.475 309.603 271.347 309.656 271.213 309.656H271.218ZM270.682 200.655C270.658 200.653 270.633 200.653 270.609 200.655L232.252 207.153C232.206 207.16 232.164 207.184 232.134 207.221C232.103 207.257 232.087 207.303 232.088 207.35L232.66 301.683C232.66 301.971 232.764 302.25 232.953 302.469C233.142 302.687 233.402 302.83 233.688 302.872L270.714 308.563L271.097 201.075C271.096 200.965 271.052 200.859 270.975 200.781C270.897 200.703 270.792 200.659 270.682 200.658V200.655Z" fill="black"/>
<path d="M335.418 180.801H150.274C150.205 180.806 150.136 180.796 150.07 180.773C150.005 180.749 149.945 180.713 149.895 180.666C149.844 180.618 149.804 180.561 149.776 180.497C149.749 180.434 149.734 180.365 149.734 180.296C149.734 180.226 149.749 180.158 149.776 180.094C149.804 180.03 149.844 179.973 149.895 179.926C149.945 179.878 150.005 179.842 150.07 179.818C150.136 179.795 150.205 179.786 150.274 179.79H335.418C335.546 179.799 335.666 179.856 335.754 179.95C335.841 180.043 335.89 180.167 335.89 180.296C335.89 180.424 335.841 180.548 335.754 180.641C335.666 180.735 335.546 180.792 335.418 180.801Z" fill="black"/>
<path d="M111.68 333.943L119.351 354.779L128.354 356.667L122.489 332.133L111.68 333.943Z" fill="white"/>
<path d="M128.244 357.186L119.241 355.297C119.154 355.279 119.072 355.239 119.004 355.181C118.936 355.122 118.885 355.047 118.855 354.963L111.184 334.125C111.155 334.051 111.144 333.971 111.15 333.891C111.157 333.812 111.182 333.735 111.223 333.667C111.262 333.6 111.316 333.542 111.38 333.497C111.444 333.453 111.517 333.423 111.593 333.41L122.403 331.602C122.535 331.578 122.671 331.607 122.783 331.681C122.895 331.755 122.974 331.87 123.005 332.001L128.869 356.523C128.888 356.601 128.889 356.683 128.872 356.761C128.855 356.839 128.82 356.912 128.77 356.975C128.721 357.038 128.658 357.089 128.585 357.124C128.513 357.159 128.434 357.177 128.354 357.177C128.318 357.184 128.281 357.187 128.244 357.186ZM112.397 334.359L119.745 354.321L127.642 355.976L122.089 332.739L112.397 334.359Z" fill="black"/>
<path d="M53.0469 330.066L57.1284 353.42H63.5173L66.658 333.037L53.0469 330.066Z" fill="white"/>
<path d="M56.6044 353.509L52.5229 330.155C52.5086 330.069 52.5155 329.981 52.5429 329.899C52.5703 329.816 52.6175 329.742 52.6803 329.682C52.743 329.622 52.8195 329.578 52.903 329.555C52.9865 329.531 53.0745 329.529 53.1593 329.547L66.7681 332.527C66.8996 332.555 67.0152 332.633 67.0913 332.744C67.1675 332.856 67.1984 332.992 67.1778 333.125L64.0395 353.506C64.0223 353.633 63.9597 353.75 63.8633 353.834C63.7669 353.918 63.6432 353.965 63.5152 353.965H57.1263C56.9992 353.964 56.8766 353.917 56.7809 353.834C56.6851 353.75 56.6225 353.635 56.6044 353.509ZM66.0562 333.448L53.6949 330.75L57.5658 352.888H63.0597L66.0562 333.448Z" fill="black"/>
<path d="M64.0811 366.756C59.9786 367.182 55.8373 367.043 51.7725 366.344C51.3737 366.274 50.9938 366.122 50.6575 365.897C50.3212 365.671 50.0359 365.377 49.8201 365.035C49.6043 364.692 49.4629 364.307 49.4048 363.906C49.3468 363.505 49.3736 363.096 49.4834 362.706C50.779 358.093 53.5717 349.354 57.0878 345.375L57.8524 347.621L59.0816 345.572C59.1644 345.434 59.2787 345.317 59.4151 345.231C59.5515 345.145 59.7063 345.092 59.8668 345.077L62.4192 344.848C62.6759 344.824 62.9323 344.898 63.1372 345.055C63.3421 345.211 63.4805 345.44 63.5248 345.694L63.8659 347.631L64.8342 345.135L66.6495 363.605C66.7231 364.363 66.4945 365.12 66.0134 365.71C65.5323 366.3 64.8378 366.676 64.0811 366.756Z" fill="white"/>
<path d="M51.6875 366.866C51.2163 366.784 50.7675 366.604 50.3698 366.338C49.9721 366.072 49.6343 365.725 49.3781 365.321C49.1218 364.917 48.9528 364.463 48.8818 363.99C48.8108 363.516 48.8394 363.033 48.9658 362.571C50.3186 357.758 53.1228 349.049 56.6824 345.031C56.7441 344.962 56.8228 344.91 56.9107 344.88C56.9985 344.851 57.0926 344.844 57.1837 344.862C57.2745 344.881 57.3589 344.923 57.4284 344.984C57.4979 345.046 57.55 345.124 57.5797 345.212L57.978 346.377L58.6213 345.306C58.7474 345.097 58.9208 344.92 59.1275 344.789C59.3341 344.659 59.5684 344.578 59.8116 344.555L62.3617 344.326C62.75 344.294 63.1363 344.407 63.4462 344.644C63.756 344.88 63.9674 345.223 64.0396 345.607L64.051 345.678L64.328 344.924C64.3705 344.812 64.4495 344.718 64.5523 344.656C64.6551 344.595 64.7756 344.571 64.894 344.587C65.0125 344.603 65.122 344.659 65.2046 344.746C65.2872 344.832 65.3381 344.944 65.349 345.064L67.1642 363.534C67.2492 364.43 66.9795 365.324 66.4132 366.023C65.8469 366.723 65.0292 367.172 64.1357 367.274C62.5808 367.439 61.0181 367.52 59.4545 367.519C56.8517 367.523 54.2533 367.304 51.6875 366.866ZM66.109 363.657L64.5066 347.399L64.3418 347.825C64.2993 347.933 64.223 348.023 64.1244 348.083C64.0259 348.144 63.9104 348.17 63.7956 348.159C63.6807 348.147 63.5727 348.099 63.4879 348.02C63.403 347.942 63.346 347.838 63.3254 347.724L62.9866 345.788C62.9633 345.665 62.8955 345.555 62.7962 345.479C62.6969 345.404 62.5731 345.367 62.4487 345.377L59.8986 345.607C59.8215 345.613 59.7469 345.637 59.6806 345.676C59.6143 345.716 59.5581 345.771 59.5163 345.836L58.2893 347.885C58.2372 347.971 58.1615 348.041 58.0711 348.086C57.9807 348.131 57.8793 348.15 57.7789 348.139C57.6784 348.129 57.5831 348.09 57.504 348.027C57.425 347.964 57.3655 347.88 57.3325 347.784L56.8747 346.439C53.7294 350.564 51.2251 358.382 49.973 362.841C49.8819 363.159 49.8595 363.493 49.9073 363.82C49.955 364.147 50.0718 364.461 50.25 364.739C50.4274 365.02 50.6616 365.261 50.9376 365.445C51.2136 365.63 51.5252 365.755 51.8523 365.812C55.8687 366.504 59.9608 366.641 64.0144 366.22C64.6324 366.154 65.1996 365.846 65.5929 365.365C65.9863 364.883 66.1741 364.265 66.1158 363.646L66.109 363.657Z" fill="black"/>
<path d="M57.6453 365.308C60.0148 365.313 62.3774 365.053 64.6889 364.531C64.8252 364.497 64.9425 364.41 65.0148 364.29C65.0871 364.169 65.1087 364.025 65.0747 363.888C65.0407 363.752 64.9539 363.634 64.8335 363.562C64.7131 363.489 64.5689 363.468 64.4326 363.502C64.3662 363.518 57.7003 365.147 51.4533 363.502C51.3176 363.466 51.1732 363.486 51.0519 363.556C50.9307 363.627 50.8424 363.743 50.8066 363.879C50.7708 364.015 50.7903 364.159 50.8609 364.281C50.9316 364.402 51.0475 364.491 51.1832 364.526C53.2952 365.061 55.4668 365.324 57.6453 365.308Z" fill="black"/>
<path d="M89.9724 181.115C89.7851 180.308 89.3305 179.588 88.6824 179.073C88.0344 178.557 87.2311 178.277 86.4036 178.277H64.5609C64.5609 178.277 64.5609 178.312 64.5609 178.374C58.5359 178.628 52.0234 179.421 46.6531 181.326C45.0683 181.886 43.6843 182.903 42.6754 184.248C41.6665 185.594 41.0776 187.209 40.9829 188.889C39.8247 209.674 36.4986 290.258 51.3206 336.159L70.2928 336.574L72.3072 241.691C81.0608 269.718 95.9103 314.742 110.034 338.421H126.498L89.9724 181.115Z" fill="black"/>
<path d="M55.3647 358.117H61.4355C61.5757 358.117 61.7102 358.062 61.8094 357.962C61.9085 357.863 61.9643 357.728 61.9643 357.588C61.9643 357.448 61.9085 357.313 61.8094 357.214C61.7102 357.114 61.5757 357.059 61.4355 357.059H55.3647C55.2245 357.059 55.09 357.114 54.9908 357.214C54.8916 357.313 54.8359 357.448 54.8359 357.588C54.8359 357.728 54.8916 357.863 54.9908 357.962C55.09 358.062 55.2245 358.117 55.3647 358.117Z" fill="black"/>
<path d="M115.104 366.011C115.104 366.011 113.959 355.698 117.178 350.992L124.379 353.559V352.031C124.371 351.802 124.449 351.578 124.599 351.405C124.748 351.232 124.958 351.122 125.185 351.098L129.203 350.869C130.709 350.785 132.212 351.095 133.563 351.767C138.371 354.135 149.448 360.247 149.097 366.091C149.097 366.084 140.38 368.25 115.104 366.011Z" fill="white"/>
<path d="M115.06 366.543C114.939 366.533 114.826 366.482 114.738 366.399C114.651 366.315 114.595 366.204 114.579 366.084C114.531 365.653 113.435 355.521 116.742 350.706C116.809 350.61 116.905 350.538 117.016 350.501C117.128 350.465 117.248 350.466 117.358 350.504L123.843 352.812V352.031C123.834 351.667 123.964 351.313 124.206 351.041C124.449 350.77 124.786 350.602 125.148 350.571L129.163 350.342C130.761 350.256 132.355 350.583 133.79 351.293C139.856 354.272 149.976 360.176 149.619 366.126C149.612 366.238 149.57 366.346 149.498 366.433C149.426 366.52 149.328 366.582 149.218 366.609C148.989 366.666 145.166 367.574 135.541 367.574C130.457 367.565 123.736 367.31 115.06 366.543ZM133.332 352.235C132.061 351.606 130.65 351.316 129.234 351.391L125.217 351.62C125.126 351.639 125.044 351.69 124.988 351.764C124.932 351.839 124.905 351.931 124.912 352.024V353.564C124.913 353.649 124.892 353.733 124.853 353.808C124.814 353.884 124.758 353.949 124.688 353.998C124.619 354.047 124.539 354.078 124.455 354.09C124.371 354.101 124.285 354.092 124.205 354.064L117.397 351.636C114.932 355.709 115.426 363.6 115.591 365.525C137.239 367.411 146.62 366.018 148.575 365.651C148.358 360.066 136.907 353.995 133.332 352.235Z" fill="black"/>
<path d="M127.371 364.384C138.095 364.384 146.313 362.752 146.421 362.729C146.552 362.695 146.665 362.611 146.736 362.496C146.808 362.381 146.833 362.243 146.806 362.11C146.779 361.977 146.702 361.859 146.592 361.781C146.481 361.703 146.344 361.67 146.21 361.689C146.071 361.719 132.006 364.513 116.699 362.734C116.63 362.726 116.56 362.732 116.493 362.751C116.426 362.77 116.364 362.802 116.31 362.845C116.255 362.888 116.21 362.942 116.176 363.003C116.142 363.063 116.121 363.13 116.113 363.199C116.105 363.268 116.111 363.338 116.13 363.405C116.149 363.472 116.181 363.535 116.224 363.589C116.267 363.643 116.32 363.689 116.381 363.723C116.442 363.757 116.509 363.778 116.578 363.786C120.161 364.192 123.765 364.392 127.371 364.384Z" fill="black"/>
<path d="M135.929 358.945C136.041 358.944 136.149 358.908 136.24 358.842C136.33 358.776 136.397 358.683 136.431 358.577C136.466 358.471 136.466 358.356 136.432 358.25C136.397 358.143 136.33 358.051 136.24 357.984L129.307 352.99C129.25 352.95 129.186 352.921 129.119 352.905C129.051 352.889 128.981 352.886 128.913 352.897C128.844 352.909 128.778 352.933 128.719 352.97C128.66 353.006 128.609 353.054 128.568 353.111C128.528 353.167 128.499 353.231 128.483 353.299C128.467 353.366 128.464 353.437 128.476 353.505C128.487 353.574 128.511 353.64 128.548 353.699C128.584 353.758 128.632 353.809 128.689 353.85L135.62 358.844C135.71 358.908 135.818 358.944 135.929 358.945Z" fill="black"/>
<path d="M72.8748 237.169C73.0151 237.169 73.1496 237.113 73.2487 237.014C73.3479 236.915 73.4036 236.78 73.4036 236.639V215.277L81.9741 210.258C82.0881 210.183 82.1691 210.067 82.2003 209.935C82.2315 209.802 82.2105 209.662 82.1417 209.544C82.0729 209.427 81.9615 209.34 81.8306 209.302C81.6997 209.264 81.5593 209.278 81.4384 209.341L72.607 214.518C72.5272 214.565 72.4609 214.632 72.4147 214.713C72.3686 214.793 72.3441 214.884 72.3438 214.977V236.644C72.345 236.784 72.4015 236.918 72.5011 237.016C72.6006 237.115 72.735 237.17 72.8748 237.169Z" fill="white"/>
<path d="M42.682 214.62C42.7863 214.619 42.8881 214.588 42.975 214.531C54.1344 207.048 54.9356 189.866 54.9608 189.137C54.9636 189.067 54.9526 188.998 54.9286 188.932C54.9045 188.867 54.8678 188.807 54.8206 188.756C54.7734 188.705 54.7166 188.664 54.6535 188.635C54.5903 188.606 54.5221 188.589 54.4526 188.587C54.383 188.583 54.3133 188.593 54.2476 188.617C54.182 188.641 54.1218 188.677 54.0706 188.725C54.0194 188.772 53.9782 188.83 53.9494 188.893C53.9207 188.957 53.905 189.026 53.9032 189.095C53.9032 189.267 53.0929 206.47 42.3867 213.648C42.2913 213.711 42.2188 213.803 42.1799 213.911C42.1411 214.018 42.1381 214.135 42.1713 214.245C42.2046 214.354 42.2723 214.45 42.3643 214.517C42.4564 214.585 42.5678 214.621 42.682 214.62Z" fill="white"/>
<path d="M112.323 128.991C103.97 117.905 99.7921 112.363 94.5821 109.281C82.2208 101.963 69.0218 103.679 57.8097 105.137C46.7578 106.572 34.2249 108.197 22.5046 117.412C20.9777 118.613 -3.75389 138.745 1.18144 168.324C2.87768 178.488 7.74435 187.763 14.836 195.18C18.24 190.248 22.6742 186.116 27.8314 183.069L27.797 182.985C23.2508 171.33 25.6842 157.93 34.0578 148.295L34.3737 184.307C36.5048 186.647 39.95 189.684 44.7708 190.811C55.7449 193.378 62.7725 183.477 76.1432 182.519C81.1472 182.162 88.3511 182.978 97.4045 188.515C95.7777 177.476 94.1494 166.434 92.5196 155.388C92.8904 156.928 95.0948 165.429 103.207 169.651C104.824 170.492 111.245 173.833 117.51 171C124.624 167.792 126.126 159.058 126.296 157.98C127.623 149.505 122.541 142.554 112.323 128.991Z" fill="white"/>
<path d="M14.4527 195.545C7.10922 187.865 2.3387 178.482 0.658487 168.409C-4.37757 138.264 21.0912 117.848 22.1762 116.996C34.0109 107.689 46.6171 106.05 57.7399 104.606C69.2702 103.105 82.3411 101.397 94.8511 108.819C100.15 111.958 104.36 117.544 112.743 128.668C122.714 141.901 128.208 149.199 126.819 158.066C126.558 159.741 124.889 168.253 117.729 171.489C114.764 172.83 109.797 173.68 102.964 170.114C98.1887 167.63 95.3914 163.676 93.8073 160.415L97.9277 188.435C97.9418 188.535 97.9274 188.637 97.8861 188.729C97.8448 188.82 97.7784 188.899 97.6944 188.954C97.6105 189.009 97.5126 189.04 97.412 189.042C97.3115 189.044 97.2125 189.017 97.1265 188.965C89.9364 184.558 82.8905 182.571 76.1788 183.047C70.195 183.474 65.5664 185.692 61.0889 187.84C55.8033 190.374 50.8108 192.765 44.6508 191.325C40.7593 190.409 37.1814 188.176 33.9812 184.663C33.8935 184.566 33.8446 184.441 33.8438 184.31L33.5394 149.74C25.9853 159.175 23.9663 171.709 28.3019 182.818L28.3225 182.871C28.3695 182.989 28.3722 183.12 28.3301 183.24C28.288 183.36 28.204 183.461 28.0936 183.524C23.0113 186.539 18.6387 190.617 15.2745 195.478C15.2298 195.543 15.1714 195.597 15.1033 195.637C15.0352 195.677 14.9592 195.701 14.8808 195.707H14.835C14.7637 195.707 14.6931 195.693 14.6275 195.665C14.5618 195.637 14.5024 195.596 14.4527 195.545ZM33.6515 147.945C33.7219 147.863 33.8155 147.805 33.9199 147.778C34.0242 147.751 34.1343 147.757 34.2354 147.794C34.3365 147.831 34.4238 147.899 34.4855 147.987C34.5473 148.076 34.5806 148.181 34.5809 148.289L34.8968 184.097C37.9139 187.363 41.2743 189.448 44.8865 190.285C50.6872 191.642 55.2929 189.432 60.6288 186.875C64.9781 184.787 69.9158 182.422 76.0987 181.979C82.7371 181.5 89.6617 183.354 96.7122 187.48L91.9943 155.472C91.9676 155.334 91.9967 155.191 92.0753 155.074C92.1538 154.958 92.2754 154.877 92.4132 154.851C92.551 154.824 92.6938 154.853 92.8101 154.932C92.9265 155.01 93.0069 155.132 93.0336 155.27C93.5807 157.548 95.9545 165.283 103.451 169.186C109.904 172.544 114.54 171.767 117.291 170.522C123.953 167.513 125.532 159.482 125.761 157.903C127.029 149.811 122.424 143.288 111.889 129.308C103.598 118.293 99.4316 112.758 94.3132 109.731C82.1168 102.507 69.2382 104.18 57.8773 105.653C46.8895 107.081 34.4367 108.702 22.8309 117.826C21.7642 118.664 -3.22386 138.7 1.70232 168.233C3.30471 177.891 7.83029 186.902 14.7732 194.337C18.0908 189.706 22.3095 185.795 27.1756 182.839C22.7141 171.036 25.1818 157.697 33.6515 147.945Z" fill="black"/>
<path d="M49.3609 202.83C44.1852 201.074 32.7831 195.867 27.7516 182.984C22.587 186.019 18.1427 190.141 14.7266 195.065C22.1662 202.88 32.0758 208.637 43.3588 211.225C46.0234 208.862 47.9577 205.875 49.3609 202.83Z" fill="white"/>
<path d="M43.2475 211.746C32.0514 209.179 22.0663 203.539 14.3496 195.433C14.2655 195.344 14.2144 195.23 14.2048 195.108C14.1952 194.987 14.2278 194.866 14.297 194.766C17.7638 189.784 22.2636 185.61 27.4892 182.529C27.5554 182.491 27.6292 182.467 27.7054 182.46C27.7816 182.452 27.8585 182.461 27.931 182.486C28.0031 182.511 28.0689 182.551 28.1238 182.604C28.1788 182.657 28.2215 182.722 28.2492 182.793C33.2532 195.604 44.8018 200.724 49.538 202.331C49.6083 202.355 49.6728 202.393 49.7273 202.444C49.7817 202.494 49.8248 202.556 49.8539 202.624C49.8839 202.692 49.8994 202.766 49.8994 202.84C49.8994 202.914 49.8839 202.987 49.8539 203.055C48.2332 206.566 46.1707 209.45 43.7236 211.625C43.6265 211.711 43.5011 211.759 43.3711 211.76C43.3295 211.76 43.288 211.756 43.2475 211.746ZM27.496 183.758C22.7514 186.655 18.6415 190.483 15.4141 195.013C22.8858 202.737 32.484 208.136 43.2154 210.65C45.3443 208.705 47.1641 206.181 48.6361 203.14C43.5428 201.313 32.5825 196.086 27.496 183.758Z" fill="black"/>
<path d="M111.199 172.402L70.6406 167L84.1624 115.949L124.721 121.351L111.199 172.402Z" fill="white"/>
<path d="M111.129 172.928L70.5685 167.535C70.4945 167.525 70.4235 167.499 70.36 167.459C70.2966 167.42 70.2421 167.368 70.2 167.306C70.1578 167.243 70.1295 167.173 70.1169 167.098C70.1042 167.024 70.1076 166.948 70.1267 166.875L83.6486 115.824C83.6819 115.699 83.7592 115.591 83.8661 115.52C83.9731 115.448 84.1024 115.418 84.23 115.434L124.791 120.834C124.865 120.844 124.937 120.87 125 120.91C125.064 120.95 125.118 121.003 125.16 121.066C125.202 121.128 125.23 121.199 125.242 121.273C125.255 121.347 125.251 121.423 125.233 121.496L111.709 172.538C111.678 172.651 111.612 172.751 111.519 172.822C111.426 172.894 111.313 172.932 111.196 172.932C111.174 172.933 111.151 172.931 111.129 172.928ZM84.5527 116.548L71.3056 166.556L110.807 171.816L124.054 121.796L84.5527 116.548Z" fill="black"/>
<path d="M82.263 149.037C82.38 149.037 82.4938 148.999 82.5866 148.928C82.6794 148.856 82.7459 148.756 82.7758 148.643L87.4433 131.025L95.2263 132.061L93.2165 139.654C93.1987 139.722 93.1944 139.792 93.2037 139.861C93.2131 139.93 93.2359 139.996 93.2708 140.056C93.3058 140.116 93.3522 140.169 93.4075 140.211C93.4628 140.253 93.5258 140.284 93.593 140.302C93.6602 140.319 93.7302 140.324 93.7991 140.314C93.868 140.305 93.9343 140.282 93.9944 140.247C94.0544 140.212 94.107 140.166 94.1491 140.11C94.1912 140.055 94.222 139.992 94.2397 139.925L96.4052 131.75C96.4243 131.677 96.4276 131.601 96.415 131.527C96.4024 131.453 96.374 131.383 96.332 131.321C96.2908 131.258 96.2365 131.205 96.1728 131.166C96.1092 131.126 96.0378 131.101 95.9634 131.092L87.1274 129.914C86.9997 129.899 86.8709 129.93 86.7642 130.002C86.6575 130.074 86.5801 130.182 86.546 130.306L81.7594 148.375C81.7418 148.442 81.7377 148.512 81.7471 148.581C81.7566 148.65 81.7795 148.716 81.8146 148.776C81.8496 148.836 81.8962 148.889 81.9515 148.931C82.0069 148.973 82.07 149.003 82.1371 149.021C82.1782 149.032 82.2205 149.038 82.263 149.037Z" fill="black"/>
<path d="M100.508 157.85C100.626 157.85 100.74 157.81 100.833 157.737C100.925 157.665 100.991 157.564 101.021 157.449L109.527 125.327C109.547 125.254 109.55 125.178 109.538 125.104C109.526 125.029 109.498 124.959 109.456 124.896C109.414 124.834 109.36 124.781 109.296 124.741C109.232 124.702 109.16 124.676 109.085 124.667L100.252 123.489C100.124 123.472 99.9944 123.503 99.8872 123.574C99.78 123.646 99.7021 123.754 99.6679 123.878L92.7753 149.914C92.7576 149.981 92.7533 150.051 92.7626 150.12C92.7719 150.189 92.7947 150.255 92.8297 150.316C92.9003 150.437 93.0162 150.525 93.1519 150.561C93.2876 150.597 93.432 150.578 93.5532 150.507C93.6745 150.436 93.7628 150.32 93.7986 150.184L100.572 124.609L108.355 125.645L99.9998 157.184C99.9642 157.32 99.984 157.464 100.055 157.586C100.126 157.708 100.242 157.796 100.378 157.832C100.42 157.843 100.464 157.85 100.508 157.85Z" fill="black"/>
<path d="M102.366 159.435C102.483 159.435 102.596 159.396 102.689 159.325C102.781 159.254 102.848 159.154 102.879 159.041L106.464 145.505L114.247 146.541L111.797 155.787C111.779 155.854 111.775 155.924 111.784 155.993C111.794 156.062 111.817 156.128 111.852 156.189C111.886 156.249 111.933 156.301 111.988 156.343C112.044 156.386 112.107 156.416 112.174 156.434C112.241 156.452 112.311 156.456 112.38 156.447C112.449 156.438 112.515 156.415 112.575 156.38C112.635 156.345 112.688 156.298 112.73 156.243C112.772 156.188 112.803 156.124 112.82 156.057L115.419 146.221C115.437 146.148 115.44 146.072 115.428 145.998C115.415 145.923 115.387 145.853 115.345 145.79C115.303 145.728 115.248 145.675 115.184 145.636C115.12 145.596 115.049 145.57 114.974 145.56L106.141 144.387C106.013 144.371 105.884 144.401 105.777 144.473C105.67 144.545 105.593 144.652 105.559 144.777L101.853 158.757C101.818 158.893 101.837 159.038 101.908 159.159C101.979 159.281 102.095 159.37 102.231 159.406C102.275 159.421 102.32 159.431 102.366 159.435Z" fill="black"/>
<path d="M118.346 159.877C107.834 153.657 82.9697 145.56 82.9697 145.56C79.6876 143.409 77.0881 140.363 75.4774 136.782L74.4313 134.453C74.4313 134.453 70.7183 134.025 73.5729 141.801C72.7419 141.632 73.1517 141.503 72.5725 141.705C69.5967 142.736 70.9152 145.486 70.9152 145.486C70.9152 145.486 69.4868 148.276 70.9449 149.747C70.9449 149.747 70.1529 155.591 75.8551 155.864C75.8551 155.864 102.409 171.554 109.21 172.73C116.011 173.906 125.142 163.899 118.346 159.877Z" fill="white"/>
<path d="M109.123 173.251C102.464 172.105 77.8312 157.639 75.7023 156.385C73.9603 156.275 72.612 155.659 71.6918 154.552C70.3183 152.9 70.3458 150.674 70.4007 149.927C69.1898 148.442 70.0253 146.187 70.3435 145.467C70.1787 145.009 69.9086 143.975 70.3252 142.973C70.6663 142.16 71.3644 141.564 72.4518 141.186C72.5558 141.147 72.662 141.114 72.77 141.087C71.7627 138.032 71.7101 135.905 72.6097 134.759C72.8331 134.477 73.1219 134.254 73.451 134.109C73.7801 133.964 74.1396 133.902 74.4982 133.928C74.5891 133.937 74.6758 133.971 74.7496 134.025C74.8235 134.079 74.8821 134.151 74.9194 134.235L75.9656 136.563C77.5222 140.032 80.0338 142.984 83.206 145.075C84.6596 145.554 108.448 153.401 118.621 159.42C121.029 160.848 121.849 163.197 120.867 165.867C119.521 169.534 114.746 173.354 110.337 173.354C109.93 173.355 109.524 173.321 109.123 173.251ZM73.4315 135.436C73.0218 135.972 72.5594 137.498 74.0748 141.624C74.1058 141.711 74.1133 141.805 74.0966 141.897C74.0799 141.988 74.0396 142.074 73.9796 142.145C73.9196 142.216 73.8421 142.27 73.7547 142.301C73.6674 142.333 73.5733 142.341 73.4819 142.325C73.2845 142.288 73.0913 142.232 72.905 142.158L72.7608 142.208C72.0214 142.465 71.5338 142.859 71.3141 143.379C70.9455 144.252 71.4034 145.254 71.4079 145.261C71.444 145.334 71.4628 145.414 71.4628 145.496C71.4628 145.577 71.444 145.658 71.4079 145.731C71.3965 145.756 70.1741 148.199 71.3415 149.377C71.4008 149.436 71.4452 149.509 71.4711 149.588C71.4969 149.668 71.5035 149.753 71.4903 149.835C71.4903 149.858 71.179 152.274 72.5227 153.89C73.269 154.788 74.4044 155.278 75.9015 155.35C75.9878 155.354 76.0717 155.379 76.1464 155.423C76.4097 155.579 102.7 171.076 109.32 172.225C113.541 172.958 118.555 169.153 119.889 165.519C120.455 163.978 120.603 161.833 118.097 160.35C107.755 154.229 83.0733 146.159 82.8261 146.079C82.7814 146.063 82.7385 146.042 82.6979 146.017C79.3308 143.813 76.6649 140.689 75.0156 137.015L74.1182 135.018C73.8475 135.068 73.6037 135.214 73.4315 135.429V135.436Z" fill="black"/>
<path d="M53.0906 83.3635C53.0906 83.3635 50.9663 78.0923 50.1697 77.148C49.3731 76.2038 48.7711 75.2068 51.3486 73.6048C53.9262 72.0028 60.6699 67.7147 64.6461 67.9806C68.6223 68.2464 71.2708 71.0471 69.9454 72.8806C68.62 74.7141 68.0157 75.4818 68.9519 75.6606C69.8882 75.8394 70.3506 76.9784 67.5785 78.4498C64.8064 79.9212 55.128 86.4484 53.0906 83.3635Z" fill="black"/>
<path d="M68.1506 104.254L67.1594 95.1115C72.1222 92.9549 70.3641 89.4804 69.7942 86.7508C69.1784 83.815 67.1365 77.4023 67.1365 77.4023C63.0435 79.5109 55.3132 78.381 55.3132 78.381C55.3132 78.381 56.3273 80.2145 55.6382 81.0602C54.9492 81.9058 54.9401 83.831 54.9401 83.831C54.9401 83.831 53.6261 82.4559 52.0878 83.3726C51.2202 83.8883 52.0398 86.3406 52.6487 87.7272C53.2576 89.1137 54.7089 89.4598 54.7089 89.4598C54.7089 89.4598 55.1804 90.7708 55.6108 91.9809L52.0604 106.266L46.7656 108.127L63.8287 111.414L72.873 105.251L68.1506 104.254Z" fill="white"/>
<path d="M63.7352 111.923L46.6721 108.634C46.5578 108.612 46.4538 108.553 46.3764 108.466C46.2989 108.379 46.2522 108.269 46.2436 108.153C46.235 108.037 46.2649 107.921 46.3288 107.823C46.3926 107.726 46.4867 107.652 46.5966 107.614L51.6326 105.847L55.0663 91.9948C54.7664 91.1468 54.4574 90.2805 54.3086 89.868C53.841 89.7035 53.4109 89.447 53.0437 89.1136C52.6766 88.7802 52.3797 88.3767 52.1706 87.9268C51.4838 86.3775 50.5384 83.6685 51.8203 82.9053C52.2213 82.6637 52.6785 82.5314 53.1464 82.5218C53.6143 82.5121 54.0766 82.6254 54.4872 82.8503C54.5764 82.1628 54.7779 81.2689 55.2334 80.7097C55.547 80.3293 55.1922 79.2383 54.8534 78.6218C54.8059 78.5355 54.7834 78.4375 54.7885 78.339C54.7936 78.2406 54.826 78.1455 54.8822 78.0645C54.9383 77.9835 55.016 77.9198 55.1063 77.8806C55.1967 77.8414 55.2962 77.8282 55.3936 77.8426C55.4692 77.8426 63.005 78.9221 66.8988 76.9258C66.9674 76.8907 67.0429 76.8708 67.1199 76.8676C67.197 76.8645 67.2738 76.8781 67.3451 76.9075C67.416 76.9369 67.4796 76.9814 67.5314 77.038C67.5832 77.0947 67.622 77.162 67.645 77.2353C67.7297 77.4988 69.7052 83.7098 70.3187 86.6319C70.3942 86.9894 70.4904 87.363 70.5888 87.7434C71.2046 90.1247 72.0401 93.3654 67.7297 95.4234L68.6453 103.814L72.9947 104.731C73.0968 104.751 73.1906 104.802 73.2641 104.876C73.3377 104.95 73.3877 105.044 73.408 105.146C73.4283 105.249 73.418 105.355 73.3782 105.451C73.3385 105.548 73.2711 105.63 73.1847 105.689L64.1335 111.842C64.046 111.903 63.9421 111.935 63.8359 111.934C63.802 111.934 63.7683 111.93 63.7352 111.923ZM68.0456 104.772C67.9361 104.75 67.8365 104.694 67.7611 104.611C67.6858 104.529 67.6387 104.425 67.6267 104.314L66.6355 95.1599C66.6231 95.0477 66.6469 94.9345 66.7033 94.8368C66.7597 94.7391 66.8458 94.662 66.9491 94.6167C70.8406 92.9299 70.2134 90.5418 69.561 88.0116C69.458 87.6128 69.3573 87.2255 69.2794 86.8496C68.7827 84.4844 67.3268 79.7655 66.8163 78.1268C63.4033 79.5684 58.2665 79.2292 56.1697 79.0091C56.4192 79.7311 56.5954 80.7235 56.0506 81.3881C55.6386 81.8923 55.4761 83.1574 55.4715 83.8381C55.471 83.9436 55.4388 84.0465 55.3793 84.1336C55.3197 84.2206 55.2354 84.2877 55.1373 84.3263C55.0389 84.365 54.9313 84.3735 54.8281 84.3506C54.725 84.3277 54.6309 84.2746 54.5581 84.1979C54.5169 84.1544 53.5234 83.1276 52.3606 83.8221C52.1202 83.9641 52.1729 85.3163 53.1366 87.5028C53.6264 88.6189 54.8305 88.9306 54.8397 88.9329C54.925 88.9533 55.0039 88.9945 55.0694 89.0529C55.1349 89.1113 55.185 89.185 55.2151 89.2675C55.2151 89.2675 55.6867 90.5808 56.117 91.7886C56.1512 91.8866 56.156 91.9926 56.1307 92.0934L52.5826 106.379C52.5615 106.464 52.5195 106.542 52.4603 106.607C52.4011 106.672 52.3267 106.721 52.2438 106.75L48.7987 107.962L63.7192 110.836L71.5502 105.498L68.0456 104.772Z" fill="black"/>
<path d="M63.1228 96.4053C64.5617 96.3789 65.9855 96.1061 67.3324 95.5986C67.4648 95.5515 67.573 95.4536 67.6334 95.3266C67.6937 95.1996 67.7011 95.0538 67.6541 94.9213C67.607 94.7888 67.5093 94.6805 67.3825 94.6201C67.2556 94.5597 67.11 94.5522 66.9776 94.5993C59.7143 97.18 57.6975 92.3304 57.6151 92.1241C57.5635 91.9934 57.4622 91.8886 57.3334 91.8327C57.2046 91.7769 57.0589 91.7745 56.9284 91.8262C56.7979 91.8778 56.6932 91.9793 56.6374 92.1082C56.5816 92.2372 56.5792 92.383 56.6308 92.5137C56.6514 92.5619 58.2424 96.4053 63.1228 96.4053Z" fill="black"/>
<path d="M293.195 384.632C293.964 376.805 304.604 297.179 393.548 251.855C393.547 251.861 393.547 251.866 393.548 251.871C393.214 253.256 392.867 254.631 392.509 255.997C392.465 256.162 392.424 256.325 392.381 256.487C392.026 257.821 391.66 259.147 391.282 260.466C391.229 260.656 391.174 260.844 391.119 261.032C390.339 263.727 389.51 266.39 388.631 269.022C388.576 269.189 388.521 269.358 388.464 269.523C388.033 270.807 387.592 272.081 387.138 273.346L386.953 273.857C386.019 276.455 385.042 279.009 384.021 281.519C383.952 281.686 383.886 281.856 383.817 282.023C383.315 283.246 382.804 284.468 382.286 285.69L382.086 286.149C381.018 288.624 379.909 291.062 378.758 293.462C378.676 293.634 378.595 293.803 378.513 293.973C377.951 295.142 377.381 296.301 376.803 297.452L376.595 297.865C376.006 299.027 375.41 300.181 374.807 301.325L374.768 301.399C374.158 302.546 373.541 303.684 372.918 304.813L372.635 305.329C372.024 306.434 371.403 307.53 370.771 308.618L370.558 308.985C369.933 310.054 369.302 311.12 368.665 312.182C368.629 312.244 368.592 312.308 368.553 312.37C367.906 313.439 367.251 314.501 366.587 315.555L366.257 316.076C365.602 317.115 364.941 318.143 364.272 319.16C364.201 319.271 364.128 319.39 364.057 319.486C363.406 320.476 362.748 321.457 362.084 322.429L361.894 322.711C361.212 323.705 360.525 324.691 359.834 325.667L359.47 326.176C358.779 327.148 358.083 328.109 357.382 329.059L357.176 329.336C356.499 330.253 355.818 331.157 355.134 332.048L354.871 332.391C354.166 333.308 353.457 334.216 352.744 335.114L352.346 335.614C351.627 336.512 350.906 337.406 350.178 338.286L349.995 338.515C349.298 339.359 348.597 340.193 347.892 341.018L347.569 341.396C346.845 342.238 346.12 343.068 345.394 343.887L344.968 344.366C344.229 345.194 343.49 346.017 342.746 346.823C342.695 346.876 342.645 346.929 342.597 346.984C341.88 347.761 341.161 348.524 340.44 349.276L340.058 349.677C339.327 350.441 338.595 351.194 337.861 351.936L337.421 352.376C336.669 353.14 335.914 353.889 335.157 354.622L335.068 354.71C334.331 355.425 333.592 356.13 332.852 356.825L332.433 357.219C331.698 357.91 330.962 358.587 330.226 359.252L329.785 359.651C329.022 360.335 328.259 361.01 327.495 361.674C317.098 370.707 305.138 378.158 293.195 384.632Z" fill="black"/>
<path d="M253.327 358.757C253.327 358.757 236.278 337.339 207.773 343.594C207.778 343.594 220.817 364.81 253.327 358.757Z" fill="black"/>
<path d="M293.343 384.075C293.343 384.075 310.637 309.132 245.928 268.293C245.928 268.293 223.035 332.181 293.343 384.075Z" fill="black"/>
<path d="M280.718 344.814C280.785 344.81 280.851 344.793 280.911 344.763C280.972 344.734 281.027 344.693 281.072 344.643C281.118 344.593 281.153 344.534 281.176 344.47C281.198 344.406 281.208 344.339 281.205 344.271C281.201 344.203 281.185 344.137 281.156 344.076L250.864 279.979C250.805 279.856 250.7 279.76 250.572 279.714C250.443 279.668 250.302 279.675 250.178 279.733C250.055 279.791 249.959 279.896 249.913 280.025C249.867 280.154 249.874 280.296 249.932 280.419L280.224 344.516C280.267 344.609 280.337 344.687 280.426 344.741C280.514 344.794 280.616 344.819 280.718 344.814Z" fill="white"/>
<path d="M294.247 383.658C294.247 383.658 255.676 335.446 285.338 250.563C285.338 250.553 323.449 304.068 294.247 383.658Z" fill="black"/>
<path d="M289.799 327.302C289.933 327.294 290.059 327.235 290.15 327.136C290.241 327.037 290.29 326.907 290.287 326.773L288.913 280.044C288.909 279.907 288.851 279.778 288.752 279.684C288.652 279.59 288.52 279.539 288.383 279.543C288.247 279.547 288.117 279.605 288.023 279.705C287.93 279.804 287.879 279.937 287.883 280.074L289.256 326.803C289.261 326.939 289.319 327.068 289.418 327.162C289.517 327.255 289.649 327.306 289.785 327.302H289.799Z" fill="white"/>
<path d="M147.891 350.271C148.511 349.879 149.777 349.899 150.409 349.524C202.056 343.054 254.914 356.044 300.733 380.409C231.858 424.91 147.891 350.271 147.891 350.271Z" fill="black"/>
<path d="M257.91 374.59L257.853 374.576L194.474 363.137C194.407 363.125 194.339 363.126 194.273 363.141C194.207 363.155 194.144 363.182 194.089 363.221C194.033 363.26 193.986 363.309 193.949 363.366C193.912 363.423 193.887 363.486 193.875 363.553C193.863 363.62 193.865 363.688 193.879 363.754C193.893 363.821 193.921 363.883 193.959 363.939C193.998 363.995 194.047 364.042 194.104 364.079C194.161 364.115 194.224 364.14 194.291 364.152L257.67 375.591C257.8 375.616 257.934 375.589 258.045 375.517C258.156 375.445 258.235 375.333 258.266 375.205C258.297 375.076 258.277 374.941 258.211 374.826C258.144 374.712 258.037 374.627 257.91 374.59Z" fill="white"/>
<path d="M392.202 178.825C392.069 178.812 391.947 178.748 391.861 178.646C391.776 178.544 391.733 178.413 391.744 178.28C392.08 173.765 392.227 169.179 392.183 164.648C392.183 164.581 392.195 164.515 392.22 164.454C392.245 164.392 392.282 164.336 392.328 164.288C392.375 164.241 392.43 164.203 392.491 164.177C392.552 164.151 392.618 164.137 392.685 164.137C392.819 164.137 392.947 164.189 393.043 164.283C393.139 164.377 393.194 164.504 393.197 164.639C393.241 169.197 393.092 173.806 392.753 178.355C392.749 178.423 392.731 178.489 392.7 178.549C392.67 178.609 392.628 178.663 392.576 178.707C392.525 178.751 392.465 178.784 392.401 178.804C392.336 178.824 392.269 178.832 392.202 178.825Z" fill="black"/>
<path d="M392.644 165.149C392.516 165.141 392.396 165.085 392.308 164.992C392.22 164.899 392.17 164.776 392.168 164.648C391.863 138.132 385.166 112.084 372.647 88.716C372.615 88.6574 372.595 88.5932 372.589 88.5271C372.582 88.4609 372.588 88.394 372.607 88.3303C372.626 88.2665 372.658 88.2072 372.699 88.1556C372.741 88.104 372.793 88.0612 372.852 88.0296C372.91 87.998 372.974 87.9782 373.04 87.9714C373.106 87.9646 373.173 87.9709 373.237 87.99C373.3 88.009 373.36 88.0404 373.411 88.0824C373.463 88.1244 373.506 88.1761 373.537 88.2347C386.136 111.747 392.876 137.958 393.182 164.638C393.183 164.705 393.17 164.771 393.145 164.833C393.12 164.895 393.083 164.951 393.037 164.999C392.99 165.046 392.934 165.084 392.873 165.11C392.811 165.136 392.745 165.149 392.679 165.149H392.644Z" fill="black"/>
<path d="M406.533 187.684H406.507C406.441 187.678 406.376 187.658 406.317 187.627C406.257 187.596 406.205 187.553 406.162 187.501C406.12 187.449 406.088 187.389 406.068 187.325C406.049 187.261 406.043 187.193 406.05 187.127C406.297 184.777 406.507 182.394 406.647 180.038C406.656 179.904 406.717 179.778 406.818 179.689C406.919 179.6 407.051 179.555 407.185 179.564C407.319 179.572 407.444 179.634 407.533 179.735C407.622 179.836 407.667 179.968 407.659 180.102C407.508 182.472 407.306 184.871 407.057 187.232C407.042 187.36 406.98 187.477 406.883 187.561C406.786 187.645 406.661 187.688 406.533 187.684Z" fill="black"/>
<path d="M407.136 180.572C407.002 180.563 406.877 180.501 406.788 180.4C406.699 180.299 406.654 180.167 406.662 180.033C408.772 146.381 400.988 112.847 384.27 83.5756C384.237 83.5179 384.216 83.4541 384.207 83.3881C384.199 83.322 384.203 83.2549 384.221 83.1907C384.238 83.1264 384.268 83.0662 384.309 83.0135C384.35 82.9608 384.4 82.9166 384.458 82.8835C384.516 82.8504 384.579 82.829 384.645 82.8205C384.711 82.8121 384.778 82.8167 384.842 82.8341C384.907 82.8516 384.967 82.8815 385.019 82.9222C385.072 82.9629 385.116 83.0137 385.149 83.0714C401.966 112.515 409.797 146.247 407.674 180.097C407.67 180.164 407.653 180.229 407.624 180.289C407.594 180.349 407.554 180.402 407.504 180.446C407.454 180.49 407.395 180.524 407.332 180.546C407.269 180.567 407.203 180.576 407.136 180.572Z" fill="black"/>
<path d="M401.45 205.947C401.441 206.045 401.403 206.137 401.34 206.213L393.189 216.263C393.133 216.331 393.061 216.384 392.98 216.417C392.898 216.45 392.809 216.462 392.722 216.451C392.634 216.441 392.551 216.408 392.48 216.356C392.409 216.304 392.352 216.235 392.314 216.155L386.843 204.379C386.805 204.297 386.79 204.206 386.8 204.116C386.809 204.026 386.843 203.94 386.898 203.868C386.953 203.795 387.027 203.738 387.112 203.703C387.196 203.668 387.288 203.656 387.379 203.669L400.999 205.392C401.09 205.404 401.175 205.439 401.248 205.494C401.321 205.549 401.378 205.622 401.414 205.706C401.446 205.782 401.458 205.865 401.45 205.947ZM392.903 214.977L399.96 206.279L388.169 204.785L392.903 214.977Z" fill="black"/>
<path d="M19.9189 88.3956C19.834 88.3954 19.7505 88.3739 19.6761 88.3329C19.6018 88.292 19.5389 88.2329 19.4933 88.1612C19.4477 88.0896 19.4208 88.0075 19.4152 87.9227C19.4095 87.8379 19.4253 87.7531 19.461 87.676C28.1757 68.7292 43.0229 51.5288 62.398 37.9426C62.5082 37.8657 62.6444 37.8358 62.7766 37.8595C62.9088 37.8831 63.0263 37.9584 63.1031 38.0687C63.1799 38.179 63.2098 38.3154 63.1861 38.4477C63.1625 38.5801 63.0874 38.6977 62.9772 38.7746C43.7532 52.253 29.0227 69.3159 20.3767 88.1C20.3367 88.188 20.2723 88.2627 20.1911 88.3151C20.11 88.3676 20.0155 88.3955 19.9189 88.3956Z" fill="black"/>
<path d="M3.68199 110.435C3.64346 110.432 3.60517 110.427 3.56754 110.418C3.50281 110.403 3.44172 110.376 3.38782 110.337C3.33392 110.298 3.28828 110.249 3.25356 110.192C3.21884 110.135 3.19573 110.072 3.18558 110.006C3.17542 109.941 3.17842 109.873 3.19441 109.809C6.90965 94.293 13.9533 79.4875 24.1582 65.8051C34.7018 51.6483 48.3473 39.0523 64.719 28.3676C64.8317 28.2941 64.9689 28.2683 65.1004 28.296C65.232 28.3238 65.3472 28.4027 65.4207 28.5154C65.4941 28.6282 65.5198 28.7655 65.4921 28.8973C65.4645 29.029 65.3856 29.1443 65.273 29.2179C33.3764 50.0257 11.6779 78.7335 4.17873 110.045C4.15153 110.156 4.08778 110.255 3.99769 110.326C3.90761 110.396 3.79643 110.435 3.68199 110.435Z" fill="black"/>
<path d="M120.625 54.2023C120.497 54.2026 120.374 54.1543 120.28 54.067C120.187 53.9798 120.13 53.8602 120.121 53.7325L119.892 50.627C119.882 50.4945 119.924 50.3632 120.01 50.2616C120.096 50.1599 120.218 50.0961 120.35 50.0839C120.416 50.0782 120.482 50.0856 120.545 50.1056C120.608 50.1256 120.666 50.1578 120.716 50.2004C120.767 50.2429 120.808 50.2951 120.838 50.3537C120.869 50.4124 120.887 50.4765 120.892 50.5422L121.121 53.6477C121.132 53.7803 121.089 53.9116 121.004 54.0132C120.918 54.1148 120.796 54.1786 120.664 54.1909L120.625 54.2023Z" fill="black"/>
<path d="M121.172 61.4352C121.046 61.4357 120.924 61.3889 120.831 61.3041C120.737 61.2192 120.679 61.1024 120.668 60.9768L120.439 57.8713C120.429 57.7385 120.471 57.607 120.557 57.505C120.642 57.403 120.764 57.3387 120.897 57.3259C121.029 57.3151 121.161 57.3572 121.262 57.4431C121.364 57.529 121.428 57.6516 121.439 57.7843L121.668 60.8897C121.678 61.0225 121.636 61.1541 121.551 61.2561C121.465 61.3581 121.343 61.4224 121.21 61.4352H121.172Z" fill="black"/>
<path d="M115.619 56.6607C115.553 56.6633 115.487 56.6527 115.424 56.6296C115.362 56.6065 115.305 56.5714 115.256 56.5261C115.207 56.4809 115.168 56.4265 115.14 56.3661C115.112 56.3056 115.097 56.2402 115.094 56.1737C115.092 56.1072 115.102 56.0408 115.125 55.9784C115.148 55.916 115.183 55.8587 115.229 55.8098C115.274 55.761 115.328 55.7216 115.388 55.6937C115.449 55.6659 115.514 55.6503 115.581 55.6477L118.682 55.4185C118.751 55.4094 118.82 55.4143 118.887 55.433C118.954 55.4518 119.016 55.4839 119.069 55.5274C119.123 55.571 119.167 55.6251 119.199 55.6864C119.232 55.7476 119.251 55.8148 119.256 55.8838C119.262 55.9528 119.253 56.0222 119.23 56.0877C119.208 56.1532 119.172 56.2134 119.126 56.2646C119.08 56.3159 119.023 56.3572 118.96 56.3859C118.897 56.4146 118.829 56.4301 118.76 56.4315L115.658 56.6607H115.619Z" fill="black"/>
<path d="M122.845 56.1112C122.711 56.1161 122.58 56.0674 122.482 55.9758C122.383 55.8843 122.326 55.7574 122.321 55.6231C122.316 55.4887 122.364 55.358 122.456 55.2595C122.547 55.1611 122.674 55.1031 122.808 55.0982L125.91 54.869C125.976 54.8634 126.042 54.8708 126.105 54.8907C126.168 54.9107 126.226 54.9429 126.276 54.9855C126.327 55.0281 126.368 55.0802 126.398 55.1389C126.429 55.1975 126.447 55.2616 126.452 55.3274C126.463 55.4602 126.42 55.5918 126.335 55.6938C126.249 55.7958 126.127 55.8601 125.995 55.8729L122.893 56.1021L122.845 56.1112Z" fill="black"/>
<path d="M127.783 50.0532C127.464 50.0533 127.147 50.0062 126.842 49.9134C126.424 49.7868 126.036 49.5776 125.7 49.2981C125.364 49.0186 125.088 48.6745 124.887 48.2862C124.478 47.5103 124.389 46.6052 124.639 45.7645C124.888 44.9237 125.456 44.214 126.222 43.7872C126.281 43.7555 126.346 43.7357 126.412 43.7291C126.479 43.7224 126.547 43.729 126.611 43.7485C126.675 43.768 126.735 43.7999 126.787 43.8426C126.839 43.8852 126.882 43.9376 126.914 43.9969C126.946 44.0562 126.965 44.1212 126.972 44.1881C126.979 44.255 126.972 44.3226 126.953 44.387C126.933 44.4514 126.901 44.5113 126.859 44.5633C126.816 44.6153 126.764 44.6585 126.705 44.6902C126.174 44.9901 125.781 45.4857 125.61 46.0714C125.439 46.6571 125.503 47.2865 125.789 47.8255C125.928 48.0945 126.119 48.3329 126.351 48.5266C126.584 48.7203 126.852 48.8653 127.142 48.9531C127.422 49.0394 127.716 49.0685 128.008 49.0386C128.299 49.0087 128.581 48.9204 128.838 48.7789C129.369 48.4794 129.762 47.9838 129.934 47.398C130.105 46.8121 130.04 46.1825 129.754 45.6436C129.723 45.5846 129.704 45.5202 129.698 45.4539C129.692 45.3875 129.699 45.3207 129.719 45.2572C129.739 45.1937 129.771 45.1347 129.814 45.0836C129.856 45.0325 129.909 44.9904 129.968 44.9595C130.027 44.9287 130.091 44.9097 130.157 44.9038C130.223 44.8979 130.29 44.9051 130.354 44.925C130.417 44.9449 130.476 44.9771 130.527 45.0198C130.578 45.0625 130.62 45.1148 130.651 45.1738C131.059 45.9494 131.147 46.8539 130.898 47.6942C130.649 48.5344 130.081 49.2436 129.316 49.6704C128.845 49.9242 128.318 50.0558 127.783 50.0532Z" fill="black"/>
<path d="M136.821 68.7545C136.377 68.7566 135.937 68.6685 135.527 68.4956C135.118 68.3227 134.747 68.0685 134.438 67.7484C134.345 67.6514 134.294 67.5214 134.297 67.3869C134.3 67.2523 134.355 67.1243 134.452 67.031C134.549 66.9377 134.679 66.8868 134.813 66.8893C134.948 66.8919 135.076 66.9478 135.169 67.0448C135.597 67.4798 136.179 67.7296 136.789 67.7407C137.399 67.7519 137.989 67.5235 138.433 67.1044C138.655 66.8992 138.834 66.6515 138.959 66.376C139.084 66.1004 139.153 65.8026 139.161 65.5001C139.169 65.2067 139.119 64.9146 139.013 64.641C138.907 64.3674 138.747 64.1179 138.543 63.9072C138.114 63.4728 137.533 63.2233 136.923 63.2122C136.313 63.2011 135.723 63.4291 135.279 63.8476C135.179 63.9277 135.053 63.9669 134.925 63.9576C134.798 63.9482 134.679 63.8909 134.592 63.7971C134.505 63.7034 134.456 63.5801 134.456 63.4522C134.456 63.3242 134.505 63.201 134.592 63.1074C135.231 62.5076 136.079 62.1819 136.954 62.1999C137.83 62.2179 138.664 62.5782 139.278 63.2036C139.575 63.5111 139.807 63.8748 139.962 64.2735C140.116 64.6722 140.189 65.0978 140.177 65.5253C140.165 65.9616 140.065 66.391 139.884 66.7881C139.704 67.1853 139.445 67.5422 139.124 67.8378C138.501 68.4247 137.677 68.7525 136.821 68.7545Z" fill="black"/>
<path d="M75.671 17.9618C75.7572 17.9153 75.8551 17.8954 75.9526 17.9045L88.8288 19.094C88.9165 19.1023 89.0007 19.1328 89.0734 19.1825C89.1462 19.2322 89.2052 19.2996 89.245 19.3783C89.2847 19.457 89.3039 19.5445 89.3008 19.6326C89.2977 19.7208 89.2724 19.8067 89.2271 19.8824L82.4994 30.9841C82.4522 31.0621 82.3846 31.1257 82.3039 31.1681C82.2232 31.2105 82.1326 31.2301 82.0416 31.2248C81.9503 31.2186 81.8622 31.1888 81.7859 31.1381C81.7096 31.0875 81.6479 31.0178 81.6067 30.936L75.4627 18.6448C75.4211 18.5632 75.4019 18.472 75.4071 18.3806C75.4123 18.2892 75.4418 18.2008 75.4924 18.1245C75.5373 18.0561 75.5987 18.0001 75.671 17.9618ZM87.9246 20.0428L76.7812 19.0206L82.1011 29.6594L87.9246 20.0428Z" fill="black"/>
<path d="M270.229 41.1982C279.531 31.8854 279.531 16.7865 270.229 7.47371C260.928 -1.83905 245.847 -1.83906 236.545 7.47369C227.244 16.7864 227.244 31.8854 236.545 41.1982C245.847 50.5109 260.928 50.5109 270.229 41.1982Z" fill="white"/>
<path d="M229.078 24.335C229.078 19.522 230.504 14.8171 233.174 10.8152C235.845 6.81333 239.641 3.69426 244.083 1.8524C248.524 0.0105438 253.411 -0.47137 258.126 0.467601C262.841 1.40657 267.172 3.72425 270.571 7.12756C273.97 10.5309 276.285 14.8669 277.223 19.5875C278.161 24.308 277.679 29.2009 275.84 33.6476C274 38.0942 270.885 41.8948 266.888 44.5688C262.891 47.2427 258.191 48.67 253.384 48.67C246.94 48.6627 240.762 46.0965 236.205 41.5344C231.649 36.9723 229.085 30.7868 229.078 24.335ZM230.053 24.335C230.053 28.9549 231.422 33.471 233.985 37.3123C236.549 41.1537 240.193 44.1476 244.456 45.9155C248.719 47.6835 253.41 48.1461 257.936 47.2448C262.461 46.3435 266.618 44.1188 269.881 40.852C273.144 37.5853 275.366 33.4232 276.266 28.892C277.167 24.3609 276.705 19.6642 274.939 15.396C273.173 11.1278 270.183 7.47966 266.346 4.91298C262.509 2.3463 257.998 0.976344 253.384 0.976344C247.198 0.981806 241.267 3.44463 236.894 7.8241C232.52 12.2036 230.06 18.1418 230.056 24.335H230.053Z" fill="black"/>
<path d="M244.079 21.8671H244.063C243.8 21.7928 243.556 21.662 243.349 21.4838C243.142 21.3056 242.976 21.0843 242.863 20.8353C242.75 20.5863 242.693 20.3156 242.695 20.0422C242.698 19.7687 242.76 19.4991 242.877 19.2521C243.544 17.8423 244.492 16.5837 245.662 15.5535C246.832 14.5234 248.2 13.7433 249.682 13.2611C253.631 12.0098 257.236 12.7478 260.595 15.2642C260.556 14.9846 260.528 14.7577 260.492 14.5308C260.354 13.6851 260.787 12.9953 261.542 12.8601C262.298 12.7249 262.964 13.213 263.101 14.061C263.417 16.0381 263.722 18.0175 264.017 19.9992C264.186 21.1451 262.872 22.0848 261.767 21.0856C260.833 20.2399 259.478 20.1482 258.333 20.7051C256.96 21.3789 255.95 20.6616 256.044 19.5248C256.052 19.3547 256.094 19.188 256.168 19.0348C256.242 18.8816 256.347 18.745 256.475 18.6334C256.604 18.5217 256.753 18.4373 256.915 18.3853C257.077 18.3333 257.248 18.3147 257.417 18.3307L258.299 18.4018C257.681 17.3292 254.773 16.3093 252.805 16.4491C251.419 16.5418 250.084 17.0023 248.935 17.7834C247.786 18.5645 246.866 19.6378 246.269 20.893C246.077 21.2875 245.752 21.6014 245.351 21.7795C244.95 21.9577 244.5 21.9887 244.079 21.8671Z" fill="black"/>
<path d="M245.959 33.1829C246.002 33.4854 246.046 33.7444 246.078 34.0056C246.109 34.1812 246.105 34.3614 246.065 34.5353C246.026 34.7093 245.952 34.8736 245.848 35.0184C245.744 35.1633 245.612 35.2859 245.46 35.3788C245.308 35.4717 245.139 35.5332 244.963 35.5595C244.79 35.5887 244.614 35.5824 244.444 35.5411C244.274 35.4998 244.114 35.4243 243.975 35.3193C243.835 35.2142 243.718 35.0818 243.631 34.93C243.544 34.7783 243.488 34.6104 243.468 34.4365C243.138 32.4174 242.82 30.396 242.527 28.3723C242.496 28.1422 242.528 27.908 242.619 27.6947C242.711 27.4813 242.859 27.2969 243.047 27.1611C243.235 27.0253 243.456 26.9432 243.687 26.9236C243.918 26.904 244.15 26.9477 244.359 27.0498C245.715 27.7194 247.265 27.8819 248.731 27.5082C249.843 27.2332 250.585 27.9116 250.5 28.8994C250.468 29.2356 250.307 29.5462 250.051 29.766C249.795 29.9857 249.463 30.0973 249.127 30.0774C248.822 30.0503 248.517 30.0419 248.211 30.0522C250.402 31.8696 252.874 32.4541 255.596 31.5969C256.653 31.2836 257.628 30.7391 258.45 30.0027C259.272 29.2663 259.92 28.3564 260.348 27.3386C260.496 26.9957 260.763 26.718 261.1 26.557C261.436 26.396 261.82 26.3627 262.179 26.4631L262.85 26.6465C263.061 26.7059 263.257 26.8096 263.425 26.9507C263.592 27.0917 263.728 27.2669 263.823 27.4646C263.918 27.6623 263.97 27.8779 263.976 28.0972C263.981 28.3165 263.94 28.5345 263.855 28.7367C262.887 31.1432 261.086 33.1207 258.782 34.3082C254.323 36.6527 250.047 36.121 245.959 33.1829Z" fill="black"/>
<path d="M310.199 60.0349C317.278 52.9481 317.278 41.4581 310.199 34.3713C303.121 27.2845 291.645 27.2845 284.566 34.3713C277.488 41.4581 277.488 52.9481 284.566 60.035C291.645 67.1218 303.121 67.1218 310.199 60.0349Z" fill="white"/>
<path d="M278.891 47.2136C278.891 43.551 279.975 39.9707 282.008 36.9254C284.04 33.8801 286.929 31.5065 290.309 30.1049C293.688 28.7033 297.407 28.3366 300.995 29.0511C304.583 29.7657 307.879 31.5294 310.465 34.1192C313.052 36.709 314.814 40.0086 315.527 43.6008C316.241 47.193 315.875 50.9164 314.475 54.3002C313.075 57.6839 310.704 60.5761 307.663 62.6109C304.621 64.6457 301.045 65.7318 297.387 65.7318C292.483 65.7263 287.782 63.7735 284.314 60.3019C280.847 56.8302 278.896 52.1232 278.891 47.2136ZM279.635 47.2136C279.635 50.7293 280.676 54.1662 282.627 57.0894C284.578 60.0127 287.351 62.291 290.595 63.6363C293.84 64.9817 297.409 65.3336 300.854 64.6475C304.298 63.9614 307.461 62.2682 309.944 59.782C312.427 57.2958 314.118 54.1283 314.803 50.68C315.487 47.2317 315.135 43.6576 313.791 40.4095C312.447 37.1615 310.171 34.3855 307.251 32.4325C304.331 30.4796 300.898 29.4374 297.387 29.4379C292.68 29.4433 288.167 31.318 284.839 34.6504C281.511 37.9829 279.639 42.501 279.635 47.2136Z" fill="black"/>
<path d="M297.371 55.572C296.95 55.2282 296.531 54.8845 296.117 54.5476C294.875 53.5447 293.699 52.4614 292.599 51.3046C291.683 50.3704 290.919 49.2986 290.335 48.1281C290.016 47.4777 289.832 46.7701 289.792 46.0471C289.733 44.4198 290.554 42.3342 292.919 41.8782C294.343 41.6031 295.645 41.8782 296.673 42.9783C296.932 43.2864 297.173 43.6085 297.397 43.9431L297.47 43.8194C297.992 42.9026 298.71 42.2151 299.759 41.9148C301.288 41.4725 303.728 42.0386 304.626 44.0302C305.122 45.1326 305.083 46.251 304.719 47.3763C304.319 48.4924 303.724 49.5283 302.961 50.436C301.78 51.869 300.447 53.1706 298.987 54.3184C298.509 54.708 298.017 55.0793 297.529 55.4643C297.483 55.4941 297.433 55.5285 297.371 55.572Z" fill="black"/>
</g>
<defs>
<clipPath id="clip0_14003_5679">
<rect width="408.019" height="410" fill="white"/>
</clipPath>
</defs>
</svg>
