<?xml version="1.0" encoding="utf-8"?>
<!-- Generator: Adobe Illustrator 24.1.2, SVG Export Plug-In . SVG Version: 6.00 Build 0)  -->
<svg version="1.1" id="Layer_1" xmlns="http://www.w3.org/2000/svg" xmlns:xlink="http://www.w3.org/1999/xlink" x="0px" y="0px"
	 viewBox="0 0 791 305" style="enable-background:new 0 0 791 305;" xml:space="preserve">
<style type="text/css">
	.st0{clip-path:url(#SVGID_2_);}
	.st1{fill:#F5F5F5;}
	.st2{fill:#FFFFFF;}
</style>
<g>
	<g>
		<defs>
			<rect id="SVGID_1_" width="791" height="305"/>
		</defs>
		<clipPath id="SVGID_2_">
			<use xlink:href="#SVGID_1_"  style="overflow:visible;"/>
		</clipPath>
		<g class="st0">
			<path class="st1" d="M446.4,104.5H752c5.4,0,9.8,4.4,9.8,9.8v161.5c0,2.2-1.8,3.9-3.9,3.9H442.4c-3.1,0-5.6-2.5-5.6-5.6v-160
				C436.7,108.8,441,104.5,446.4,104.5L446.4,104.5z"/>
			<path d="M757.8,280.1H442.4c-3.3,0-6-2.7-6-6.1V114.1c0-5.6,4.5-10.1,10.1-10.1h305.6c5.6,0,10.2,4.6,10.2,10.2v161.5
				C762.2,278.2,760.2,280.1,757.8,280.1L757.8,280.1z M446.4,104.9c-5.1,0-9.2,4.1-9.2,9.2V274c0,2.9,2.3,5.2,5.2,5.2h315.4
				c1.9,0,3.5-1.6,3.5-3.5V114.3c0-5.2-4.2-9.4-9.4-9.4L446.4,104.9L446.4,104.9z"/>
			<path class="st1" d="M721.7,173.8H705c-0.8,0-1.4,0.6-1.4,1.4v25.6c0,0.8,0.6,1.4,1.4,1.4h16.7c0.8,0,1.4-0.6,1.4-1.4v-25.6
				C723.1,174.5,722.5,173.8,721.7,173.8z"/>
			<path d="M721.7,202.7H705c-1,0-1.8-0.8-1.8-1.8v-25.6c0-1,0.8-1.8,1.8-1.8h16.7c1,0,1.8,0.8,1.8,1.8v25.6
				C723.5,201.9,722.7,202.7,721.7,202.7z M705,174.3c-0.5,0-1,0.4-1,1v25.6c0,0.5,0.4,1,1,1h16.7c0.5,0,1-0.4,1-1v-25.6
				c0-0.5-0.4-1-1-1H705z"/>
			<path class="st1" d="M744.4,173.8H728c-0.8,0-1.5,0.7-1.5,1.5v25.3c0,0.8,0.7,1.5,1.5,1.5h16.4c0.8,0,1.5-0.7,1.5-1.5v-25.3
				C746,174.5,745.3,173.8,744.4,173.8z"/>
			<path class="st1" d="M704.6,205.4h17.5c0.5,0,1,0.4,1,1v26.4c0,0.5-0.4,1-1,1h-17.5c-0.5,0-1-0.4-1-1v-26.4
				C703.6,205.8,704.1,205.4,704.6,205.4z"/>
			<path d="M722.1,234.2h-17.5c-0.8,0-1.4-0.6-1.4-1.4v-26.4c0-0.8,0.6-1.4,1.4-1.4h17.5c0.8,0,1.4,0.6,1.4,1.4v26.4
				C723.5,233.6,722.9,234.2,722.1,234.2z M704.6,205.8c-0.3,0-0.6,0.3-0.6,0.6v26.4c0,0.3,0.3,0.6,0.6,0.6h17.5
				c0.3,0,0.6-0.3,0.6-0.6v-26.4c0-0.3-0.2-0.6-0.6-0.6L704.6,205.8L704.6,205.8z"/>
			<path class="st1" d="M744.4,205.4H728c-0.9,0-1.6,0.7-1.6,1.6v25.3c0,0.9,0.7,1.6,1.6,1.6h16.4c0.9,0,1.6-0.7,1.6-1.6V207
				C746,206.1,745.3,205.4,744.4,205.4z"/>
			<path d="M565.8,113.9l-141-0.7c-2,0-3.3-2.1-2.4-3.9l41.4-56.6c0.9-1.2,2.4-2,3.9-1.9c16.6,0.3,114.1-2.4,114.1-2.4L565.8,113.9
				L565.8,113.9z"/>
			<path d="M635,113.4l141-0.7c2,0,3.3-2.1,2.4-3.9L737,52.2c-0.9-1.2-2.4-2-3.9-1.9C716.5,50.6,619,47.9,619,47.9L635,113.4
				L635,113.4z"/>
			<path class="st1" d="M472.6,201.8h16.7c0.8,0,1.4-0.6,1.4-1.4v-25.6c0-0.8-0.6-1.4-1.4-1.4h-16.7c-0.8,0-1.4,0.6-1.4,1.4v25.6
				C471.2,201.1,471.8,201.8,472.6,201.8z"/>
			<path class="st1" d="M449.9,201.8h16.4c0.8,0,1.5-0.7,1.5-1.5V175c0-0.8-0.7-1.5-1.5-1.5h-16.4c-0.8,0-1.5,0.7-1.5,1.5v25.3
				C448.3,201.1,449,201.8,449.9,201.8z"/>
			<path d="M466.3,202.2h-16.4c-1.1,0-2-0.9-2-2v-25.3c0-1.1,0.9-2,2-2h16.4c1.1,0,2,0.9,2,2v25.3
				C468.3,201.3,467.4,202.2,466.3,202.2z M449.9,173.8c-0.6,0-1.1,0.5-1.1,1.1v25.3c0,0.6,0.5,1.1,1.1,1.1h16.4
				c0.6,0,1.1-0.5,1.1-1.1v-25.3c0-0.6-0.5-1.1-1.1-1.1H449.9z"/>
			<path class="st1" d="M472.2,233.3h17.5c0.5,0,1-0.4,1-1v-26.4c0-0.5-0.4-1-1-1h-17.5c-0.5,0-1,0.4-1,1v26.4
				C471.2,232.9,471.6,233.3,472.2,233.3z"/>
			<path class="st1" d="M449.9,233.3h16.4c0.9,0,1.6-0.7,1.6-1.6v-25.2c0-0.9-0.7-1.6-1.6-1.6h-16.4c-0.9,0-1.6,0.7-1.6,1.6v25.3
				C448.3,232.6,449,233.3,449.9,233.3z"/>
			<path d="M466.3,233.7h-16.4c-1.1,0-2-0.9-2-2v-25.2c0-1.1,0.9-2,2-2h16.4c1.1,0,2,0.9,2,2v25.3
				C468.3,232.8,467.4,233.7,466.3,233.7z M449.9,205.3c-0.6,0-1.1,0.5-1.1,1.1v25.3c0,0.6,0.5,1.1,1.1,1.1h16.4
				c0.6,0,1.1-0.5,1.1-1.1v-25.2c0-0.6-0.5-1.1-1.1-1.1L449.9,205.3L449.9,205.3z"/>
			<path class="st1" d="M504,274.2l-1-178.5l94.7-48.3l92.8,50l0.7,180.4c-0.1,2.4-6.7,3.6-9,3.6L509,279.7
				C506.2,279.7,504,277.2,504,274.2L504,274.2z"/>
			<path d="M682.3,281.8C682.2,281.8,682.2,281.8,682.3,281.8L509,280.1c-3,0-5.4-2.7-5.5-5.9l-1-178.5c0-0.2,0.1-0.3,0.2-0.4
				L597.4,47c0.1-0.1,0.3-0.1,0.4,0l92.8,50c0.1,0.1,0.2,0.2,0.2,0.4l0.7,180.4C691.6,280.8,684.2,281.8,682.3,281.8L682.3,281.8z
				 M503.4,96l1,178.2c0,2.8,2.1,5.1,4.6,5.1l173.2,1.6c2.4,0,8.5-1.2,8.5-3.1L690,97.7l-92.4-49.8L503.4,96L503.4,96z"/>
			<path class="st1" d="M659.7,201.8h16.7c0.8,0,1.4-0.6,1.4-1.4v-25.6c0-0.8-0.6-1.4-1.4-1.4h-16.7c-0.8,0-1.4,0.6-1.4,1.4v25.6
				C658.3,201.2,658.9,201.8,659.7,201.8z"/>
			<path d="M676.4,202.2h-16.7c-1,0-1.8-0.8-1.8-1.8v-25.6c0-1,0.8-1.8,1.8-1.8h16.7c1,0,1.8,0.8,1.8,1.8v25.6
				C678.2,201.4,677.4,202.2,676.4,202.2z M659.7,173.9c-0.5,0-1,0.4-1,1v25.6c0,0.5,0.4,1,1,1h16.7c0.5,0,1-0.4,1-1v-25.6
				c0-0.5-0.4-1-1-1H659.7z"/>
			<path class="st1" d="M637,201.8h16.4c0.8,0,1.5-0.7,1.5-1.5V175c0-0.8-0.7-1.5-1.5-1.5H637c-0.8,0-1.5,0.7-1.5,1.5v25.3
				C635.5,201.1,636.1,201.8,637,201.8z"/>
			<path d="M653.4,202.2H637c-1.1,0-2-0.9-2-2v-25.3c0-1.1,0.9-2,2-2h16.4c1.1,0,2,0.9,2,2v25.3
				C655.4,201.3,654.5,202.2,653.4,202.2z M637,173.9c-0.6,0-1.1,0.5-1.1,1.1v25.3c0,0.6,0.5,1.1,1.1,1.1h16.4
				c0.6,0,1.1-0.5,1.1-1.1V175c0-0.6-0.5-1.1-1.1-1.1H637z"/>
			<path class="st1" d="M676.8,233.3h-17.5c-0.5,0-1-0.4-1-1v-26.4c0-0.5,0.4-1,1-1h17.5c0.5,0,1,0.4,1,1v26.4
				C677.8,232.8,677.4,233.3,676.8,233.3z"/>
			<path d="M676.8,233.7h-17.5c-0.8,0-1.4-0.6-1.4-1.4v-26.4c0-0.8,0.6-1.4,1.4-1.4h17.5c0.8,0,1.4,0.6,1.4,1.4v26.4
				C678.3,233.1,677.6,233.7,676.8,233.7z M659.3,205.4c-0.3,0-0.6,0.3-0.6,0.6v26.4c0,0.3,0.3,0.6,0.6,0.6h17.5
				c0.3,0,0.6-0.3,0.6-0.6V206c0-0.3-0.3-0.6-0.6-0.6H659.3z"/>
			<path class="st1" d="M637,233.3h16.4c0.9,0,1.6-0.7,1.6-1.6v-25.2c0-0.9-0.7-1.6-1.6-1.6H637c-0.9,0-1.6,0.7-1.6,1.6v25.2
				C635.5,232.6,636.2,233.3,637,233.3z"/>
			<path d="M653.4,233.7H637c-1.1,0-2-0.9-2-2v-25.2c0-1.1,0.9-2,2-2h16.4c1.1,0,2,0.9,2,2v25.2
				C655.4,232.8,654.5,233.7,653.4,233.7z M637,205.4c-0.6,0-1.1,0.5-1.1,1.1v25.2c0,0.6,0.5,1.1,1.1,1.1h16.4
				c0.6,0,1.1-0.5,1.1-1.1v-25.2c0-0.6-0.5-1.1-1.1-1.1H637z"/>
			<path class="st1" d="M616,87.5h-16.7c-0.8,0-1.4,0.6-1.4,1.4v20.2c0,0.8,0.6,1.4,1.4,1.4H616c0.8,0,1.4-0.6,1.4-1.4V88.9
				C617.4,88.1,616.8,87.5,616,87.5z"/>
			<path d="M616,110.9h-16.7c-1,0-1.8-0.8-1.8-1.8V88.9c0-1,0.8-1.8,1.8-1.8H616c1,0,1.8,0.8,1.8,1.8v20.2
				C617.8,110.1,617,110.9,616,110.9z M599.3,87.9c-0.5,0-1,0.4-1,1v20.2c0,0.5,0.4,1,1,1H616c0.5,0,1-0.4,1-1V88.9c0-0.5-0.4-1-1-1
				H599.3z"/>
			<path class="st1" d="M593,87.5h-16.4c-0.8,0-1.5,0.7-1.5,1.5v19.9c0,0.8,0.7,1.5,1.5,1.5H593c0.8,0,1.5-0.7,1.5-1.5V89
				C594.5,88.2,593.8,87.5,593,87.5z"/>
			<path class="st1" d="M598.9,113h17.5c0.5,0,1,0.4,1,1v21c0,0.5-0.4,1-1,1h-17.5c-0.5,0-1-0.4-1-1v-21
				C597.9,113.5,598.3,113,598.9,113z"/>
			<path d="M616.4,136.4h-17.5c-0.8,0-1.4-0.6-1.4-1.4v-21c0-0.8,0.6-1.4,1.4-1.4h17.5c0.8,0,1.4,0.6,1.4,1.4v21
				C617.8,135.7,617.2,136.4,616.4,136.4z M598.9,113.4c-0.3,0-0.6,0.3-0.6,0.6v21c0,0.3,0.3,0.6,0.6,0.6h17.5
				c0.3,0,0.6-0.3,0.6-0.6v-21c0-0.3-0.3-0.6-0.6-0.6H598.9z"/>
			<path class="st1" d="M592.9,113h-16.4c-0.9,0-1.6,0.7-1.6,1.6v19.8c0,0.9,0.7,1.6,1.6,1.6h16.4c0.9,0,1.6-0.7,1.6-1.6v-19.8
				C594.5,113.7,593.8,113,592.9,113z"/>
			<path class="st1" d="M556.6,173.3h-16.7c-0.8,0-1.4,0.6-1.4,1.4v25.6c0,0.8,0.6,1.4,1.4,1.4h16.7c0.8,0,1.4-0.6,1.4-1.4v-25.6
				C558,174,557.3,173.3,556.6,173.3z"/>
			<path d="M556.6,202.2h-16.7c-1,0-1.8-0.8-1.8-1.8v-25.6c0-1,0.8-1.8,1.8-1.8h16.7c1,0,1.8,0.8,1.8,1.8v25.6
				C558.4,201.4,557.6,202.2,556.6,202.2z M539.9,173.8c-0.5,0-1,0.4-1,1v25.6c0,0.5,0.4,1,1,1h16.7c0.5,0,1-0.4,1-1v-25.6
				c0-0.5-0.4-1-1-1H539.9z"/>
			<path class="st1" d="M533.6,173.3h-16.4c-0.8,0-1.5,0.7-1.5,1.5v25.3c0,0.8,0.7,1.5,1.5,1.5h16.4c0.8,0,1.5-0.7,1.5-1.5v-25.3
				C535.1,174,534.4,173.3,533.6,173.3z"/>
			<path d="M533.6,202.2h-16.4c-1.1,0-2-0.9-2-2v-25.3c0-1.1,0.9-2,2-2h16.4c1.1,0,2,0.9,2,2v25.3
				C535.5,201.3,534.7,202.2,533.6,202.2z M517.1,173.8c-0.6,0-1.1,0.5-1.1,1.1v25.3c0,0.6,0.5,1.1,1.1,1.1h16.4
				c0.6,0,1.1-0.5,1.1-1.1v-25.3c0-0.6-0.5-1.1-1.1-1.1H517.1z"/>
			<path class="st1" d="M557,204.9h-17.5c-0.5,0-1,0.4-1,1v26.4c0,0.5,0.4,1,1,1H557c0.5,0,1-0.4,1-1v-26.4
				C558,205.3,557.5,204.9,557,204.9z"/>
			<path d="M557,233.7h-17.5c-0.8,0-1.4-0.6-1.4-1.4v-26.4c0-0.8,0.6-1.4,1.4-1.4H557c0.8,0,1.4,0.6,1.4,1.4v26.4
				C558.4,233.1,557.8,233.7,557,233.7z M539.5,205.3c-0.3,0-0.6,0.3-0.6,0.6v26.4c0,0.3,0.3,0.6,0.6,0.6H557c0.3,0,0.6-0.3,0.6-0.6
				v-26.4c0-0.3-0.3-0.6-0.6-0.6L539.5,205.3L539.5,205.3z"/>
			<path class="st1" d="M533.5,204.9h-16.4c-0.9,0-1.6,0.7-1.6,1.6v25.3c0,0.9,0.7,1.6,1.6,1.6h16.4c0.9,0,1.6-0.7,1.6-1.6v-25.3
				C535.1,205.6,534.4,204.9,533.5,204.9z"/>
			<path d="M533.5,233.7h-16.4c-1.1,0-2-0.9-2-2v-25.2c0-1.1,0.9-2,2-2h16.4c1.1,0,2,0.9,2,2v25.3
				C535.5,232.8,534.6,233.7,533.5,233.7z M517.2,205.3c-0.6,0-1.1,0.5-1.1,1.1v25.3c0,0.6,0.5,1.1,1.1,1.1h16.4
				c0.6,0,1.1-0.5,1.1-1.1v-25.2c0-0.6-0.5-1.1-1.1-1.1L517.2,205.3L517.2,205.3z"/>
			<path d="M599,35.6l99.5,53.2c2.1,1.1,2.5,3.4,0.9,4.9l-8.4,7.7l-92.7-47.7c-0.6-0.3-1.3-0.3-1.9,0l-94.5,47.8l-5.4-6.5
				c-2.2-2.7-1.3-6.2,2.1-8l97.1-51.5C596.6,35.1,598,35.1,599,35.6z"/>
			<path class="st1" d="M501.8,102c-0.1,0-0.2-0.1-0.3-0.2l-5.4-6.5c-1.1-1.3-1.5-2.9-1.2-4.4c0.3-1.7,1.6-3.3,3.4-4.2l97.1-51.5
				c1.2-0.6,2.6-0.6,3.8,0l99.5,53.2c1.2,0.6,1.9,1.6,2.1,2.8c0.1,1.1-0.3,2.1-1.1,2.9l-8.4,7.7c-0.1,0.1-0.3,0.1-0.5,0.1L598,54.2
				c-0.5-0.2-1.1-0.2-1.5,0L502,102C502,102,501.9,102,501.8,102L501.8,102z M597.3,35.7c-0.5,0-1,0.1-1.5,0.4l-97.1,51.4
				c-1.6,0.8-2.7,2.2-3,3.6c-0.2,1.3,0.1,2.6,1,3.7l5.2,6.2l94.2-47.6c0.7-0.4,1.6-0.4,2.3,0l92.4,47.5l8.1-7.5
				c0.7-0.6,1-1.4,0.9-2.1c-0.1-0.8-0.7-1.6-1.6-2.1L598.7,36C598.3,35.8,597.8,35.7,597.3,35.7L597.3,35.7z"/>
			<path d="M507.7,151.9c-0.2,0-0.4-0.2-0.4-0.4s0.2-0.4,0.4-0.4l178.2-0.3c0.2,0,0.4,0.2,0.4,0.4s-0.2,0.4-0.4,0.4L507.7,151.9z"/>
			<path d="M620,281.1h-46.7c-1.4,0-2.6-1.2-2.6-2.6v-102c0-1.4,1.2-2.6,2.6-2.6H620c1.4,0,2.6,1.2,2.6,2.6v102
				C622.6,279.9,621.4,281.1,620,281.1z"/>
			<path class="st1" d="M575.1,277.3H618c1,0,1.7-0.8,1.7-1.7v-97c0-1-0.8-1.7-1.7-1.7h-42.9c-1,0-1.7,0.8-1.7,1.7v97
				C573.3,276.5,574.1,277.3,575.1,277.3z"/>
			<path d="M618,277.8h-42.9c-1.2,0-2.2-1-2.2-2.2v-97c0-1.2,1-2.2,2.2-2.2H618c1.2,0,2.2,1,2.2,2.2v97
				C620.2,276.8,619.2,277.8,618,277.8z M575.1,177.3c-0.7,0-1.3,0.6-1.3,1.3v97c0,0.7,0.6,1.3,1.3,1.3H618c0.7,0,1.3-0.6,1.3-1.3
				v-97c0-0.7-0.6-1.3-1.3-1.3H575.1z"/>
			<path class="st1" d="M564.2,283.2H629c0.7,0,1.2-0.6,1.2-1.2v-6.9c0-0.7-0.6-1.2-1.2-1.2h-64.8c-0.7,0-1.2,0.6-1.2,1.2v6.9
				C562.9,282.6,563.5,283.2,564.2,283.2z"/>
			<path d="M628.9,283.6h-64.8c-0.9,0-1.7-0.8-1.7-1.7V275c0-0.9,0.7-1.7,1.7-1.7h64.8c0.9,0,1.7,0.8,1.7,1.7v6.9
				C630.6,282.9,629.9,283.6,628.9,283.6z M564.2,274.2c-0.4,0-0.8,0.4-0.8,0.8v6.9c0,0.4,0.4,0.8,0.8,0.8H629
				c0.4,0,0.8-0.4,0.8-0.8V275c0-0.4-0.4-0.8-0.8-0.8H564.2z"/>
			<path d="M582.6,209c-0.1,0-0.3-0.1-0.4-0.2c-0.1-0.2-0.1-0.5,0.1-0.6l30.1-19.4c0.2-0.1,0.5-0.1,0.6,0.1c0.1,0.2,0.1,0.5-0.1,0.6
				l-30.1,19.4C582.8,209,582.7,209,582.6,209z"/>
			<path d="M581.4,222c-0.1,0-0.3-0.1-0.4-0.2c-0.1-0.2-0.1-0.5,0.1-0.6l28-18c0.2-0.1,0.5-0.1,0.6,0.1c0.1,0.2,0.1,0.5-0.1,0.6
				l-28,18C581.6,222,581.5,222,581.4,222z"/>
			<path class="st2" d="M747,188.2c-0.4,0-0.7-0.3-0.7-0.6l-1.3-7c-0.5-1.9-2.1-3.3-4.1-3.8l-2.1-0.4c-0.4-0.1-0.7-0.5-0.6-0.9
				c0.1-0.4,0.5-0.7,0.9-0.6l2.1,0.4c2.5,0.5,4.5,2.4,5.2,4.9l1.3,7.1C747.8,187.7,747.5,188.1,747,188.2
				C747.1,188.2,747,188.2,747,188.2L747,188.2z"/>
			<path d="M714.5,128.4c-0.7,0-1.4,0-2-0.1c-0.4,0-0.7-0.4-0.7-0.8c0-0.4,0.4-0.7,0.8-0.7c10.5,1.1,27.2-8.1,38.2-16.3
				c0.3-0.2,0.8-0.2,1,0.2c0.2,0.3,0.2,0.8-0.2,1C740.7,119.9,725.4,128.4,714.5,128.4L714.5,128.4z"/>
			<path d="M729.1,101.8c-0.6,0-1.2-0.1-1.7-0.2c-9.5-2.3-7.3-14.3-7.3-14.4c0.1-0.4,0.5-0.7,0.9-0.6c0.4,0.1,0.7,0.5,0.6,0.9
				c-0.1,0.4-2,10.7,6.2,12.6c4.9,1.2,18.4-5.1,18.6-5.2c0.4-0.2,0.8,0,1,0.4s0,0.8-0.4,1C746.4,96.6,735.3,101.8,729.1,101.8
				L729.1,101.8z"/>
			<path class="st2" d="M711.3,156.3c-40,0-72.5-32.6-72.5-72.7s32.6-72.7,72.5-72.7s72.5,32.6,72.5,72.7S751.3,156.3,711.3,156.3z"
				/>
			<path d="M711.3,148.2c-35.5,0-64.4-29-64.4-64.6S675.8,19,711.3,19s64.4,29,64.4,64.6S746.8,148.2,711.3,148.2z M711.3,23.1
				c-33.3,0-60.5,27.2-60.5,60.6s27.1,60.6,60.5,60.6s60.5-27.2,60.5-60.6S744.6,23.1,711.3,23.1z"/>
			<path d="M711.6,115.1c-0.6,0.3-1.4,0.4-2,0.1c-5.5-3.1-31.1-18.5-30.1-38.6c1-21.3,24.2-17.6,29.9-7.1c0.2,0.4,0.6,0.6,1.1,0.6
				c0.4,0,0.9-0.3,1-0.7c2.8-6.8,11.9-11.6,20.4-8.4C742,64.7,752.4,89.9,711.6,115.1L711.6,115.1z"/>
			<path d="M360.6,261.7c-0.7,0.4-1.7,0.5-2.4,0.1c-6.6-3.7-37.1-22.1-35.9-46.1c1.2-25.4,28.8-21,35.7-8.5c0.2,0.5,0.7,0.7,1.3,0.7
				c0.5,0,1-0.4,1.2-0.8c3.3-8.1,14.2-13.8,24.3-10C396.8,201.6,409.1,231.7,360.6,261.7L360.6,261.7z"/>
			<path d="M251.6,166.5c-0.5,0.3-1.2,0.4-1.8,0.1c-5-2.8-28-16.7-27-34.7c0.9-19.2,21.7-15.8,26.9-6.4c0.2,0.4,0.5,0.5,1,0.5
				c0.4,0,0.8-0.3,0.9-0.6c2.5-6.1,10.7-10.4,18.3-7.6C278.9,121.1,288.2,143.8,251.6,166.5L251.6,166.5z"/>
			<path d="M157.4,210.7c-0.4,0.2-0.9,0.3-1.3,0.1c-3.6-2-20-11.9-19.4-24.9c0.7-13.7,15.6-11.3,19.3-4.6c0.1,0.3,0.4,0.4,0.7,0.4
				c0.3,0,0.6-0.2,0.7-0.4c1.8-4.4,7.6-7.5,13.1-5.4C177,178.2,183.7,194.5,157.4,210.7L157.4,210.7z"/>
			<path d="M100,118.2c-0.4,0.2-0.8,0.3-1.2,0.1c-3.2-1.8-18-10.7-17.4-22.3c0.6-12.3,14-10.2,17.3-4.1c0.1,0.3,0.4,0.4,0.7,0.4
				c0.3,0,0.5-0.2,0.6-0.4c1.6-3.9,6.9-6.7,11.8-4.9C117.5,89.1,123.5,103.6,100,118.2L100,118.2z"/>
			<path d="M26.5,156.1c-0.3,0.1-0.6,0.2-0.9,0c-2.4-1.3-13.3-7.9-12.9-16.5c0.4-9.1,10.3-7.5,12.8-3c0.1,0.2,0.3,0.3,0.5,0.3
				c0.2,0,0.4-0.1,0.4-0.3c1.2-2.9,5.1-5,8.7-3.6C39.5,134.5,43.9,145.3,26.5,156.1L26.5,156.1z"/>
		</g>
	</g>
</g>
</svg>
